<?xml version="1.0" encoding="UTF-8" standalone="no"?>
<!DOCTYPE svg PUBLIC "-//W3C//DTD SVG 1.1//EN" "http://www.w3.org/Graphics/SVG/1.1/DTD/svg11.dtd">
<svg xmlns="http://www.w3.org/2000/svg" version="1.1" viewBox="0.00 0.00 920.00 920.00">
<path  d="
  M 823.39 563.73
  C 823.26 564.59 822.70 565.13 822.44 565.97
  Q 817.67 580.97 813.02 594.41
  Q 802.54 624.70 786.31 651.49
  Q 761.87 691.85 727.31 725.62
  C 721.04 731.75 714.14 737.35 707.87 743.58
  A 1.17 1.16 -49.8 0 1 706.39 743.71
  C 692.11 733.77 678.09 723.07 659.88 721.23
  Q 626.87 717.89 603.46 740.94
  Q 591.02 753.17 586.15 772.74
  C 585.22 776.48 585.07 781.01 585.07 784.96
  Q 585.05 797.95 586.87 811.97
  Q 587.02 813.15 585.88 813.47
  Q 571.88 817.37 559.85 820.71
  Q 545.77 824.62 522.50 828.67
  Q 477.08 836.57 428.26 832.64
  Q 391.46 829.68 355.97 819.54
  Q 344.89 816.37 334.09 813.52
  A 1.37 1.36 11.4 0 1 333.08 812.01
  Q 334.99 798.52 334.92 785.13
  Q 334.87 775.26 331.81 766.29
  Q 324.02 743.44 304.69 731.49
  Q 300.39 728.83 293.84 726.31
  C 278.41 720.34 262.17 719.61 246.70 725.00
  Q 240.97 726.99 234.19 731.13
  Q 224.66 736.96 213.77 744.58
  A 1.51 1.50 -39.6 0 1 211.83 744.40
  C 201.65 733.97 190.50 724.06 180.65 713.58
  Q 153.66 684.87 134.36 653.27
  Q 115.60 622.53 103.26 588.55
  C 99.02 576.88 95.08 564.68 91.97 552.30
  Q 88.67 539.21 86.19 528.95
  Q 86.03 528.30 86.64 528.02
  Q 101.42 521.19 112.18 515.17
  Q 125.23 507.86 133.43 494.66
  Q 147.09 472.70 142.43 447.72
  Q 140.63 438.12 135.27 428.38
  Q 126.13 411.78 107.63 402.31
  Q 96.98 396.86 86.56 391.86
  Q 86.05 391.62 86.19 391.07
  Q 88.62 381.48 90.84 372.18
  Q 99.51 335.95 116.43 300.40
  Q 136.33 258.60 168.84 219.60
  Q 173.42 214.11 182.30 204.73
  Q 188.93 197.72 196.50 190.67
  Q 204.72 183.01 212.01 175.41
  A 1.24 1.24 0.0 0 1 213.62 175.26
  Q 224.57 182.99 234.02 188.80
  Q 252.17 199.96 272.15 198.87
  Q 282.86 198.28 291.54 195.09
  Q 320.53 184.44 331.35 155.04
  C 333.41 149.44 334.73 142.16 334.86 136.02
  Q 335.14 122.52 333.10 107.82
  A 1.22 1.22 0.0 0 1 334.01 106.47
  C 345.18 103.70 356.40 100.02 367.31 97.38
  Q 456.80 75.75 544.79 95.56
  Q 554.18 97.67 564.62 100.61
  Q 575.25 103.60 586.17 106.56
  Q 586.83 106.74 586.77 107.43
  C 585.90 116.91 584.99 126.20 585.12 135.76
  Q 585.22 143.62 587.01 150.15
  C 593.67 174.54 612.77 192.40 637.49 197.61
  C 654.37 201.17 671.41 197.75 686.17 188.67
  Q 696.43 182.36 706.40 175.28
  Q 707.27 174.66 708.01 175.42
  C 717.75 185.26 729.16 195.65 737.57 204.59
  Q 801.54 272.61 826.79 362.69
  C 829.16 371.14 831.41 381.64 833.78 391.09
  Q 833.90 391.54 833.48 391.75
  Q 823.54 396.78 814.13 401.24
  C 794.64 410.48 781.21 427.63 777.36 448.57
  Q 775.58 458.22 776.91 468.13
  C 779.94 490.73 793.33 508.51 813.61 518.45
  Q 823.08 523.09 833.46 528.15
  Q 834.00 528.41 833.84 528.99
  Q 831.10 539.24 828.78 549.52
  Q 827.28 556.15 824.68 562.18
  Q 824.45 562.71 823.94 562.96
  Q 823.47 563.20 823.39 563.73
  Z
  M 610.99 669.77
  Q 626.24 665.25 643.55 665.61
  Q 667.89 666.12 690.30 674.37
  Q 692.59 675.21 694.48 674.69
  Q 695.04 674.53 695.32 674.02
  Q 696.15 672.48 697.34 671.29
  Q 721.86 646.98 738.89 618.81
  Q 744.04 610.29 748.18 600.93
  Q 758.68 577.14 765.87 551.96
  A 2.36 2.35 -65.2 0 0 764.92 549.36
  Q 762.29 547.59 760.02 545.50
  C 740.84 527.90 725.40 505.53 720.47 479.64
  C 718.55 469.57 718.36 457.70 719.39 447.47
  Q 720.95 432.08 728.76 415.49
  C 736.21 399.66 747.34 386.22 760.55 374.05
  Q 762.60 372.16 764.94 370.61
  A 2.36 2.35 65.4 0 0 765.91 367.99
  Q 759.80 347.09 751.18 325.92
  C 746.85 315.29 741.73 305.44 735.64 296.03
  Q 718.76 269.90 696.94 248.38
  Q 695.84 247.29 695.03 246.02
  A 2.42 2.42 0.0 0 0 692.18 245.05
  C 669.34 253.34 644.10 256.78 620.60 251.80
  C 584.14 244.07 555.68 218.97 542.13 184.51
  Q 536.45 170.07 533.72 154.66
  A 1.25 1.23 -88.3 0 0 532.79 153.66
  Q 506.20 147.09 479.82 144.75
  Q 457.40 142.77 433.21 145.50
  Q 409.86 148.14 388.68 153.22
  Q 387.54 153.49 386.70 154.17
  Q 386.30 154.48 386.21 154.98
  Q 383.59 168.78 378.79 181.99
  Q 366.83 214.90 338.47 235.09
  C 318.91 249.02 292.88 255.58 268.86 253.65
  Q 248.49 252.02 229.42 245.26
  C 228.43 244.91 226.76 244.80 226.01 245.65
  C 219.10 253.54 212.21 261.08 205.77 269.25
  Q 182.51 298.76 166.59 333.16
  C 161.42 344.32 157.12 356.50 153.05 368.02
  A 1.77 1.76 26.4 0 0 153.75 370.08
  Q 155.93 371.52 157.89 373.38
  C 170.64 385.45 182.36 398.24 190.15 413.60
  C 197.44 427.99 200.88 442.04 201.18 458.15
  Q 201.89 495.66 177.54 526.64
  Q 167.02 540.03 153.51 551.05
  A 1.51 1.51 0.0 0 0 153.03 552.70
  Q 156.73 564.05 160.82 575.50
  C 173.99 612.38 194.54 642.69 223.01 671.66
  C 224.61 673.29 225.69 675.74 228.61 674.69
  Q 248.13 667.66 266.57 666.30
  C 296.29 664.11 325.45 672.35 347.94 692.39
  Q 368.61 710.80 378.47 737.10
  Q 383.74 751.14 386.43 765.91
  A 0.69 0.69 0.0 0 0 386.96 766.46
  Q 402.38 769.95 416.86 772.42
  C 439.54 776.28 462.76 777.21 485.58 774.41
  Q 498.96 772.77 509.20 770.62
  Q 519.83 768.38 531.92 765.89
  Q 533.61 765.55 533.90 763.90
  Q 536.76 747.78 543.12 732.53
  Q 547.14 722.90 552.12 715.00
  C 565.66 693.53 586.49 677.02 610.99 669.77
  Z"
/>
<path  d="
  M 343.75 546.37
  Q 342.49 546.10 341.20 546.09
  Q 316.42 545.95 289.97 546.02
  A 1.97 1.97 0.0 0 0 288.00 547.99
  L 288.00 574.25
  A 0.75 0.74 0.0 0 1 287.25 574.99
  L 230.31 575.00
  A 0.31 0.30 89.0 0 1 230.01 574.70
  Q 229.98 560.73 229.99 548.04
  C 229.99 544.54 230.11 541.31 231.38 537.82
  C 233.96 530.74 236.47 522.07 238.32 516.45
  Q 246.16 492.59 254.31 467.27
  Q 265.86 431.40 277.38 395.44
  Q 285.63 369.72 293.20 346.66
  Q 293.75 344.97 295.53 344.97
  L 337.79 345.00
  A 1.58 1.57 -8.4 0 1 339.30 346.11
  Q 344.83 364.17 350.18 380.52
  Q 365.84 428.41 381.87 478.55
  Q 390.76 506.34 400.76 536.51
  Q 403.20 543.88 403.21 551.53
  Q 403.24 563.03 402.92 574.35
  A 0.66 0.66 0.0 0 1 402.26 574.99
  L 345.73 575.00
  A 0.72 0.72 0.0 0 1 345.01 574.29
  Q 344.98 563.99 345.01 553.68
  Q 345.02 550.31 344.41 547.06
  A 0.86 0.85 -89.0 0 0 343.75 546.37
  Z
  M 309.87 481.25
  Q 308.51 484.27 307.92 487.51
  A 1.19 1.19 0.0 0 0 309.03 488.91
  Q 316.84 489.37 324.19 488.93
  A 0.74 0.74 0.0 0 0 324.84 487.96
  L 316.98 464.53
  Q 316.06 461.78 315.42 464.61
  Q 314.85 467.14 313.86 469.33
  C 312.13 473.21 311.59 477.44 309.87 481.25
  Z"
/>
<path  d="
  M 489.57 517.44
  Q 488.98 517.13 488.98 517.79
  L 489.01 574.25
  A 0.76 0.75 -0.0 0 1 488.25 575.00
  L 431.78 575.00
  A 0.79 0.78 -0.0 0 1 430.99 574.22
  Q 431.01 461.62 430.97 348.43
  Q 430.97 347.02 431.18 345.73
  Q 431.28 345.04 431.98 345.04
  Q 458.45 344.92 488.74 345.05
  C 496.83 345.08 505.36 345.99 513.09 348.38
  Q 533.65 354.74 549.01 369.62
  C 563.60 383.75 573.03 403.24 574.77 424.11
  Q 577.15 452.58 561.60 477.28
  C 548.01 498.85 523.87 514.58 498.05 517.01
  Q 494.71 517.32 491.48 517.76
  Q 490.45 517.90 489.57 517.44
  Z
  M 489.00 403.09
  L 489.00 459.41
  A 0.42 0.42 0.0 0 0 489.42 459.83
  L 489.53 459.83
  A 27.65 27.60 0.0 0 0 517.18 432.23
  L 517.18 430.27
  A 27.65 27.60 -0.0 0 0 489.53 402.67
  L 489.42 402.67
  A 0.42 0.42 0.0 0 0 489.00 403.09
  Z"
/>
<rect  x="604.00" y="345.00" width="57.00" height="230.00" rx="0.79"/>
</svg>
