<?xml version="1.0" encoding="UTF-8" standalone="no"?>
<!DOCTYPE svg PUBLIC "-//W3C//DTD SVG 1.1//EN" "http://www.w3.org/Graphics/SVG/1.1/DTD/svg11.dtd">
<svg xmlns="http://www.w3.org/2000/svg" version="1.1" viewBox="0.00 0.00 735.00 490.00">
<g stroke-width="2.00" fill="none" stroke-linecap="butt">
<path stroke="#80985e" vector-effect="non-scaling-stroke" d="
  M 735.00 244.95
  Q 603.00 245.03 471.00 244.97
  Q 470.72 244.97 469.90 244.45"
/>
<path stroke="#012e5e" vector-effect="non-scaling-stroke" d="
  M 469.90 244.45
  Q 469.29 243.91 469.29 243.25
  Q 469.27 173.52 469.24 104.27
  Q 469.24 103.33 468.29 103.33
  L 266.95 103.28
  Q 265.79 103.28 265.77 104.44
  Q 265.44 126.05 265.56 149.50
  C 265.71 178.61 265.28 210.73 265.72 243.47
  Q 265.72 243.95 265.35 244.26
  Q 265.09 244.49 265.04 244.70"
/>
<path stroke="#80985e" vector-effect="non-scaling-stroke" d="
  M 265.04 244.70
  L 0.00 244.73"
/>
<path stroke="#806b01" vector-effect="non-scaling-stroke" d="
  M 469.90 244.45
  Q 469.22 244.84 469.22 245.75
  Q 469.02 280.37 469.16 315.50
  Q 469.24 334.69 455.17 346.36
  Q 450.62 350.13 440.10 354.69
  Q 402.41 371.02 368.56 386.09
  A 2.70 2.70 0.0 0 1 366.38 386.09
  Q 331.47 370.52 292.46 353.59
  Q 284.54 350.16 279.94 346.45
  Q 265.70 334.98 265.74 315.00
  Q 265.87 263.28 265.76 245.11
  Q 265.76 244.73 265.39 244.65
  Q 265.16 244.60 265.04 244.70"
/>
<path stroke="#806b01" vector-effect="non-scaling-stroke" d="
  M 267.11 315.15
  Q 267.13 334.98 280.93 345.66
  Q 285.52 349.21 295.05 353.34
  Q 333.02 369.79 366.79 384.87
  Q 367.48 385.18 368.18 384.87
  Q 404.44 368.70 440.92 352.93
  Q 450.02 349.00 454.58 345.25
  Q 463.32 338.06 466.34 327.23
  Q 467.95 321.44 467.93 308.08
  Q 467.82 203.82 467.95 105.26
  Q 467.95 104.74 467.43 104.74
  L 267.59 104.74
  Q 267.08 104.74 267.08 105.25
  Q 267.01 220.62 267.11 315.15"
/>
<path stroke="#80985e" vector-effect="non-scaling-stroke" d="
  M 368.80 382.25
  C 393.45 371.24 417.90 360.36 442.54 349.61
  C 456.66 343.45 465.55 330.22 465.54 314.66
  Q 465.48 215.85 465.51 107.80
  Q 465.51 107.25 464.96 107.25
  L 269.97 107.25
  A 0.44 0.44 0.0 0 0 269.53 107.69
  Q 269.61 209.31 269.43 312.83
  Q 269.42 320.19 270.76 324.95
  Q 275.55 342.03 293.11 349.79
  Q 331.14 366.60 366.19 382.25
  A 3.23 3.20 -44.8 0 0 368.80 382.25"
/>
<path stroke="#80985e" vector-effect="non-scaling-stroke" d="
  M 342.21 275.86
  A 1.29 1.29 0.0 0 1 340.84 276.48
  C 334.72 275.29 328.90 274.75 325.88 268.44
  Q 323.50 263.48 325.61 258.60
  Q 329.17 250.36 338.92 251.02
  A 0.53 0.53 0.0 0 0 339.48 250.42
  Q 336.95 231.05 334.36 207.63
  Q 332.89 194.31 331.07 187.83
  Q 322.69 157.87 295.16 141.40
  A 0.82 0.79 -29.5 0 0 294.77 141.30
  L 294.23 141.29
  A 0.23 0.22 -90.0 0 0 294.01 141.52
  L 294.01 317.51
  A 0.75 0.75 0.0 0 0 294.76 318.26
  L 334.52 318.28
  A 0.52 0.52 0.0 0 1 335.03 318.70
  Q 339.15 340.09 355.53 355.47
  C 359.03 358.76 363.94 361.88 366.97 366.67
  Q 367.42 367.39 367.90 366.69
  C 371.49 361.50 376.61 358.26 380.93 354.08
  Q 395.54 339.95 399.97 318.86
  Q 400.10 318.26 400.71 318.26
  L 440.43 318.28
  Q 441.01 318.28 441.01 317.70
  L 441.02 141.79
  A 0.63 0.62 -15.6 0 0 440.07 141.26
  Q 411.84 158.20 403.77 188.45
  Q 402.08 194.76 400.68 207.39
  Q 398.17 229.97 395.54 250.28
  A 0.74 0.73 0.3 0 0 396.36 251.10
  C 404.40 250.17 411.36 256.61 410.22 264.71
  C 408.96 273.67 401.33 275.51 393.71 276.47
  A 0.94 0.93 71.5 0 1 392.78 276.00
  Q 382.90 258.38 377.46 237.82
  Q 373.39 222.46 373.65 208.78
  Q 374.00 189.93 375.91 164.80
  Q 376.59 155.93 376.58 146.38
  Q 376.56 133.36 368.00 123.07
  A 0.70 0.69 44.8 0 0 366.93 123.07
  Q 357.83 134.20 358.37 148.75
  Q 359.02 166.69 360.60 188.97
  Q 361.81 206.19 360.98 218.25
  Q 360.01 232.33 353.42 251.19
  Q 348.71 264.67 342.21 275.86"
/>
<path stroke="#80985e" vector-effect="non-scaling-stroke" d="
  M 320.71 197.72
  C 319.30 186.86 313.89 175.64 306.99 167.26
  Q 306.26 166.37 306.26 167.52
  L 306.26 256.39
  A 0.63 0.63 0.0 0 0 306.89 257.02
  L 312.31 257.01
  A 1.11 1.11 0.0 0 0 313.37 256.24
  Q 316.60 246.51 325.19 241.63
  Q 325.97 241.19 325.87 240.29
  Q 323.47 218.96 320.71 197.72"
/>
<path stroke="#80985e" vector-effect="non-scaling-stroke" d="
  M 410.00 241.73
  C 415.73 244.97 419.55 249.99 421.65 256.24
  Q 421.90 256.98 422.69 256.99
  L 427.97 257.06
  Q 428.76 257.07 428.76 256.28
  L 428.74 167.70
  Q 428.74 166.40 427.92 167.40
  Q 420.55 176.35 416.76 187.55
  Q 414.43 194.46 413.01 207.03
  Q 411.11 223.96 409.12 239.97
  A 1.78 1.76 18.6 0 0 410.00 241.73"
/>
<path stroke="#80985e" vector-effect="non-scaling-stroke" d="
  M 380.54 278.90
  C 375.07 269.83 371.45 260.53 367.86 250.55
  Q 367.44 249.41 367.08 250.56
  Q 362.36 265.52 354.39 279.12
  A 0.56 0.56 0.0 0 0 354.69 279.93
  Q 362.07 282.39 367.05 288.24
  A 0.57 0.56 -44.7 0 0 367.90 288.24
  Q 372.91 282.47 380.14 280.00
  A 0.75 0.75 0.0 0 0 380.54 278.90"
/>
<path stroke="#80985e" vector-effect="non-scaling-stroke" d="
  M 335.23 287.82
  C 324.56 286.30 316.72 280.31 313.34 269.90
  Q 313.14 269.27 312.48 269.27
  L 307.13 269.27
  Q 306.27 269.27 306.27 270.12
  L 306.25 305.38
  A 0.64 0.64 0.0 0 0 306.89 306.02
  L 333.04 306.00
  A 0.76 0.76 0.0 0 0 333.80 305.26
  Q 333.92 297.24 336.03 289.02
  A 0.97 0.97 0.0 0 0 335.23 287.82"
/>
<path stroke="#80985e" vector-effect="non-scaling-stroke" d="
  M 421.64 269.97
  C 418.60 280.09 410.38 286.33 399.72 287.79
  A 0.90 0.90 0.0 0 0 398.96 288.90
  Q 401.09 297.56 401.23 305.49
  Q 401.24 306.01 401.76 306.01
  L 428.24 306.02
  Q 428.75 306.02 428.75 305.51
  L 428.74 269.76
  A 0.48 0.48 0.0 0 0 428.26 269.28
  L 422.57 269.28
  A 0.97 0.97 0.0 0 0 421.64 269.97"
/>
<path stroke="#80985e" vector-effect="non-scaling-stroke" d="
  M 358.13 296.29
  A 2.04 2.04 0.0 0 0 357.39 295.45
  L 350.75 291.22
  A 2.04 2.04 0.0 0 0 347.64 292.62
  L 345.89 303.70
  A 2.04 2.04 0.0 0 0 347.91 306.06
  L 359.57 306.08
  A 2.04 2.04 0.0 0 0 361.41 303.16
  L 358.13 296.29"
/>
<path stroke="#80985e" vector-effect="non-scaling-stroke" d="
  M 387.39 292.58
  A 1.97 1.97 0.0 0 0 384.42 291.20
  L 377.65 295.33
  A 1.97 1.97 0.0 0 0 376.89 296.18
  L 373.57 303.27
  A 1.97 1.97 0.0 0 0 375.35 306.08
  L 387.17 306.06
  A 1.97 1.97 0.0 0 0 389.11 303.79
  L 387.39 292.58"
/>
<path stroke="#80985e" vector-effect="non-scaling-stroke" d="
  M 347.62 319.02
  C 350.06 328.30 354.10 335.95 360.72 343.30
  Q 361.44 344.09 361.44 343.02
  L 361.46 319.04
  A 0.74 0.74 0.0 0 0 360.72 318.30
  L 348.23 318.24
  A 0.62 0.62 0.0 0 0 347.62 319.02"
/>
<path stroke="#80985e" vector-effect="non-scaling-stroke" d="
  M 374.49 343.12
  C 380.82 336.10 385.10 328.01 387.43 318.84
  A 0.45 0.44 -82.9 0 0 387.00 318.28
  L 374.19 318.25
  A 0.56 0.56 0.0 0 0 373.63 318.81
  L 373.60 342.78
  Q 373.60 344.10 374.49 343.12"
/>
</g>
<path fill="#015bbb" d="
  M 0.00 0.00
  L 735.00 0.00
  L 735.00 244.95
  Q 603.00 245.03 471.00 244.97
  Q 470.72 244.97 469.90 244.45
  Q 469.29 243.91 469.29 243.25
  Q 469.27 173.52 469.24 104.27
  Q 469.24 103.33 468.29 103.33
  L 266.95 103.28
  Q 265.79 103.28 265.77 104.44
  Q 265.44 126.05 265.56 149.50
  C 265.71 178.61 265.28 210.73 265.72 243.47
  Q 265.72 243.95 265.35 244.26
  Q 265.09 244.49 265.04 244.70
  L 0.00 244.73
  L 0.00 0.00
  Z"
/>
<path fill="#010101" d="
  M 469.90 244.45
  Q 469.22 244.84 469.22 245.75
  Q 469.02 280.37 469.16 315.50
  Q 469.24 334.69 455.17 346.36
  Q 450.62 350.13 440.10 354.69
  Q 402.41 371.02 368.56 386.09
  A 2.70 2.70 0.0 0 1 366.38 386.09
  Q 331.47 370.52 292.46 353.59
  Q 284.54 350.16 279.94 346.45
  Q 265.70 334.98 265.74 315.00
  Q 265.87 263.28 265.76 245.11
  Q 265.76 244.73 265.39 244.65
  Q 265.16 244.60 265.04 244.70
  Q 265.09 244.49 265.35 244.26
  Q 265.72 243.95 265.72 243.47
  C 265.28 210.73 265.71 178.61 265.56 149.50
  Q 265.44 126.05 265.77 104.44
  Q 265.79 103.28 266.95 103.28
  L 468.29 103.33
  Q 469.24 103.33 469.24 104.27
  Q 469.27 173.52 469.29 243.25
  Q 469.29 243.91 469.90 244.45
  Z
  M 267.11 315.15
  Q 267.13 334.98 280.93 345.66
  Q 285.52 349.21 295.05 353.34
  Q 333.02 369.79 366.79 384.87
  Q 367.48 385.18 368.18 384.87
  Q 404.44 368.70 440.92 352.93
  Q 450.02 349.00 454.58 345.25
  Q 463.32 338.06 466.34 327.23
  Q 467.95 321.44 467.93 308.08
  Q 467.82 203.82 467.95 105.26
  Q 467.95 104.74 467.43 104.74
  L 267.59 104.74
  Q 267.08 104.74 267.08 105.25
  Q 267.01 220.62 267.11 315.15
  Z"
/>
<path fill="#fed500" d="
  M 267.11 315.15
  Q 267.01 220.62 267.08 105.25
  Q 267.08 104.74 267.59 104.74
  L 467.43 104.74
  Q 467.95 104.74 467.95 105.26
  Q 467.82 203.82 467.93 308.08
  Q 467.95 321.44 466.34 327.23
  Q 463.32 338.06 454.58 345.25
  Q 450.02 349.00 440.92 352.93
  Q 404.44 368.70 368.18 384.87
  Q 367.48 385.18 366.79 384.87
  Q 333.02 369.79 295.05 353.34
  Q 285.52 349.21 280.93 345.66
  Q 267.13 334.98 267.11 315.15
  Z
  M 368.80 382.25
  C 393.45 371.24 417.90 360.36 442.54 349.61
  C 456.66 343.45 465.55 330.22 465.54 314.66
  Q 465.48 215.85 465.51 107.80
  Q 465.51 107.25 464.96 107.25
  L 269.97 107.25
  A 0.44 0.44 0.0 0 0 269.53 107.69
  Q 269.61 209.31 269.43 312.83
  Q 269.42 320.19 270.76 324.95
  Q 275.55 342.03 293.11 349.79
  Q 331.14 366.60 366.19 382.25
  A 3.23 3.20 -44.8 0 0 368.80 382.25
  Z"
/>
<path fill="#015bbb" d="
  M 442.54 349.61
  C 417.90 360.36 393.45 371.24 368.80 382.25
  A 3.23 3.20 -44.8 0 1 366.19 382.25
  Q 331.14 366.60 293.11 349.79
  Q 275.55 342.03 270.76 324.95
  Q 269.42 320.19 269.43 312.83
  Q 269.61 209.31 269.53 107.69
  A 0.44 0.44 0.0 0 1 269.97 107.25
  L 464.96 107.25
  Q 465.51 107.25 465.51 107.80
  Q 465.48 215.85 465.54 314.66
  C 465.55 330.22 456.66 343.45 442.54 349.61
  Z
  M 342.21 275.86
  A 1.29 1.29 0.0 0 1 340.84 276.48
  C 334.72 275.29 328.90 274.75 325.88 268.44
  Q 323.50 263.48 325.61 258.60
  Q 329.17 250.36 338.92 251.02
  A 0.53 0.53 0.0 0 0 339.48 250.42
  Q 336.95 231.05 334.36 207.63
  Q 332.89 194.31 331.07 187.83
  Q 322.69 157.87 295.16 141.40
  A 0.82 0.79 -29.5 0 0 294.77 141.30
  L 294.23 141.29
  A 0.23 0.22 -90.0 0 0 294.01 141.52
  L 294.01 317.51
  A 0.75 0.75 0.0 0 0 294.76 318.26
  L 334.52 318.28
  A 0.52 0.52 0.0 0 1 335.03 318.70
  Q 339.15 340.09 355.53 355.47
  C 359.03 358.76 363.94 361.88 366.97 366.67
  Q 367.42 367.39 367.90 366.69
  C 371.49 361.50 376.61 358.26 380.93 354.08
  Q 395.54 339.95 399.97 318.86
  Q 400.10 318.26 400.71 318.26
  L 440.43 318.28
  Q 441.01 318.28 441.01 317.70
  L 441.02 141.79
  A 0.63 0.62 -15.6 0 0 440.07 141.26
  Q 411.84 158.20 403.77 188.45
  Q 402.08 194.76 400.68 207.39
  Q 398.17 229.97 395.54 250.28
  A 0.74 0.73 0.3 0 0 396.36 251.10
  C 404.40 250.17 411.36 256.61 410.22 264.71
  C 408.96 273.67 401.33 275.51 393.71 276.47
  A 0.94 0.93 71.5 0 1 392.78 276.00
  Q 382.90 258.38 377.46 237.82
  Q 373.39 222.46 373.65 208.78
  Q 374.00 189.93 375.91 164.80
  Q 376.59 155.93 376.58 146.38
  Q 376.56 133.36 368.00 123.07
  A 0.70 0.69 44.8 0 0 366.93 123.07
  Q 357.83 134.20 358.37 148.75
  Q 359.02 166.69 360.60 188.97
  Q 361.81 206.19 360.98 218.25
  Q 360.01 232.33 353.42 251.19
  Q 348.71 264.67 342.21 275.86
  Z"
/>
<path fill="#fed500" d="
  M 342.21 275.86
  Q 348.71 264.67 353.42 251.19
  Q 360.01 232.33 360.98 218.25
  Q 361.81 206.19 360.60 188.97
  Q 359.02 166.69 358.37 148.75
  Q 357.83 134.20 366.93 123.07
  A 0.70 0.69 44.8 0 1 368.00 123.07
  Q 376.56 133.36 376.58 146.38
  Q 376.59 155.93 375.91 164.80
  Q 374.00 189.93 373.65 208.78
  Q 373.39 222.46 377.46 237.82
  Q 382.90 258.38 392.78 276.00
  A 0.94 0.93 71.5 0 0 393.71 276.47
  C 401.33 275.51 408.96 273.67 410.22 264.71
  C 411.36 256.61 404.40 250.17 396.36 251.10
  A 0.74 0.73 0.3 0 1 395.54 250.28
  Q 398.17 229.97 400.68 207.39
  Q 402.08 194.76 403.77 188.45
  Q 411.84 158.20 440.07 141.26
  A 0.63 0.62 -15.6 0 1 441.02 141.79
  L 441.01 317.70
  Q 441.01 318.28 440.43 318.28
  L 400.71 318.26
  Q 400.10 318.26 399.97 318.86
  Q 395.54 339.95 380.93 354.08
  C 376.61 358.26 371.49 361.50 367.90 366.69
  Q 367.42 367.39 366.97 366.67
  C 363.94 361.88 359.03 358.76 355.53 355.47
  Q 339.15 340.09 335.03 318.70
  A 0.52 0.52 0.0 0 0 334.52 318.28
  L 294.76 318.26
  A 0.75 0.75 0.0 0 1 294.01 317.51
  L 294.01 141.52
  A 0.23 0.22 -90.0 0 1 294.23 141.29
  L 294.77 141.30
  A 0.82 0.79 -29.5 0 1 295.16 141.40
  Q 322.69 157.87 331.07 187.83
  Q 332.89 194.31 334.36 207.63
  Q 336.95 231.05 339.48 250.42
  A 0.53 0.53 0.0 0 1 338.92 251.02
  Q 329.17 250.36 325.61 258.60
  Q 323.50 263.48 325.88 268.44
  C 328.90 274.75 334.72 275.29 340.84 276.48
  A 1.29 1.29 0.0 0 0 342.21 275.86
  Z
  M 320.71 197.72
  C 319.30 186.86 313.89 175.64 306.99 167.26
  Q 306.26 166.37 306.26 167.52
  L 306.26 256.39
  A 0.63 0.63 0.0 0 0 306.89 257.02
  L 312.31 257.01
  A 1.11 1.11 0.0 0 0 313.37 256.24
  Q 316.60 246.51 325.19 241.63
  Q 325.97 241.19 325.87 240.29
  Q 323.47 218.96 320.71 197.72
  Z
  M 410.00 241.73
  C 415.73 244.97 419.55 249.99 421.65 256.24
  Q 421.90 256.98 422.69 256.99
  L 427.97 257.06
  Q 428.76 257.07 428.76 256.28
  L 428.74 167.70
  Q 428.74 166.40 427.92 167.40
  Q 420.55 176.35 416.76 187.55
  Q 414.43 194.46 413.01 207.03
  Q 411.11 223.96 409.12 239.97
  A 1.78 1.76 18.6 0 0 410.00 241.73
  Z
  M 380.54 278.90
  C 375.07 269.83 371.45 260.53 367.86 250.55
  Q 367.44 249.41 367.08 250.56
  Q 362.36 265.52 354.39 279.12
  A 0.56 0.56 0.0 0 0 354.69 279.93
  Q 362.07 282.39 367.05 288.24
  A 0.57 0.56 -44.7 0 0 367.90 288.24
  Q 372.91 282.47 380.14 280.00
  A 0.75 0.75 0.0 0 0 380.54 278.90
  Z
  M 335.23 287.82
  C 324.56 286.30 316.72 280.31 313.34 269.90
  Q 313.14 269.27 312.48 269.27
  L 307.13 269.27
  Q 306.27 269.27 306.27 270.12
  L 306.25 305.38
  A 0.64 0.64 0.0 0 0 306.89 306.02
  L 333.04 306.00
  A 0.76 0.76 0.0 0 0 333.80 305.26
  Q 333.92 297.24 336.03 289.02
  A 0.97 0.97 0.0 0 0 335.23 287.82
  Z
  M 421.64 269.97
  C 418.60 280.09 410.38 286.33 399.72 287.79
  A 0.90 0.90 0.0 0 0 398.96 288.90
  Q 401.09 297.56 401.23 305.49
  Q 401.24 306.01 401.76 306.01
  L 428.24 306.02
  Q 428.75 306.02 428.75 305.51
  L 428.74 269.76
  A 0.48 0.48 0.0 0 0 428.26 269.28
  L 422.57 269.28
  A 0.97 0.97 0.0 0 0 421.64 269.97
  Z
  M 358.13 296.29
  A 2.04 2.04 0.0 0 0 357.39 295.45
  L 350.75 291.22
  A 2.04 2.04 0.0 0 0 347.64 292.62
  L 345.89 303.70
  A 2.04 2.04 0.0 0 0 347.91 306.06
  L 359.57 306.08
  A 2.04 2.04 0.0 0 0 361.41 303.16
  L 358.13 296.29
  Z
  M 387.39 292.58
  A 1.97 1.97 0.0 0 0 384.42 291.20
  L 377.65 295.33
  A 1.97 1.97 0.0 0 0 376.89 296.18
  L 373.57 303.27
  A 1.97 1.97 0.0 0 0 375.35 306.08
  L 387.17 306.06
  A 1.97 1.97 0.0 0 0 389.11 303.79
  L 387.39 292.58
  Z
  M 347.62 319.02
  C 350.06 328.30 354.10 335.95 360.72 343.30
  Q 361.44 344.09 361.44 343.02
  L 361.46 319.04
  A 0.74 0.74 0.0 0 0 360.72 318.30
  L 348.23 318.24
  A 0.62 0.62 0.0 0 0 347.62 319.02
  Z
  M 374.49 343.12
  C 380.82 336.10 385.10 328.01 387.43 318.84
  A 0.45 0.44 -82.9 0 0 387.00 318.28
  L 374.19 318.25
  A 0.56 0.56 0.0 0 0 373.63 318.81
  L 373.60 342.78
  Q 373.60 344.10 374.49 343.12
  Z"
/>
<path fill="#015bbb" d="
  M 306.99 167.26
  C 313.89 175.64 319.30 186.86 320.71 197.72
  Q 323.47 218.96 325.87 240.29
  Q 325.97 241.19 325.19 241.63
  Q 316.60 246.51 313.37 256.24
  A 1.11 1.11 0.0 0 1 312.31 257.01
  L 306.89 257.02
  A 0.63 0.63 0.0 0 1 306.26 256.39
  L 306.26 167.52
  Q 306.26 166.37 306.99 167.26
  Z"
/>
<path fill="#015bbb" d="
  M 421.65 256.24
  C 419.55 249.99 415.73 244.97 410.00 241.73
  A 1.78 1.76 18.6 0 1 409.12 239.97
  Q 411.11 223.96 413.01 207.03
  Q 414.43 194.46 416.76 187.55
  Q 420.55 176.35 427.92 167.40
  Q 428.74 166.40 428.74 167.70
  L 428.76 256.28
  Q 428.76 257.07 427.97 257.06
  L 422.69 256.99
  Q 421.90 256.98 421.65 256.24
  Z"
/>
<path fill="#fed500" d="
  M 469.90 244.45
  Q 470.72 244.97 471.00 244.97
  Q 603.00 245.03 735.00 244.95
  L 735.00 490.00
  L 0.00 490.00
  L 0.00 244.73
  L 265.04 244.70
  Q 265.16 244.60 265.39 244.65
  Q 265.76 244.73 265.76 245.11
  Q 265.87 263.28 265.74 315.00
  Q 265.70 334.98 279.94 346.45
  Q 284.54 350.16 292.46 353.59
  Q 331.47 370.52 366.38 386.09
  A 2.70 2.70 0.0 0 0 368.56 386.09
  Q 402.41 371.02 440.10 354.69
  Q 450.62 350.13 455.17 346.36
  Q 469.24 334.69 469.16 315.50
  Q 469.02 280.37 469.22 245.75
  Q 469.22 244.84 469.90 244.45
  Z"
/>
<path fill="#015bbb" d="
  M 367.86 250.55
  C 371.45 260.53 375.07 269.83 380.54 278.90
  A 0.75 0.75 0.0 0 1 380.14 280.00
  Q 372.91 282.47 367.90 288.24
  A 0.57 0.56 -44.7 0 1 367.05 288.24
  Q 362.07 282.39 354.69 279.93
  A 0.56 0.56 0.0 0 1 354.39 279.12
  Q 362.36 265.52 367.08 250.56
  Q 367.44 249.41 367.86 250.55
  Z"
/>
<path fill="#015bbb" d="
  M 313.34 269.90
  C 316.72 280.31 324.56 286.30 335.23 287.82
  A 0.97 0.97 0.0 0 1 336.03 289.02
  Q 333.92 297.24 333.80 305.26
  A 0.76 0.76 0.0 0 1 333.04 306.00
  L 306.89 306.02
  A 0.64 0.64 0.0 0 1 306.25 305.38
  L 306.27 270.12
  Q 306.27 269.27 307.13 269.27
  L 312.48 269.27
  Q 313.14 269.27 313.34 269.90
  Z"
/>
<path fill="#015bbb" d="
  M 399.72 287.79
  C 410.38 286.33 418.60 280.09 421.64 269.97
  A 0.97 0.97 0.0 0 1 422.57 269.28
  L 428.26 269.28
  A 0.48 0.48 0.0 0 1 428.74 269.76
  L 428.75 305.51
  Q 428.75 306.02 428.24 306.02
  L 401.76 306.01
  Q 401.24 306.01 401.23 305.49
  Q 401.09 297.56 398.96 288.90
  A 0.90 0.90 0.0 0 1 399.72 287.79
  Z"
/>
<path fill="#015bbb" d="
  M 358.13 296.29
  L 361.41 303.16
  A 2.04 2.04 0.0 0 1 359.57 306.08
  L 347.91 306.06
  A 2.04 2.04 0.0 0 1 345.89 303.70
  L 347.64 292.62
  A 2.04 2.04 0.0 0 1 350.75 291.22
  L 357.39 295.45
  A 2.04 2.04 0.0 0 1 358.13 296.29
  Z"
/>
<path fill="#015bbb" d="
  M 387.39 292.58
  L 389.11 303.79
  A 1.97 1.97 0.0 0 1 387.17 306.06
  L 375.35 306.08
  A 1.97 1.97 0.0 0 1 373.57 303.27
  L 376.89 296.18
  A 1.97 1.97 0.0 0 1 377.65 295.33
  L 384.42 291.20
  A 1.97 1.97 0.0 0 1 387.39 292.58
  Z"
/>
<path fill="#015bbb" d="
  M 360.72 343.30
  C 354.10 335.95 350.06 328.30 347.62 319.02
  A 0.62 0.62 0.0 0 1 348.23 318.24
  L 360.72 318.30
  A 0.74 0.74 0.0 0 1 361.46 319.04
  L 361.44 343.02
  Q 361.44 344.09 360.72 343.30
  Z"
/>
<path fill="#015bbb" d="
  M 387.43 318.84
  C 385.10 328.01 380.82 336.10 374.49 343.12
  Q 373.60 344.10 373.60 342.78
  L 373.63 318.81
  A 0.56 0.56 0.0 0 1 374.19 318.25
  L 387.00 318.28
  A 0.45 0.44 -82.9 0 1 387.43 318.84
  Z"
/>
</svg>
