<?xml version="1.0" encoding="UTF-8" standalone="no"?>
<!DOCTYPE svg PUBLIC "-//W3C//DTD SVG 1.1//EN" "http://www.w3.org/Graphics/SVG/1.1/DTD/svg11.dtd">
<svg xmlns="http://www.w3.org/2000/svg" version="1.1" viewBox="0.00 0.00 160.00 161.00">
<path  d="
  M 119.30 36.64
  C 119.18 39.35 118.16 41.77 118.07 44.52
  Q 117.90 49.52 116.70 54.67
  Q 115.87 58.26 115.17 54.64
  Q 114.81 52.76 115.08 50.80
  C 115.76 46.03 115.85 41.36 116.68 36.74
  Q 117.99 29.44 119.23 22.37
  Q 119.37 21.59 119.81 22.24
  C 124.66 29.25 127.71 36.58 126.68 45.19
  Q 125.06 58.66 119.20 70.94
  C 118.18 73.07 116.86 77.33 119.54 78.78
  Q 123.17 80.74 126.86 81.76
  C 129.65 82.53 133.03 85.36 132.60 88.64
  Q 131.96 93.52 130.97 97.01
  A 1.44 1.43 -78.3 0 1 129.41 98.04
  Q 126.00 97.61 122.31 96.69
  C 117.11 95.40 110.68 97.62 106.86 100.84
  Q 94.25 111.47 92.23 128.51
  Q 91.81 132.12 91.45 135.90
  C 90.98 140.96 92.45 145.65 91.83 150.66
  A 0.66 0.66 0.0 0 1 90.85 151.16
  Q 89.98 150.68 89.36 149.88
  C 78.43 135.77 78.70 120.20 83.47 103.58
  Q 83.76 102.58 83.11 103.40
  Q 82.11 104.67 80.87 105.56
  C 77.21 108.18 74.14 111.45 70.34 113.88
  Q 62.85 118.68 55.37 121.70
  C 48.18 124.61 36.88 124.96 29.57 123.36
  C 19.38 121.12 12.89 112.31 10.68 102.21
  Q 8.81 93.67 8.88 80.72
  Q 9.03 51.78 9.02 24.95
  Q 9.02 19.56 11.55 15.77
  C 12.43 14.44 12.73 13.15 14.19 12.22
  A 0.53 0.53 0.0 0 1 15.00 12.67
  Q 14.90 46.08 14.93 79.98
  Q 14.94 85.42 15.54 90.68
  C 17.02 103.59 24.74 110.72 37.79 112.40
  Q 40.52 112.75 43.14 112.40
  Q 45.23 112.12 47.34 111.93
  Q 49.26 111.77 51.12 111.29
  Q 65.60 107.55 77.83 98.14
  Q 83.05 94.12 87.44 90.03
  Q 88.63 88.93 89.37 87.40
  Q 91.65 82.65 93.56 77.88
  Q 94.53 75.45 94.95 78.03
  Q 95.26 79.92 94.52 81.75
  C 87.35 99.64 77.21 120.61 87.20 139.48
  Q 87.80 140.61 87.85 139.33
  Q 87.93 137.01 87.53 134.42
  Q 87.18 132.15 87.37 129.61
  C 88.65 111.84 94.77 95.42 111.28 86.82
  C 112.88 85.98 113.94 84.86 114.05 82.94
  C 114.51 75.11 117.21 68.96 120.31 62.15
  C 123.86 54.34 124.10 44.09 119.84 36.52
  Q 119.35 35.65 119.30 36.64
  Z"
/>
<path  d="
  M 140.16 43.43
  Q 139.44 44.70 139.29 45.75
  Q 137.39 59.32 136.77 73.00
  Q 136.69 74.77 136.02 76.63
  Q 135.81 77.24 135.27 76.88
  Q 134.15 76.14 134.24 74.74
  Q 135.74 51.04 139.14 24.93
  Q 139.22 24.33 139.69 23.95
  Q 140.22 23.51 140.46 24.16
  Q 145.74 38.60 148.70 50.94
  Q 151.92 64.38 151.85 74.65
  Q 151.79 82.90 149.72 92.66
  C 146.31 108.80 136.35 128.07 118.91 132.46
  Q 115.33 133.35 108.71 133.92
  Q 103.30 134.38 98.75 133.83
  Q 97.53 133.68 98.64 133.14
  Q 105.52 129.83 112.01 126.46
  Q 122.31 121.11 131.86 112.01
  C 140.44 103.82 146.41 91.45 148.41 79.83
  Q 149.67 72.52 147.34 64.58
  Q 145.17 57.15 143.24 50.19
  C 142.55 47.70 141.15 45.81 140.58 43.48
  Q 140.44 42.94 140.16 43.43
  Z"
/>
<path  d="
  M 44.0952 54.6530
  A 9.66 8.67 -10.6 0 1 36.1949 64.9520
  A 9.66 8.67 -10.6 0 1 25.1048 58.2070
  A 9.66 8.67 -10.6 0 1 33.0051 47.9080
  A 9.66 8.67 -10.6 0 1 44.0952 54.6530
  Z
  M 35.0127 62.8942
  A 6.49 5.69 86.0 0 0 40.2361 56.0231
  A 6.49 5.69 86.0 0 0 34.1073 49.9458
  A 6.49 5.69 86.0 0 0 28.8839 56.8169
  A 6.49 5.69 86.0 0 0 35.0127 62.8942
  Z"
/>
<path  d="
  M 54.73 58.05
  A 0.89 0.88 85.7 0 0 53.96 58.95
  L 54.04 63.74
  Q 54.06 65.04 52.76 65.04
  L 51.27 65.03
  Q 50.02 65.02 50.02 63.77
  L 50.01 48.99
  A 0.98 0.98 0.0 0 1 51.01 48.01
  Q 54.00 48.05 57.26 47.84
  Q 62.21 47.53 63.54 52.15
  Q 63.67 52.61 63.50 53.04
  C 62.78 54.90 61.48 55.93 60.28 57.42
  Q 59.85 57.95 60.24 58.51
  L 62.95 62.39
  A 1.41 1.37 77.5 0 0 63.80 62.95
  L 64.76 63.15
  Q 66.72 63.55 65.03 64.61
  C 61.40 66.88 57.76 61.40 56.31 58.88
  Q 55.76 57.92 54.73 58.05
  Z
  M 55.74 49.89
  A 1.63 1.62 2.8 0 0 53.93 51.53
  L 53.99 54.55
  A 1.61 1.61 0.0 0 0 55.63 56.13
  Q 57.94 56.09 59.50 54.06
  Q 60.38 52.92 59.46 51.81
  Q 58.09 50.16 55.74 49.89
  Z"
/>
<path  d="
  M 94.59 53.70
  Q 94.85 53.51 94.79 53.17
  A 0.59 0.57 -26.4 0 1 94.98 52.63
  Q 96.92 50.90 98.09 48.86
  Q 98.74 47.75 100.02 47.81
  L 100.98 47.86
  Q 102.15 47.92 101.51 48.90
  Q 99.31 52.25 96.29 55.26
  A 0.93 0.93 0.0 0 0 96.22 56.49
  L 101.69 63.45
  Q 102.83 64.91 100.99 65.13
  Q 100.40 65.20 99.82 65.13
  Q 97.90 64.88 96.83 63.27
  L 94.43 59.68
  A 1.03 1.03 0.0 0 0 92.63 59.85
  C 91.81 61.73 89.05 65.71 86.55 64.98
  A 0.89 0.89 0.0 0 1 86.15 63.52
  L 91.24 57.99
  A 2.44 2.44 0.0 0 0 91.40 54.86
  L 87.25 49.38
  Q 86.39 48.24 87.79 47.99
  Q 88.50 47.86 89.24 47.94
  Q 90.83 48.10 91.68 49.45
  L 94.33 53.65
  A 0.18 0.18 0.0 0 0 94.59 53.70
  Z"
/>
<path  d="
  M 76.43 54.01
  Q 78.10 52.33 78.95 50.03
  C 79.49 48.57 81.19 47.33 82.71 48.19
  A 0.75 0.74 -57.1 0 1 82.94 49.28
  Q 80.59 52.42 78.02 56.43
  C 76.58 58.68 76.95 61.44 76.94 63.99
  A 1.16 1.15 4.1 0 1 75.62 65.13
  L 74.93 65.02
  Q 73.19 64.77 73.11 63.01
  C 72.98 60.45 73.34 57.46 72.03 55.16
  Q 70.48 52.44 68.26 49.52
  Q 67.29 48.26 68.86 47.98
  Q 69.46 47.88 70.08 47.92
  Q 71.74 48.03 72.65 49.42
  L 75.60 53.92
  Q 75.96 54.48 76.43 54.01
  Z"
/>
</svg>
