<?xml version="1.0" encoding="UTF-8"?>
<svg xmlns="http://www.w3.org/2000/svg" xmlns:xlink="http://www.w3.org/1999/xlink" width="40pt" height="66pt" viewBox="0 0 40 66" version="1.1">
<g id="surface1">
<path style=" stroke:none;fill-rule:nonzero;fill:rgb(100%,83.529412%,0%);fill-opacity:1;" d="M 20 0.164062 C 18.460938 1.902344 17.519531 4.171875 17.519531 6.667969 C 17.613281 12.148438 18.289062 17.621094 18.347656 23.085938 C 18.46875 28.191406 16.929688 32.988281 15.054688 37.664062 C 14.429688 38.957031 13.753906 40.222656 13.078125 41.488281 L 11.097656 41.09375 C 9.304688 40.738281 8.140625 39.007812 8.5 37.230469 C 8.8125 35.675781 10.191406 34.585938 11.730469 34.585938 L 12.453125 34.664062 L 10.839844 21.269531 C 10.3125 15.308594 7.214844 10.070312 2.65625 6.671875 C 1.871094 6.085938 1.042969 5.550781 0.175781 5.082031 L 0.175781 52.644531 L 11.230469 52.644531 C 12.058594 57.09375 14.527344 60.984375 18 63.644531 C 18.824219 64.207031 19.515625 64.953125 20.011719 65.824219 C 20.507812 64.953125 21.203125 64.207031 22.027344 63.644531 C 25.5 60.976562 27.96875 57.09375 28.796875 52.644531 L 39.847656 52.644531 L 39.847656 5.082031 C 38.984375 5.550781 38.152344 6.085938 37.371094 6.671875 C 32.808594 10.074219 29.71875 15.308594 29.1875 21.269531 L 27.574219 34.664062 L 28.296875 34.585938 C 29.835938 34.59375 31.214844 35.675781 31.527344 37.230469 C 31.882812 39.007812 30.71875 40.734375 28.929688 41.09375 L 26.945312 41.488281 C 26.269531 40.222656 25.59375 38.960938 24.972656 37.664062 C 23.097656 32.988281 21.554688 28.195312 21.675781 23.085938 C 21.738281 17.601562 22.414062 12.136719 22.503906 6.667969 C 22.503906 4.171875 21.566406 1.90625 20.023438 0.164062 Z M 3.472656 11.9375 C 5.609375 14.429688 7.046875 17.535156 7.472656 20.953125 L 8.792969 32.003906 C 7.097656 32.839844 5.816406 34.378906 5.332031 36.238281 L 3.460938 36.238281 L 3.460938 11.9375 Z M 36.527344 11.9375 L 36.527344 36.234375 L 34.65625 36.234375 C 34.171875 34.375 32.890625 32.839844 31.195312 32 L 32.515625 20.949219 C 32.945312 17.535156 34.382812 14.425781 36.515625 11.929688 Z M 20 34.148438 C 20.886719 37.035156 22.109375 39.78125 23.628906 42.320312 C 22.183594 42.757812 20.925781 43.605469 20 44.746094 C 19.074219 43.605469 17.816406 42.757812 16.371094 42.320312 C 17.890625 39.773438 19.113281 37.035156 20 34.148438 Z M 3.472656 39.523438 L 5.34375 39.523438 C 5.933594 41.792969 7.714844 43.582031 9.972656 44.207031 L 11.558594 44.566406 C 11.136719 46.097656 10.902344 47.703125 10.902344 49.375 L 3.464844 49.375 L 3.464844 39.527344 Z M 34.660156 39.523438 L 36.535156 39.523438 L 36.535156 49.375 L 29.097656 49.375 C 29.097656 47.710938 28.863281 46.097656 28.4375 44.566406 L 30.027344 44.207031 C 32.289062 43.578125 34.070312 41.789062 34.65625 39.523438 Z M 14.792969 45.320312 C 16.796875 45.601562 18.34375 47.304688 18.34375 49.375 L 14.210938 49.375 C 14.210938 47.964844 14.421875 46.609375 14.792969 45.320312 Z M 25.203125 45.320312 C 25.574219 46.609375 25.785156 47.964844 25.785156 49.375 L 21.652344 49.375 C 21.652344 47.304688 23.195312 45.601562 25.203125 45.320312 Z M 14.589844 52.660156 L 18.347656 52.660156 L 18.347656 59.570312 C 16.527344 57.675781 15.207031 55.300781 14.589844 52.660156 Z M 21.652344 52.660156 L 25.410156 52.660156 C 24.800781 55.300781 23.476562 57.679688 21.652344 59.570312 Z M 21.652344 52.660156 "/>
</g>
</svg>
