<?xml version="1.0" encoding="UTF-8" standalone="no"?>
<!DOCTYPE svg PUBLIC "-//W3C//DTD SVG 1.1//EN" "http://www.w3.org/Graphics/SVG/1.1/DTD/svg11.dtd">
<svg xmlns="http://www.w3.org/2000/svg" version="1.1" viewBox="0.00 0.00 1200.00 1200.00">
<path  d="
  M 854.52 572.67
  L 854.69 572.97
  Q 854.82 573.21 854.64 573.42
  C 852.12 576.32 849.54 579.19 847.51 582.43
  Q 844.05 587.99 839.74 593.12
  Q 838.36 594.77 838.65 596.77
  Q 838.72 597.25 838.41 597.62
  Q 832.65 604.57 827.68 612.29
  C 826.33 614.39 824.63 616.14 823.39 618.35
  Q 820.79 622.99 817.69 626.77
  Q 815.68 629.21 814.23 632.12
  Q 812.43 635.74 809.43 639.79
  Q 802.02 649.80 794.48 659.61
  Q 793.41 661.01 794.87 661.98
  Q 796.31 662.94 797.85 663.83
  Q 799.04 664.52 798.27 665.66
  L 795.39 669.94
  Q 794.71 670.95 793.75 670.19
  L 787.52 665.27
  A 1.49 1.48 -51.9 0 0 785.43 665.53
  L 779.33 673.42
  A 0.80 0.79 -51.7 0 1 778.20 673.56
  C 771.63 668.25 764.94 662.82 757.75 658.16
  Q 751.87 654.36 747.58 650.17
  A 0.69 0.68 -37.8 0 0 746.76 650.07
  Q 741.25 653.37 743.69 658.42
  A 0.96 0.96 0.0 0 1 742.86 659.79
  L 733.14 660.09
  Q 731.92 660.13 731.95 661.36
  L 732.01 663.86
  Q 732.03 664.93 733.10 664.93
  L 761.94 665.01
  A 1.14 1.13 -89.7 0 1 763.07 666.16
  L 762.97 674.70
  A 1.27 1.27 0.0 0 0 764.23 675.98
  Q 790.30 676.16 816.01 676.02
  Q 818.96 676.01 821.71 675.98
  A 1.34 1.34 0.0 0 0 823.03 674.50
  Q 821.49 660.07 822.24 645.41
  Q 822.29 644.50 823.19 644.34
  Q 825.35 643.96 827.75 643.97
  Q 839.35 644.05 850.51 644.50
  Q 862.41 644.98 870.49 644.99
  Q 904.28 645.01 938.26 645.02
  A 0.74 0.74 0.0 0 1 939.00 645.76
  L 939.00 709.99
  A 1.00 1.00 0.0 0 0 940.00 710.99
  L 971.98 711.03
  A 1.02 1.01 0.0 0 0 973.00 710.02
  L 972.99 607.27
  Q 972.99 605.87 973.45 604.55
  L 975.24 599.40
  A 0.28 0.28 0.0 0 1 975.75 599.37
  C 977.29 602.70 978.73 605.91 978.81 609.80
  Q 978.91 614.34 978.93 618.75
  Q 979.06 663.12 978.97 707.00
  Q 978.97 708.49 979.02 710.06
  A 0.97 0.96 -0.9 0 0 979.99 710.99
  L 1000.26 711.02
  A 0.74 0.74 0.0 0 1 1001.00 711.76
  L 1001.00 753.50
  Q 1001.00 754.00 1000.50 754.00
  L 967.49 754.00
  A 0.51 0.50 -90.0 0 0 966.99 754.51
  L 967.01 759.12
  A 0.88 0.88 0.0 0 1 966.13 760.00
  L 953.50 760.00
  Q 953.00 760.00 953.00 760.50
  L 952.96 803.99
  A 0.82 0.81 2.7 0 0 953.70 804.80
  Q 956.29 805.04 958.88 805.04
  Q 978.99 804.98 1002.27 805.01
  Q 1002.50 805.01 1002.48 805.23
  L 1001.83 814.70
  Q 1001.81 815.01 1001.50 815.01
  L 227.79 815.00
  Q 227.54 815.00 227.55 814.75
  Q 227.59 812.76 227.74 805.35
  Q 227.74 805.09 228.01 805.09
  Q 283.02 804.87 338.73 805.10
  C 341.41 805.11 344.13 804.85 346.76 805.04
  Q 346.89 805.05 346.95 804.93
  Q 347.01 804.78 346.96 804.65
  Q 346.93 804.57 346.84 804.54
  Q 342.70 803.20 338.56 800.19
  Q 324.30 789.82 318.71 772.75
  Q 316.80 766.89 316.92 761.21
  A 1.16 1.16 0.0 0 0 315.75 760.02
  C 310.72 760.06 305.65 760.46 300.70 759.93
  Q 298.63 759.70 296.81 758.53
  Q 260.14 734.77 227.89 714.24
  Q 226.03 713.06 226.00 710.74
  Q 225.88 701.95 226.14 693.66
  A 0.63 0.63 0.0 0 1 226.77 693.05
  L 243.76 692.99
  A 1.16 1.15 -0.0 0 0 244.91 691.85
  Q 245.11 673.91 244.82 656.37
  C 244.80 655.05 244.12 654.26 245.32 653.13
  C 247.28 651.27 249.05 649.67 250.23 647.15
  Q 261.45 623.10 272.44 599.90
  A 1.42 1.42 0.0 0 0 271.83 598.05
  L 265.06 594.44
  Q 264.55 594.16 264.34 593.62
  Q 263.55 591.58 264.01 589.16
  A 1.38 1.38 0.0 0 1 265.38 588.03
  Q 269.61 588.07 273.06 586.51
  A 1.55 1.54 -34.6 0 0 273.52 584.01
  L 266.91 577.35
  A 0.63 0.62 -27.3 0 1 267.25 576.30
  L 276.01 574.78
  A 0.64 0.64 0.0 0 1 276.76 575.36
  C 276.94 577.53 277.68 579.38 278.07 581.51
  C 278.74 585.25 283.39 584.47 285.53 582.68
  A 0.61 0.60 -54.7 0 0 285.36 581.65
  C 283.97 581.13 282.39 580.99 281.30 579.91
  Q 279.39 578.03 277.83 575.99
  Q 277.13 575.06 278.14 574.50
  Q 278.74 574.17 279.44 574.08
  Q 282.45 573.71 285.25 572.92
  Q 286.83 572.47 287.02 574.11
  Q 287.24 576.05 288.34 577.64
  Q 288.74 578.22 289.44 578.16
  Q 290.44 578.07 291.27 578.58
  Q 292.28 579.20 291.66 578.20
  L 289.04 573.98
  A 1.18 1.18 0.0 0 1 289.78 572.21
  L 294.86 571.03
  A 2.65 2.64 -28.8 0 1 297.35 571.75
  L 303.97 578.51
  Q 304.62 579.18 303.70 579.03
  Q 303.07 578.94 302.51 578.66
  C 301.50 578.15 300.39 578.59 299.53 579.19
  Q 298.73 579.76 299.70 579.92
  Q 302.11 580.34 304.21 579.41
  Q 304.53 579.27 304.85 579.39
  Q 306.44 579.99 308.17 580.01
  Q 313.47 580.08 318.79 580.03
  A 1.24 1.24 0.0 0 0 320.02 578.80
  L 320.08 571.95
  Q 320.09 570.99 321.05 571.00
  L 326.00 571.04
  Q 326.95 571.04 326.95 572.00
  L 326.99 578.93
  A 1.01 1.00 -89.4 0 0 327.96 579.93
  Q 341.85 580.39 355.12 579.93
  A 0.92 0.92 0.0 0 0 356.01 579.03
  Q 356.16 573.96 355.13 568.89
  A 0.71 0.70 -6.0 0 1 355.82 568.04
  L 371.36 567.99
  A 0.62 0.62 0.0 0 1 371.99 568.61
  L 372.02 578.76
  A 1.25 1.25 0.0 0 0 373.27 580.01
  L 407.17 580.02
  A 0.86 0.85 3.6 0 1 408.02 580.98
  Q 407.51 584.75 407.39 588.75
  C 406.67 611.64 407.43 639.09 406.89 665.35
  C 406.83 668.47 407.27 671.41 407.51 674.49
  Q 407.55 675.00 408.05 675.00
  L 416.72 675.00
  A 1.33 1.32 -90.0 0 0 418.04 673.67
  Q 417.96 650.21 418.02 626.74
  C 418.05 614.78 417.30 602.57 417.02 590.80
  Q 416.92 586.68 417.13 581.64
  A 0.68 0.68 0.0 0 1 417.81 580.98
  L 429.01 580.99
  A 2.01 2.00 -89.7 0 0 431.02 578.99
  L 431.03 568.06
  A 1.06 1.06 0.0 0 0 429.95 567.00
  L 422.79 567.12
  Q 421.48 567.15 422.38 566.20
  L 429.54 558.60
  A 2.23 2.22 21.4 0 1 431.17 557.89
  Q 444.27 557.86 457.55 557.97
  Q 459.81 557.99 461.15 559.51
  C 463.26 561.89 465.61 564.08 467.77 566.43
  Q 468.39 567.10 467.47 567.06
  Q 465.04 566.93 462.08 567.19
  Q 460.11 567.36 460.06 569.28
  Q 459.93 573.69 460.02 579.72
  Q 460.04 580.94 461.26 580.96
  Q 474.54 581.10 485.28 581.00
  Q 486.38 580.99 487.62 580.71
  A 0.59 0.59 0.0 0 0 487.94 579.75
  C 486.52 578.08 485.39 576.35 485.09 574.11
  Q 484.64 570.67 483.22 568.23
  Q 473.70 551.92 464.23 535.14
  Q 463.89 534.56 464.49 534.24
  L 466.16 533.35
  A 0.90 0.89 60.6 0 1 467.35 533.69
  L 488.03 568.35
  A 1.14 1.14 0.0 0 0 489.65 568.71
  C 491.04 567.78 492.36 567.16 494.11 567.44
  C 501.15 568.55 498.96 574.95 497.94 579.61
  A 1.01 1.00 -82.1 0 0 498.86 580.83
  Q 506.02 581.27 513.06 580.90
  Q 513.67 580.87 513.57 581.47
  Q 513.12 584.22 513.10 586.98
  Q 512.83 630.89 513.00 674.46
  Q 513.00 676.01 514.56 676.02
  L 520.48 676.03
  Q 522.05 676.03 522.03 674.46
  C 521.84 659.41 520.99 645.06 520.99 630.25
  Q 520.99 629.05 522.19 629.04
  L 539.02 628.94
  A 0.96 0.96 0.0 0 0 539.98 627.98
  L 540.04 616.90
  A 0.91 0.90 0.3 0 1 540.95 616.01
  L 563.24 616.01
  A 0.74 0.73 -0.0 0 1 563.98 616.74
  L 564.04 628.24
  A 0.70 0.70 0.0 0 0 564.74 628.94
  L 577.38 629.04
  A 0.60 0.60 0.0 0 1 577.97 629.63
  L 578.06 637.55
  Q 578.08 639.03 579.55 639.03
  L 625.03 638.99
  A 1.04 1.04 0.0 0 1 626.07 640.03
  L 625.97 674.75
  A 0.96 0.95 -85.0 0 0 626.75 675.69
  Q 628.52 676.00 630.50 676.03
  C 639.35 676.16 648.11 675.75 656.70 676.00
  Q 670.70 676.41 683.94 676.05
  C 692.28 675.81 700.61 676.27 709.01 675.85
  Q 710.09 675.80 710.08 674.72
  L 710.03 669.23
  Q 710.02 667.99 708.78 668.02
  Q 685.06 668.55 659.75 667.69
  C 656.84 667.59 654.67 665.99 652.09 664.95
  Q 647.76 663.21 643.36 661.31
  C 637.06 658.58 636.13 654.69 637.67 648.34
  C 638.63 644.40 633.50 638.02 631.78 634.55
  C 629.26 629.50 626.83 624.33 624.13 619.58
  Q 607.16 589.78 590.80 558.58
  Q 590.45 557.91 589.76 558.21
  Q 587.61 559.14 584.83 559.16
  A 2.08 2.08 0.0 0 1 582.91 557.92
  Q 578.16 546.93 569.17 540.29
  Q 568.03 539.46 568.03 537.99
  Q 568.03 531.96 568.05 526.10
  A 3.97 3.95 17.5 0 0 566.33 522.82
  L 479.67 463.09
  Q 478.40 462.22 479.72 461.43
  Q 480.38 461.03 481.41 460.41
  A 2.10 2.09 -41.6 0 1 483.77 460.54
  Q 486.08 462.33 487.21 462.17
  Q 491.23 461.58 487.54 459.88
  C 485.43 458.90 483.20 458.36 481.29 456.83
  Q 473.99 451.02 465.98 445.64
  Q 465.48 445.30 464.97 445.64
  Q 464.15 446.17 463.47 447.06
  Q 462.44 448.40 461.05 447.43
  L 458.67 445.77
  Q 457.74 445.13 458.38 444.21
  Q 472.77 423.61 485.93 404.24
  C 487.14 402.46 488.87 401.48 490.16 399.76
  Q 498.61 388.55 507.20 375.76
  Q 512.44 367.96 518.68 359.20
  Q 526.58 348.10 534.46 336.97
  Q 535.68 335.24 537.38 336.50
  Q 551.49 347.02 565.05 356.08
  C 566.96 357.35 568.51 358.91 570.06 360.58
  A 0.51 0.50 -54.1 0 0 570.89 360.44
  L 572.66 356.56
  A 1.03 1.03 0.0 0 1 574.22 356.16
  Q 579.87 360.35 587.14 365.10
  Q 590.57 367.33 592.98 370.89
  Q 593.92 372.27 592.26 372.05
  L 589.94 371.74
  Q 589.46 371.68 589.11 371.36
  Q 587.24 369.65 584.79 368.58
  Q 584.31 368.37 583.80 368.47
  Q 583.55 368.52 583.35 368.68
  Q 582.84 369.10 583.34 369.54
  Q 585.92 371.80 587.71 373.01
  Q 633.68 403.94 668.90 429.40
  Q 696.07 449.04 715.52 462.32
  C 732.08 473.62 748.22 485.16 764.82 496.82
  C 766.16 497.76 767.34 498.85 768.59 499.86
  Q 769.01 500.19 769.47 499.91
  Q 771.30 498.79 772.23 496.47
  Q 772.57 495.61 773.33 496.15
  L 791.47 509.05
  A 1.30 1.29 -56.8 0 1 791.82 510.77
  L 790.23 513.36
  Q 789.40 514.70 788.75 513.27
  Q 786.56 508.40 782.49 508.93
  A 0.34 0.34 0.0 0 0 782.23 509.41
  C 783.09 511.14 785.31 512.07 786.71 513.30
  Q 788.03 514.46 789.66 515.30
  C 797.29 519.22 804.36 524.81 811.57 529.83
  A 0.84 0.84 0.0 0 0 812.81 529.50
  L 814.37 526.16
  A 0.68 0.67 37.7 0 1 815.50 526.02
  Q 818.09 529.11 821.26 530.65
  A 0.96 0.96 0.0 0 1 821.34 532.33
  Q 819.99 533.16 819.14 534.39
  Q 818.67 535.07 819.36 535.53
  Q 833.34 544.82 846.73 554.99
  C 849.89 557.40 851.18 554.43 852.48 552.14
  Q 852.90 551.40 853.40 552.09
  Q 854.90 554.16 857.28 555.76
  Q 859.02 556.93 857.14 557.88
  L 855.80 558.55
  A 1.03 1.03 0.0 0 0 855.81 560.39
  L 860.30 562.63
  A 1.23 1.23 0.0 0 1 860.70 564.51
  C 859.79 565.63 859.13 566.84 858.13 567.88
  Q 856.67 569.38 855.74 571.46
  Q 855.43 572.15 854.68 572.31
  Q 854.36 572.38 854.52 572.67
  Z
  M 535.86 355.50
  Q 535.98 355.65 535.88 355.82
  Q 535.02 357.28 535.34 358.55
  Q 535.44 358.98 535.81 359.22
  Q 545.33 365.48 555.45 372.63
  Q 557.23 373.89 559.44 374.75
  A 1.42 1.41 -60.9 0 0 561.10 374.27
  L 566.88 366.41
  A 0.63 0.63 0.0 0 0 566.76 365.54
  Q 553.08 354.63 538.32 345.24
  A 1.05 1.04 33.6 0 0 536.90 345.52
  L 521.37 368.06
  A 0.83 0.83 0.0 0 0 521.74 369.30
  Q 522.59 369.65 523.39 370.19
  Q 536.85 379.25 549.86 388.39
  A 1.28 1.27 -57.3 0 0 551.69 387.99
  Q 553.44 384.99 556.00 382.30
  Q 557.40 380.83 555.62 379.87
  Q 554.61 379.33 553.76 378.75
  Q 541.90 370.71 530.57 362.78
  A 0.99 0.98 36.0 0 1 530.34 361.38
  L 535.01 355.18
  Q 535.29 354.80 535.59 355.17
  L 535.86 355.50
  Z
  M 653.04 453.29
  L 655.56 449.86
  Q 655.92 449.36 655.41 449.01
  L 566.72 387.26
  A 1.41 1.41 0.0 0 1 566.37 385.29
  Q 567.59 383.56 569.53 382.84
  Q 569.98 382.67 570.35 382.98
  Q 572.22 384.55 574.03 385.73
  Q 574.95 386.33 575.92 386.99
  Q 592.62 398.36 606.90 408.18
  Q 621.61 418.30 642.59 433.56
  C 647.91 437.43 653.47 440.78 658.61 444.79
  Q 659.06 445.14 659.40 444.68
  Q 661.54 441.86 664.39 438.96
  Q 665.72 437.61 665.84 435.75
  Q 665.87 435.23 665.50 434.86
  Q 664.49 433.85 663.30 433.00
  Q 623.30 404.57 579.25 374.16
  Q 577.01 372.62 575.13 370.64
  A 0.99 0.99 0.0 0 0 573.69 370.64
  Q 571.09 373.43 569.20 376.80
  C 566.83 381.05 563.91 384.83 560.99 388.70
  Q 560.67 389.12 560.97 389.56
  Q 561.21 389.90 561.69 389.90
  A 0.96 0.95 -27.9 0 1 562.22 390.06
  Q 575.24 399.06 587.33 407.20
  Q 591.84 410.23 595.84 413.11
  Q 600.11 416.18 604.28 418.99
  Q 608.29 421.69 612.01 424.22
  Q 617.80 428.14 623.84 432.25
  Q 629.49 436.10 635.47 440.51
  Q 643.72 446.60 652.15 452.36
  Q 652.60 452.67 652.57 453.18
  Q 652.52 454.00 653.04 453.29
  Z
  M 507.50 394.01
  Q 508.66 395.35 510.11 396.35
  C 517.23 401.21 524.80 405.72 531.14 411.54
  A 1.52 1.52 0.0 0 0 533.40 411.30
  L 541.83 399.55
  A 1.34 1.34 0.0 0 0 541.52 397.68
  L 514.87 378.69
  Q 513.83 377.94 513.09 378.99
  L 495.51 404.06
  Q 495.00 404.78 495.88 404.82
  C 496.58 404.85 497.29 405.23 497.86 405.60
  C 506.54 411.28 514.74 417.33 524.00 423.37
  Q 524.72 423.84 525.20 423.14
  L 529.47 416.92
  A 1.03 1.03 0.0 0 0 529.19 415.48
  L 504.85 399.56
  Q 503.47 398.66 504.41 397.31
  L 506.70 394.05
  Q 507.08 393.52 507.50 394.01
  Z
  M 564.26 395.23
  Q 563.92 394.83 563.97 394.24
  Q 564.01 393.84 563.76 393.51
  Q 563.72 393.46 563.67 393.43
  Q 562.89 393.06 563.05 393.92
  Q 563.10 394.20 562.96 394.39
  Q 562.68 394.75 562.32 394.47
  L 560.30 392.89
  A 0.62 0.62 0.0 0 1 560.25 391.96
  Q 560.93 391.27 560.88 390.31
  Q 560.84 389.54 560.44 390.20
  Q 559.82 391.24 559.30 392.35
  A 1.61 1.60 28.2 0 0 559.93 394.41
  Q 566.28 398.23 571.06 401.84
  Q 575.50 405.20 578.89 407.19
  Q 579.02 407.27 579.06 407.12
  L 579.16 406.78
  Q 579.22 406.57 579.05 406.43
  Q 576.99 404.79 575.82 402.76
  Q 575.71 402.57 575.52 402.46
  Q 575.21 402.28 574.95 402.55
  A 0.50 0.50 0.0 0 1 574.15 402.45
  Q 573.90 401.98 574.09 401.48
  Q 574.19 401.21 574.46 401.14
  Q 574.58 401.11 574.65 400.98
  Q 574.80 400.68 574.51 400.52
  L 572.60 399.44
  Q 572.31 399.28 572.35 399.61
  Q 572.38 399.93 572.62 399.94
  Q 573.01 399.95 573.18 400.29
  Q 573.43 400.77 572.99 400.96
  A 0.39 0.39 0.0 0 1 572.56 400.89
  L 570.60 399.02
  Q 570.23 398.66 570.12 398.16
  Q 569.91 397.12 568.95 396.66
  Q 567.23 395.82 565.50 394.51
  Q 565.17 394.27 564.95 394.61
  Q 564.85 394.77 564.86 394.99
  Q 564.90 395.97 564.26 395.23
  Z
  M 547.03 410.47
  A 0.28 0.28 0.0 0 1 547.46 410.25
  Q 593.38 441.22 639.38 473.30
  Q 640.77 474.27 641.57 472.77
  L 643.81 468.59
  Q 644.63 467.05 643.19 466.06
  Q 609.98 443.37 571.67 417.27
  Q 562.13 410.77 550.74 402.36
  A 1.47 1.46 -58.5 0 0 548.55 402.89
  Q 545.76 408.56 541.57 413.83
  Q 540.82 414.79 540.18 415.83
  Q 539.93 416.24 540.02 416.71
  C 540.63 419.79 545.07 423.46 547.20 418.92
  C 548.11 416.96 548.47 413.86 547.34 411.82
  Q 546.99 411.19 547.03 410.47
  Z
  M 592.60 413.05
  Q 592.63 412.89 592.68 412.73
  Q 592.86 412.20 592.38 411.90
  L 588.18 409.31
  Q 587.65 408.99 587.10 409.27
  Q 586.43 409.60 586.05 410.19
  Q 585.71 410.73 585.19 410.35
  L 580.39 406.91
  Q 580.17 406.75 580.04 406.98
  L 579.72 407.49
  Q 579.65 407.61 579.77 407.68
  Q 584.45 410.86 588.70 414.06
  C 596.89 420.23 605.51 425.59 614.07 431.68
  Q 624.57 439.15 632.22 444.32
  Q 639.99 449.58 648.89 456.46
  Q 649.56 456.97 650.13 456.36
  L 651.68 454.67
  Q 652.78 453.49 651.31 452.81
  Q 649.33 451.89 647.90 450.58
  C 645.87 448.71 643.45 447.97 641.40 446.08
  Q 639.80 444.60 637.70 443.18
  Q 629.24 437.43 619.97 430.82
  Q 607.24 421.75 594.03 413.10
  Q 593.67 412.86 593.28 413.07
  Q 593.16 413.14 593.05 413.26
  Q 592.40 414.06 592.60 413.05
  Z
  M 586.00 408.52
  Q 586.19 408.88 586.59 408.95
  Q 587.17 409.04 586.88 408.53
  Q 586.18 407.29 584.80 407.03
  Q 584.58 406.99 584.40 407.14
  Q 584.28 407.23 584.21 407.37
  Q 583.98 407.83 584.46 408.01
  Q 584.76 408.12 585.07 408.06
  A 0.85 0.85 0.0 0 1 586.00 408.52
  Z
  M 484.63 429.97
  Q 495.60 437.72 507.07 445.48
  A 1.75 1.74 34.9 0 0 509.47 445.06
  L 517.91 433.34
  A 0.72 0.72 0.0 0 0 517.61 432.26
  Q 515.45 431.34 513.64 430.10
  Q 501.31 421.71 489.04 413.04
  A 1.00 0.99 -55.6 0 0 487.63 413.31
  L 479.69 425.47
  Q 478.80 426.83 480.13 427.76
  C 481.60 428.77 483.16 428.93 484.63 429.97
  Z
  M 555.28 440.33
  Q 551.78 439.07 548.47 437.00
  Q 544.36 434.45 540.32 432.11
  Q 540.14 432.01 540.09 432.21
  L 540.01 432.57
  A 0.30 0.30 0.0 0 0 540.13 432.89
  Q 560.58 446.13 571.27 453.67
  Q 586.44 464.38 601.13 474.14
  A 0.35 0.34 -54.8 0 0 601.60 474.05
  L 604.64 469.73
  Q 604.77 469.56 604.59 469.43
  Q 589.37 458.78 572.89 447.90
  C 565.60 443.08 558.72 438.02 551.52 433.20
  Q 543.65 427.94 536.69 422.45
  A 1.44 1.43 40.2 0 0 534.73 422.61
  Q 533.69 423.76 533.43 425.30
  A 1.14 1.11 28.9 0 0 533.71 426.22
  Q 535.46 428.12 537.93 428.90
  Q 538.50 429.08 538.85 428.60
  Q 538.94 428.48 539.08 428.43
  Q 539.83 428.20 539.57 428.94
  Q 539.02 430.47 540.76 430.88
  Q 541.73 431.10 542.46 431.68
  A 0.75 0.75 0.0 0 0 543.35 431.72
  L 543.72 431.47
  Q 544.17 431.17 544.66 431.41
  C 547.02 432.60 548.77 434.34 550.95 435.71
  Q 553.52 437.34 555.94 439.08
  Q 560.15 442.09 555.28 440.33
  Z
  M 538.50 431.88
  Q 539.14 432.22 538.86 431.55
  Q 538.50 430.69 537.60 430.23
  Q 536.90 429.87 537.22 430.59
  Q 537.59 431.41 538.50 431.88
  Z
  M 499.71 458.70
  L 505.31 450.47
  A 0.21 0.21 0.0 0 0 505.25 450.17
  L 478.33 431.88
  A 2.16 1.34 34.2 0 0 475.79 431.77
  L 471.47 438.14
  A 2.16 1.34 34.2 0 0 472.50 440.46
  L 499.42 458.76
  A 0.21 0.21 0.0 0 0 499.71 458.70
  Z
  M 523.11 447.26
  A 0.87 0.87 0.0 0 1 524.22 447.13
  Q 539.88 457.50 552.54 466.22
  Q 561.58 472.44 570.79 478.60
  C 585.37 488.35 599.26 498.51 613.11 508.50
  Q 614.32 509.37 615.20 508.18
  Q 617.49 505.10 618.51 502.96
  Q 618.90 502.14 618.14 501.64
  Q 608.05 495.00 597.84 487.84
  C 584.42 478.43 570.67 469.24 557.20 459.75
  C 546.85 452.46 535.54 445.14 524.96 437.28
  A 1.26 1.25 33.8 0 0 523.14 437.64
  L 515.35 450.51
  A 0.51 0.51 0.0 0 0 515.58 451.24
  Q 518.27 452.40 520.11 454.64
  Q 520.68 455.33 520.81 454.44
  C 521.12 452.30 521.57 448.86 523.11 447.26
  Z
  M 722.07 488.22
  L 758.57 514.72
  Q 759.05 515.07 759.41 514.60
  L 765.58 506.80
  A 1.51 1.51 0.0 0 0 765.43 504.76
  Q 764.19 503.61 762.85 502.66
  Q 741.16 487.47 720.86 473.36
  Q 701.59 459.97 679.86 444.88
  Q 677.07 442.94 674.05 441.03
  A 1.41 1.41 0.0 0 0 672.13 441.42
  Q 665.67 450.82 658.01 461.48
  C 651.49 470.56 645.33 480.01 638.42 489.06
  Q 629.93 500.19 623.19 509.79
  Q 615.97 520.07 608.12 532.80
  Q 607.21 534.28 608.89 534.71
  Q 610.88 535.23 612.88 536.63
  Q 632.82 550.59 654.73 565.86
  C 668.93 575.76 682.80 585.92 697.20 595.55
  A 1.72 1.72 0.0 0 0 699.52 595.18
  L 703.23 590.43
  Q 704.12 589.28 702.90 588.50
  Q 683.41 575.93 663.65 562.11
  Q 657.88 558.08 650.63 553.72
  C 646.67 551.35 643.21 548.16 639.36 545.57
  Q 626.69 537.07 615.30 529.14
  Q 614.52 528.60 615.06 527.81
  L 622.71 516.59
  Q 623.48 515.46 624.65 516.16
  Q 627.27 517.73 630.36 519.87
  Q 656.53 538.00 682.28 555.95
  Q 688.65 560.39 694.92 564.73
  Q 703.07 570.37 711.76 576.47
  A 1.27 1.27 0.0 0 0 713.53 576.16
  L 716.57 571.80
  Q 717.24 570.85 716.29 570.18
  Q 681.72 545.89 646.68 521.55
  Q 637.54 515.20 628.56 509.43
  A 1.02 1.02 0.0 0 1 628.30 507.95
  L 634.67 499.58
  A 1.98 1.97 -53.4 0 1 637.40 499.17
  Q 662.13 517.12 682.53 531.16
  Q 700.56 543.57 719.12 556.18
  Q 719.56 556.48 720.09 556.50
  Q 721.18 556.55 721.68 557.54
  Q 722.34 558.88 723.41 559.80
  A 0.86 0.85 31.5 0 0 724.76 559.48
  Q 725.76 557.05 727.45 555.08
  Q 727.88 554.58 727.31 554.22
  Q 706.82 541.33 687.55 527.64
  Q 678.71 521.36 671.14 516.16
  Q 655.08 505.12 639.60 494.14
  Q 639.11 493.80 639.46 493.31
  L 648.66 480.32
  Q 649.00 479.83 649.48 480.19
  Q 663.34 490.70 670.59 495.64
  Q 705.91 519.70 736.57 541.92
  Q 738.12 543.04 739.23 541.50
  L 741.65 538.15
  Q 742.84 536.49 741.17 535.32
  L 653.76 474.08
  A 0.94 0.94 0.0 0 1 653.54 472.76
  L 660.01 463.75
  Q 660.96 462.43 661.67 463.89
  Q 662.03 464.61 662.69 465.10
  Q 674.15 473.54 685.23 481.43
  Q 685.78 481.82 686.27 481.35
  Q 687.34 480.32 687.88 479.08
  Q 688.35 477.99 687.29 478.53
  Q 685.91 479.24 684.65 478.33
  Q 678.13 473.63 671.74 469.46
  C 669.35 467.90 667.24 465.97 664.91 464.36
  Q 664.75 464.25 664.78 464.06
  Q 664.80 463.91 665.03 463.87
  Q 665.20 463.84 665.33 463.96
  Q 666.56 465.09 668.15 465.15
  Q 668.71 465.17 669.13 465.55
  C 670.76 467.01 672.34 467.52 673.92 469.39
  Q 674.54 470.13 675.47 469.90
  Q 676.31 469.70 675.53 469.32
  C 673.03 468.10 671.76 465.73 669.22 464.66
  Q 666.49 463.50 664.62 461.40
  Q 664.24 460.97 663.86 461.40
  Q 663.38 461.94 662.70 462.12
  Q 661.94 462.33 662.28 461.63
  L 663.26 459.57
  Q 663.54 458.99 663.99 459.44
  Q 666.51 462.01 670.10 464.04
  C 671.55 464.86 672.58 466.14 674.05 467.08
  Q 679.76 470.72 687.70 476.62
  A 1.77 1.77 0.0 0 0 689.24 476.90
  Q 690.27 476.60 690.66 475.92
  Q 691.81 473.95 689.92 472.67
  L 666.42 456.68
  A 0.82 0.82 0.0 0 1 666.21 455.52
  L 670.07 450.13
  A 0.33 0.32 -33.1 0 1 670.65 450.25
  L 670.97 451.77
  A 1.50 1.48 11.7 0 0 671.58 452.69
  L 693.89 468.32
  Q 694.35 468.64 694.87 468.44
  Q 696.05 467.99 697.04 468.84
  Q 698.73 470.28 700.10 471.69
  Q 700.16 471.75 700.11 471.80
  L 699.92 471.99
  Q 699.69 472.23 699.46 472.00
  Q 699.22 471.76 698.91 471.64
  Q 697.73 471.15 698.74 471.94
  Q 703.95 475.98 709.45 479.58
  Q 709.62 479.69 709.74 479.53
  L 709.75 479.53
  Q 709.87 479.37 709.72 479.23
  Q 706.92 476.79 703.56 474.90
  C 702.52 474.32 701.94 473.39 700.92 472.85
  Q 700.60 472.69 700.80 472.39
  L 700.97 472.14
  Q 701.05 472.02 701.16 472.10
  L 713.97 481.24
  A 0.53 0.48 -27.6 0 1 713.64 482.13
  Q 713.48 482.14 713.37 482.25
  Q 713.16 482.47 713.44 482.59
  Q 714.49 483.05 715.42 483.83
  Q 716.31 484.57 715.82 483.52
  Q 715.60 483.04 714.98 482.90
  Q 714.69 482.83 714.77 482.55
  Q 714.84 482.30 715.14 482.25
  A 0.36 0.36 0.0 0 1 715.46 482.36
  L 716.45 483.40
  Q 716.78 483.74 716.60 484.19
  Q 716.30 484.96 717.11 485.40
  Q 719.23 486.56 720.53 487.65
  Q 721.29 488.29 722.07 488.22
  Z
  M 540.75 474.78
  Q 526.57 465.68 512.52 455.20
  A 0.49 0.49 0.0 0 0 511.78 455.39
  Q 509.51 460.45 507.19 462.44
  A 0.64 0.64 0.0 0 0 507.23 463.44
  Q 521.03 473.70 535.17 482.72
  Q 536.68 483.69 538.40 483.76
  Q 538.93 483.78 539.19 483.31
  Q 540.88 480.32 543.72 477.86
  A 0.99 0.99 0.0 0 0 543.62 476.28
  C 542.72 475.69 541.68 475.38 540.75 474.78
  Z
  M 546.91 472.87
  A 1.75 1.75 0.0 0 0 547.14 474.36
  Q 547.73 475.21 548.67 475.24
  A 1.16 1.15 4.4 0 0 549.85 474.23
  Q 550.28 470.69 549.71 467.49
  Q 549.61 466.91 549.02 466.92
  A 0.50 0.49 -81.1 0 0 548.55 467.27
  L 546.91 472.87
  Z
  M 679.7900 473.0849
  A 1.95 0.59 42.4 0 0 678.7478 471.3343
  A 1.95 0.59 42.4 0 0 676.9100 470.4551
  A 1.95 0.59 42.4 0 0 677.9522 472.2057
  A 1.95 0.59 42.4 0 0 679.7900 473.0849
  Z
  M 683.38 475.94
  Q 683.96 476.12 683.62 475.62
  Q 682.84 474.44 681.68 473.51
  Q 680.77 472.78 681.07 473.91
  Q 681.45 475.33 683.38 475.94
  Z
  M 619.54 486.12
  Q 618.25 484.34 619.95 485.73
  Q 623.35 488.50 627.31 490.79
  A 0.45 0.45 0.0 0 0 627.92 490.64
  Q 629.31 488.37 630.58 486.90
  Q 630.80 486.65 630.51 486.47
  Q 621.75 480.94 612.96 474.93
  Q 610.97 473.57 609.73 475.64
  Q 608.76 477.27 608.05 479.02
  Q 607.85 479.53 608.32 479.82
  Q 608.71 480.07 608.93 479.66
  Q 609.38 478.82 610.22 479.24
  Q 611.11 479.68 611.50 480.66
  Q 611.78 481.34 611.25 480.83
  Q 610.51 480.11 609.56 480.09
  Q 608.72 480.08 609.22 480.75
  Q 609.69 481.38 610.39 481.67
  Q 613.18 482.81 614.97 484.44
  C 617.37 486.61 620.30 487.92 622.72 490.14
  C 623.76 491.09 625.15 491.70 626.52 492.04
  Q 626.65 492.07 626.74 491.98
  L 626.97 491.72
  Q 627.18 491.49 626.87 491.47
  Q 625.98 491.38 625.27 490.76
  Q 623.80 489.47 622.10 488.46
  Q 620.56 487.54 619.54 486.12
  Z
  M 751.48 521.83
  Q 750.21 521.29 749.13 520.52
  Q 746.74 518.84 743.96 517.09
  Q 743.40 516.73 743.06 517.31
  Q 742.88 517.60 742.50 517.48
  Q 742.28 517.41 742.43 517.23
  L 742.68 516.93
  Q 743.13 516.42 742.49 516.17
  C 742.15 516.04 741.88 516.01 741.57 515.78
  Q 731.50 508.33 721.27 501.59
  C 713.12 496.22 705.04 490.18 696.45 484.78
  Q 695.33 484.07 694.06 484.42
  L 692.74 484.78
  Q 691.40 485.14 692.52 485.96
  Q 717.22 504.05 742.06 521.16
  Q 746.14 523.98 748.92 526.36
  Q 749.61 526.95 750.14 526.22
  L 754.43 520.40
  Q 755.60 518.82 753.98 517.70
  Q 729.91 501.09 705.24 483.71
  Q 701.31 480.94 697.33 479.30
  A 1.71 1.70 -65.1 0 0 695.18 480.09
  Q 694.59 481.23 695.40 482.73
  A 2.42 2.40 -89.7 0 0 696.33 483.68
  Q 702.37 487.08 707.57 490.74
  C 717.65 497.83 727.84 504.70 738.17 512.05
  C 742.60 515.21 747.35 517.97 751.64 521.57
  Q 752.48 522.27 751.48 521.83
  Z
  M 712.9544 481.9626
  A 1.20 0.32 44.6 0 0 712.3247 480.8922
  A 1.20 0.32 44.6 0 0 711.2456 480.2774
  A 1.20 0.32 44.6 0 0 711.8753 481.3478
  A 1.20 0.32 44.6 0 0 712.9544 481.9626
  Z
  M 573.97 498.39
  Q 562.50 490.51 552.94 483.50
  Q 551.30 482.31 549.48 482.21
  Q 548.73 482.17 548.48 482.88
  Q 547.93 484.46 546.57 485.20
  C 544.96 486.08 544.20 487.56 545.75 489.15
  A 10.54 9.73 -2.3 0 0 547.10 490.30
  Q 559.28 498.88 570.56 506.44
  A 1.29 1.28 -48.5 0 0 572.13 506.34
  Q 575.58 503.26 577.89 499.27
  A 0.88 0.88 0.0 0 0 576.90 497.98
  L 574.78 498.53
  Q 574.34 498.65 573.97 498.39
  Z
  M 581.5893 497.7787
  A 4.01 0.98 94.3 0 0 582.8672 493.8535
  A 4.01 0.98 94.3 0 0 582.1907 489.7813
  A 4.01 0.98 94.3 0 0 580.9128 493.7065
  A 4.01 0.98 94.3 0 0 581.5893 497.7787
  Z
  M 578.36 510.56
  A 1.54 1.54 0.0 0 0 578.65 512.81
  L 599.32 527.39
  A 1.54 1.54 0.0 0 0 601.41 527.08
  L 605.41 522.01
  A 1.54 1.54 0.0 0 0 605.08 519.79
  L 584.44 505.48
  A 1.54 1.54 0.0 0 0 582.39 505.76
  L 578.36 510.56
  Z
  M 784.01 532.34
  C 784.82 532.66 785.16 533.42 785.91 533.91
  Q 791.82 537.73 796.99 542.00
  Q 798.91 543.59 801.16 544.64
  A 0.83 0.81 -56.2 0 0 802.11 544.44
  C 803.63 542.74 804.69 540.84 806.33 539.19
  Q 807.93 537.59 808.61 535.81
  Q 808.85 535.20 808.30 534.83
  C 802.03 530.63 795.98 526.16 789.73 521.92
  Q 781.70 516.48 773.94 510.40
  A 1.74 1.73 -51.4 0 0 771.52 510.68
  L 765.13 518.55
  A 0.80 0.80 0.0 0 0 765.27 519.70
  Q 774.18 526.31 782.58 531.63
  Q 783.24 532.05 784.01 532.34
  Z
  M 760.75 529.73
  Q 761.37 529.60 761.89 529.95
  Q 771.09 536.12 781.80 544.00
  Q 788.16 548.68 794.90 552.88
  Q 796.22 553.70 796.96 552.33
  L 797.57 551.21
  Q 798.22 550.00 797.11 549.20
  Q 782.15 538.48 766.72 527.52
  Q 764.68 526.07 762.45 524.66
  Q 760.79 523.61 760.15 525.48
  Q 759.30 528.00 757.54 530.02
  Q 755.90 531.89 758.02 533.20
  Q 761.71 535.49 764.30 537.37
  Q 780.11 548.85 792.38 557.56
  Q 792.71 557.79 792.85 557.42
  Q 793.43 555.96 794.61 554.79
  A 0.39 0.38 -50.2 0 0 794.56 554.20
  Q 781.90 545.39 770.09 537.70
  Q 764.81 534.26 760.25 530.33
  Q 759.80 529.94 760.38 529.81
  L 760.75 529.73
  Z
  M 709.91 600.39
  Q 709.81 600.32 709.88 600.22
  L 721.30 584.31
  Q 721.84 583.56 722.57 584.12
  Q 738.20 596.27 754.54 607.06
  Q 757.27 608.86 755.38 606.19
  Q 755.21 605.96 755.25 604.99
  Q 755.26 604.49 755.69 604.22
  C 758.82 602.30 756.43 598.25 754.11 596.74
  Q 740.27 587.68 726.61 577.59
  A 0.80 0.80 0.0 0 1 726.44 576.48
  L 732.75 567.77
  Q 733.61 566.57 734.44 567.79
  Q 734.88 568.44 735.55 568.91
  Q 752.00 580.44 766.15 590.58
  Q 767.18 591.32 767.88 590.27
  Q 768.84 588.83 769.69 587.58
  Q 770.83 585.89 769.14 584.75
  Q 753.39 574.22 738.70 564.54
  Q 738.09 564.14 737.39 563.92
  A 1.10 1.09 25.8 0 1 736.81 562.26
  L 745.71 549.24
  Q 746.04 548.76 746.51 549.11
  Q 757.79 557.65 769.79 565.54
  C 772.69 567.45 776.12 570.24 779.54 572.38
  Q 780.67 573.09 781.38 571.97
  Q 782.86 569.65 784.82 567.40
  Q 785.80 566.26 784.54 565.45
  Q 765.80 553.38 748.80 540.42
  A 0.64 0.63 35.0 0 0 747.88 540.58
  Q 742.44 548.95 735.90 557.78
  C 732.89 561.85 730.22 566.11 727.22 570.08
  Q 723.88 574.49 720.67 579.29
  Q 713.63 589.85 705.46 600.22
  C 704.62 601.28 704.89 602.36 705.79 603.24
  Q 706.21 603.65 706.76 603.45
  Q 706.96 603.37 707.18 603.37
  Q 707.65 603.35 708.04 603.62
  Q 725.96 615.74 740.40 626.04
  Q 742.49 627.52 742.12 630.44
  Q 741.81 632.89 743.40 631.00
  Q 746.18 627.69 748.63 624.11
  Q 749.50 622.84 750.68 621.91
  A 0.28 0.28 0.0 0 0 750.71 621.49
  L 750.52 621.28
  Q 750.45 621.21 750.37 621.27
  Q 749.76 621.69 749.36 622.30
  Q 748.97 622.91 748.36 622.52
  Q 740.71 617.68 734.01 612.75
  Q 728.01 608.32 724.73 606.14
  Q 720.01 603.00 715.21 599.83
  Q 714.15 599.13 713.36 599.40
  Q 712.26 599.77 711.83 600.80
  Q 711.78 600.92 711.65 600.92
  Q 710.71 600.90 709.91 600.39
  Z
  M 827.45 576.76
  A 0.75 0.74 -48.1 0 1 827.51 577.92
  Q 826.08 579.19 825.57 580.93
  Q 824.97 582.96 826.67 581.69
  C 827.55 581.03 828.42 580.30 829.08 579.41
  Q 831.24 576.43 833.45 573.46
  C 834.51 572.05 835.15 570.38 836.30 569.20
  Q 837.60 567.87 838.56 566.21
  Q 840.13 563.49 842.31 561.19
  A 1.82 1.82 0.0 0 0 842.03 558.44
  L 816.04 540.41
  Q 815.16 539.79 814.50 540.74
  Q 807.67 550.50 800.29 560.28
  Q 799.90 560.80 799.12 562.57
  A 1.20 1.19 -46.0 0 0 799.13 563.54
  Q 799.31 563.90 799.66 564.08
  Q 800.15 564.33 800.54 563.93
  L 802.70 561.72
  Q 803.81 560.59 805.13 561.46
  Q 816.78 569.13 827.45 576.76
  Z
  M 605.64 559.18
  C 617.97 568.63 631.84 577.79 643.75 587.96
  Q 644.12 588.29 644.59 588.15
  A 0.33 0.33 0.0 0 0 644.79 587.70
  Q 640.91 579.21 636.87 572.00
  Q 636.12 570.67 634.47 569.47
  Q 619.87 558.92 606.31 550.25
  A 0.25 0.25 0.0 0 0 605.93 550.47
  Q 606.24 554.68 605.27 558.05
  A 1.06 1.06 0.0 0 0 605.64 559.18
  Z
  M 813.0831 572.6589
  A 0.27 0.27 0.0 0 0 813.0287 572.2810
  L 801.9786 564.0145
  A 0.27 0.27 0.0 0 0 801.6006 564.0689
  L 801.4569 564.2611
  A 0.27 0.27 0.0 0 0 801.5113 564.6390
  L 812.5614 572.9055
  A 0.27 0.27 0.0 0 0 812.9394 572.8511
  L 813.0831 572.6589
  Z
  M 850.38 565.87
  L 848.93 564.95
  A 0.25 0.25 0.0 0 0 848.59 565.02
  L 847.69 566.42
  A 23.35 0.76 -57.5 0 0 835.79 586.52
  L 836.38 586.90
  A 23.35 0.76 -57.5 0 0 849.57 567.62
  L 850.46 566.22
  A 0.25 0.25 0.0 0 0 850.38 565.87
  Z
  M 788.86 583.05
  Q 788.15 585.11 786.72 586.78
  Q 784.88 588.91 787.25 590.48
  Q 797.63 597.34 808.50 605.34
  Q 810.36 606.71 811.69 604.81
  Q 815.43 599.46 819.94 594.38
  A 1.25 1.25 0.0 0 0 819.73 592.53
  Q 807.89 584.07 794.89 575.65
  Q 794.52 575.41 794.11 575.29
  A 1.39 1.39 0.0 0 1 793.32 573.21
  L 795.69 569.50
  Q 796.14 568.80 795.69 568.10
  L 795.37 567.61
  Q 794.96 566.99 794.51 567.58
  Q 788.22 575.88 781.63 585.45
  Q 781.20 586.08 781.22 586.81
  A 1.85 1.84 68.1 0 0 784.30 588.13
  Q 786.93 585.75 788.66 582.95
  Q 789.17 582.14 788.86 583.05
  Z
  M 815.8647 574.9579
  A 1.31 0.31 45.1 0 0 815.1596 573.8112
  A 1.31 0.31 45.1 0 0 814.0153 573.1021
  A 1.31 0.31 45.1 0 0 814.7204 574.2488
  A 1.31 0.31 45.1 0 0 815.8647 574.9579
  Z
  M 667.82 640.82
  C 664.78 634.35 661.84 627.85 659.25 621.24
  Q 657.96 617.92 655.45 614.93
  C 642.61 599.61 627.16 588.25 611.70 576.11
  Q 608.88 573.90 610.78 576.94
  C 614.87 583.52 617.92 590.19 621.67 596.73
  C 628.53 608.71 634.72 620.59 641.13 632.30
  Q 643.23 636.13 644.12 640.09
  Q 644.44 641.51 645.79 640.94
  C 648.98 639.61 652.64 639.53 655.75 641.08
  C 658.70 642.55 663.85 642.16 667.03 642.09
  A 0.89 0.89 0.0 0 0 667.82 640.82
  Z
  M 825.0532 580.7055
  A 0.26 0.26 0.0 0 0 824.9780 580.3456
  L 818.5182 576.1184
  A 0.26 0.26 0.0 0 0 818.1582 576.1936
  L 818.0268 576.3945
  A 0.26 0.26 0.0 0 0 818.1020 576.7544
  L 824.5618 580.9816
  A 0.26 0.26 0.0 0 0 824.9218 580.9064
  L 825.0532 580.7055
  Z
  M 291.46 579.61
  Q 290.52 579.95 289.60 579.44
  Q 289.14 579.19 289.02 579.70
  Q 288.86 580.47 288.94 581.21
  A 0.74 0.73 -85.9 0 0 289.47 581.83
  Q 292.48 582.69 294.58 581.13
  Q 295.07 580.76 294.59 580.37
  Q 293.02 579.06 291.46 579.61
  Z
  M 656.37 585.66
  Q 655.44 584.99 654.57 584.37
  Q 653.59 583.68 653.95 584.82
  Q 655.63 590.01 658.50 595.24
  Q 660.09 598.14 662.96 600.41
  Q 667.63 604.11 672.74 607.66
  Q 687.75 618.11 701.25 627.37
  A 4.09 4.08 49.4 0 0 705.33 627.69
  Q 708.28 626.28 711.26 625.74
  Q 712.67 625.49 711.49 624.68
  Q 678.17 601.65 656.37 585.66
  Z
  M 301.59 587.25
  C 295.42 587.26 289.12 589.13 283.21 590.78
  Q 281.83 591.17 281.76 592.61
  Q 281.75 592.88 281.88 593.13
  A 1.39 1.38 73.1 0 0 283.29 593.89
  Q 300.69 591.77 309.50 591.85
  Q 354.53 592.21 399.63 591.91
  Q 401.07 591.90 401.05 590.47
  L 401.02 588.44
  Q 401.00 587.14 399.71 587.15
  Q 374.32 587.35 349.51 587.09
  C 333.14 586.92 317.72 587.22 301.59 587.25
  Z
  M 424.59 589.07
  A 0.63 0.62 0.0 0 0 423.96 589.69
  L 424.01 598.33
  Q 424.02 600.09 425.79 600.07
  Q 460.58 599.75 493.49 600.23
  C 497.54 600.29 501.52 600.98 505.48 600.74
  A 0.62 0.62 0.0 0 0 506.07 600.13
  L 506.12 590.17
  A 0.95 0.95 0.0 0 0 505.17 589.22
  L 424.59 589.07
  Z
  M 773.52 597.67
  C 783.00 603.89 792.18 610.49 801.01 617.36
  Q 801.78 617.96 802.37 617.19
  L 806.66 611.57
  A 1.22 1.22 0.0 0 0 806.48 609.90
  Q 804.41 608.12 802.03 606.66
  Q 792.85 601.08 783.68 594.60
  Q 781.29 592.91 778.61 591.46
  Q 777.99 591.12 777.56 591.68
  L 773.41 597.04
  Q 773.13 597.41 773.52 597.67
  Z
  M 821.87 609.30
  C 823.67 606.50 826.52 603.27 827.11 599.95
  A 0.78 0.76 25.2 0 0 826.84 599.22
  Q 826.47 598.92 826.02 599.05
  Q 825.52 599.19 825.24 599.69
  Q 821.67 606.07 815.48 614.42
  C 813.62 616.93 810.47 620.81 809.84 623.82
  Q 809.52 625.36 810.82 624.50
  Q 811.41 624.12 811.82 623.57
  Q 817.29 616.40 821.87 609.30
  Z
  M 761.59 608.71
  C 764.78 607.58 769.14 603.86 765.89 600.23
  C 764.62 598.80 762.67 599.09 761.44 600.31
  Q 761.02 600.73 761.02 601.31
  L 760.96 608.26
  A 0.48 0.47 80.1 0 0 761.59 608.71
  Z
  M 368.81 645.09
  L 398.78 644.80
  A 1.12 1.12 0.0 0 0 399.89 643.69
  L 399.97 600.87
  A 0.85 0.84 89.7 0 0 399.12 600.02
  L 365.97 600.09
  A 1.04 1.04 0.0 0 0 364.94 601.14
  Q 365.09 621.83 364.84 642.25
  Q 364.79 645.67 365.66 655.29
  Q 366.20 661.28 366.29 684.79
  A 0.36 0.36 0.0 0 0 366.74 685.13
  L 367.07 685.05
  Q 367.77 684.86 367.76 684.13
  Q 367.72 665.16 368.18 645.72
  Q 368.19 645.10 368.81 645.09
  Z
  M 293.91 645.28
  Q 305.04 644.68 317.33 644.99
  C 329.75 645.31 342.60 645.21 355.05 644.87
  A 1.92 1.91 -0.6 0 0 356.92 642.97
  L 357.03 601.05
  A 0.98 0.98 0.0 0 0 356.05 600.07
  L 308.28 600.05
  A 1.41 1.41 0.0 0 0 306.99 600.89
  Q 299.32 618.28 290.91 637.07
  Q 290.04 639.02 288.16 639.96
  Q 272.24 647.93 257.51 655.23
  C 255.87 656.04 254.04 656.30 252.52 657.12
  Q 251.96 657.42 251.96 658.06
  L 252.02 691.74
  Q 252.02 692.97 253.25 692.97
  L 255.53 692.97
  Q 256.91 692.97 256.88 691.59
  Q 256.58 678.79 257.13 667.95
  Q 257.18 666.94 258.08 666.48
  C 268.28 661.31 279.27 654.57 290.34 649.32
  A 0.68 0.67 -33.8 0 1 291.11 649.47
  Q 291.60 650.00 291.94 650.77
  Q 292.01 650.93 292.17 650.98
  Q 292.37 651.04 292.56 650.93
  Q 292.75 650.83 292.77 650.62
  L 293.21 645.95
  Q 293.27 645.32 293.91 645.28
  Z
  M 275.35 638.57
  Q 275.28 638.74 275.46 638.68
  L 284.12 636.11
  A 0.76 0.75 -86.2 0 0 284.58 635.70
  L 299.82 602.40
  Q 300.48 600.96 298.89 600.97
  L 293.67 601.01
  Q 292.29 601.02 291.72 602.28
  C 290.56 604.80 289.71 607.51 288.54 609.88
  Q 282.01 623.04 275.35 638.57
  Z
  M 273.28 630.69
  C 277.61 621.81 282.12 612.96 285.73 603.71
  Q 285.78 603.57 285.82 603.44
  A 1.15 1.15 0.0 0 0 284.52 601.97
  L 277.73 603.20
  Q 277.17 603.30 276.96 603.82
  Q 275.17 608.16 273.28 612.75
  C 270.37 619.83 266.68 626.63 263.25 633.60
  C 261.87 636.41 261.37 639.10 259.22 641.64
  Q 258.20 642.84 259.75 642.54
  L 267.16 641.11
  Q 268.62 640.83 269.30 639.50
  C 270.78 636.58 271.87 633.57 273.28 630.69
  Z
  M 475.75 609.04
  Q 480.00 609.16 484.47 609.73
  Q 486.72 610.02 488.99 609.43
  Q 489.31 609.35 489.25 609.03
  L 489.19 608.72
  Q 489.12 608.34 488.73 608.34
  Q 484.87 608.40 481.25 608.06
  Q 477.45 607.70 473.87 607.76
  Q 457.63 608.04 439.65 608.31
  Q 439.43 608.31 439.44 608.53
  L 439.44 608.83
  Q 439.45 608.89 439.51 608.89
  Q 457.62 608.49 475.75 609.04
  Z
  M 762.48 624.76
  C 765.53 626.58 768.81 628.39 771.57 630.48
  Q 778.78 635.93 785.68 640.50
  A 1.26 1.24 35.0 0 0 787.37 640.21
  L 795.38 629.58
  A 1.48 1.47 -48.6 0 0 795.27 627.67
  Q 794.06 626.39 792.58 625.40
  Q 785.01 620.30 777.45 614.81
  C 776.30 613.98 774.65 613.18 773.18 613.42
  C 770.38 613.89 763.64 614.66 762.26 617.48
  Q 760.89 620.27 759.10 622.67
  A 0.63 0.62 -62.9 0 0 759.41 623.65
  C 760.52 623.99 761.47 624.16 762.48 624.76
  Z
  M 481.18 616.59
  Q 484.66 617.27 488.64 616.67
  A 0.57 0.57 0.0 0 0 488.99 615.73
  Q 488.46 615.13 487.58 615.14
  C 482.89 615.16 478.23 614.76 473.49 614.82
  Q 457.04 615.02 440.65 615.28
  Q 440.40 615.28 440.40 615.53
  L 440.40 615.78
  Q 440.40 615.80 440.42 615.80
  Q 457.22 615.68 473.25 615.84
  Q 477.51 615.88 481.18 616.59
  Z
  M 667.87 616.89
  L 680.06 641.05
  A 1.26 1.23 -2.9 0 0 680.75 641.66
  C 686.51 643.76 689.63 639.35 691.98 635.00
  A 2.15 2.14 -61.8 0 0 691.11 632.10
  Q 689.66 631.32 688.46 630.48
  Q 678.74 623.71 668.79 616.45
  Q 668.54 616.27 668.24 616.28
  A 0.42 0.42 0.0 0 0 667.87 616.89
  Z
  M 471.52 621.87
  C 461.31 621.41 450.92 622.16 440.67 622.27
  Q 440.43 622.28 440.43 622.52
  L 440.43 622.53
  Q 440.43 622.77 440.68 622.77
  Q 454.84 622.75 468.62 623.25
  C 473.37 623.42 478.14 624.07 482.81 623.99
  C 483.49 623.98 483.81 624.15 484.41 624.39
  Q 484.92 624.58 485.46 624.46
  Q 487.27 624.02 488.73 623.53
  Q 490.11 623.08 488.78 622.50
  Q 487.58 621.97 486.01 621.98
  Q 482.38 622.02 478.76 622.02
  Q 475.13 622.03 471.52 621.87
  Z
  M 769.12 647.65
  Q 772.67 650.25 776.51 652.73
  A 1.16 1.15 -57.8 0 0 778.12 652.36
  Q 779.78 649.61 782.32 647.24
  A 1.73 1.73 0.0 0 0 782.40 644.79
  Q 781.27 643.59 779.92 642.67
  Q 770.70 636.34 761.70 630.50
  Q 759.98 629.39 757.95 628.43
  Q 756.40 627.70 755.38 629.07
  L 751.57 634.19
  Q 750.54 635.57 752.02 636.44
  Q 761.34 641.97 769.12 647.65
  Z
  M 489.72 631.66
  L 489.74 630.24
  A 0.10 0.10 0.0 0 0 489.64 630.13
  L 489.41 630.13
  A 49.11 0.80 0.8 0 0 440.29 630.24
  L 440.29 630.26
  A 49.11 0.80 0.8 0 0 489.39 631.75
  L 489.62 631.75
  A 0.10 0.10 0.0 0 0 489.72 631.66
  Z
  M 570.91 636.75
  A 1.65 1.65 0.0 0 0 569.26 635.10
  L 529.60 635.10
  A 1.65 1.65 0.0 0 0 527.95 636.75
  L 527.95 639.27
  A 1.65 1.65 0.0 0 0 529.60 640.92
  L 569.26 640.92
  A 1.65 1.65 0.0 0 0 570.91 639.27
  L 570.91 636.75
  Z
  M 719.2660 656.9509
  A 10.70 10.16 94.9 0 0 730.3029 647.1578
  A 10.70 10.16 94.9 0 0 721.0940 635.6291
  A 10.70 10.16 94.9 0 0 710.0571 645.4222
  A 10.70 10.16 94.9 0 0 719.2660 656.9509
  Z
  M 796.38 642.58
  Q 791.21 649.61 786.23 656.44
  Q 785.73 657.14 786.27 657.80
  L 786.45 658.02
  A 0.51 0.51 0.0 0 0 787.24 658.01
  Q 792.86 650.88 798.58 643.58
  Q 800.08 641.65 801.31 639.51
  Q 802.10 638.11 802.03 637.32
  Q 801.81 634.94 800.27 636.75
  C 798.76 638.55 797.77 640.70 796.38 642.58
  Z
  M 489.9999 637.9563
  A 0.83 0.83 0.0 0 0 489.1685 637.1278
  L 440.8086 637.2122
  A 0.83 0.83 0.0 0 0 439.9800 638.0437
  L 439.9801 638.0837
  A 0.83 0.83 0.0 0 0 440.8115 638.9122
  L 489.1714 638.8278
  A 0.83 0.83 0.0 0 0 490.0000 637.9963
  L 489.9999 637.9563
  Z
  M 578.76 645.01
  A 1.37 1.37 0.0 0 0 577.40 646.42
  L 578.30 674.67
  A 1.37 1.37 0.0 0 0 579.67 676.00
  L 619.71 676.04
  A 1.37 1.37 0.0 0 0 621.08 674.64
  L 620.40 646.32
  A 1.37 1.37 0.0 0 0 619.03 644.98
  L 578.76 645.01
  Z
  M 648.5466 656.7487
  A 5.11 4.82 114.8 0 0 655.0655 654.1318
  A 5.11 4.82 114.8 0 0 652.8334 647.4713
  A 5.11 4.82 114.8 0 0 646.3145 650.0882
  A 5.11 4.82 114.8 0 0 648.5466 656.7487
  Z
  M 487.8389 650.9568
  A 1.09 1.09 0.0 0 0 486.7546 649.8611
  L 486.3946 649.8592
  A 1.09 1.09 0.0 0 0 485.2989 650.9435
  L 485.2211 665.8032
  A 1.09 1.09 0.0 0 0 486.3054 666.8989
  L 486.6654 666.9008
  A 1.09 1.09 0.0 0 0 487.7611 665.8165
  L 487.8389 650.9568
  Z
  M 297.61 652.77
  C 299.51 653.61 301.08 652.68 301.68 650.77
  Q 301.83 650.26 301.32 650.15
  Q 299.23 649.69 297.73 650.20
  A 1.38 1.38 0.0 0 0 297.61 652.77
  Z
  M 377.30 652.00
  Q 379.18 650.52 376.82 650.15
  Q 374.77 649.84 372.41 650.37
  Q 371.45 650.58 372.07 651.35
  Q 374.43 654.25 377.30 652.00
  Z
  M 886.77 700.22
  Q 887.74 700.24 887.76 699.27
  Q 888.14 679.36 887.92 660.41
  Q 887.91 659.23 887.75 657.98
  A 0.93 0.93 0.0 0 1 888.67 656.94
  L 925.20 656.90
  A 1.81 1.80 89.8 0 1 927.00 658.70
  L 927.11 700.68
  Q 927.12 702.25 928.68 702.21
  L 929.17 702.20
  Q 930.99 702.16 930.99 700.33
  L 931.03 652.19
  A 1.04 1.03 0.3 0 0 930.00 651.16
  Q 888.49 650.71 848.95 651.15
  C 843.12 651.21 837.05 650.97 831.21 651.22
  Q 829.98 651.27 829.97 652.50
  L 829.96 655.47
  Q 829.95 656.74 831.22 656.74
  L 883.99 657.00
  A 0.91 0.91 0.0 0 1 884.89 657.91
  L 885.10 698.62
  Q 885.11 699.96 886.43 700.19
  Q 886.60 700.22 886.77 700.22
  Z
  M 292.9175 652.4524
  A 1.20 1.20 0.0 0 0 291.7196 651.2504
  L 291.3396 651.2497
  A 1.20 1.20 0.0 0 0 290.1375 652.4476
  L 290.0825 683.9276
  A 1.20 1.20 0.0 0 0 291.2804 685.1296
  L 291.6604 685.1303
  A 1.20 1.20 0.0 0 0 292.8625 683.9324
  L 292.9175 652.4524
  Z
  M 556.8902 653.5424
  A 1.27 1.27 0.0 0 0 555.6313 652.2613
  L 546.1717 652.1788
  A 1.27 1.27 0.0 0 0 544.8907 653.4376
  L 544.8898 653.5376
  A 1.27 1.27 0.0 0 0 546.1487 654.8187
  L 555.6083 654.9012
  A 1.27 1.27 0.0 0 0 556.8893 653.6424
  L 556.8902 653.5424
  Z
  M 350.12 664.55
  Q 349.86 663.57 350.76 663.10
  Q 353.19 661.84 354.64 659.77
  Q 355.02 659.23 354.37 659.12
  C 352.66 658.84 348.39 659.55 347.65 657.25
  Q 346.82 654.67 345.85 652.51
  Q 345.51 651.77 345.32 652.56
  Q 344.79 654.74 343.60 656.82
  Q 342.91 658.03 341.51 658.02
  L 335.73 657.98
  A 0.51 0.51 0.0 0 0 335.34 658.82
  Q 337.38 661.17 339.96 662.57
  A 2.08 2.08 0.0 0 1 340.87 665.22
  Q 339.82 667.63 339.06 670.27
  Q 339.01 670.44 339.08 670.55
  Q 339.26 670.84 339.55 670.66
  L 344.59 667.53
  A 1.64 1.64 0.0 0 1 346.37 667.56
  L 351.13 670.76
  Q 351.87 671.26 351.65 670.40
  L 350.12 664.55
  Z
  M 474.04 663.10
  A 0.92 0.92 0.0 0 0 473.12 662.18
  L 446.90 662.18
  A 0.92 0.92 0.0 0 0 445.98 663.10
  L 445.98 665.92
  A 0.92 0.92 0.0 0 0 446.90 666.84
  L 473.12 666.84
  A 0.92 0.92 0.0 0 0 474.04 665.92
  L 474.04 663.10
  Z
  M 569.1499 679.4248
  A 1.36 1.36 0.0 0 0 567.7875 678.0672
  L 530.1476 678.1328
  A 1.36 1.36 0.0 0 0 528.7900 679.4952
  L 528.7901 679.5552
  A 1.36 1.36 0.0 0 0 530.1525 680.9128
  L 567.7924 680.8472
  A 1.36 1.36 0.0 0 0 569.1500 679.4848
  L 569.1499 679.4248
  Z
  M 590.43 698.90
  A 2.13 2.13 0.0 0 1 588.57 699.99
  L 526.84 700.05
  A 2.22 2.21 75.2 0 1 524.89 698.91
  L 517.21 685.07
  A 1.95 1.95 0.0 0 0 515.56 684.07
  C 494.53 683.56 472.23 684.01 450.82 683.94
  C 444.84 683.92 438.69 683.58 432.73 684.05
  Q 430.75 684.21 429.88 685.65
  Q 418.66 704.20 407.55 724.70
  Q 406.33 726.97 408.91 727.01
  L 411.72 727.04
  Q 414.26 727.07 415.45 724.83
  Q 423.80 709.08 433.75 691.85
  C 435.23 689.29 440.01 689.92 442.47 689.91
  Q 476.00 689.80 506.43 689.86
  Q 509.02 689.87 511.53 690.32
  A 1.62 1.61 74.0 0 1 512.41 690.81
  Q 513.52 692.02 514.23 693.53
  Q 517.50 700.40 521.47 707.01
  Q 522.36 708.49 523.10 710.25
  Q 523.31 710.75 523.86 710.76
  Q 524.60 710.78 525.30 710.42
  Q 525.81 710.15 526.37 710.29
  L 527.76 710.65
  Q 528.32 710.79 528.75 710.39
  Q 529.84 709.36 531.33 709.29
  Q 542.08 708.75 553.46 709.29
  Q 561.63 709.68 569.13 709.32
  Q 580.23 708.80 585.11 709.61
  Q 587.90 710.08 591.53 710.05
  Q 592.05 710.05 592.40 709.68
  Q 593.74 708.29 594.60 706.63
  Q 598.63 698.82 603.16 690.80
  Q 603.40 690.37 603.89 690.29
  Q 607.28 689.76 609.50 689.77
  Q 728.32 690.06 847.14 689.84
  Q 850.49 689.84 851.04 689.98
  Q 853.09 690.50 854.03 692.34
  Q 861.32 706.59 871.74 724.98
  Q 872.98 727.15 875.47 727.10
  L 878.20 727.04
  Q 880.85 726.98 879.52 724.69
  Q 867.17 703.41 857.91 685.78
  Q 857.11 684.26 855.26 684.12
  Q 851.89 683.87 848.00 683.89
  Q 797.41 684.08 754.52 684.02
  C 714.72 683.97 674.60 683.98 634.00 684.01
  Q 620.09 684.02 606.25 683.93
  C 603.73 683.92 599.05 683.35 597.65 685.92
  Q 593.97 692.66 590.43 698.90
  Z
  M 401.07 694.44
  A 1.44 1.44 0.0 0 0 399.63 693.00
  L 290.41 693.00
  A 1.44 1.44 0.0 0 0 288.97 694.44
  L 288.97 695.56
  A 1.44 1.44 0.0 0 0 290.41 697.00
  L 399.63 697.00
  A 1.44 1.44 0.0 0 0 401.07 695.56
  L 401.07 694.44
  Z
  M 267.60 706.09
  L 268.16 702.31
  A 1.01 1.00 -86.0 0 0 267.17 701.16
  Q 250.03 701.10 234.81 701.05
  Q 232.48 701.04 232.87 703.44
  Q 232.89 703.55 232.88 703.66
  Q 232.60 706.07 235.09 705.99
  Q 248.40 705.58 257.91 706.08
  Q 260.08 706.20 262.36 707.55
  Q 271.01 712.65 279.16 717.79
  Q 292.20 726.00 295.80 728.20
  Q 318.58 742.13 340.10 755.41
  Q 343.33 757.40 351.66 761.86
  A 1.03 1.02 46.6 0 0 352.55 761.89
  Q 353.38 761.52 353.27 760.90
  Q 352.99 759.34 351.84 758.63
  C 333.44 747.36 314.95 735.36 296.18 724.18
  Q 286.02 718.12 271.78 709.03
  Q 270.08 707.94 268.03 706.92
  Q 267.52 706.66 267.60 706.09
  Z
  M 738.9574 706.0165
  A 0.84 0.84 0.0 0 0 738.1160 705.1780
  L 712.8760 705.2220
  A 0.84 0.84 0.0 0 0 712.0375 706.0635
  L 712.0426 708.9635
  A 0.84 0.84 0.0 0 0 712.8840 709.8020
  L 738.1240 709.7580
  A 0.84 0.84 0.0 0 0 738.9625 708.9165
  L 738.9574 706.0165
  Z
  M 316.4318 715.0709
  A 4.51 4.31 106.2 0 0 321.8289 711.9425
  A 4.51 4.31 106.2 0 0 318.9482 706.4091
  A 4.51 4.31 106.2 0 0 313.5511 709.5375
  A 4.51 4.31 106.2 0 0 316.4318 715.0709
  Z
  M 527.39 716.88
  Q 533.38 728.66 539.24 738.41
  A 3.43 3.42 -14.0 0 0 542.01 740.07
  L 544.30 740.19
  Q 546.54 740.31 545.41 738.37
  L 532.87 716.92
  Q 532.25 715.86 531.03 715.85
  L 528.04 715.84
  Q 526.86 715.83 527.39 716.88
  Z
  M 736.63 746.18
  L 738.55 746.16
  A 0.47 0.47 0.0 0 0 739.01 745.69
  L 738.83 720.09
  A 4.35 1.35 89.6 0 0 737.45 715.75
  L 737.29 715.75
  A 4.35 1.35 89.6 0 0 735.97 720.11
  L 736.15 745.71
  A 0.47 0.47 0.0 0 0 736.63 746.18
  Z
  M 569.55 739.07
  A 0.64 0.64 0.0 0 0 570.10 740.03
  L 575.46 740.04
  A 0.64 0.64 0.0 0 0 576.03 739.69
  L 587.86 716.68
  A 0.64 0.64 0.0 0 0 587.21 715.75
  L 583.14 716.26
  A 0.64 0.64 0.0 0 0 582.67 716.57
  L 569.55 739.07
  Z
  M 712.78 745.57
  Q 713.44 745.19 714.13 745.54
  Q 714.77 745.86 714.79 745.15
  Q 715.07 731.52 714.83 720.08
  Q 714.81 719.03 714.72 717.83
  Q 714.65 716.99 713.81 716.89
  L 713.38 716.84
  A 1.06 1.05 -86.4 0 0 712.20 717.88
  L 712.16 745.21
  A 0.42 0.41 -14.8 0 0 712.78 745.57
  Z
  M 920.69 729.74
  Q 921.44 731.03 919.95 731.02
  Q 915.54 731.01 911.56 730.39
  A 0.50 0.49 -12.4 0 0 911.07 731.15
  L 919.66 743.98
  A 2.37 2.36 72.8 0 0 921.64 745.03
  Q 933.51 744.87 945.53 745.17
  C 954.01 745.39 962.62 746.24 971.27 745.95
  A 0.76 0.76 0.0 0 0 972.00 745.19
  L 972.00 718.96
  A 1.00 0.99 -0.0 0 0 971.00 717.97
  Q 944.98 718.08 918.00 718.12
  C 912.73 718.13 907.54 717.65 902.26 718.25
  A 0.14 0.13 -23.2 0 0 902.17 718.47
  L 906.68 723.66
  A 0.54 0.53 -18.1 0 0 907.07 723.85
  L 916.07 724.07
  Q 917.40 724.10 918.06 725.24
  L 920.69 729.74
  Z
  M 994.01 718.76
  A 0.78 0.78 0.0 0 0 993.23 717.98
  L 979.77 717.98
  A 0.78 0.78 0.0 0 0 978.99 718.76
  L 978.99 745.22
  A 0.78 0.78 0.0 0 0 979.77 746.00
  L 993.23 746.00
  A 0.78 0.78 0.0 0 0 994.01 745.22
  L 994.01 718.76
  Z
  M 270.1464 722.8162
  A 4.15 3.64 -2.4 0 0 265.8476 719.3532
  A 4.15 3.64 -2.4 0 0 261.8536 723.1638
  A 4.15 3.64 -2.4 0 0 266.1524 726.6268
  A 4.15 3.64 -2.4 0 0 270.1464 722.8162
  Z
  M 482.9064 773.6946
  A 23.62 23.51 67.9 0 0 495.8027 742.9650
  A 23.62 23.51 67.9 0 0 465.1336 729.9254
  A 23.62 23.51 67.9 0 0 452.2373 760.6550
  A 23.62 23.51 67.9 0 0 482.9064 773.6946
  Z
  M 631.5082 772.3462
  A 23.63 23.24 119.6 0 0 663.3871 763.2792
  A 23.63 23.24 119.6 0 0 654.8518 731.2538
  A 23.63 23.24 119.6 0 0 622.9729 740.3208
  A 23.63 23.24 119.6 0 0 631.5082 772.3462
  Z
  M 801.8876 775.0694
  A 23.43 23.39 96.5 0 0 827.7796 754.4378
  A 23.43 23.39 96.5 0 0 807.1924 728.5106
  A 23.43 23.39 96.5 0 0 781.3004 749.1422
  A 23.43 23.39 96.5 0 0 801.8876 775.0694
  Z
  M 883.58 735.10
  C 882.80 733.77 882.24 732.07 880.40 731.98
  Q 878.50 731.89 876.58 731.94
  Q 875.84 731.96 876.28 732.56
  Q 878.31 735.40 880.16 738.81
  Q 882.63 743.38 887.49 741.80
  A 0.38 0.37 -27.2 0 0 887.68 741.22
  Q 885.41 738.27 883.58 735.10
  Z
  M 409.75 734.01
  A 0.78 0.78 0.0 0 0 409.04 732.83
  L 403.35 733.15
  A 0.78 0.78 0.0 0 0 402.70 733.58
  L 399.50 739.96
  A 0.78 0.78 0.0 0 0 400.22 741.08
  L 405.11 740.95
  A 0.78 0.78 0.0 0 0 405.75 740.58
  L 409.75 734.01
  Z
  M 548.90 794.97
  A 0.95 0.95 0.0 0 1 548.00 794.02
  L 548.00 761.39
  Q 548.00 759.01 545.62 759.00
  L 531.84 758.95
  A 0.68 0.68 0.0 0 0 531.16 759.59
  C 530.09 775.31 522.44 788.83 510.42 798.91
  Q 506.30 802.36 500.88 804.32
  Q 499.04 804.98 501.00 804.99
  L 559.64 805.02
  Q 561.05 805.02 561.04 803.61
  L 560.98 796.30
  A 1.38 1.38 0.0 0 0 559.51 794.93
  Q 553.92 795.26 548.90 794.97
  Z
  M 599.28 792.31
  C 592.10 783.58 586.14 771.85 585.89 760.97
  Q 585.87 760.12 585.03 760.08
  Q 575.81 759.64 566.68 760.09
  A 0.68 0.68 0.0 0 0 566.03 760.77
  L 565.98 804.04
  A 0.67 0.66 -85.5 0 0 566.53 804.70
  Q 568.47 805.00 570.50 805.01
  C 585.47 805.08 600.45 805.17 615.42 804.92
  Q 616.85 804.90 615.55 804.30
  C 609.48 801.52 603.56 797.51 599.28 792.31
  Z
  M 560.9597 761.1622
  A 1.20 1.20 0.0 0 0 559.7513 759.9706
  L 554.1515 760.0097
  A 1.20 1.20 0.0 0 0 552.9599 761.2180
  L 553.0203 769.8778
  A 1.20 1.20 0.0 0 0 554.2287 771.0694
  L 559.8285 771.0303
  A 1.20 1.20 0.0 0 0 561.0201 769.8220
  L 560.9597 761.1622
  Z
  M 692.77 782.99
  C 687.02 792.35 680.77 799.06 670.63 804.23
  Q 669.14 804.99 670.81 804.99
  L 776.50 805.05
  Q 777.76 805.05 776.65 804.44
  C 771.46 801.64 766.47 798.43 762.46 794.04
  Q 753.75 784.50 749.50 771.74
  C 748.34 768.23 747.92 764.62 747.05 761.06
  A 1.40 1.39 83.1 0 0 745.70 759.99
  L 699.79 759.99
  A 0.77 0.77 0.0 0 0 699.02 760.77
  C 699.18 768.54 696.87 776.32 692.77 782.99
  Z
  M 854.80 781.43
  Q 846.68 796.90 831.74 804.32
  Q 830.38 805.00 831.90 805.00
  Q 865.79 804.97 894.25 805.10
  Q 908.95 805.16 924.04 804.87
  A 0.88 0.87 89.7 0 0 924.90 803.99
  L 925.04 761.27
  A 1.27 1.27 0.0 0 0 923.77 759.99
  L 862.30 760.00
  A 1.83 1.83 0.0 0 0 860.49 761.55
  C 859.79 766.05 859.22 770.42 857.70 774.73
  Q 856.46 778.25 854.80 781.43
  Z
  M 948.0011 760.8851
  A 0.90 0.90 0.0 0 0 947.0995 759.9867
  L 931.8595 760.0133
  A 0.90 0.90 0.0 0 0 930.9611 760.9149
  L 930.9789 771.1149
  A 0.90 0.90 0.0 0 0 931.8805 772.0133
  L 947.1205 771.9867
  A 0.90 0.90 0.0 0 0 948.0189 771.0851
  L 948.0011 760.8851
  Z
  M 560.9692 777.3779
  A 1.40 1.40 0.0 0 0 559.5790 775.9682
  L 554.4191 775.9322
  A 1.40 1.40 0.0 0 0 553.0094 777.3224
  L 552.9308 788.5821
  A 1.40 1.40 0.0 0 0 554.3210 789.9918
  L 559.4809 790.0278
  A 1.40 1.40 0.0 0 0 560.8906 788.6376
  L 560.9692 777.3779
  Z
  M 947.9970 778.0351
  A 1.07 1.07 0.0 0 0 946.9251 776.9670
  L 932.0051 776.9930
  A 1.07 1.07 0.0 0 0 930.9370 778.0649
  L 930.9630 792.9849
  A 1.07 1.07 0.0 0 0 932.0349 794.0530
  L 946.9549 794.0270
  A 1.07 1.07 0.0 0 0 948.0230 792.9551
  L 947.9970 778.0351
  Z
  M 422.78 783.65
  Q 415.42 797.80 400.65 804.38
  Q 399.32 804.97 400.78 804.98
  L 446.72 805.03
  Q 447.01 805.03 447.01 804.74
  Q 447.01 804.50 446.77 804.43
  C 441.37 802.83 437.51 800.04 433.35 796.06
  Q 426.60 789.62 423.71 783.66
  Q 423.26 782.74 422.78 783.65
  Z
  M 948.0434 800.0895
  A 0.96 0.96 0.0 0 0 947.0801 799.1328
  L 931.5002 799.1872
  A 0.96 0.96 0.0 0 0 930.5435 800.1506
  L 930.5566 803.8905
  A 0.96 0.96 0.0 0 0 931.5199 804.8472
  L 947.0998 804.7928
  A 0.96 0.96 0.0 0 0 948.0565 803.8294
  L 948.0434 800.0895
  Z"
/>
<path  d="
  M 527.06 366.77
  A 0.36 0.35 -44.4 0 0 526.57 366.77
  Q 524.87 368.34 524.36 368.62
  Q 524.30 368.66 524.25 368.61
  L 524.25 368.61
  Q 524.10 368.46 524.27 368.33
  Q 525.61 367.27 526.17 365.76
  Q 526.41 365.11 526.95 365.55
  Q 531.17 369.00 535.92 371.96
  C 541.65 375.53 546.81 379.79 552.65 383.48
  A 0.28 0.28 0.0 0 1 552.71 383.90
  L 552.37 384.29
  Q 552.20 384.49 552.00 384.32
  Q 548.89 381.77 545.41 379.82
  C 544.62 379.37 544.19 378.67 543.46 378.25
  Q 541.83 377.32 540.24 376.12
  Q 537.14 373.79 533.47 371.56
  Q 529.78 369.31 527.06 366.77
  Z"
/>
<path  d="
  M 541.63 379.17
  Q 541.54 379.12 541.53 379.02
  Q 541.37 377.44 542.32 378.72
  Q 543.05 379.71 544.16 380.05
  Q 546.22 380.68 544.07 380.86
  Q 543.39 380.91 543.04 380.42
  Q 542.51 379.67 541.63 379.17
  Z"
/>
<path  d="
  M 570.72 381.96
  Q 570.13 382.40 570.24 381.67
  Q 570.38 380.72 571.27 380.28
  Q 571.55 380.15 571.79 380.33
  Q 572.33 380.74 571.79 381.15
  L 570.72 381.96
  Z"
/>
<path  d="
  M 545.58 381.11
  Q 546.28 380.89 546.85 381.33
  Q 548.69 382.76 550.96 384.12
  Q 551.66 384.54 551.87 385.32
  Q 552.09 386.12 551.41 385.65
  L 546.51 382.21
  A 0.98 0.94 -28.0 0 0 545.90 382.04
  Q 545.27 382.08 544.75 382.53
  Q 544.21 383.00 544.39 382.31
  Q 544.62 381.41 545.58 381.11
  Z"
/>
<path  d="
  M 577.46 382.02
  Q 577.78 381.53 578.32 381.35
  A 0.32 0.32 0.0 0 1 578.67 381.84
  Q 578.21 382.48 577.56 382.94
  A 0.54 0.54 0.0 0 0 577.42 383.67
  Q 577.78 384.21 577.91 384.82
  Q 578.05 385.52 577.38 385.75
  Q 575.45 386.39 574.82 384.70
  A 0.98 0.97 2.3 0 0 574.30 384.14
  Q 573.16 383.62 572.26 382.77
  A 0.68 0.68 0.0 0 1 572.29 381.75
  Q 573.50 380.73 574.99 382.09
  A 1.74 1.49 38.9 0 0 577.46 382.02
  Z"
/>
<rect  x="-7.59" y="-0.36" transform="translate(522.73,393.03) rotate(38.3)" width="15.18" height="0.72" rx="0.26"/>
<path  d="
  M 568.32 397.35
  A 0.39 0.39 0.0 0 1 568.95 397.58
  Q 569.05 398.10 568.76 398.54
  Q 568.41 399.08 568.12 398.51
  Q 567.77 397.81 568.32 397.35
  Z"
/>
<path  d="
  M 488.06 421.02
  A 0.04 0.04 0.0 0 1 488.12 421.00
  L 488.35 421.13
  Q 488.51 421.22 488.42 421.39
  L 484.92 427.85
  A 0.15 0.15 0.0 0 1 484.71 427.91
  L 484.48 427.76
  Q 484.18 427.56 484.38 427.26
  Q 486.47 424.24 488.06 421.02
  Z"
/>
<path  d="
  M 541.09 429.76
  Q 540.72 429.09 541.42 429.40
  Q 542.37 429.81 542.99 430.61
  Q 543.49 431.25 542.71 431.03
  Q 541.62 430.72 541.09 429.76
  Z"
/>
<path  d="
  M 646.71 452.91
  Q 646.08 452.75 646.42 452.20
  L 646.55 451.98
  Q 646.68 451.78 646.88 451.91
  Q 648.26 452.81 649.60 453.16
  Q 649.95 453.25 649.77 453.56
  L 649.53 453.99
  A 0.33 0.33 0.0 0 1 649.04 454.09
  Q 647.98 453.22 646.71 452.91
  Z"
/>
<path  d="
  M 618.20 484.82
  Q 618.52 485.07 618.11 485.05
  Q 616.92 484.97 616.30 483.85
  Q 615.76 482.89 616.63 483.57
  L 618.20 484.82
  Z"
/>
<path  d="
  M 718.74 485.50
  Q 718.22 485.21 718.02 484.65
  Q 717.74 483.86 718.41 484.37
  Q 719.10 484.91 719.71 485.55
  A 0.31 0.30 -56.0 0 1 719.77 485.87
  Q 719.66 486.11 719.48 486.11
  Q 719.34 486.11 719.25 486.01
  L 719.03 485.74
  A 1.19 0.94 78.1 0 0 718.74 485.50
  Z"
/>
<path  d="
  M 722.07 488.22
  Q 721.90 487.63 721.27 486.81
  Q 720.54 485.86 721.49 486.60
  Q 721.90 486.92 722.39 487.41
  A 0.38 0.38 0.0 0 1 722.37 487.97
  L 722.07 488.22
  Z"
/>
<rect  x="-6.10" y="-0.31" transform="translate(555.09,490.59) rotate(35.1)" width="12.20" height="0.62" rx="0.29"/>
<path  d="
  M 614.13 530.75
  L 683.72 578.15
  Q 683.89 578.27 683.78 578.45
  L 683.62 578.69
  Q 683.59 578.74 683.54 578.71
  C 680.20 576.83 676.88 574.93 673.64 572.82
  Q 659.93 563.85 646.73 554.72
  Q 636.66 547.76 624.53 539.60
  Q 623.49 538.90 622.47 538.11
  Q 621.42 537.31 620.29 536.70
  Q 616.57 534.70 613.27 531.92
  A 0.55 0.54 -48.2 0 1 613.23 531.13
  L 613.53 530.81
  A 0.46 0.46 0.0 0 1 614.13 530.75
  Z"
/>
<path  d="
  M 834.39 570.42
  L 830.94 572.88
  A 0.70 0.70 0.0 0 1 830.13 572.89
  L 807.33 557.01
  A 0.70 0.70 0.0 0 1 807.18 556.01
  L 810.11 552.19
  A 0.70 0.70 0.0 0 1 811.08 552.06
  L 834.40 569.29
  A 0.70 0.70 0.0 0 1 834.39 570.42
  Z"
/>
<ellipse  cx="0.00" cy="0.00" transform="translate(836.15,566.90) rotate(127.5)" rx="1.33" ry="0.39"/>
<path  d="
  M 745.91 624.20
  Q 746.08 624.32 745.94 624.48
  L 745.72 624.74
  A 0.26 0.26 0.0 0 1 745.37 624.79
  L 712.55 601.51
  A 0.29 0.29 0.0 0 1 712.50 601.09
  L 712.67 600.88
  A 0.63 0.63 0.0 0 1 713.51 600.77
  L 745.91 624.20
  Z"
/>
<path  d="
  M 305.64 615.22
  Q 307.89 610.13 310.20 605.30
  A 1.69 1.68 -83.0 0 1 311.37 604.38
  Q 313.49 603.93 315.75 603.95
  Q 334.15 604.07 352.05 603.96
  A 0.98 0.98 0.0 0 1 353.04 604.94
  L 352.91 639.19
  A 0.95 0.94 -4.3 0 1 352.10 640.12
  Q 345.75 641.04 339.03 641.01
  Q 317.47 640.89 295.83 640.91
  Q 293.81 640.91 294.45 639.00
  Q 295.07 637.17 295.84 635.50
  C 299.00 628.74 302.64 622.01 305.64 615.22
  Z
  M 305.13 629.67
  Q 304.32 631.54 303.36 633.40
  A 0.42 0.42 0.0 0 0 303.74 634.01
  C 310.51 633.92 317.48 634.65 324.10 634.85
  Q 334.06 635.15 345.02 634.94
  Q 346.98 634.91 346.99 632.94
  L 347.01 611.26
  A 1.25 1.25 0.0 0 0 345.76 610.00
  L 315.52 610.01
  A 1.70 1.68 -75.8 0 0 314.03 610.91
  Q 309.77 618.90 305.13 629.67
  Z"
/>
<path  d="
  M 396.1212 640.0226
  A 0.97 0.97 0.0 0 1 395.1546 640.9960
  L 370.0147 641.0838
  A 0.97 0.97 0.0 0 1 369.0413 640.1172
  L 368.9188 605.0174
  A 0.97 0.97 0.0 0 1 369.8854 604.0440
  L 395.0253 603.9562
  A 0.97 0.97 0.0 0 1 395.9987 604.9228
  L 396.1212 640.0226
  Z
  M 390.03 611.37
  A 1.38 1.38 0.0 0 0 388.65 609.99
  L 376.39 609.99
  A 1.38 1.38 0.0 0 0 375.01 611.37
  L 375.01 633.59
  A 1.38 1.38 0.0 0 0 376.39 634.97
  L 388.65 634.97
  A 1.38 1.38 0.0 0 0 390.03 633.59
  L 390.03 611.37
  Z"
/>
<path  d="
  M 720.1576 653.1897
  A 6.60 6.18 89.5 0 1 713.9202 646.6439
  A 6.60 6.18 89.5 0 1 720.0424 639.9903
  A 6.60 6.18 89.5 0 1 726.2798 646.5361
  A 6.60 6.18 89.5 0 1 720.1576 653.1897
  Z
  M 720.4672 649.0593
  A 3.00 2.59 91.2 0 0 723.1194 646.1142
  A 3.00 2.59 91.2 0 0 720.5928 643.0607
  A 3.00 2.59 91.2 0 0 717.9406 646.0058
  A 3.00 2.59 91.2 0 0 720.4672 649.0593
  Z"
/>
<path  d="
  M 660.79 751.69
  A 17.76 17.76 0.0 0 1 643.03 769.45
  A 17.76 17.76 0.0 0 1 625.27 751.69
  A 17.76 17.76 0.0 0 1 643.03 733.93
  A 17.76 17.76 0.0 0 1 660.79 751.69
  Z
  M 643.8735 757.8998
  A 6.51 6.26 82.2 0 0 649.1921 750.6004
  A 6.51 6.26 82.2 0 0 642.1065 745.0002
  A 6.51 6.26 82.2 0 0 636.7879 752.2996
  A 6.51 6.26 82.2 0 0 643.8735 757.8998
  Z"
/>
<path  d="
  M 822.16 751.76
  A 17.67 17.67 0.0 0 1 804.49 769.43
  A 17.67 17.67 0.0 0 1 786.82 751.76
  A 17.67 17.67 0.0 0 1 804.49 734.09
  A 17.67 17.67 0.0 0 1 822.16 751.76
  Z
  M 805.1888 758.0204
  A 6.55 5.74 83.7 0 0 810.1753 750.8801
  A 6.55 5.74 83.7 0 0 803.7512 744.9996
  A 6.55 5.74 83.7 0 0 798.7647 752.1399
  A 6.55 5.74 83.7 0 0 805.1888 758.0204
  Z"
/>
<path  d="
  M 491.0097 756.8012
  A 17.89 17.65 16.2 0 1 468.9058 768.7592
  A 17.89 17.65 16.2 0 1 456.6503 746.8188
  A 17.89 17.65 16.2 0 1 478.7542 734.8608
  A 17.89 17.65 16.2 0 1 491.0097 756.8012
  Z
  M 470.3326 756.8368
  A 6.40 6.10 125.4 0 0 479.0123 755.1536
  A 6.40 6.10 125.4 0 0 477.7474 746.4032
  A 6.40 6.10 125.4 0 0 469.0677 748.0864
  A 6.40 6.10 125.4 0 0 470.3326 756.8368
  Z"
/>
<rect  x="-5.49" y="-5.00" transform="translate(185.52,810.00) rotate(0.2)" width="10.98" height="10.00" rx="0.97"/>
<rect  x="-6.99" y="-5.00" transform="translate(210.01,810.00) rotate(0.3)" width="13.98" height="10.00" rx="1.02"/>
<rect  x="-5.99" y="-4.99" transform="translate(1019.01,810.00) rotate(0.4)" width="11.98" height="9.98" rx="0.98"/>
<rect  x="-5.49" y="-4.99" transform="translate(1041.51,810.00) rotate(0.2)" width="10.98" height="9.98" rx="0.96"/>
</svg>
