<?xml version="1.0" encoding="UTF-8" standalone="no"?>
<!DOCTYPE svg PUBLIC "-//W3C//DTD SVG 1.1//EN" "http://www.w3.org/Graphics/SVG/1.1/DTD/svg11.dtd">
<svg xmlns="http://www.w3.org/2000/svg" version="1.1" viewBox="0.00 0.00 1024.00 1024.00">
<path  d="
  M 175.32 731.15
  Q 172.16 728.75 168.53 725.67
  C 161.76 719.93 155.94 712.98 150.01 706.12
  A 0.42 0.42 0.0 0 1 150.14 705.47
  Q 153.90 703.65 157.65 700.50
  A 0.82 0.81 -50.7 0 0 157.52 699.16
  Q 153.44 696.94 149.03 698.86
  Q 148.55 699.07 148.28 698.62
  Q 146.85 696.32 146.21 693.76
  Q 143.97 684.91 142.80 676.55
  A 1.30 1.29 75.9 0 0 141.08 675.51
  C 137.47 676.81 135.14 675.74 132.64 672.88
  Q 118.79 657.02 106.26 642.43
  Q 83.54 615.98 57.28 584.97
  Q 56.34 583.85 55.12 582.55
  Q 54.75 582.15 54.29 582.47
  C 52.98 583.39 48.99 586.37 47.51 584.59
  Q 39.70 575.17 33.23 567.40
  Q 32.11 566.06 33.67 565.27
  Q 36.65 563.75 39.63 561.53
  A 0.36 0.35 45.4 0 0 39.63 560.96
  Q 38.26 559.93 37.15 558.57
  Q 33.53 554.11 29.81 550.02
  A 0.30 0.30 0.0 0 1 29.93 549.53
  L 65.82 537.13
  A 1.82 1.82 0.0 0 0 67.05 535.41
  L 67.06 525.93
  A 0.82 0.82 0.0 0 1 67.86 525.11
  Q 81.13 524.72 97.10 525.51
  Q 99.30 525.62 101.50 524.93
  Q 112.79 521.40 124.67 517.13
  Q 129.64 515.34 134.47 512.82
  Q 135.35 512.36 134.38 512.16
  Q 127.56 510.79 124.67 505.02
  Q 119.92 495.53 127.31 488.09
  C 132.96 482.40 142.78 482.33 148.76 487.20
  C 151.62 489.52 154.74 494.52 153.35 498.41
  Q 152.10 501.89 155.56 500.59
  C 158.61 499.45 161.86 501.02 164.72 502.36
  Q 166.29 503.09 167.96 502.47
  Q 172.54 500.75 176.85 498.64
  C 178.20 497.98 180.11 498.36 180.08 496.22
  Q 179.90 484.18 180.06 470.07
  Q 180.07 469.11 181.02 469.08
  Q 195.00 468.60 209.47 470.16
  A 0.64 0.63 3.0 0 1 210.04 470.79
  L 209.97 485.39
  Q 209.96 487.39 211.91 486.96
  L 217.95 485.65
  Q 220.02 485.20 220.02 483.08
  L 220.02 474.95
  A 1.04 1.04 0.0 0 1 221.06 473.91
  L 249.22 474.04
  Q 249.97 474.04 249.98 473.28
  L 250.10 460.88
  Q 250.11 460.00 250.99 460.00
  L 265.25 460.00
  A 0.75 0.74 -90.0 0 1 265.99 460.75
  L 265.99 470.06
  Q 265.99 470.79 266.67 470.52
  Q 276.22 466.77 286.06 463.06
  C 288.61 462.10 288.07 458.96 288.01 456.80
  A 0.77 0.77 0.0 0 1 288.78 456.00
  L 296.02 456.01
  A 1.03 1.03 0.0 0 0 297.05 454.98
  L 296.99 448.02
  A 0.77 0.77 0.0 0 1 297.73 447.24
  L 323.18 446.08
  A 1.64 1.63 -1.7 0 1 324.89 447.68
  L 325.01 455.99
  A 0.98 0.97 0.3 0 0 325.97 456.95
  Q 334.14 457.20 341.61 456.86
  Q 342.47 456.82 343.35 456.52
  Q 344.83 456.02 344.89 457.58
  L 345.07 462.24
  A 0.46 0.46 0.0 0 0 345.52 462.68
  Q 369.04 463.13 390.16 463.13
  Q 392.51 463.13 395.37 462.87
  A 0.64 0.64 0.0 0 0 395.89 461.97
  Q 394.69 459.30 393.49 456.78
  C 392.50 454.68 390.39 454.26 388.37 453.78
  Q 373.43 450.20 359.03 446.79
  Q 357.59 446.45 355.88 445.53
  Q 355.38 445.27 355.24 444.72
  Q 354.83 443.04 355.01 441.13
  A 1.02 1.02 0.0 0 0 353.99 440.01
  L 341.72 439.99
  A 0.69 0.69 0.0 0 1 341.03 439.30
  Q 341.00 437.00 340.95 434.46
  C 340.90 431.77 338.50 431.99 336.13 432.02
  Q 311.40 432.30 288.76 430.33
  C 287.44 430.22 286.05 430.63 284.75 430.57
  Q 276.42 430.18 269.83 430.15
  Q 192.49 429.80 110.11 430.04
  Q 106.78 430.05 106.16 427.23
  Q 106.01 426.56 105.99 422.38
  Q 105.94 415.99 106.08 409.12
  A 2.13 2.13 0.0 0 1 108.21 407.03
  L 339.96 407.02
  A 1.02 1.02 0.0 0 0 340.98 406.04
  L 341.12 402.69
  Q 341.14 402.09 341.74 402.07
  Q 346.71 401.92 351.97 402.70
  Q 353.95 402.99 355.83 402.50
  Q 356.32 402.37 356.43 401.88
  Q 356.82 400.21 358.50 400.19
  Q 392.72 399.80 419.70 400.10
  Q 422.55 400.14 424.43 398.16
  Q 428.69 393.68 433.35 389.21
  C 434.58 388.02 436.32 387.19 438.07 387.12
  C 444.40 386.86 450.84 386.92 457.21 386.10
  Q 473.14 384.05 489.56 381.70
  Q 497.28 380.59 504.77 379.12
  Q 506.25 378.83 507.90 378.98
  A 1.03 1.03 0.0 0 0 509.03 377.95
  L 509.01 372.31
  Q 509.00 371.12 507.81 371.02
  L 505.81 370.86
  Q 504.09 370.72 504.07 368.99
  L 504.02 365.02
  A 1.01 1.00 89.7 0 0 503.02 364.02
  L 475.75 363.95
  Q 475.00 363.95 475.00 363.21
  L 474.98 357.00
  Q 474.98 356.23 475.75 356.20
  L 487.04 355.73
  Q 488.27 355.67 488.50 354.47
  L 489.07 351.59
  Q 489.33 350.22 487.94 350.13
  Q 483.82 349.86 479.35 349.89
  Q 447.64 350.10 391.45 349.96
  Q 388.99 349.95 389.00 347.49
  L 389.04 342.50
  Q 389.06 340.04 391.51 340.02
  Q 398.44 339.94 403.10 340.29
  Q 412.77 341.01 422.22 341.01
  Q 467.27 341.00 511.99 340.99
  A 1.01 1.01 0.0 0 0 513.00 339.98
  L 513.04 333.76
  A 0.66 0.66 0.0 0 1 513.70 333.10
  Q 531.02 333.00 548.23 332.69
  C 549.77 332.66 550.14 330.74 550.03 329.52
  Q 549.91 328.16 551.27 328.16
  L 596.18 328.02
  A 0.87 0.87 0.0 0 1 597.06 328.93
  L 596.92 331.98
  A 0.82 0.82 0.0 0 0 597.73 332.84
  L 617.00 333.03
  A 1.34 1.33 -88.9 0 1 618.32 334.41
  Q 617.64 355.49 618.22 376.62
  Q 618.27 378.44 620.04 378.91
  L 620.41 379.01
  A 1.23 1.23 0.0 0 0 621.95 377.83
  L 622.08 353.82
  A 0.85 0.84 0.0 0 1 622.93 352.98
  L 677.03 353.04
  Q 677.78 353.04 677.98 353.76
  Q 678.21 354.59 677.92 355.45
  A 1.16 1.16 0.0 0 0 679.03 356.98
  L 685.22 356.94
  A 0.79 0.78 -0.0 0 1 686.01 357.72
  L 686.01 376.50
  Q 686.01 377.99 687.50 377.99
  L 698.04 377.99
  A 1.01 1.01 0.0 0 0 699.05 376.96
  L 698.99 373.82
  A 0.71 0.71 0.0 0 1 699.68 373.10
  L 713.19 372.88
  A 0.83 0.83 0.0 0 0 714.01 372.07
  L 714.32 360.52
  Q 714.34 359.60 715.24 359.77
  L 716.78 360.05
  A 0.99 0.99 0.0 0 0 717.95 359.01
  C 717.53 352.21 718.01 345.26 718.01 338.31
  Q 717.98 278.41 718.03 209.75
  C 718.03 208.10 718.35 206.16 720.01 205.43
  C 721.86 204.63 725.37 205.01 725.67 207.52
  Q 725.97 209.95 725.98 212.33
  Q 726.02 278.63 725.99 341.16
  C 725.99 347.02 726.40 353.26 726.25 359.31
  A 0.28 0.27 9.2 0 0 726.46 359.59
  Q 728.75 360.19 728.79 361.25
  Q 729.03 366.65 729.24 372.04
  Q 729.26 372.70 729.90 372.87
  L 731.72 373.36
  A 1.08 1.07 10.7 0 1 732.51 374.51
  Q 731.87 379.99 732.31 386.12
  Q 732.35 386.60 732.80 386.78
  Q 734.60 387.50 734.69 389.53
  Q 735.52 408.96 734.86 425.07
  A 1.70 1.70 0.0 0 1 733.93 426.52
  C 720.34 433.42 707.53 439.89 693.22 446.37
  Q 684.31 450.41 675.46 454.65
  Q 674.29 455.20 673.44 456.04
  Q 673.05 456.43 673.03 456.98
  L 672.91 461.70
  Q 672.88 462.75 673.93 462.78
  Q 691.53 463.38 707.97 462.98
  A 1.02 1.02 0.0 0 0 708.96 461.97
  L 709.04 452.60
  A 0.28 0.28 0.0 0 1 709.30 452.32
  Q 732.16 450.63 755.30 451.06
  A 1.41 1.41 0.0 0 1 756.65 452.76
  Q 755.80 456.73 756.17 460.97
  Q 756.31 462.62 757.96 462.84
  Q 761.17 463.28 764.75 462.89
  Q 765.99 462.76 765.99 461.52
  L 766.02 451.32
  Q 766.02 449.03 768.32 449.03
  L 805.23 448.99
  A 0.75 0.75 0.0 0 1 805.98 449.73
  L 806.08 461.53
  Q 806.09 462.85 807.41 462.89
  Q 824.77 463.31 838.94 462.94
  Q 840.89 462.89 840.91 460.94
  L 841.03 451.88
  A 0.85 0.85 0.0 0 1 841.87 451.04
  L 858.89 450.98
  A 1.12 1.12 0.0 0 0 860.00 449.86
  L 860.00 219.96
  A 3.93 3.92 81.9 0 1 862.83 216.19
  Q 863.67 215.95 864.61 215.93
  Q 867.37 215.90 867.67 218.64
  Q 868.03 222.02 868.03 225.67
  Q 867.96 338.05 868.02 450.19
  A 1.31 1.30 79.9 0 0 869.77 451.42
  Q 870.70 451.08 872.25 451.21
  Q 879.26 451.83 884.54 451.87
  Q 921.81 452.16 959.89 451.94
  A 1.08 1.07 -0.0 0 1 960.97 453.01
  L 960.98 461.81
  A 1.16 1.15 -2.1 0 0 962.22 462.96
  C 965.20 462.75 967.97 462.65 969.97 465.32
  Q 972.32 468.47 974.73 471.38
  C 976.04 472.96 977.62 474.06 979.77 474.05
  Q 984.53 474.04 989.21 473.99
  Q 990.00 473.99 990.00 474.78
  L 990.00 523.87
  A 2.13 2.12 -0.1 0 1 987.88 525.99
  L 979.77 526.02
  A 0.73 0.73 0.0 0 0 979.16 527.16
  Q 980.16 528.63 980.05 530.56
  Q 979.45 540.51 978.98 550.22
  Q 978.77 554.59 979.09 559.51
  C 979.29 562.43 984.10 564.19 986.52 565.02
  A 0.77 0.77 0.0 0 1 986.91 566.18
  Q 982.94 572.03 979.70 578.57
  Q 979.50 578.99 979.05 578.86
  L 972.29 576.96
  Q 971.73 576.80 971.44 577.30
  Q 969.40 580.78 968.10 584.01
  C 967.29 586.05 968.65 587.74 970.65 588.15
  Q 972.57 588.55 974.22 589.63
  Q 975.38 590.38 974.75 591.62
  L 972.44 596.11
  Q 972.11 596.74 971.42 596.59
  L 964.22 595.09
  A 1.42 1.41 -69.3 0 0 962.70 595.78
  C 959.19 602.00 956.74 608.70 953.34 615.01
  Q 949.38 622.38 945.60 629.76
  Q 944.34 632.21 941.53 632.00
  Q 935.60 631.56 929.06 632.04
  Q 926.76 632.21 924.72 633.58
  Q 920.20 636.61 916.42 639.66
  Q 907.09 647.16 898.03 654.46
  C 896.83 655.43 895.22 656.19 894.25 657.29
  Q 893.95 657.62 893.97 658.07
  Q 894.42 671.75 893.62 675.97
  Q 891.62 686.54 888.59 696.72
  A 1.97 1.96 -79.3 0 1 886.56 698.11
  C 883.75 697.89 879.19 697.21 877.44 699.90
  Q 877.09 700.46 877.65 700.79
  Q 881.39 703.03 884.61 705.83
  Q 884.96 706.14 884.67 706.52
  Q 879.76 712.68 874.53 718.62
  C 871.16 722.46 867.62 725.37 863.90 728.50
  Q 862.37 729.78 861.34 731.28
  A 0.49 0.49 0.0 0 0 861.75 732.05
  L 901.88 732.02
  Q 903.13 732.01 903.12 733.26
  L 903.00 747.16
  A 0.85 0.85 0.0 0 1 902.15 748.00
  Q 505.69 747.99 108.74 748.01
  C 100.63 748.01 92.27 747.47 84.11 746.98
  Q 82.97 746.91 82.98 745.77
  L 83.02 739.03
  Q 83.03 738.09 83.97 738.06
  L 99.60 737.70
  A 1.11 1.10 1.4 0 0 100.67 736.69
  L 100.89 734.12
  A 0.93 0.93 0.0 0 1 101.81 733.27
  C 107.27 733.18 112.64 732.30 118.13 732.17
  Q 133.68 731.80 149.50 732.09
  Q 161.61 732.32 175.08 731.90
  Q 176.26 731.86 175.32 731.15
  Z
  M 562.7782 337.8820
  A 0.85 0.85 0.0 0 0 561.9252 337.0349
  L 558.9852 337.0452
  A 0.85 0.85 0.0 0 0 558.1382 337.8982
  L 558.2018 356.1380
  A 0.85 0.85 0.0 0 0 559.0548 356.9851
  L 561.9948 356.9748
  A 0.85 0.85 0.0 0 0 562.8418 356.1218
  L 562.7782 337.8820
  Z
  M 589.07 356.46
  L 589.01 338.40
  A 1.52 1.52 0.0 0 0 587.48 336.88
  L 572.99 336.93
  A 2.35 2.05 89.8 0 0 570.95 339.29
  L 571.01 355.69
  A 2.35 2.05 89.8 0 0 573.07 358.03
  L 587.56 357.98
  A 1.52 1.52 0.0 0 0 589.07 356.46
  Z
  M 546.37 341.14
  L 531.63 341.38
  A 0.76 0.76 0.0 0 0 530.88 342.15
  L 530.90 343.29
  A 1.97 1.72 -0.9 0 0 532.90 344.98
  L 545.22 344.78
  A 1.97 1.72 -0.9 0 0 547.16 343.03
  L 547.14 341.89
  A 0.76 0.76 0.0 0 0 546.37 341.14
  Z
  M 608.8385 343.1477
  A 1.23 1.23 0.0 0 0 607.6021 341.9241
  L 605.3021 341.9362
  A 1.23 1.23 0.0 0 0 604.0786 343.1726
  L 604.1815 362.8323
  A 1.23 1.23 0.0 0 0 605.4179 364.0559
  L 607.7179 364.0438
  A 1.23 1.23 0.0 0 0 608.9414 362.8074
  L 608.8385 343.1477
  Z
  M 521.9459 351.2963
  A 1.23 1.23 0.0 0 0 520.7117 350.0706
  L 498.1518 350.1494
  A 1.23 1.23 0.0 0 0 496.9261 351.3837
  L 496.9341 353.6637
  A 1.23 1.23 0.0 0 0 498.1683 354.8894
  L 520.7282 354.8106
  A 1.23 1.23 0.0 0 0 521.9539 353.5763
  L 521.9459 351.2963
  Z
  M 546.31 364.83
  A 1.60 1.60 0.0 0 0 547.90 363.33
  L 548.09 360.17
  A 1.60 1.60 0.0 0 0 546.38 358.48
  L 531.60 359.50
  A 1.60 1.60 0.0 0 0 530.12 360.95
  L 529.92 363.19
  A 1.60 1.60 0.0 0 0 531.52 364.93
  L 546.31 364.83
  Z
  M 660.0835 363.2811
  A 1.23 1.23 0.0 0 0 658.8578 362.0468
  L 632.0780 361.9533
  A 1.23 1.23 0.0 0 0 630.8437 363.1790
  L 630.7965 376.7189
  A 1.23 1.23 0.0 0 0 632.0222 377.9532
  L 658.8020 378.0467
  A 1.23 1.23 0.0 0 0 660.0363 376.8210
  L 660.0835 363.2811
  Z
  M 672.8827 363.2231
  A 1.26 1.26 0.0 0 0 671.6139 361.9720
  L 669.2540 361.9884
  A 1.26 1.26 0.0 0 0 668.0028 363.2572
  L 668.0973 376.7969
  A 1.26 1.26 0.0 0 0 669.3661 378.0480
  L 671.7260 378.0316
  A 1.26 1.26 0.0 0 0 672.9772 376.7628
  L 672.8827 363.2231
  Z
  M 534.15 375.47
  A 1.44 1.44 0.0 0 0 532.71 374.03
  L 525.39 374.03
  A 1.44 1.44 0.0 0 0 523.95 375.47
  L 523.95 376.55
  A 1.44 1.44 0.0 0 0 525.39 377.99
  L 532.71 377.99
  A 1.44 1.44 0.0 0 0 534.15 376.55
  L 534.15 375.47
  Z
  M 546.0580 375.3464
  A 1.40 1.40 0.0 0 0 544.6556 373.9489
  L 543.3356 373.9512
  A 1.40 1.40 0.0 0 0 541.9380 375.3536
  L 541.9420 377.6336
  A 1.40 1.40 0.0 0 0 543.3444 379.0311
  L 544.6644 379.0288
  A 1.40 1.40 0.0 0 0 546.0620 377.6264
  L 546.0580 375.3464
  Z
  M 500.27 399.33
  Q 494.51 415.80 487.50 433.17
  Q 487.31 433.66 487.82 433.76
  Q 489.78 434.15 491.80 434.11
  C 505.14 433.85 518.14 433.47 530.99 435.05
  Q 533.24 435.33 535.57 434.63
  A 0.99 0.97 -89.8 0 0 536.23 433.96
  L 549.01 390.40
  A 0.97 0.96 -71.2 0 0 548.44 389.23
  Q 548.29 389.17 548.03 389.08
  Q 547.68 388.95 547.30 388.95
  Q 535.65 389.18 524.55 388.89
  Q 522.01 388.83 519.22 388.38
  Q 513.91 387.53 508.29 388.76
  Q 506.35 389.18 504.26 389.05
  A 1.26 1.26 0.0 0 0 502.96 390.02
  Q 501.86 394.78 500.27 399.33
  Z
  M 560.78 433.92
  C 572.89 434.10 585.43 433.95 597.75 434.12
  Q 614.25 434.35 633.01 433.95
  Q 634.58 433.92 636.21 433.78
  Q 636.79 433.73 636.75 433.15
  C 636.68 432.12 636.12 431.19 636.12 430.10
  C 636.14 423.50 634.84 416.77 634.56 410.74
  Q 634.09 400.36 633.92 390.85
  A 1.68 1.68 0.0 0 0 632.25 389.20
  L 567.25 388.97
  A 1.37 1.36 -82.4 0 0 565.92 389.99
  C 564.90 393.86 564.83 397.93 564.21 401.94
  Q 561.96 416.58 560.76 431.21
  C 560.70 431.94 560.37 432.41 560.17 433.09
  A 0.64 0.64 0.0 0 0 560.78 433.92
  Z
  M 698.96 422.13
  Q 698.32 422.29 698.19 422.93
  Q 697.88 424.51 698.11 426.21
  Q 698.21 427.02 699.03 427.02
  L 702.93 427.02
  A 0.95 0.95 0.0 0 0 703.88 426.16
  C 704.26 422.31 704.96 418.60 704.97 414.59
  Q 705.01 402.97 705.01 390.31
  A 1.26 1.26 0.0 0 0 703.75 389.05
  Q 680.00 389.04 655.17 389.07
  Q 652.38 389.07 649.78 389.30
  Q 647.93 389.47 647.94 391.32
  L 648.10 425.76
  Q 648.11 426.92 649.26 426.91
  L 651.60 426.91
  Q 652.86 426.91 652.86 425.65
  L 652.82 397.53
  A 1.65 1.64 -89.8 0 1 654.47 395.88
  L 689.63 396.06
  A 1.72 1.72 0.0 0 1 691.27 397.30
  C 691.89 399.49 692.07 401.50 693.80 403.21
  C 696.80 406.17 699.78 408.30 700.00 413.07
  Q 700.20 417.31 699.80 421.15
  A 1.14 1.13 -4.5 0 1 698.96 422.13
  Z
  M 494.73 398.58
  Q 496.26 394.72 497.89 390.94
  A 0.66 0.66 0.0 0 0 497.41 390.03
  Q 496.15 389.77 495.03 389.98
  C 487.13 391.49 479.65 392.01 471.87 393.32
  C 465.83 394.33 459.73 395.13 453.70 396.29
  Q 453.16 396.39 452.81 396.82
  C 451.96 397.87 451.34 399.01 450.38 400.01
  C 441.77 408.88 434.27 417.55 426.28 426.34
  C 424.26 428.57 422.67 430.91 420.54 432.90
  Q 420.22 433.20 420.14 433.65
  A 0.34 0.34 0.0 0 0 420.47 434.05
  C 428.57 433.97 436.11 433.97 444.83 434.48
  Q 461.96 435.49 479.36 434.99
  A 2.11 2.09 9.1 0 0 481.26 433.63
  Q 487.85 416.01 494.73 398.58
  Z
  M 444.75 398.02
  A 1.04 1.04 0.0 0 0 443.74 396.31
  L 439.61 397.28
  A 1.04 1.04 0.0 0 0 439.07 397.59
  L 408.01 432.37
  A 1.04 1.04 0.0 0 0 408.81 434.10
  L 411.78 434.02
  A 1.04 1.04 0.0 0 0 412.52 433.68
  L 444.75 398.02
  Z
  M 683.9889 403.1199
  A 1.17 1.17 0.0 0 0 682.8168 401.9519
  L 662.0969 401.9881
  A 1.17 1.17 0.0 0 0 660.9289 403.1601
  L 660.9511 415.8801
  A 1.17 1.17 0.0 0 0 662.1232 417.0481
  L 682.8431 417.0119
  A 1.17 1.17 0.0 0 0 684.0111 415.8399
  L 683.9889 403.1199
  Z
  M 383.68 429.36
  Q 386.42 431.15 389.27 432.62
  Q 390.67 433.34 391.95 432.37
  C 395.50 429.69 397.74 426.22 400.59 422.98
  Q 404.59 418.45 408.77 413.54
  Q 410.51 411.50 411.92 409.24
  A 0.86 0.86 0.0 0 0 411.18 407.93
  L 378.79 407.95
  A 2.92 2.92 0.0 0 0 376.23 409.47
  Q 373.85 413.84 369.68 417.86
  A 1.11 1.11 0.0 0 0 369.77 419.54
  Q 377.06 425.07 383.68 429.36
  Z
  M 692.0013 416.2600
  A 3.25 1.04 89.8 0 0 693.0300 413.0064
  A 3.25 1.04 89.8 0 0 691.9787 409.7600
  A 3.25 1.04 89.8 0 0 690.9500 413.0136
  A 3.25 1.04 89.8 0 0 692.0013 416.2600
  Z
  M 362.93 418.01
  A 0.65 0.65 0.0 0 0 363.44 417.75
  L 368.52 410.97
  A 0.65 0.65 0.0 0 0 367.99 409.93
  L 352.58 410.18
  A 0.65 0.65 0.0 0 0 351.94 410.84
  L 352.02 417.39
  A 0.65 0.65 0.0 0 0 352.67 418.03
  L 362.93 418.01
  Z
  M 128.0026 416.0686
  A 0.98 0.98 0.0 0 0 127.0175 415.0937
  L 116.9776 415.1463
  A 0.98 0.98 0.0 0 0 116.0028 416.1314
  L 116.0174 418.9314
  A 0.98 0.98 0.0 0 0 117.0025 419.9063
  L 127.0424 419.8537
  A 0.98 0.98 0.0 0 0 128.0172 418.8686
  L 128.0026 416.0686
  Z
  M 303.93 416.81
  Q 303.48 415.57 302.16 415.55
  C 299.50 415.51 296.88 415.22 294.21 415.20
  Q 227.57 414.79 160.85 415.29
  Q 159.97 415.30 159.99 416.17
  L 160.04 418.79
  Q 160.06 419.73 161.00 419.74
  Q 228.97 420.10 296.66 419.82
  Q 299.36 419.81 301.89 419.65
  Q 303.89 419.53 304.04 417.53
  Q 304.06 417.17 303.93 416.81
  Z
  M 342.0051 416.0677
  A 0.91 0.91 0.0 0 0 341.0920 415.1609
  L 312.9321 415.2592
  A 0.91 0.91 0.0 0 0 312.0253 416.1723
  L 312.0349 418.9123
  A 0.91 0.91 0.0 0 0 312.9480 419.8191
  L 341.1079 419.7208
  A 0.91 0.91 0.0 0 0 342.0147 418.8077
  L 342.0051 416.0677
  Z
  M 149.9950 416.0791
  A 0.91 0.91 0.0 0 0 149.0818 415.1723
  L 138.9419 415.2077
  A 0.91 0.91 0.0 0 0 138.0351 416.1209
  L 138.0450 418.9609
  A 0.91 0.91 0.0 0 0 138.9582 419.8677
  L 149.0981 419.8323
  A 0.91 0.91 0.0 0 0 150.0049 418.9191
  L 149.9950 416.0791
  Z
  M 624.23 454.25
  Q 623.81 453.26 622.74 453.26
  L 602.18 453.17
  Q 600.75 453.16 600.87 454.59
  L 600.94 455.48
  Q 601.06 456.89 602.48 456.86
  Q 611.90 456.69 620.58 456.85
  Q 622.45 456.89 624.31 456.66
  Q 625.20 456.54 624.85 455.71
  L 624.23 454.25
  Z
  M 501.17 456.75
  A 1.18 1.18 0.0 0 0 502.16 454.94
  L 501.44 453.81
  A 1.18 1.18 0.0 0 0 500.45 453.27
  L 479.12 453.19
  A 1.18 1.18 0.0 0 0 477.94 454.41
  L 477.97 455.64
  A 1.18 1.18 0.0 0 0 479.16 456.79
  L 501.17 456.75
  Z
  M 534.0386 454.1989
  A 1.00 1.00 0.0 0 0 533.0369 453.2006
  L 510.8569 453.2394
  A 1.00 1.00 0.0 0 0 509.8587 454.2411
  L 509.8614 455.7811
  A 1.00 1.00 0.0 0 0 510.8631 456.7794
  L 533.0431 456.7406
  A 1.00 1.00 0.0 0 0 534.0413 455.7389
  L 534.0386 454.1989
  Z
  M 656.1012 454.3102
  A 1.10 1.10 0.0 0 0 655.0031 453.2083
  L 634.0032 453.1717
  A 1.10 1.10 0.0 0 0 632.9013 454.2698
  L 632.8988 455.6898
  A 1.10 1.10 0.0 0 0 633.9969 456.7917
  L 654.9968 456.8283
  A 1.10 1.10 0.0 0 0 656.0987 455.7302
  L 656.1012 454.3102
  Z
  M 313.0857 455.8145
  A 1.73 1.73 0.0 0 0 311.4203 454.0223
  L 310.8806 454.0025
  A 1.73 1.73 0.0 0 0 309.0884 455.6679
  L 308.9543 459.3255
  A 1.73 1.73 0.0 0 0 310.6197 461.1177
  L 311.1594 461.1375
  A 1.73 1.73 0.0 0 0 312.9516 459.4721
  L 313.0857 455.8145
  Z
  M 796.0596 458.8651
  A 1.71 1.71 0.0 0 0 794.3407 457.1641
  L 776.7810 457.2560
  A 1.71 1.71 0.0 0 0 775.0799 458.9749
  L 775.0804 459.0549
  A 1.71 1.71 0.0 0 0 776.7993 460.7559
  L 794.3590 460.6640
  A 1.71 1.71 0.0 0 0 796.0601 458.9451
  L 796.0596 458.8651
  Z
  M 747.00 461.28
  Q 746.65 458.83 744.21 459.23
  Q 738.83 460.10 733.47 460.14
  Q 731.96 460.16 731.97 461.66
  L 731.98 462.42
  Q 731.98 463.85 733.42 463.85
  L 745.11 463.87
  Q 747.37 463.87 747.05 461.64
  L 747.00 461.28
  Z
  M 902.03 461.17
  A 1.05 1.05 0.0 0 0 900.98 460.12
  L 854.04 460.12
  A 1.05 1.05 0.0 0 0 852.99 461.17
  L 852.99 463.87
  A 1.05 1.05 0.0 0 0 854.04 464.92
  L 900.98 464.92
  A 1.05 1.05 0.0 0 0 902.03 463.87
  L 902.03 461.17
  Z
  M 909.84 461.35
  L 909.88 462.54
  Q 909.93 463.64 911.03 463.67
  L 948.85 464.83
  Q 950.84 464.90 950.94 462.90
  L 951.00 461.69
  Q 951.08 460.04 949.43 460.05
  L 910.90 460.23
  Q 909.79 460.24 909.84 461.35
  Z
  M 300.23 476.49
  Q 301.15 477.85 302.80 477.83
  Q 305.39 477.80 308.22 477.85
  Q 339.11 478.30 363.01 477.96
  C 369.32 477.86 375.29 478.25 381.37 478.17
  Q 405.15 477.86 428.26 478.03
  Q 438.56 478.11 448.24 478.05
  Q 474.64 477.89 502.00 477.94
  Q 522.84 477.98 545.50 478.02
  Q 549.08 478.02 552.75 478.02
  Q 576.46 477.99 596.00 478.11
  Q 605.42 478.16 616.00 478.05
  C 632.51 477.87 649.41 478.26 666.34 478.04
  Q 681.99 477.83 698.76 478.12
  C 704.77 478.23 710.93 477.90 716.92 478.02
  Q 723.37 478.15 730.57 477.93
  C 737.12 477.73 743.91 478.31 750.47 478.19
  Q 764.80 477.91 780.00 478.05
  C 799.03 478.23 817.75 477.83 836.71 477.70
  C 839.23 477.69 841.55 477.17 844.02 476.91
  Q 845.05 476.80 845.03 475.76
  L 844.99 473.18
  Q 844.97 472.03 843.82 472.03
  L 298.94 472.03
  A 0.93 0.93 0.0 0 0 298.17 473.49
  L 300.23 476.49
  Z
  M 963.1198 474.3182
  A 1.32 1.32 0.0 0 0 961.9149 472.8923
  L 958.5069 472.6062
  A 1.32 1.32 0.0 0 0 957.0811 473.8111
  L 956.8602 476.4418
  A 1.32 1.32 0.0 0 0 958.0651 477.8677
  L 961.4731 478.1538
  A 1.32 1.32 0.0 0 0 962.8989 476.9489
  L 963.1198 474.3182
  Z
  M 934.94 473.97
  A 0.71 0.71 0.0 0 0 934.23 473.26
  L 889.75 473.26
  A 0.71 0.71 0.0 0 0 889.04 473.97
  L 889.04 477.01
  A 0.71 0.71 0.0 0 0 889.75 477.72
  L 934.23 477.72
  A 0.71 0.71 0.0 0 0 934.94 477.01
  L 934.94 473.97
  Z
  M 197.65 487.54
  Q 197.98 488.72 198.11 489.90
  Q 198.27 491.33 199.76 491.23
  Q 200.35 491.19 200.59 490.65
  Q 201.05 489.60 201.06 488.42
  Q 201.07 483.70 200.98 479.06
  A 1.09 1.09 0.0 0 0 199.90 477.99
  L 191.98 477.99
  A 1.03 1.02 -0.3 0 0 190.95 479.02
  L 191.05 492.97
  Q 191.05 493.66 191.73 493.51
  L 194.03 493.00
  A 1.19 1.17 -5.0 0 0 194.95 491.92
  L 195.15 487.99
  Q 195.18 487.38 195.72 487.09
  Q 196.24 486.81 196.85 486.87
  Q 197.48 486.92 197.65 487.54
  Z
  M 497.70 490.31
  A 1.57 1.56 2.7 0 1 499.15 491.90
  Q 499.09 494.33 497.75 496.40
  Q 497.47 496.84 496.95 496.88
  L 491.48 497.27
  A 1.51 1.51 0.0 0 0 490.08 498.74
  Q 489.75 511.88 490.08 524.32
  Q 490.13 526.19 491.34 527.54
  Q 491.72 527.96 492.22 527.73
  Q 497.42 525.36 499.20 530.84
  A 0.96 0.95 56.1 0 1 499.03 531.74
  Q 496.58 534.72 492.42 533.41
  A 1.79 1.79 0.0 0 0 490.16 534.63
  C 489.25 537.82 490.87 538.93 493.62 538.95
  Q 513.55 539.06 533.27 539.08
  Q 536.81 539.08 540.23 538.80
  A 0.85 0.84 87.8 0 0 541.01 537.95
  L 541.02 534.99
  A 0.83 0.82 -88.2 0 0 540.25 534.16
  L 535.35 533.85
  Q 533.25 533.71 532.71 531.68
  Q 532.37 530.44 532.67 528.95
  Q 533.07 526.97 535.09 526.99
  L 539.88 527.02
  A 1.16 1.15 0.0 0 0 541.04 525.87
  L 541.04 498.05
  A 0.99 0.98 -7.5 0 0 539.80 497.10
  C 536.80 497.90 531.75 499.61 531.85 494.27
  C 531.92 490.47 536.24 489.92 539.05 489.97
  Q 541.21 490.00 541.11 487.84
  L 540.98 485.39
  Q 540.87 483.03 538.51 483.03
  Q 520.81 482.99 501.62 482.93
  Q 499.22 482.92 496.90 483.10
  Q 494.48 483.29 492.06 483.31
  Q 490.08 483.33 490.02 485.30
  L 489.93 487.94
  Q 489.87 489.77 491.70 489.90
  L 497.70 490.31
  Z
  M 685.05 488.58
  L 685.05 484.28
  A 1.29 1.29 0.0 0 0 683.75 482.99
  L 649.91 483.05
  A 3.01 1.67 -0.1 0 0 646.91 484.72
  L 646.91 488.26
  A 3.01 1.67 -0.1 0 0 649.93 489.93
  L 683.77 489.87
  A 1.29 1.29 0.0 0 0 685.05 488.58
  Z
  M 733.0062 484.2060
  A 1.24 1.24 0.0 0 0 731.7640 482.9682
  L 695.2841 483.0318
  A 1.24 1.24 0.0 0 0 694.0462 484.2740
  L 694.0538 488.6340
  A 1.24 1.24 0.0 0 0 695.2960 489.8718
  L 731.7759 489.8082
  A 1.24 1.24 0.0 0 0 733.0138 488.5660
  L 733.0062 484.2060
  Z
  M 750.20 501.90
  L 768.07 502.08
  Q 769.05 502.09 769.05 503.07
  L 768.94 524.46
  Q 768.93 525.99 770.46 526.00
  L 775.51 526.03
  Q 777.37 526.05 777.03 524.22
  Q 776.30 520.28 776.54 516.18
  Q 777.07 506.99 776.97 498.25
  A 1.23 1.22 -89.8 0 0 775.77 497.03
  L 767.86 496.86
  Q 766.15 496.82 766.11 495.11
  L 766.04 492.05
  Q 765.99 490.24 767.81 490.18
  L 775.41 489.91
  Q 777.24 489.85 777.13 488.01
  L 776.95 485.26
  Q 776.82 483.24 774.80 483.14
  Q 759.66 482.39 743.82 483.16
  Q 743.25 483.19 743.20 483.76
  C 741.63 502.29 742.14 519.89 742.06 537.74
  Q 742.05 538.95 743.27 538.98
  L 747.42 539.07
  Q 748.95 539.11 748.95 537.58
  L 749.03 503.05
  A 1.15 1.15 0.0 0 1 750.20 501.90
  Z
  M 412.87 484.16
  Q 412.81 483.30 411.95 483.29
  Q 394.29 482.91 377.32 483.32
  Q 376.13 483.35 375.22 484.28
  Q 375.05 484.46 374.90 484.64
  A 0.67 0.67 0.0 0 0 375.43 485.72
  Q 393.50 485.61 409.22 486.70
  Q 410.64 486.80 412.14 486.75
  Q 413.07 486.72 413.00 485.79
  L 412.87 484.16
  Z
  M 367.14 484.27
  A 1.08 1.08 0.0 0 0 366.06 483.19
  L 330.04 483.19
  A 1.08 1.08 0.0 0 0 328.96 484.27
  L 328.96 484.71
  A 1.08 1.08 0.0 0 0 330.04 485.79
  L 366.06 485.79
  A 1.08 1.08 0.0 0 0 367.14 484.71
  L 367.14 484.27
  Z
  M 638.57 485.91
  Q 639.17 484.53 638.11 483.69
  A 1.39 1.37 59.1 0 0 637.06 483.42
  Q 634.31 483.84 631.62 483.78
  Q 618.64 483.50 604.27 483.15
  Q 603.13 483.12 603.07 484.26
  L 602.82 488.69
  Q 602.76 489.87 603.94 489.87
  L 637.33 489.76
  A 0.87 0.86 -89.0 0 0 638.19 488.92
  L 638.24 487.34
  Q 638.27 486.59 638.57 485.91
  Z
  M 817.86 489.78
  A 1.18 1.18 0.0 0 0 819.03 488.55
  L 818.89 485.37
  A 1.18 1.18 0.0 0 0 817.75 484.24
  L 786.43 483.22
  A 1.18 1.18 0.0 0 0 785.22 484.27
  L 784.77 488.54
  A 1.18 1.18 0.0 0 0 785.94 489.85
  L 817.86 489.78
  Z
  M 278.13 506.05
  A 0.80 0.79 -70.9 0 1 278.75 507.33
  Q 276.21 510.65 277.48 514.27
  Q 277.67 514.83 277.19 515.17
  L 275.56 516.32
  A 1.86 1.85 -4.8 0 0 274.95 517.04
  Q 272.70 521.66 268.06 520.86
  Q 259.81 519.42 251.53 520.23
  A 1.65 1.64 86.6 0 0 250.05 521.90
  C 250.10 524.51 251.47 526.97 250.45 529.51
  A 0.81 0.80 0.8 0 0 251.48 530.56
  C 252.60 530.14 253.42 530.75 254.58 530.53
  C 258.96 529.71 264.04 530.68 268.65 530.76
  Q 282.94 531.01 298.64 531.10
  Q 305.18 531.14 313.09 529.93
  A 1.13 1.13 0.0 0 0 314.06 528.81
  L 314.00 484.99
  A 0.94 0.94 0.0 0 0 313.06 484.05
  Q 286.11 483.99 265.21 483.87
  Q 262.70 483.85 259.73 486.71
  Q 255.68 490.59 251.58 494.82
  C 249.27 497.21 249.87 500.28 250.00 503.19
  Q 250.12 505.98 252.99 505.96
  Q 265.44 505.88 278.13 506.05
  Z
  M 966.98 485.19
  A 1.20 1.20 0.0 0 0 965.78 483.99
  L 833.18 483.99
  A 1.20 1.20 0.0 0 0 831.98 485.19
  L 831.98 537.79
  A 1.20 1.20 0.0 0 0 833.18 538.99
  L 965.78 538.99
  A 1.20 1.20 0.0 0 0 966.98 537.79
  L 966.98 485.19
  Z
  M 284.42 557.61
  Q 289.98 579.12 294.78 601.11
  Q 295.37 603.82 297.20 605.32
  Q 303.68 610.63 311.80 616.31
  C 317.01 619.95 321.23 617.17 325.64 614.12
  Q 332.89 609.11 339.62 604.59
  A 4.54 4.53 -8.5 0 0 341.43 602.15
  C 345.46 588.90 348.40 573.80 352.00 559.87
  C 352.55 557.72 352.73 555.97 355.32 555.70
  A 0.93 0.92 -3.0 0 0 356.16 554.77
  L 356.14 552.10
  Q 356.13 551.31 355.33 551.26
  Q 353.07 551.13 351.00 551.13
  Q 322.20 551.02 290.50 550.96
  Q 276.25 550.93 262.00 550.94
  Q 258.91 550.94 256.78 549.14
  Q 249.19 542.74 241.73 536.36
  A 4.86 4.84 20.6 0 1 240.04 532.64
  Q 240.17 515.82 239.93 497.67
  C 239.90 495.49 240.29 493.70 242.05 492.19
  Q 245.87 488.91 248.84 485.76
  Q 251.12 483.33 247.92 484.26
  C 239.88 486.59 232.00 489.80 224.10 492.45
  Q 204.04 499.15 184.78 505.55
  C 181.82 506.53 178.96 507.87 176.03 508.96
  Q 174.15 509.65 175.17 511.38
  Q 177.84 515.93 178.04 520.93
  C 178.16 524.07 177.38 527.02 177.12 530.12
  C 176.39 538.89 170.30 546.78 163.08 551.61
  Q 161.04 552.98 163.49 552.99
  L 174.44 553.05
  A 0.78 0.77 9.9 0 1 175.17 554.08
  Q 174.81 555.13 173.17 555.75
  A 3.28 3.27 -55.4 0 1 171.99 555.97
  L 50.75 556.00
  A 0.46 0.45 73.8 0 0 50.37 556.70
  C 52.36 559.86 54.94 562.33 57.37 565.15
  Q 83.55 595.50 91.14 604.62
  Q 99.14 614.23 106.88 622.67
  C 107.95 623.83 109.03 625.74 110.48 626.86
  A 1.67 1.67 0.0 0 0 112.91 626.43
  Q 114.32 624.20 115.83 622.70
  C 123.47 615.14 130.89 607.80 138.14 599.54
  Q 144.50 592.27 151.31 585.09
  C 153.27 583.03 155.04 580.77 157.02 578.75
  Q 165.28 570.35 172.54 561.82
  Q 173.67 560.49 176.05 558.66
  Q 176.42 558.37 176.89 558.28
  C 177.62 558.14 178.54 557.93 179.27 557.94
  Q 194.52 558.28 210.54 557.48
  Q 220.48 556.99 230.42 556.97
  Q 258.67 556.92 284.06 557.32
  A 0.39 0.38 -6.0 0 1 284.42 557.61
  Z
  M 435.91 533.34
  Q 435.80 517.62 435.14 502.39
  Q 434.88 496.47 435.21 490.88
  A 0.91 0.90 88.5 0 1 436.00 490.04
  Q 438.13 489.77 440.08 489.77
  Q 460.06 489.75 481.99 489.90
  Q 482.82 489.91 482.56 489.12
  Q 481.94 487.26 482.09 485.14
  A 0.82 0.82 0.0 0 0 481.33 484.27
  Q 477.45 483.99 473.85 483.99
  Q 452.43 483.98 432.51 484.12
  Q 430.95 484.13 430.96 485.69
  L 431.11 537.76
  A 1.20 1.20 0.0 0 0 432.31 538.95
  Q 452.92 538.87 472.46 539.16
  C 475.29 539.20 478.17 538.90 480.96 538.75
  A 1.14 1.14 0.0 0 0 482.04 537.62
  L 482.07 535.15
  A 1.11 1.11 0.0 0 0 480.95 534.02
  L 436.75 534.17
  A 0.84 0.83 0.0 0 1 435.91 533.34
  Z
  M 594.07 485.04
  A 1.00 1.00 0.0 0 0 593.07 484.04
  L 549.97 484.04
  A 1.00 1.00 0.0 0 0 548.97 485.04
  L 548.97 488.80
  A 1.00 1.00 0.0 0 0 549.97 489.80
  L 593.07 489.80
  A 1.00 1.00 0.0 0 0 594.07 488.80
  L 594.07 485.04
  Z
  M 140.06 495.94
  Q 140.50 497.60 142.11 498.57
  Q 142.87 499.03 143.39 498.31
  Q 144.45 496.84 143.83 494.69
  Q 143.33 492.97 141.80 493.24
  A 2.18 2.18 0.0 0 0 140.06 495.94
  Z
  M 332.65 499.95
  Q 349.52 499.69 367.74 500.30
  A 0.43 0.43 0.0 0 1 368.16 500.74
  L 367.99 524.62
  Q 367.98 526.01 369.37 526.02
  L 372.57 526.03
  Q 374.18 526.04 374.14 524.42
  L 373.47 501.67
  Q 373.43 500.38 374.72 500.24
  Q 377.72 499.90 381.25 499.93
  Q 394.84 500.04 409.05 499.93
  A 1.03 1.03 0.0 0 1 410.09 500.93
  Q 410.46 512.75 410.07 522.13
  Q 410.01 523.65 409.18 524.91
  Q 408.78 525.52 409.47 525.73
  Q 411.72 526.42 414.01 525.95
  A 0.97 0.96 -5.9 0 0 414.78 525.01
  L 415.00 496.16
  A 1.09 1.09 0.0 0 0 413.91 495.06
  L 326.86 495.08
  A 0.80 0.80 0.0 0 0 326.06 495.88
  L 326.23 524.56
  Q 326.24 526.12 327.81 526.12
  L 329.39 526.12
  Q 331.13 526.12 331.07 524.38
  Q 330.60 512.18 331.01 501.56
  A 1.67 1.67 0.0 0 1 332.65 499.95
  Z
  M 695.07 526.30
  A 0.70 0.66 16.8 0 1 695.63 526.02
  L 732.97 526.00
  A 1.16 1.16 0.0 0 0 734.12 524.73
  Q 732.86 511.15 733.01 498.19
  A 1.26 1.26 0.0 0 0 731.71 496.92
  L 694.96 497.99
  A 1.06 1.05 -0.8 0 0 693.93 499.04
  L 694.02 525.89
  Q 694.02 526.39 694.50 526.53
  Q 694.83 526.62 695.07 526.30
  Z
  M 818.71 499.78
  Q 818.99 499.27 818.89 498.73
  A 0.89 0.88 -5.1 0 0 818.02 498.01
  L 785.86 497.97
  A 0.92 0.92 0.0 0 0 784.94 498.89
  L 784.99 537.84
  A 1.19 1.18 89.8 0 0 786.18 539.03
  L 816.72 538.99
  A 2.27 2.27 0.0 0 0 818.99 536.73
  Q 819.03 520.79 819.00 504.75
  Q 818.99 502.54 818.58 500.64
  A 1.30 1.25 54.8 0 1 818.71 499.78
  Z
  M 442.42 500.96
  C 442.26 501.62 442.02 502.22 442.01 502.92
  Q 441.97 512.93 442.08 523.52
  Q 442.10 525.98 444.57 525.98
  L 482.00 526.01
  A 1.01 1.01 0.0 0 0 483.01 525.00
  L 483.00 499.25
  Q 483.00 497.99 481.75 497.99
  L 442.87 498.00
  A 0.84 0.84 0.0 0 0 442.08 499.14
  L 442.36 499.89
  Q 442.55 500.41 442.42 500.96
  Z
  M 594.02 498.96
  A 0.97 0.97 0.0 0 0 593.05 497.99
  L 549.95 497.99
  A 0.97 0.97 0.0 0 0 548.98 498.96
  L 548.98 525.02
  A 0.97 0.97 0.0 0 0 549.95 525.99
  L 593.05 525.99
  A 0.97 0.97 0.0 0 0 594.02 525.02
  L 594.02 498.96
  Z
  M 638.81 499.30
  C 638.06 497.86 636.47 498.04 634.93 498.03
  Q 619.99 497.94 603.96 497.97
  A 1.01 1.01 0.0 0 0 602.95 498.99
  Q 603.10 515.54 602.84 532.99
  C 602.82 534.76 602.43 536.29 601.99 537.94
  A 0.56 0.55 12.2 0 0 602.44 538.63
  Q 604.69 538.99 606.55 539.00
  Q 623.30 539.07 637.71 538.95
  A 1.46 1.45 -3.0 0 0 639.15 537.35
  C 638.72 532.91 639.06 528.56 639.06 524.11
  Q 639.04 512.20 639.05 500.25
  A 2.02 1.95 -60.2 0 0 638.81 499.30
  Z
  M 685.55 533.78
  Q 685.70 533.56 685.60 533.34
  Q 685.39 532.89 684.95 533.12
  Q 681.16 535.12 678.62 532.30
  A 2.59 2.58 -48.1 0 1 678.45 529.05
  Q 680.89 525.66 684.86 527.83
  A 0.75 0.74 -75.1 0 0 685.96 527.19
  Q 686.21 517.06 685.95 507.77
  C 685.90 506.15 684.63 504.79 684.87 503.02
  Q 685.11 501.28 685.02 499.23
  Q 684.97 498.00 683.74 498.00
  L 648.03 497.95
  A 1.02 1.01 -89.7 0 0 647.01 498.97
  L 646.93 537.86
  A 1.18 1.17 -0.0 0 0 648.11 539.03
  L 683.64 539.01
  A 1.35 1.33 -74.8 0 0 684.80 538.33
  Q 685.73 536.69 685.39 534.50
  Q 685.33 534.11 685.55 533.78
  Z
  M 153.08 510.36
  C 148.93 512.80 147.38 517.90 148.75 522.24
  C 152.45 533.93 169.51 528.55 168.14 517.69
  Q 167.82 515.16 165.95 513.22
  C 162.40 509.51 157.86 507.54 153.08 510.36
  Z
  M 258.30 511.67
  Q 255.29 512.15 252.00 512.12
  Q 250.92 512.11 250.02 512.59
  A 0.55 0.55 0.0 0 0 250.17 513.62
  Q 253.92 514.39 258.53 513.69
  A 0.77 0.76 83.1 0 0 259.17 512.87
  L 259.13 512.32
  Q 259.06 511.55 258.30 511.67
  Z
  M 131.99 524.83
  Q 130.88 525.28 131.74 526.13
  Q 133.56 527.91 135.10 530.13
  C 136.75 532.51 139.37 533.92 141.53 535.82
  A 0.91 0.91 0.0 0 0 142.99 535.44
  L 143.49 534.00
  A 1.16 1.15 22.6 0 0 142.90 532.57
  C 140.19 531.27 137.96 527.74 136.40 525.09
  A 2.21 2.21 0.0 0 0 133.65 524.16
  L 131.99 524.83
  Z
  M 65.54 548.36
  Q 68.12 546.15 72.84 547.27
  A 1.09 1.09 0.0 0 1 73.64 548.12
  L 74.30 551.67
  A 1.24 1.23 0.1 0 0 75.31 552.67
  Q 77.03 552.97 78.70 552.98
  Q 109.57 553.03 137.94 553.00
  Q 140.14 552.99 142.55 552.75
  A 0.31 0.31 0.0 0 0 142.72 552.21
  C 140.24 550.10 137.67 548.36 135.43 545.90
  Q 130.64 540.63 126.17 535.30
  Q 123.53 532.15 121.76 528.54
  A 1.16 1.16 0.0 0 0 120.29 527.97
  Q 110.99 531.69 100.73 534.68
  C 91.61 537.34 80.03 541.76 73.83 543.87
  Q 61.12 548.18 49.16 552.14
  Q 46.86 552.90 49.29 552.96
  Q 56.45 553.15 63.93 552.83
  Q 64.45 552.81 64.77 552.42
  Q 65.25 551.83 64.89 550.84
  A 2.24 2.24 0.0 0 1 65.54 548.36
  Z
  M 366.9676 535.1378
  A 1.05 1.05 0.0 0 0 365.9158 534.0896
  L 331.0759 534.1504
  A 1.05 1.05 0.0 0 0 330.0277 535.2022
  L 330.0324 537.8822
  A 1.05 1.05 0.0 0 0 331.0842 538.9304
  L 365.9241 538.8696
  A 1.05 1.05 0.0 0 0 366.9723 537.8178
  L 366.9676 535.1378
  Z
  M 375.01 536.16
  L 374.93 536.78
  Q 374.65 538.90 376.78 538.90
  L 411.27 538.99
  Q 412.97 538.99 413.10 537.30
  Q 413.12 537.11 413.11 536.91
  Q 412.97 534.56 410.62 534.45
  Q 393.43 533.66 377.04 534.31
  Q 375.24 534.38 375.01 536.16
  Z
  M 594.0377 535.2306
  A 1.15 1.15 0.0 0 0 592.8857 534.0826
  L 550.0658 534.1574
  A 1.15 1.15 0.0 0 0 548.9178 535.3094
  L 548.9223 537.8494
  A 1.15 1.15 0.0 0 0 550.0743 538.9974
  L 592.8942 538.9226
  A 1.15 1.15 0.0 0 0 594.0422 537.7706
  L 594.0377 535.2306
  Z
  M 732.99 535.27
  A 1.13 1.13 0.0 0 0 731.86 534.14
  L 695.06 534.14
  A 1.13 1.13 0.0 0 0 693.93 535.27
  L 693.93 537.83
  A 1.13 1.13 0.0 0 0 695.06 538.96
  L 731.86 538.96
  A 1.13 1.13 0.0 0 0 732.99 537.83
  L 732.99 535.27
  Z
  M 762.88 537.22
  Q 763.32 535.77 762.85 534.67
  Q 762.56 533.99 761.82 533.99
  L 758.32 534.00
  A 2.34 2.34 0.0 0 0 756.10 535.64
  C 754.87 539.56 761.96 540.22 762.88 537.22
  Z
  M 776.8726 535.7640
  A 1.75 1.75 0.0 0 0 775.1287 534.0079
  L 770.6087 533.9921
  A 1.75 1.75 0.0 0 0 768.8526 535.7360
  L 768.8474 537.2360
  A 1.75 1.75 0.0 0 0 770.5913 538.9921
  L 775.1113 539.0079
  A 1.75 1.75 0.0 0 0 776.8674 537.2640
  L 776.8726 535.7640
  Z
  M 571.77 557.36
  Q 573.31 555.22 574.03 552.61
  Q 574.43 551.20 572.96 551.12
  C 568.76 550.89 564.65 551.27 560.43 551.11
  C 548.32 550.67 536.36 551.32 524.53 551.07
  C 511.17 550.78 496.66 551.01 483.74 550.99
  Q 430.18 550.88 377.01 551.17
  Q 376.00 551.18 376.01 552.19
  L 376.04 555.71
  A 1.17 1.17 0.0 0 0 377.21 556.87
  L 520.00 557.08
  A 2.00 2.00 0.0 0 1 521.92 558.52
  L 535.30 603.55
  Q 535.67 604.81 536.98 604.89
  Q 547.46 605.55 557.21 604.84
  A 1.12 1.11 5.6 0 0 558.20 604.03
  Q 564.40 581.94 570.91 559.14
  Q 571.18 558.19 571.77 557.36
  Z
  M 749.81 557.64
  A 0.84 0.82 -82.8 0 1 750.61 557.01
  L 841.80 556.97
  Q 843.06 556.97 843.05 555.71
  L 843.01 552.11
  Q 843.00 551.07 841.96 551.07
  Q 790.47 551.04 738.25 550.93
  Q 720.31 550.89 704.60 551.00
  Q 692.92 551.08 684.60 551.04
  Q 646.35 550.84 609.90 551.22
  Q 608.91 551.23 608.91 552.23
  L 608.92 555.76
  Q 608.92 556.84 610.01 556.84
  L 680.17 557.12
  A 1.61 1.60 82.3 0 1 681.70 558.29
  L 694.09 602.69
  Q 694.23 603.20 694.65 603.53
  Q 703.18 610.39 712.75 616.42
  Q 717.27 619.27 721.89 617.13
  Q 726.79 614.87 731.30 611.38
  C 733.89 609.37 736.64 607.96 737.57 604.62
  Q 741.91 588.98 746.42 572.15
  C 747.71 567.35 748.60 562.44 749.81 557.64
  Z
  M 590.0509 552.2514
  A 1.26 1.26 0.0 0 0 588.7844 550.9981
  L 584.2044 551.0220
  A 1.26 1.26 0.0 0 0 582.9510 552.2886
  L 582.9691 555.7286
  A 1.26 1.26 0.0 0 0 584.2356 556.9819
  L 588.8156 556.9580
  A 1.26 1.26 0.0 0 0 590.0690 555.6914
  L 590.0509 552.2514
  Z
  M 860.30 556.43
  Q 860.92 556.37 861.10 556.97
  Q 867.52 579.19 876.54 603.88
  A 1.54 1.52 -8.0 0 0 877.87 604.87
  Q 886.75 605.52 895.86 604.88
  A 1.90 1.90 0.0 0 0 897.55 603.53
  L 911.15 557.99
  A 1.51 1.50 -83.6 0 1 912.49 556.92
  C 915.10 556.74 915.29 554.22 915.05 552.24
  Q 914.91 551.07 913.73 551.07
  L 858.73 551.06
  A 0.88 0.87 -87.5 0 0 857.86 551.86
  Q 857.67 554.13 858.59 556.09
  A 0.75 0.74 -14.9 0 0 859.34 556.52
  L 860.30 556.43
  Z
  M 967.02 552.15
  A 0.99 0.99 0.0 0 0 966.03 551.16
  L 933.93 551.16
  A 0.99 0.99 0.0 0 0 932.94 552.15
  L 932.94 555.85
  A 0.99 0.99 0.0 0 0 933.93 556.84
  L 966.03 556.84
  A 0.99 0.99 0.0 0 0 967.02 555.85
  L 967.02 552.15
  Z
  M 289.61 646.09
  L 299.93 643.63
  A 0.95 0.95 0.0 0 0 300.58 642.32
  Q 297.47 635.25 293.34 628.33
  Q 292.32 626.62 290.63 627.68
  L 280.46 634.06
  A 0.65 0.65 0.0 0 1 279.58 633.87
  L 273.36 624.66
  A 1.42 1.41 -40.7 0 1 273.50 622.90
  Q 277.45 618.62 282.07 615.53
  A 1.82 1.81 -40.0 0 0 282.32 612.71
  Q 278.26 608.79 274.00 604.56
  C 273.07 603.63 271.89 604.12 271.34 605.14
  A 1.26 1.20 88.7 0 1 270.93 605.59
  Q 270.74 605.71 270.52 605.68
  Q 269.94 605.58 270.01 605.00
  C 270.12 604.09 269.65 603.16 268.91 602.64
  Q 264.50 599.51 260.29 596.95
  A 0.68 0.67 -65.7 0 0 259.30 597.33
  L 255.73 608.47
  A 0.74 0.74 0.0 0 1 254.65 608.89
  Q 249.36 605.84 243.66 604.71
  Q 242.36 604.46 242.78 603.20
  L 246.85 590.94
  A 0.67 0.67 0.0 0 0 246.32 590.06
  L 233.80 588.08
  Q 233.08 587.96 233.00 588.69
  L 231.73 600.60
  A 1.28 1.28 0.0 0 1 230.68 601.73
  C 228.66 602.09 226.65 601.37 224.63 601.21
  Q 222.24 601.01 219.81 600.95
  A 0.84 0.83 2.1 0 1 219.00 600.09
  Q 219.19 594.39 217.97 588.81
  A 1.02 1.01 -10.4 0 0 216.83 588.03
  L 205.25 589.79
  A 1.55 1.55 0.0 0 0 204.04 591.88
  Q 206.22 597.49 207.18 603.59
  A 1.05 1.05 0.0 0 1 206.41 604.77
  Q 200.97 606.13 195.98 608.61
  A 1.15 1.14 67.9 0 1 194.39 607.93
  L 191.22 598.04
  A 1.74 1.74 0.0 0 0 188.43 597.25
  Q 184.95 600.22 181.15 602.58
  C 180.57 602.93 180.09 603.66 179.69 604.21
  Q 179.35 604.67 178.84 604.41
  C 176.99 603.49 176.05 604.57 174.78 605.77
  Q 170.22 610.06 167.22 613.41
  A 1.00 0.99 43.3 0 0 167.27 614.78
  L 175.42 622.79
  A 1.78 1.78 0.0 0 1 175.65 625.06
  L 169.98 633.58
  A 0.98 0.98 0.0 0 1 168.77 633.93
  Q 162.93 631.29 157.69 627.39
  A 0.69 0.69 0.0 0 0 156.66 627.64
  L 149.10 642.73
  A 0.72 0.72 0.0 0 0 149.58 643.75
  L 159.42 646.06
  A 0.86 0.86 0.0 0 1 160.04 647.14
  L 157.04 657.19
  Q 156.47 659.07 158.44 659.07
  L 182.58 659.05
  Q 183.82 659.05 183.99 657.83
  C 185.45 647.46 191.01 636.46 199.94 630.46
  C 205.16 626.94 211.10 623.87 217.46 622.74
  Q 222.43 621.86 225.36 622.01
  Q 249.72 623.31 261.42 644.48
  Q 264.97 650.91 265.03 658.05
  A 0.98 0.98 0.0 0 0 266.01 659.02
  L 290.62 659.05
  A 1.53 1.53 0.0 0 0 292.09 657.09
  L 289.11 646.96
  Q 288.91 646.26 289.61 646.09
  Z
  M 453.23 605.48
  C 453.14 604.46 453.08 603.45 452.15 602.79
  Q 447.74 599.69 443.39 597.07
  A 0.95 0.94 -69.8 0 0 441.98 597.73
  Q 441.10 603.04 439.03 607.14
  A 1.57 1.57 0.0 0 1 437.13 607.92
  L 426.92 604.49
  A 1.05 1.04 -73.2 0 1 426.25 603.22
  L 429.56 590.93
  Q 429.72 590.32 429.10 590.21
  L 416.48 587.98
  A 1.29 1.28 3.8 0 0 414.97 589.29
  Q 415.18 595.27 413.96 601.27
  A 0.66 0.65 -76.6 0 1 413.14 601.78
  Q 408.74 600.54 403.59 601.81
  A 1.50 1.49 77.4 0 1 401.77 600.65
  Q 400.74 595.42 401.05 589.54
  Q 401.13 587.91 399.50 588.06
  Q 392.90 588.66 386.86 589.94
  A 0.87 0.87 0.0 0 0 386.22 591.05
  L 389.84 602.76
  A 1.23 1.23 0.0 0 1 389.14 604.26
  L 378.76 608.60
  A 1.10 1.09 -21.7 0 1 377.31 607.98
  L 373.68 598.53
  A 1.22 1.22 0.0 0 0 371.92 597.92
  L 363.98 602.67
  A 1.81 1.70 -87.1 0 0 363.43 603.20
  Q 363.02 603.83 362.95 604.56
  Q 362.72 606.86 361.40 604.97
  Q 361.02 604.42 360.43 604.23
  A 1.00 1.00 0.0 0 0 359.37 604.50
  L 351.19 613.33
  A 0.97 0.96 44.8 0 0 351.20 614.65
  Q 355.07 618.77 359.73 622.49
  Q 361.43 623.85 359.96 625.45
  Q 356.74 628.97 354.17 633.31
  A 1.38 1.37 -58.7 0 1 352.26 633.78
  L 342.04 627.41
  Q 341.07 626.81 340.57 627.82
  L 333.37 642.25
  Q 333.04 642.92 333.75 643.14
  L 343.52 646.24
  A 0.57 0.56 18.9 0 1 343.88 646.97
  Q 341.96 652.24 340.93 657.43
  A 1.36 1.35 -84.4 0 0 342.25 659.05
  L 366.47 659.06
  Q 367.83 659.06 368.12 657.73
  Q 369.27 652.46 370.60 648.10
  Q 371.50 645.14 374.46 640.25
  C 378.86 632.99 386.10 627.97 393.94 624.86
  C 399.31 622.74 405.49 622.42 411.14 622.61
  Q 424.08 623.04 434.32 631.73
  C 440.14 636.67 445.60 643.57 447.32 651.04
  Q 448.15 654.60 448.97 658.08
  A 1.13 1.12 -6.0 0 0 450.04 658.94
  Q 461.53 659.16 472.86 659.05
  Q 474.00 659.04 475.08 658.84
  A 1.13 1.13 0.0 0 0 475.95 657.37
  L 472.75 647.67
  Q 472.32 646.39 473.64 646.08
  L 483.35 643.77
  A 1.01 1.01 0.0 0 0 484.08 642.47
  Q 483.22 639.89 481.69 637.57
  C 479.66 634.47 478.02 631.19 476.45 627.86
  A 0.95 0.94 -30.9 0 0 475.03 627.51
  Q 469.90 631.37 464.36 633.83
  A 1.19 1.18 -28.7 0 1 462.89 633.41
  L 456.85 624.30
  Q 455.92 622.90 457.31 621.96
  Q 461.79 618.92 464.98 615.65
  A 2.12 2.12 0.0 0 0 465.04 612.75
  Q 461.23 608.54 457.41 604.95
  Q 455.41 603.09 453.95 605.64
  A 0.39 0.39 0.0 0 1 453.23 605.48
  Z
  M 672.33 605.59
  Q 672.27 605.22 672.53 604.92
  Q 673.05 604.31 672.41 603.81
  Q 667.60 600.13 663.33 597.60
  Q 661.67 596.61 661.04 598.45
  L 658.18 606.85
  A 1.59 1.59 0.0 0 1 656.20 607.86
  L 645.23 604.49
  Q 644.83 604.37 644.83 603.94
  Q 644.87 601.90 645.48 600.08
  Q 647.10 595.16 648.63 590.54
  Q 648.83 589.94 648.20 589.84
  L 635.43 587.90
  A 1.11 1.11 0.0 0 0 634.16 588.87
  L 632.83 600.70
  A 0.53 0.52 -86.9 0 1 632.31 601.17
  L 620.87 601.04
  A 0.89 0.88 1.9 0 1 619.99 600.11
  Q 620.30 594.32 618.85 588.70
  A 0.99 0.99 0.0 0 0 617.72 587.97
  L 605.64 590.11
  A 0.61 0.60 78.6 0 0 605.16 590.84
  Q 606.51 596.84 608.77 602.56
  A 1.51 1.50 -19.1 0 1 607.80 604.55
  Q 602.07 606.27 597.24 608.87
  A 0.95 0.95 0.0 0 1 595.88 608.29
  Q 594.27 602.58 591.80 597.47
  A 0.91 0.90 -34.2 0 0 590.37 597.20
  Q 587.14 600.19 583.10 602.56
  A 1.94 1.91 0.4 0 0 582.44 603.20
  L 581.47 604.73
  Q 581.10 605.31 580.62 604.83
  Q 579.96 604.18 579.02 604.15
  Q 578.50 604.13 578.11 604.48
  Q 576.73 605.75 575.42 607.05
  C 573.55 608.92 572.39 611.22 570.43 613.02
  A 1.32 1.31 46.0 0 0 570.40 614.92
  L 578.48 622.95
  A 0.97 0.97 0.0 0 1 578.60 624.17
  L 572.30 633.47
  A 0.64 0.63 -55.6 0 1 571.42 633.64
  Q 567.97 631.29 563.87 629.45
  Q 561.95 628.58 560.57 627.13
  A 0.76 0.76 0.0 0 0 559.34 627.31
  L 552.00 641.95
  A 1.37 1.37 0.0 0 0 553.03 643.92
  Q 556.61 644.45 560.32 645.56
  Q 562.89 646.33 561.86 648.85
  Q 560.16 653.01 559.86 657.58
  A 1.40 1.39 -88.1 0 0 561.25 659.07
  L 585.66 659.07
  Q 586.89 659.07 587.03 657.85
  Q 589.49 636.02 608.86 626.29
  Q 617.36 622.03 626.90 622.06
  C 634.37 622.08 643.35 624.36 649.90 628.72
  Q 665.53 639.14 668.10 658.40
  A 0.76 0.76 0.0 0 0 668.85 659.06
  L 693.81 659.07
  A 1.28 1.27 81.8 0 0 695.03 657.43
  L 691.99 647.32
  A 1.24 1.23 75.0 0 1 692.88 645.77
  L 701.77 643.68
  A 1.16 1.14 77.2 0 0 702.62 642.31
  Q 702.02 639.55 700.38 637.12
  C 698.53 634.39 697.54 631.42 695.44 628.88
  A 2.44 2.42 53.1 0 0 692.21 628.41
  Q 687.90 631.35 682.55 633.68
  A 0.55 0.55 0.0 0 1 681.84 633.45
  Q 679.05 628.59 675.29 624.63
  A 1.05 1.05 0.0 0 1 675.27 623.21
  Q 679.06 618.94 684.15 615.41
  Q 685.63 614.38 684.30 613.16
  Q 683.07 612.05 682.00 610.68
  C 680.31 608.52 678.10 606.67 676.19 604.77
  C 674.91 603.48 673.51 604.26 672.87 605.66
  A 0.29 0.28 -37.4 0 1 672.33 605.59
  Z
  M 856.54 604.83
  Q 852.06 600.68 846.25 597.14
  A 0.79 0.79 0.0 0 0 845.10 597.52
  Q 843.25 602.22 842.13 606.59
  Q 841.58 608.76 839.49 607.93
  Q 833.75 605.67 828.43 604.73
  A 0.74 0.74 0.0 0 1 827.86 603.75
  Q 830.19 597.38 831.50 590.63
  Q 831.61 590.06 831.04 589.98
  L 818.90 588.10
  A 0.72 0.72 0.0 0 0 818.07 588.73
  L 816.76 600.51
  A 1.52 1.52 0.0 0 1 815.00 601.84
  Q 809.92 601.00 804.97 600.99
  A 1.02 1.02 0.0 0 1 803.97 600.08
  L 802.75 588.74
  A 0.77 0.76 -9.4 0 0 801.82 588.08
  Q 798.09 588.96 793.83 589.18
  Q 791.82 589.29 789.84 590.10
  A 1.68 1.67 69.9 0 0 788.89 592.16
  L 792.16 602.39
  A 2.06 2.06 0.0 0 1 790.64 605.04
  Q 785.62 606.15 781.14 608.83
  Q 780.54 609.18 780.06 608.68
  Q 778.85 607.41 778.33 605.54
  Q 777.22 601.59 775.53 597.95
  Q 775.07 596.97 774.10 597.44
  Q 767.68 600.55 765.25 605.25
  Q 764.95 605.82 764.33 605.69
  Q 763.75 605.57 763.45 605.02
  A 1.68 1.56 48.0 0 0 760.67 604.78
  C 760.01 605.80 759.59 606.84 758.74 607.73
  Q 756.18 610.40 753.44 613.06
  A 1.37 1.37 0.0 0 0 753.44 615.02
  Q 757.67 619.17 762.12 622.48
  Q 763.63 623.61 762.44 625.07
  Q 759.20 629.10 756.62 633.46
  A 1.39 1.38 34.0 0 1 754.59 633.85
  Q 749.32 629.81 743.93 627.45
  A 0.68 0.67 28.1 0 0 743.09 627.70
  Q 738.94 634.28 735.33 642.58
  A 0.52 0.52 0.0 0 0 735.52 643.22
  Q 736.61 643.93 737.89 644.24
  Q 741.52 645.10 745.35 646.07
  Q 746.02 646.24 745.85 646.92
  L 743.02 657.61
  A 1.15 1.14 -82.6 0 0 744.12 659.05
  L 768.66 659.07
  A 1.80 1.78 5.7 0 0 770.42 657.64
  C 772.09 649.50 774.31 642.43 779.93 636.06
  Q 787.25 627.76 798.55 623.99
  C 813.48 619.01 830.32 624.02 841.22 635.46
  C 847.06 641.60 850.50 650.00 851.10 658.34
  A 0.74 0.74 0.0 0 0 851.84 659.03
  L 876.63 659.10
  A 1.60 1.60 0.0 0 0 878.20 657.18
  Q 877.09 651.65 874.95 646.87
  A 0.53 0.52 -19.0 0 1 875.31 646.15
  L 885.75 643.70
  A 1.25 1.24 73.2 0 0 886.63 642.05
  Q 884.34 635.91 880.10 628.57
  Q 879.05 626.77 877.23 627.75
  Q 873.78 629.62 870.28 632.20
  Q 868.78 633.31 867.06 633.95
  Q 866.58 634.13 866.21 633.77
  Q 864.55 632.16 863.43 629.97
  C 862.38 627.89 860.71 626.32 859.24 624.52
  A 1.10 1.09 48.2 0 1 859.32 623.04
  L 867.45 615.18
  A 1.62 1.61 -46.2 0 0 867.41 612.82
  Q 863.43 609.25 859.46 603.80
  A 0.89 0.89 0.0 0 0 857.98 603.87
  L 857.49 604.69
  Q 857.10 605.35 856.54 604.83
  Z
  M 603.20 657.17
  C 604.52 647.78 612.15 640.17 621.83 637.93
  Q 623.96 637.44 624.09 635.26
  Q 624.11 634.98 624.01 634.71
  Q 623.45 633.16 621.85 633.54
  Q 615.08 635.18 611.61 637.07
  Q 600.53 643.13 598.01 657.23
  Q 597.66 659.20 599.66 659.16
  L 600.98 659.13
  Q 602.93 659.09 603.20 657.17
  Z
  M 202.66 650.77
  C 206.12 643.96 212.07 639.95 219.50 638.07
  Q 221.09 637.67 221.07 636.02
  L 221.06 635.54
  Q 221.03 633.55 219.06 633.86
  Q 210.32 635.25 203.91 641.35
  C 201.05 644.07 198.51 647.05 197.19 650.83
  Q 196.07 654.01 195.07 657.33
  Q 194.54 659.08 196.37 659.06
  L 199.33 659.03
  Q 200.82 659.01 200.88 657.53
  Q 201.04 653.96 202.66 650.77
  Z
  M 254.67 658.84
  Q 251.93 643.16 238.50 636.50
  Q 234.97 634.75 229.39 633.97
  A 1.34 1.33 -83.0 0 0 227.87 635.16
  L 227.83 635.56
  Q 227.63 637.46 229.48 637.96
  C 240.06 640.78 247.02 647.82 249.46 658.68
  Q 249.48 658.76 249.56 658.77
  Q 253.28 659.31 254.61 658.93
  Q 254.68 658.91 254.67 658.84
  Z
  M 379.42 659.09
  L 382.22 659.05
  Q 383.86 659.02 384.31 657.44
  C 384.87 655.49 385.18 653.58 386.03 651.75
  C 389.44 644.41 395.70 639.97 403.62 638.03
  Q 405.02 637.68 405.05 636.24
  L 405.06 635.47
  Q 405.10 633.88 403.51 633.94
  Q 400.26 634.05 397.02 635.44
  Q 383.18 641.40 378.29 657.59
  Q 377.83 659.11 379.42 659.09
  Z
  M 419.56 640.24
  C 425.29 643.39 431.17 649.99 432.21 656.75
  Q 432.53 658.90 434.70 659.07
  L 436.19 659.18
  Q 438.47 659.36 437.86 657.15
  C 437.27 655.00 436.95 652.78 435.94 650.78
  C 431.36 641.73 423.75 635.49 413.80 633.99
  Q 412.09 633.73 411.80 635.43
  Q 411.76 635.63 411.78 635.83
  Q 411.94 637.84 413.89 638.38
  C 415.83 638.92 417.76 639.25 419.56 640.24
  Z
  M 637.41 639.56
  C 644.56 643.24 649.60 649.41 651.61 657.11
  Q 652.10 659.00 654.05 659.13
  L 655.27 659.21
  Q 657.15 659.34 656.87 657.48
  C 655.18 646.15 645.04 635.60 633.92 634.04
  Q 632.84 633.89 631.76 634.05
  Q 631.08 634.15 630.93 634.82
  Q 630.66 635.98 631.00 637.12
  Q 631.14 637.56 631.59 637.62
  Q 634.43 638.02 637.41 639.56
  Z
  M 788.53 642.15
  C 786.06 644.63 783.03 649.67 782.40 653.56
  Q 782.00 656.00 781.48 658.48
  Q 781.34 659.11 781.99 659.09
  L 785.77 658.99
  Q 786.66 658.96 786.75 658.07
  C 787.74 647.02 795.21 640.86 805.59 638.01
  Q 807.09 637.60 807.07 636.04
  L 807.06 635.65
  Q 807.02 633.33 804.76 633.83
  Q 794.57 636.08 788.53 642.15
  Z
  M 840.55 658.40
  Q 838.89 647.65 830.69 640.56
  C 826.76 637.16 821.91 634.32 816.78 633.89
  C 814.94 633.73 814.37 635.40 814.91 636.80
  Q 815.16 637.47 815.85 637.68
  Q 829.73 641.92 834.69 655.56
  Q 835.13 656.78 835.14 658.04
  A 0.94 0.94 0.0 0 0 836.06 658.98
  L 839.95 659.08
  Q 840.66 659.10 840.55 658.40
  Z
  M 239.98 662.03
  A 15.20 15.20 0.0 0 0 224.78 646.83
  A 15.20 15.20 0.0 0 0 209.58 662.03
  A 15.20 15.20 0.0 0 0 224.78 677.23
  A 15.20 15.20 0.0 0 0 239.98 662.03
  Z
  M 403.3663 676.4741
  A 15.23 14.83 109.3 0 0 422.3966 667.0015
  A 15.23 14.83 109.3 0 0 413.4337 647.7259
  A 15.23 14.83 109.3 0 0 394.4034 657.1985
  A 15.23 14.83 109.3 0 0 403.3663 676.4741
  Z
  M 628.07 646.93
  Q 619.35 646.06 614.14 654.61
  Q 610.38 660.80 612.84 666.77
  Q 616.31 675.19 623.94 676.74
  C 630.59 678.10 635.62 675.73 639.93 670.65
  Q 641.86 668.37 642.17 664.75
  C 643.02 655.10 637.74 647.90 628.07 646.93
  Z
  M 823.4743 654.0240
  A 15.24 15.05 -32.0 0 0 802.5747 649.3369
  A 15.24 15.05 -32.0 0 0 797.6257 670.1760
  A 15.24 15.05 -32.0 0 0 818.5253 674.8631
  A 15.24 15.05 -32.0 0 0 823.4743 654.0240
  Z
  M 297.83 672.16
  L 303.41 672.04
  A 1.76 1.76 0.0 0 0 305.13 670.24
  L 304.99 664.16
  A 3.30 2.90 88.7 0 0 302.01 660.92
  L 298.71 661.00
  A 3.30 2.90 88.7 0 0 295.89 664.36
  L 296.03 670.44
  A 1.76 1.76 0.0 0 0 297.83 672.16
  Z
  M 338.0561 663.0979
  A 2.04 2.04 0.0 0 0 336.0197 661.0544
  L 330.9997 661.0456
  A 2.04 2.04 0.0 0 0 328.9561 663.0821
  L 328.9439 670.0821
  A 2.04 2.04 0.0 0 0 330.9803 672.1256
  L 336.0003 672.1344
  A 2.04 2.04 0.0 0 0 338.0439 670.0979
  L 338.0561 663.0979
  Z
  M 488.0768 662.6579
  A 1.64 1.64 0.0 0 0 486.4396 661.0151
  L 480.6196 661.0049
  A 1.64 1.64 0.0 0 0 478.9768 662.6421
  L 478.9632 670.4021
  A 1.64 1.64 0.0 0 0 480.6004 672.0449
  L 486.4204 672.0551
  A 1.64 1.64 0.0 0 0 488.0632 670.4179
  L 488.0768 662.6579
  Z
  M 707.0468 662.7542
  A 1.73 1.73 0.0 0 0 705.3107 661.0303
  L 699.7308 661.0498
  A 1.73 1.73 0.0 0 0 698.0068 662.7858
  L 698.0332 670.3458
  A 1.73 1.73 0.0 0 0 699.7693 672.0697
  L 705.3492 672.0502
  A 1.73 1.73 0.0 0 0 707.0732 670.3142
  L 707.0468 662.7542
  Z
  M 146.08 672.35
  Q 148.19 671.98 150.46 672.10
  C 154.77 672.32 154.27 665.65 153.94 662.86
  A 1.05 1.05 0.0 0 0 152.90 661.93
  L 145.87 661.98
  A 0.83 0.83 0.0 0 0 145.05 662.76
  Q 144.74 667.42 145.16 672.11
  Q 145.20 672.60 145.69 672.54
  Q 145.92 672.51 146.08 672.35
  Z
  M 556.0080 663.3251
  A 1.40 1.40 0.0 0 0 554.5958 661.9373
  L 549.3560 661.9831
  A 1.40 1.40 0.0 0 0 547.9683 663.3952
  L 548.0320 670.6949
  A 1.40 1.40 0.0 0 0 549.4442 672.0827
  L 554.6840 672.0369
  A 1.40 1.40 0.0 0 0 556.0717 670.6248
  L 556.0080 663.3251
  Z
  M 740.0548 663.4719
  A 1.49 1.49 0.0 0 0 738.5753 661.9715
  L 732.4554 661.9288
  A 1.49 1.49 0.0 0 0 730.9550 663.4083
  L 730.9052 670.5481
  A 1.49 1.49 0.0 0 0 732.3847 672.0485
  L 738.5046 672.0912
  A 1.49 1.49 0.0 0 0 740.0050 670.6117
  L 740.0548 663.4719
  Z
  M 890.0940 663.5329
  A 1.60 1.60 0.0 0 0 888.4912 661.9357
  L 883.5712 661.9443
  A 1.60 1.60 0.0 0 0 881.9740 663.5471
  L 881.9860 670.4671
  A 1.60 1.60 0.0 0 0 883.5888 672.0643
  L 888.5088 672.0557
  A 1.60 1.60 0.0 0 0 890.1060 670.4529
  L 890.0940 663.5329
  Z
  M 621.61 691.99
  Q 622.76 692.33 622.91 691.14
  Q 623.14 689.31 623.04 687.22
  Q 623.00 686.17 621.94 686.16
  Q 617.64 686.14 613.12 682.72
  Q 604.87 676.46 602.84 666.91
  Q 602.71 666.31 602.13 666.10
  Q 600.42 665.48 599.23 666.35
  A 0.98 0.97 71.9 0 0 598.84 667.13
  Q 598.87 672.93 601.74 677.41
  Q 608.64 688.17 621.61 691.99
  Z
  M 432.34 667.44
  Q 431.37 673.95 425.70 679.76
  Q 420.35 685.24 412.69 686.23
  A 1.00 0.98 85.3 0 0 411.83 687.26
  L 411.99 690.98
  Q 412.03 691.87 412.91 691.70
  Q 433.05 687.67 437.61 667.19
  Q 437.65 667.01 437.47 667.01
  L 432.98 666.90
  Q 432.42 666.88 432.34 667.44
  Z
  M 221.00 691.38
  L 221.03 687.00
  Q 221.04 686.35 220.40 686.27
  Q 209.77 684.82 203.29 674.96
  C 201.92 672.87 201.42 670.17 200.69 667.71
  Q 200.53 667.16 199.95 667.12
  L 195.80 666.88
  Q 195.26 666.85 195.38 667.38
  Q 198.52 681.26 210.02 688.39
  Q 213.71 690.67 220.47 691.83
  Q 221.00 691.92 221.00 691.38
  Z
  M 247.74 671.23
  C 245.62 677.82 236.95 685.83 229.75 686.12
  Q 228.88 686.16 228.88 687.03
  L 228.91 690.95
  Q 228.92 692.02 229.95 691.78
  Q 242.36 688.97 248.84 679.06
  Q 251.69 674.71 253.77 668.32
  Q 254.24 666.90 252.74 666.92
  L 250.91 666.96
  Q 249.47 666.98 248.88 668.29
  Q 248.21 669.76 247.74 671.23
  Z
  M 264.14 668.92
  C 261.60 684.82 247.32 700.26 231.01 702.05
  Q 222.61 702.98 215.80 701.69
  C 206.84 700.00 198.44 693.17 192.69 686.03
  Q 187.52 679.59 185.44 670.09
  Q 184.98 667.99 182.83 667.94
  L 181.73 667.92
  Q 179.70 667.87 180.02 669.88
  Q 182.49 685.21 193.05 695.20
  C 207.46 708.83 230.51 713.15 247.94 701.96
  Q 265.63 690.60 270.09 668.67
  A 1.41 1.41 0.0 0 0 268.68 666.98
  L 266.29 667.04
  Q 264.44 667.08 264.14 668.92
  Z
  M 395.38 688.84
  Q 398.53 690.45 402.34 691.01
  Q 404.10 691.27 404.08 689.49
  L 404.06 687.65
  Q 404.04 686.27 402.67 686.11
  Q 399.62 685.76 396.41 683.85
  Q 386.66 678.05 384.53 667.37
  A 0.34 0.34 0.0 0 0 384.21 667.09
  L 379.49 666.91
  Q 379.27 666.90 379.31 667.12
  Q 382.26 682.12 395.38 688.84
  Z
  M 392.85 699.33
  Q 372.67 689.71 368.74 668.82
  Q 368.58 667.99 367.73 667.98
  L 363.99 667.93
  Q 363.11 667.93 363.24 668.79
  Q 365.39 683.61 374.59 693.27
  Q 389.74 709.20 411.35 708.19
  C 432.03 707.22 447.77 692.15 452.85 672.64
  Q 453.25 671.08 452.98 667.95
  Q 452.90 667.03 451.97 667.01
  L 449.28 666.95
  Q 448.12 666.92 447.93 668.06
  Q 445.51 682.44 434.66 692.63
  C 425.46 701.28 412.94 703.72 400.77 701.84
  Q 396.86 701.23 392.85 699.33
  Z
  M 651.16 667.66
  C 650.34 674.76 645.09 680.79 639.01 684.30
  C 636.42 685.80 634.35 685.87 631.59 686.24
  Q 630.86 686.34 630.87 687.07
  L 630.92 691.16
  Q 630.93 691.83 631.60 691.74
  C 644.34 689.93 654.15 680.02 656.59 667.63
  Q 656.71 667.00 656.07 666.99
  L 652.01 666.91
  A 0.85 0.84 -86.2 0 0 651.16 667.66
  Z
  M 654.01 692.42
  C 645.55 699.77 636.03 703.09 624.50 702.62
  Q 615.58 702.27 607.24 697.28
  Q 592.66 688.55 588.17 671.13
  C 587.95 670.28 588.07 669.44 587.78 668.64
  Q 587.57 668.08 586.97 668.06
  L 583.00 667.93
  Q 582.40 667.91 582.47 668.51
  Q 583.61 677.77 587.00 683.90
  C 591.69 692.40 599.64 700.70 608.80 704.40
  C 622.23 709.83 636.97 709.57 649.87 702.41
  Q 663.77 694.71 670.09 678.77
  C 671.22 675.91 671.65 673.09 672.54 670.22
  Q 673.30 667.80 670.81 667.32
  Q 670.44 667.25 670.10 667.17
  Q 667.41 666.57 666.93 669.28
  Q 664.44 683.34 654.01 692.42
  Z
  M 806.65 690.89
  Q 807.11 689.78 807.17 688.47
  Q 807.21 687.54 806.30 687.29
  Q 791.00 683.16 786.80 668.19
  Q 786.48 667.03 785.27 667.00
  L 782.83 666.95
  A 0.96 0.95 -2.4 0 0 781.86 668.00
  C 782.97 679.04 794.63 689.55 805.47 691.54
  Q 806.32 691.69 806.65 690.89
  Z
  M 833.40 672.15
  C 830.47 678.81 823.04 685.31 815.43 686.33
  Q 814.85 686.41 814.86 687.00
  L 814.96 690.99
  Q 814.98 691.53 815.51 691.47
  Q 819.41 691.00 822.90 689.19
  Q 836.99 681.87 839.75 668.30
  Q 840.03 666.89 838.59 666.93
  L 836.66 666.98
  A 2.00 2.00 0.0 0 0 834.80 668.40
  Q 834.20 670.35 833.40 672.15
  Z
  M 850.12 668.82
  C 847.40 684.76 836.33 696.98 820.88 701.25
  Q 807.51 704.95 795.41 699.61
  Q 776.73 691.37 771.30 669.85
  Q 770.83 667.99 768.90 667.96
  L 767.73 667.94
  Q 765.35 667.91 765.99 670.20
  C 766.80 673.11 767.00 676.33 768.12 679.02
  Q 775.87 697.60 792.50 704.50
  Q 808.65 711.20 824.93 706.05
  C 839.96 701.29 849.58 690.10 854.34 674.68
  Q 855.24 671.80 854.97 668.90
  Q 854.91 668.27 854.29 668.14
  Q 852.52 667.75 850.91 668.03
  A 0.97 0.96 -89.5 0 0 850.12 668.82
  Z
  M 300.89 698.79
  C 297.95 697.79 293.94 697.12 291.55 699.63
  A 1.11 1.10 -55.5 0 0 291.87 701.38
  Q 294.23 702.53 296.64 704.05
  Q 298.74 705.38 297.41 707.40
  C 292.99 714.11 287.25 719.35 281.61 724.93
  C 279.22 727.29 276.32 728.84 274.16 731.36
  A 0.45 0.45 0.0 0 0 274.50 732.10
  Q 309.37 731.82 342.75 732.17
  Q 351.57 732.26 359.59 731.78
  A 0.26 0.26 0.0 0 0 359.71 731.29
  Q 353.87 727.82 349.26 722.81
  Q 344.22 717.31 338.55 710.95
  Q 336.52 708.67 335.05 706.26
  A 0.58 0.58 0.0 0 1 335.21 705.49
  L 341.53 700.99
  A 1.12 1.12 0.0 0 0 341.51 699.16
  C 339.43 697.74 335.77 697.96 333.36 698.02
  A 2.09 2.08 -9.8 0 1 331.31 696.58
  Q 328.83 688.99 327.34 681.39
  Q 326.83 678.75 326.95 676.21
  A 1.19 1.19 0.0 0 0 325.75 674.96
  L 308.07 674.98
  A 1.07 1.06 4.4 0 0 307.01 675.88
  Q 305.11 687.48 302.20 698.10
  A 1.02 1.02 0.0 0 1 300.89 698.79
  Z
  M 552.57 705.61
  Q 555.49 703.10 559.40 700.81
  A 1.05 1.05 0.0 0 0 559.28 698.94
  Q 554.95 697.09 551.00 698.88
  A 0.69 0.68 66.7 0 1 550.08 698.51
  Q 545.76 687.55 545.97 676.23
  A 1.22 1.22 0.0 0 0 544.75 674.99
  L 490.98 674.99
  A 0.90 0.90 0.0 0 0 490.09 675.74
  C 488.81 682.83 487.71 689.89 485.25 696.85
  Q 484.84 698.00 483.63 698.00
  Q 480.77 698.02 477.66 697.98
  C 476.21 697.96 475.41 699.17 475.33 700.50
  Q 475.29 701.10 475.80 701.45
  L 481.95 705.64
  A 0.41 0.40 -55.3 0 1 482.05 706.21
  Q 475.23 715.75 466.92 722.96
  C 463.70 725.75 460.79 728.93 457.43 731.49
  Q 456.70 732.05 457.63 732.05
  Q 513.63 731.87 568.41 732.11
  Q 572.12 732.12 575.89 731.89
  Q 577.94 731.77 576.22 730.64
  Q 574.02 729.18 572.23 727.55
  Q 561.53 717.79 552.48 706.67
  Q 552.01 706.10 552.57 705.61
  Z
  M 734.39 698.60
  C 731.49 691.17 730.03 683.86 728.87 676.13
  A 1.36 1.35 -4.2 0 0 727.53 674.98
  L 709.95 674.98
  A 0.79 0.78 -87.2 0 0 709.17 675.69
  Q 708.08 686.26 704.21 698.11
  Q 704.01 698.70 703.41 698.58
  Q 700.26 697.95 696.98 697.58
  C 695.85 697.45 694.60 698.22 694.21 699.24
  A 1.78 1.78 0.0 0 0 694.78 701.29
  L 700.53 705.71
  Q 701.06 706.11 700.65 706.63
  Q 690.28 719.56 676.43 731.57
  Q 676.03 731.91 676.56 731.93
  Q 680.51 732.09 684.23 732.07
  Q 718.08 731.88 752.37 732.15
  Q 756.97 732.19 761.25 731.79
  Q 762.62 731.66 761.37 731.07
  Q 758.69 729.80 756.58 727.90
  Q 745.98 718.28 738.45 708.70
  Q 737.59 707.61 737.10 706.31
  A 1.17 1.16 -27.7 0 1 737.53 704.94
  L 743.31 700.85
  A 1.46 1.46 0.0 0 0 742.74 698.23
  Q 739.00 697.53 735.35 699.02
  Q 734.66 699.30 734.39 698.60
  Z"
/>
<path  d="
  M 638.79 371.65
  L 638.37 372.65
  A 1.93 1.93 0.0 0 1 636.73 373.82
  L 635.21 373.93
  A 1.93 1.93 0.0 0 1 633.14 371.93
  L 633.24 369.62
  A 1.93 1.93 0.0 0 1 636.22 368.09
  L 638.06 369.28
  A 1.93 1.93 0.0 0 1 638.79 371.65
  Z"
/>
<rect  x="-2.94" y="-2.95" transform="translate(654.92,370.96) rotate(-0.1)" width="5.88" height="5.90" rx="2.17"/>
<path  d="
  M 513.81 393.53
  C 514.85 396.18 512.87 398.25 510.73 399.45
  A 0.93 0.92 49.9 0 1 509.69 399.36
  Q 506.27 396.49 508.22 393.13
  Q 508.48 392.69 508.95 392.49
  C 510.37 391.90 513.10 391.72 513.81 393.53
  Z"
/>
<circle  cx="536.51" cy="395.52" r="3.37"/>
<rect  x="-2.96" y="-2.95" transform="translate(573.04,396.03) rotate(2.1)" width="5.92" height="5.90" rx="2.17"/>
<path  d="
  M 625.58 395.99
  A 1.52 1.52 0.0 0 1 627.10 397.52
  L 627.07 411.67
  A 17.99 17.19 0.1 0 1 609.05 428.82
  L 604.71 428.82
  A 17.99 17.19 0.1 0 1 586.75 411.59
  L 586.78 397.44
  A 1.52 1.52 0.0 0 1 588.30 395.93
  L 625.58 395.99
  Z
  M 619.02 404.20
  A 1.05 1.05 0.0 0 0 617.97 403.15
  L 595.03 403.15
  A 1.05 1.05 0.0 0 0 593.98 404.20
  L 593.98 408.82
  A 1.05 1.05 0.0 0 0 595.03 409.87
  L 617.97 409.87
  A 1.05 1.05 0.0 0 0 619.02 408.82
  L 619.02 404.20
  Z"
/>
<path  d="
  M 477.2339 422.2182
  A 13.20 12.15 52.4 0 1 459.5537 419.1733
  A 13.20 12.15 52.4 0 1 461.1261 401.3018
  A 13.20 12.15 52.4 0 1 478.8063 404.3467
  A 13.20 12.15 52.4 0 1 477.2339 422.2182
  Z
  M 472.1080 408.1857
  A 2.09 2.09 0.0 0 0 470.0364 406.0776
  L 466.0365 406.0427
  A 2.09 2.09 0.0 0 0 463.9284 408.1143
  L 463.9120 409.9943
  A 2.09 2.09 0.0 0 0 465.9836 412.1024
  L 469.9835 412.1373
  A 2.09 2.09 0.0 0 0 472.0916 410.0657
  L 472.1080 408.1857
  Z"
/>
<path  d="
  M 517.47 420.00
  C 516.38 420.40 515.64 420.93 514.68 421.53
  Q 514.12 421.88 513.92 421.26
  Q 512.14 415.72 507.78 412.81
  A 1.57 1.52 -79.1 0 1 507.11 411.79
  Q 506.49 408.33 507.25 404.53
  A 0.70 0.70 0.0 0 1 507.94 403.96
  L 530.56 404.00
  Q 532.11 404.01 531.91 405.55
  L 530.85 413.59
  A 2.37 2.36 -7.0 0 1 529.36 415.49
  Q 523.50 417.77 517.47 420.00
  Z"
/>
<path  d="
  M 682.58 411.96
  A 0.94 0.93 -3.0 0 1 681.98 412.62
  C 676.74 414.48 675.24 406.55 680.89 406.94
  Q 681.27 406.97 681.54 407.25
  Q 683.29 409.09 682.58 411.96
  Z"
/>
<path  d="
  M 393.47 425.11
  A 2.09 2.09 0.0 0 1 390.82 425.92
  C 388.62 424.91 386.80 422.56 389.04 420.27
  C 390.15 419.12 391.60 418.76 392.78 420.04
  Q 395.05 422.53 393.47 425.11
  Z"
/>
<path  d="
  M 440.60 428.99
  A 0.86 0.85 -88.6 0 1 440.00 429.57
  Q 437.99 430.10 435.94 429.19
  Q 434.95 428.76 434.82 427.70
  Q 434.35 424.06 437.83 423.15
  Q 438.32 423.02 438.76 423.29
  Q 441.76 425.11 440.60 428.99
  Z"
/>
<path  d="
  M 626.62 428.42
  C 625.03 427.08 626.80 424.48 628.04 423.55
  A 1.28 1.27 -46.3 0 1 629.50 423.51
  Q 630.97 424.49 631.49 426.68
  Q 632.03 428.99 629.77 429.52
  C 628.41 429.84 627.59 429.22 626.62 428.42
  Z"
/>
<path  d="
  M 567.82 424.13
  C 571.08 423.07 572.98 425.94 571.67 428.86
  Q 571.44 429.39 570.87 429.53
  Q 569.01 429.99 566.95 429.58
  Q 566.27 429.44 566.26 428.74
  C 566.25 426.87 565.59 424.86 567.82 424.13
  Z"
/>
<path  d="
  M 961.45 533.89
  L 837.64 534.11
  A 0.74 0.74 0.0 0 1 836.90 533.37
  L 836.93 490.70
  A 0.74 0.74 0.0 0 1 837.67 489.96
  L 961.22 489.98
  A 0.74 0.74 0.0 0 1 961.96 490.72
  L 962.19 533.15
  A 0.74 0.74 0.0 0 1 961.45 533.89
  Z
  M 954.63 525.78
  Q 954.05 523.79 954.04 522.43
  Q 953.95 510.73 954.03 498.88
  A 0.86 0.85 90.0 0 0 953.18 498.02
  Q 911.16 497.98 869.18 497.98
  Q 864.46 497.98 858.78 497.84
  Q 851.96 497.67 845.51 498.18
  A 1.66 1.65 87.8 0 0 843.99 499.83
  L 843.99 524.49
  Q 843.99 526.00 845.49 526.00
  L 954.47 526.00
  Q 954.70 526.00 954.63 525.78
  Z"
/>
<circle  cx="274.59" cy="495.52" r="3.33"/>
<ellipse  cx="0.00" cy="0.00" transform="translate(515.07,512.43) rotate(83.9)" rx="16.60" ry="16.25"/>
<path  d="
  M 304.66 497.20
  A 0.94 0.94 0.0 0 1 306.01 498.03
  L 306.29 509.46
  Q 306.31 510.24 305.53 510.23
  L 290.84 509.97
  Q 290.21 509.96 290.13 509.33
  L 288.93 499.20
  A 1.05 1.05 0.0 0 1 289.97 498.03
  Q 296.34 497.99 302.46 497.78
  Q 303.54 497.74 304.66 497.20
  Z"
/>
<path  d="
  M 851.28 505.86
  C 847.00 507.29 845.71 502.66 848.88 500.54
  A 1.08 1.07 35.0 0 1 849.75 500.39
  Q 852.96 501.23 851.97 505.12
  Q 851.83 505.68 851.28 505.86
  Z"
/>
<path  d="
  M 481.00 501.55
  C 481.19 503.84 481.37 507.46 477.76 506.83
  C 475.70 506.48 475.79 503.84 476.17 502.33
  A 1.15 1.13 84.6 0 1 476.80 501.56
  Q 478.43 500.82 480.43 500.98
  A 0.62 0.62 0.0 0 1 481.00 501.55
  Z"
/>
<ellipse  cx="0.00" cy="0.00" transform="translate(589.64,503.90) rotate(63.3)" rx="2.93" ry="2.75"/>
<ellipse  cx="0.00" cy="0.00" transform="translate(698.47,503.81) rotate(80.3)" rx="2.83" ry="2.61"/>
<path  d="
  M 789.09 506.92
  A 0.89 0.88 60.0 0 1 788.11 506.65
  Q 786.73 505.00 787.25 502.69
  Q 787.64 500.99 789.38 501.02
  Q 790.87 501.06 791.65 502.04
  C 793.14 503.92 790.79 506.30 789.09 506.92
  Z"
/>
<path  d="
  M 679.39 505.85
  Q 678.65 503.90 679.27 502.22
  A 1.80 1.79 34.9 0 1 682.32 501.68
  L 683.54 503.10
  Q 684.22 503.89 683.65 504.76
  Q 682.74 506.15 681.49 506.72
  A 1.56 1.56 0.0 0 1 679.39 505.85
  Z"
/>
<path  d="
  M 633.71 501.88
  Q 634.39 501.32 635.43 501.57
  C 637.43 502.05 637.27 504.61 636.46 506.00
  A 1.62 1.61 -62.9 0 1 634.40 506.67
  C 633.25 506.14 631.54 504.71 632.22 503.25
  C 632.53 502.58 633.16 502.34 633.71 501.88
  Z"
/>
<path  d="
  M 211.47 541.97
  Q 206.82 540.03 203.02 535.99
  Q 199.57 532.33 198.65 526.75
  C 197.45 519.50 198.75 511.22 204.96 506.65
  C 214.33 499.74 225.98 502.24 231.71 512.26
  C 234.22 516.64 234.28 522.13 233.51 527.09
  C 232.56 533.27 228.86 537.15 223.73 540.52
  Q 217.62 544.53 211.47 541.97
  Z
  M 220.65 527.12
  C 228.59 523.07 226.69 514.05 219.52 510.90
  C 214.69 508.78 209.93 512.29 207.75 516.47
  C 205.92 519.98 207.13 523.82 209.78 526.44
  C 212.36 528.98 218.04 528.45 220.65 527.12
  Z"
/>
<ellipse  cx="0.00" cy="0.00" transform="translate(190.43,511.25) rotate(25.3)" rx="3.48" ry="3.25"/>
<ellipse  cx="0.00" cy="0.00" transform="translate(158.21,519.77) rotate(42.7)" rx="4.61" ry="4.29"/>
<rect  x="-8.50" y="-3.27" transform="translate(298.43,521.32) rotate(1.1)" width="17.00" height="6.54" rx="1.54"/>
<path  d="
  M 846.94 519.05
  A 1.79 1.78 -81.0 0 1 848.38 518.00
  Q 849.78 517.85 851.24 518.19
  C 853.07 518.61 853.55 520.81 852.42 522.20
  C 849.56 525.72 845.18 523.00 846.94 519.05
  Z"
/>
<circle  cx="634.94" cy="530.86" r="3.01"/>
<path  d="
  M 817.25 529.81
  Q 817.64 530.38 817.38 531.02
  L 816.59 532.96
  A 1.24 1.20 -89.0 0 1 815.90 533.65
  C 812.67 534.94 810.06 533.19 811.25 529.55
  Q 811.53 528.71 812.27 528.36
  Q 815.29 526.96 817.25 529.81
  Z"
/>
<ellipse  cx="0.00" cy="0.00" transform="translate(182.77,535.27) rotate(130.2)" rx="3.48" ry="3.33"/>
<circle  cx="91.26" cy="545.38" r="3.53"/>
<path  d="
  M 189.72 542.70
  C 192.48 540.35 197.77 546.34 193.37 549.25
  C 191.83 550.27 188.82 549.06 188.16 547.41
  Q 187.15 544.89 189.72 542.70
  Z"
/>
<path  d="
  M 315.56 612.21
  C 311.10 608.96 306.61 605.61 302.10 602.37
  Q 300.37 601.12 299.90 598.95
  Q 295.50 578.60 290.23 557.95
  A 0.69 0.68 81.2 0 1 290.85 557.10
  Q 293.50 556.94 296.25 556.95
  Q 321.00 557.01 346.09 557.01
  A 0.85 0.84 6.7 0 1 346.92 558.05
  Q 342.73 576.20 337.85 596.02
  C 337.20 598.64 336.51 600.37 334.14 601.95
  Q 326.15 607.32 318.56 612.28
  A 2.65 2.64 46.2 0 1 315.56 612.21
  Z"
/>
<path  d="
  M 565.77 558.20
  Q 559.24 578.18 553.97 598.01
  A 1.43 1.42 -81.9 0 1 552.57 599.07
  Q 547.82 599.00 541.96 600.04
  Q 540.28 600.34 539.78 598.71
  Q 535.09 583.44 530.72 568.98
  Q 528.93 563.09 527.13 558.03
  Q 526.86 557.26 527.67 557.17
  Q 530.57 556.84 533.20 556.85
  Q 547.51 556.91 561.63 557.05
  Q 563.68 557.07 565.39 557.51
  A 0.55 0.54 16.7 0 1 565.77 558.20
  Z"
/>
<path  d="
  M 893.26 598.66
  A 1.74 1.73 -85.0 0 1 891.82 599.87
  Q 887.55 600.38 882.73 600.04
  Q 880.55 599.88 879.87 597.80
  L 866.99 558.09
  Q 866.81 557.53 867.37 557.36
  Q 869.25 556.77 871.40 556.78
  Q 888.06 556.88 905.36 557.04
  A 0.48 0.47 -81.4 0 1 905.81 557.66
  L 893.26 598.66
  Z"
/>
<path  d="
  M 698.62 598.98
  C 694.77 585.59 691.26 572.05 687.51 558.72
  Q 687.04 557.02 688.80 557.02
  Q 713.07 556.96 739.28 557.01
  Q 741.59 557.01 743.77 557.27
  A 0.51 0.51 0.0 0 1 744.21 557.88
  C 743.72 560.21 743.34 562.61 742.66 564.89
  Q 737.11 583.52 733.17 601.22
  Q 732.56 603.96 730.43 605.66
  Q 725.27 609.78 719.85 612.57
  C 718.54 613.25 716.90 612.58 715.74 611.85
  Q 708.39 607.20 700.79 601.94
  Q 699.14 600.80 698.62 598.98
  Z"
/>
<path  d="
  M 77.08 570.54
  A 3.13 3.09 77.0 0 1 75.55 569.57
  Q 71.68 565.09 67.47 561.16
  Q 66.37 560.15 67.87 560.12
  Q 83.45 559.84 101.41 560.22
  A 0.59 0.59 0.0 0 1 101.99 560.81
  L 102.01 570.02
  A 0.99 0.99 0.0 0 1 101.02 571.01
  Q 91.71 571.01 81.38 571.11
  Q 79.22 571.13 77.08 570.54
  Z"
/>
<ellipse  cx="0.00" cy="0.00" transform="translate(151.74,566.25) rotate(84.2)" rx="3.90" ry="3.51"/>
<ellipse  cx="0.00" cy="0.00" transform="translate(119.55,572.59) rotate(59.1)" rx="3.55" ry="3.34"/>
<path  d="
  M 143.47 575.96
  C 145.08 576.17 147.38 578.58 146.42 580.46
  C 145.52 582.22 143.84 583.98 141.74 582.88
  C 138.66 581.27 139.16 575.39 143.47 575.96
  Z"
/>
<ellipse  cx="0.00" cy="0.00" transform="translate(128.17,594.55) rotate(74.1)" rx="3.65" ry="3.43"/>
<path  d="
  M 99.83 598.80
  A 0.48 0.48 0.0 0 1 100.30 598.13
  L 115.75 599.18
  Q 116.18 599.21 116.48 599.53
  L 122.43 605.99
  A 0.74 0.73 -42.0 0 1 122.37 607.04
  L 113.93 614.49
  A 0.91 0.90 -41.5 0 1 112.67 614.42
  Q 106.25 607.37 101.47 601.61
  Q 100.52 600.46 99.83 598.80
  Z"
/>
<rect  x="-6.47" y="-4.68" transform="translate(953.52,742.33) rotate(-2.0)" width="12.94" height="9.36" rx="1.09"/>
<rect  x="57.00" y="738.01" width="16.02" height="8.96" rx="0.99"/>
<rect  x="-12.51" y="-4.67" transform="translate(925.50,742.66) rotate(-1.0)" width="25.02" height="9.34" rx="0.75"/>
</svg>
