<?xml version="1.0" encoding="UTF-8" standalone="no"?>
<!DOCTYPE svg PUBLIC "-//W3C//DTD SVG 1.1//EN" "http://www.w3.org/Graphics/SVG/1.1/DTD/svg11.dtd">
<svg xmlns="http://www.w3.org/2000/svg" version="1.1" viewBox="0.00 0.00 1024.00 1024.00">
<path  d="
  M 183.20 537.32
  Q 184.25 539.05 183.90 537.06
  Q 182.65 530.06 180.86 523.50
  A 0.99 0.98 -18.2 0 1 181.46 522.32
  L 186.62 520.36
  Q 188.61 519.60 187.89 517.59
  L 187.71 517.08
  Q 187.12 515.42 185.55 516.22
  L 180.86 518.60
  A 1.13 1.13 0.0 0 1 179.27 517.93
  L 177.15 511.18
  Q 176.90 510.38 177.66 510.02
  Q 180.73 508.56 183.44 507.84
  Q 185.49 507.30 184.68 505.27
  Q 182.74 500.43 181.77 495.80
  A 1.42 1.42 0.0 0 1 182.73 494.15
  L 209.20 485.83
  Q 209.80 485.65 209.60 485.06
  L 207.72 479.49
  A 0.70 0.69 67.2 0 0 206.76 479.09
  Q 201.88 481.51 200.83 480.32
  Q 199.40 478.71 198.42 474.77
  Q 198.30 474.30 198.72 474.06
  Q 201.43 472.50 204.44 471.83
  Q 205.25 471.65 204.96 470.87
  Q 203.30 466.31 202.43 460.48
  Q 202.34 459.89 202.92 459.74
  C 205.27 459.16 207.64 458.99 209.96 458.41
  Q 217.17 456.60 223.81 454.20
  A 1.76 1.75 -18.1 0 0 224.90 452.06
  Q 223.81 448.24 221.91 444.72
  Q 221.56 444.08 220.87 444.26
  C 218.84 444.79 216.97 445.58 214.95 444.50
  Q 214.51 444.27 214.29 443.81
  Q 212.36 439.71 211.44 435.67
  Q 211.17 434.49 212.36 434.25
  L 216.78 433.36
  Q 217.98 433.12 217.99 434.34
  Q 218.00 434.98 218.33 435.50
  Q 218.59 435.93 219.07 435.78
  Q 223.18 434.52 227.37 433.86
  Q 228.03 433.76 228.50 433.21
  A 1.04 1.04 0.0 0 0 228.41 431.79
  L 225.15 428.71
  A 0.88 0.88 0.0 0 1 225.61 427.21
  L 227.25 426.93
  A 1.04 1.03 -12.8 0 0 228.08 425.62
  C 225.32 416.21 222.25 407.08 219.43 397.76
  Q 215.32 384.23 210.26 368.71
  C 209.68 366.93 210.31 362.82 212.88 362.60
  Q 217.13 362.23 218.08 365.35
  Q 224.41 386.06 231.70 410.50
  Q 233.39 416.15 235.94 423.12
  A 1.14 1.14 0.0 0 0 237.33 423.81
  L 246.98 420.93
  A 0.73 0.72 -7.6 0 1 247.91 421.64
  Q 247.84 424.08 248.95 426.17
  A 1.27 1.25 60.8 0 0 250.69 426.67
  Q 251.76 426.04 252.48 425.02
  Q 252.80 424.57 253.33 424.41
  L 255.14 423.87
  Q 256.33 423.50 256.17 422.27
  C 255.83 419.72 255.05 415.07 253.18 413.19
  C 252.06 412.06 251.56 410.40 251.05 408.94
  A 0.93 0.92 64.6 0 1 251.44 407.84
  Q 254.33 406.09 258.00 405.20
  A 1.27 1.26 -22.8 0 1 259.36 405.75
  Q 260.03 406.78 260.26 408.03
  Q 260.35 408.56 260.80 408.84
  C 261.30 409.17 261.94 409.44 262.22 410.00
  Q 264.38 414.23 263.38 417.82
  A 1.91 1.89 -50.4 0 0 263.50 419.15
  Q 264.27 420.71 265.71 421.44
  Q 266.46 421.82 266.72 422.63
  Q 269.22 430.36 270.28 437.54
  Q 270.43 438.53 271.43 438.64
  Q 272.51 438.75 273.52 438.45
  Q 289.77 433.71 305.88 428.54
  Q 306.35 428.39 306.59 427.96
  C 307.58 426.14 306.73 424.73 306.24 422.97
  A 1.36 1.35 -15.5 0 1 307.20 421.29
  Q 323.84 416.93 339.05 412.21
  Q 340.48 411.77 341.97 411.94
  Q 342.44 411.99 342.70 412.39
  C 343.86 414.18 344.09 419.20 347.52 418.00
  Q 354.35 415.61 361.27 413.52
  C 378.16 408.42 394.98 402.66 411.81 397.49
  Q 433.14 390.94 453.26 384.34
  C 469.81 378.91 486.87 373.67 503.30 368.03
  A 0.88 0.88 0.0 0 0 503.82 366.85
  Q 501.96 362.51 504.44 357.18
  Q 504.91 356.17 506.03 356.03
  C 509.30 355.63 510.64 361.96 511.07 364.19
  A 1.12 1.11 -14.9 0 0 512.53 365.03
  L 521.52 361.94
  Q 522.55 361.58 522.84 362.64
  Q 524.93 370.30 527.92 377.15
  A 1.13 1.12 69.1 0 0 529.30 377.77
  L 537.96 374.84
  Q 539.18 374.42 539.81 375.56
  Q 540.74 377.26 541.39 379.46
  Q 542.96 384.79 544.36 389.97
  A 0.98 0.97 73.5 0 0 545.59 390.64
  L 614.00 368.84
  A 1.66 1.66 0.0 0 0 615.04 366.64
  Q 614.31 364.80 614.05 362.79
  Q 613.79 360.80 615.50 360.29
  Q 635.22 354.41 649.73 349.59
  Q 652.29 348.73 655.41 349.71
  Q 655.98 349.88 656.55 349.70
  L 674.68 344.03
  A 2.51 2.50 -21.6 0 1 677.69 345.33
  L 679.13 348.36
  A 0.82 0.82 0.0 0 0 680.09 348.79
  Q 688.93 346.17 696.52 343.78
  Q 719.91 336.41 745.35 328.00
  Q 755.76 324.56 764.43 321.99
  Q 773.86 319.20 784.78 315.65
  Q 795.74 312.09 814.86 306.00
  Q 826.78 302.21 837.00 299.06
  Q 844.28 296.82 852.86 293.88
  Q 860.99 291.09 868.74 288.60
  Q 869.24 288.44 869.49 287.98
  Q 870.13 286.79 870.06 285.33
  A 2.01 2.00 79.3 0 1 871.43 283.31
  Q 892.81 276.16 922.14 267.31
  Q 929.44 265.11 936.89 262.50
  Q 937.52 262.28 937.72 261.64
  Q 938.12 260.34 938.10 258.97
  Q 938.08 258.25 938.79 258.13
  Q 943.47 257.32 948.69 256.47
  C 956.99 255.11 964.45 251.96 972.39 248.47
  Q 975.74 246.99 979.29 246.08
  A 0.81 0.80 72.2 0 1 980.23 246.57
  C 985.55 260.33 990.03 275.94 995.02 290.62
  Q 995.74 292.73 993.58 293.31
  Q 974.46 298.40 956.44 305.57
  Q 954.48 306.34 953.08 304.94
  Q 952.70 304.56 952.20 304.73
  L 886.43 327.06
  Q 884.99 327.55 884.14 326.29
  Q 883.37 325.14 883.01 323.80
  A 0.83 0.82 73.7 0 0 881.96 323.22
  C 872.28 326.30 861.58 330.32 853.00 333.18
  Q 832.85 339.90 812.85 346.87
  C 796.44 352.59 779.53 357.93 762.81 363.80
  C 743.69 370.53 724.04 376.82 705.25 383.21
  Q 698.86 385.38 692.98 387.83
  Q 692.45 388.05 692.53 388.62
  Q 693.14 393.16 694.96 396.98
  Q 695.20 397.48 695.70 397.71
  Q 697.28 398.43 698.98 397.85
  Q 706.30 395.35 714.22 392.82
  A 1.23 1.23 0.0 0 1 715.76 393.57
  Q 722.67 412.55 728.92 432.41
  Q 729.71 434.93 729.79 437.54
  Q 729.81 438.05 729.37 438.30
  Q 727.68 439.26 726.49 439.67
  Q 715.23 443.49 703.37 446.96
  C 700.58 447.78 697.45 447.79 694.73 448.68
  Q 678.47 453.99 661.72 459.59
  A 1.11 1.11 0.0 0 0 661.10 461.18
  Q 662.07 462.95 662.13 465.02
  A 0.94 0.93 -0.9 0 1 661.19 465.98
  L 658.28 465.97
  A 2.05 2.04 15.7 0 0 656.51 466.96
  L 651.64 475.11
  A 1.19 1.18 -56.0 0 1 649.91 475.45
  C 646.81 473.12 642.67 469.87 638.95 468.47
  C 636.19 467.43 632.35 470.04 629.73 470.89
  Q 625.87 472.15 622.26 473.46
  C 620.68 474.03 620.13 475.28 620.04 476.89
  C 619.18 491.30 611.83 505.38 598.80 512.25
  C 592.30 515.67 583.14 515.72 576.29 514.58
  C 568.08 513.22 558.86 506.32 554.29 498.89
  A 1.82 1.80 -27.2 0 0 552.04 498.18
  Q 550.00 499.04 548.18 499.60
  Q 535.24 503.59 525.76 507.21
  Q 525.19 507.43 525.08 508.03
  C 524.72 510.11 525.09 515.77 528.00 516.47
  C 550.88 521.97 571.95 537.09 587.06 555.24
  C 595.40 565.25 602.13 578.07 605.65 590.60
  A 0.37 0.36 -7.7 0 1 605.29 591.06
  L 594.24 590.97
  A 1.59 1.58 82.6 0 1 592.71 589.78
  Q 591.80 586.23 590.16 582.56
  C 579.89 559.54 560.15 541.67 537.36 531.17
  Q 517.58 522.06 494.05 521.73
  Q 474.68 521.46 458.28 526.96
  Q 448.56 530.22 440.30 534.36
  C 426.84 541.11 413.63 552.85 404.78 564.42
  Q 394.98 577.24 390.62 591.50
  A 0.67 0.67 0.0 0 1 389.97 591.97
  Q 366.84 591.89 339.00 592.72
  C 324.62 593.15 309.67 592.26 295.43 592.15
  Q 293.87 592.13 293.91 593.70
  L 293.98 596.36
  Q 294.03 597.95 295.61 597.95
  L 380.35 598.02
  A 0.65 0.65 0.0 0 1 381.00 598.67
  Q 380.98 618.15 380.78 634.71
  C 380.67 644.56 381.37 653.62 383.22 662.71
  C 384.94 671.16 388.75 678.99 392.84 686.79
  A 0.70 0.70 0.0 0 1 392.45 687.78
  Q 388.06 689.31 384.25 690.28
  Q 380.07 691.36 371.78 691.00
  A 0.78 0.77 -88.6 0 0 370.98 691.77
  L 370.92 697.77
  Q 370.92 698.65 371.79 698.76
  C 373.67 699.00 376.66 698.49 376.91 701.13
  Q 377.27 704.90 376.11 709.02
  Q 375.98 709.49 375.51 709.64
  Q 374.25 710.02 372.25 710.02
  Q 300.75 710.01 229.16 709.99
  A 2.11 2.11 0.0 0 1 227.05 708.02
  Q 226.81 704.23 227.21 700.57
  A 1.64 1.64 0.0 0 1 228.81 699.10
  L 234.02 698.99
  A 1.00 1.00 0.0 0 0 235.00 697.99
  Q 235.07 664.27 234.97 630.67
  Q 234.96 629.40 234.67 628.21
  Q 234.54 627.67 234.03 627.46
  Q 232.08 626.69 230.25 627.74
  A 0.84 0.84 0.0 0 1 228.99 627.01
  L 229.01 624.15
  Q 229.02 623.04 227.90 623.04
  L 198.28 622.95
  A 2.27 2.27 0.0 0 0 196.00 625.22
  L 196.00 633.50
  A 0.50 0.50 0.0 0 1 195.50 634.00
  L 186.62 634.00
  Q 186.00 634.00 186.00 634.63
  L 186.01 647.70
  Q 186.01 648.99 187.29 648.99
  L 228.07 648.99
  A 0.84 0.83 89.7 0 1 228.90 649.82
  L 228.99 688.47
  A 0.67 0.66 -0.0 0 1 228.32 689.13
  Q 213.14 688.95 195.30 688.93
  Q 194.45 688.93 193.71 688.52
  A 1.09 1.08 -73.4 0 0 192.11 689.39
  C 191.88 692.38 192.67 697.27 191.13 699.73
  C 188.78 703.49 183.33 703.69 179.54 702.63
  Q 175.80 701.59 173.74 697.56
  A 0.56 0.56 0.0 0 0 172.83 697.44
  C 170.22 700.29 168.62 702.74 164.32 703.09
  Q 157.89 703.62 154.51 698.98
  C 152.51 696.24 153.05 692.44 152.93 689.22
  Q 152.89 688.00 151.66 687.96
  L 150.28 687.91
  Q 148.94 687.87 148.96 689.22
  L 149.02 693.00
  A 1.02 1.01 90.0 0 1 148.00 694.03
  L 143.00 693.98
  A 1.02 1.01 -89.7 0 0 141.98 695.00
  L 141.98 707.23
  A 2.94 2.93 -74.1 0 0 143.36 709.72
  C 145.82 711.27 149.02 711.88 151.88 711.91
  Q 156.93 711.96 162.45 713.11
  Q 162.98 713.22 162.98 713.77
  L 162.98 721.99
  A 1.02 1.01 0.3 0 0 163.99 723.00
  L 177.27 723.06
  A 0.72 0.72 0.0 0 1 177.99 723.77
  L 178.05 730.76
  A 1.25 1.25 0.0 0 0 179.30 732.00
  Q 296.00 731.98 412.50 732.01
  C 420.78 732.02 429.15 732.32 437.33 731.83
  Q 441.15 731.60 437.64 730.06
  C 436.36 729.50 435.04 729.15 433.91 728.27
  Q 430.16 725.35 426.20 722.43
  Q 425.80 722.13 425.88 721.63
  Q 426.03 720.75 426.52 719.99
  C 427.43 718.56 426.11 717.09 424.87 716.49
  A 0.98 0.97 -55.2 0 0 423.75 716.70
  L 422.26 718.24
  Q 421.23 719.32 420.36 718.10
  Q 416.82 713.10 412.54 709.01
  Q 412.21 708.69 412.35 708.26
  Q 412.55 707.60 412.96 707.07
  C 414.25 705.40 413.10 703.11 411.55 702.17
  A 0.86 0.85 -48.7 0 0 410.57 702.24
  Q 408.50 703.93 406.45 700.76
  Q 403.94 696.86 401.44 692.59
  Q 401.02 691.88 401.78 691.54
  L 403.05 690.97
  Q 403.70 690.68 403.93 690.01
  Q 404.47 688.40 403.55 686.92
  Q 403.18 686.31 402.48 686.24
  L 400.06 686.00
  A 1.19 1.18 79.7 0 1 399.13 685.35
  Q 397.28 681.68 395.64 677.29
  Q 395.07 675.76 395.02 674.17
  Q 395.01 673.59 395.52 673.31
  Q 397.65 672.16 396.94 668.74
  Q 396.82 668.18 396.26 668.06
  Q 394.97 667.77 393.89 668.54
  A 0.98 0.98 0.0 0 1 392.35 667.84
  Q 391.73 661.95 390.09 656.39
  A 1.11 1.11 0.0 0 1 391.46 655.01
  Q 392.07 655.18 392.56 654.79
  Q 393.00 654.45 392.99 653.89
  L 392.97 649.00
  Q 392.97 648.28 392.25 648.18
  L 390.96 648.01
  Q 390.26 647.91 390.25 647.21
  L 390.07 634.87
  Q 390.06 634.03 390.89 633.91
  L 392.66 633.64
  A 1.13 1.10 -76.7 0 0 393.43 633.15
  Q 394.53 631.49 394.01 628.94
  A 0.94 0.94 0.0 0 0 393.35 628.22
  L 391.32 627.65
  Q 390.71 627.47 390.86 626.85
  Q 392.30 620.70 394.62 614.87
  A 1.27 1.27 0.0 0 1 396.32 614.18
  L 397.87 614.86
  A 0.76 0.76 0.0 0 0 398.92 614.36
  Q 399.59 611.83 397.53 610.68
  A 1.12 1.12 0.0 0 1 397.04 609.26
  L 401.43 599.07
  A 1.60 1.60 0.0 0 1 403.59 598.26
  L 404.68 598.79
  Q 405.15 599.02 405.65 598.83
  Q 406.71 598.44 406.93 597.37
  Q 407.05 596.77 406.69 596.28
  Q 406.17 595.55 405.96 594.73
  A 1.24 1.23 54.9 0 1 406.13 593.73
  Q 407.61 591.49 410.06 589.47
  Q 410.47 589.13 410.91 589.43
  Q 412.61 590.60 414.26 589.46
  A 1.47 1.47 0.0 0 0 414.03 586.91
  L 413.29 586.57
  Q 412.65 586.28 412.99 585.66
  C 414.21 583.51 417.22 578.49 420.15 580.53
  C 421.01 581.13 422.30 580.93 422.64 579.87
  Q 422.81 579.36 422.45 578.97
  L 421.17 577.60
  A 0.84 0.83 -45.3 0 1 421.17 576.47
  Q 424.15 573.25 428.06 570.50
  Q 428.87 569.93 429.46 570.72
  Q 430.02 571.47 430.85 571.97
  Q 431.37 572.29 431.68 571.76
  Q 432.39 570.53 431.50 569.16
  A 1.26 1.26 0.0 0 1 431.79 567.47
  L 438.63 562.22
  Q 439.29 561.72 439.68 562.45
  L 440.12 563.25
  Q 440.40 563.77 440.97 563.96
  Q 442.31 564.42 443.39 563.30
  Q 443.84 562.82 443.53 562.24
  Q 442.41 560.20 444.50 559.20
  Q 448.24 557.40 451.78 556.13
  Q 452.33 555.93 452.64 556.44
  L 453.72 558.23
  Q 454.06 558.79 454.69 558.63
  Q 455.79 558.35 456.57 557.70
  Q 457.06 557.30 456.82 556.71
  L 456.23 555.28
  A 1.39 1.38 69.9 0 1 457.08 553.44
  Q 462.39 551.67 466.80 550.90
  Q 469.15 550.49 469.16 552.99
  Q 469.17 554.38 470.45 553.84
  L 471.90 553.22
  Q 472.65 552.91 472.77 552.10
  L 473.12 549.97
  Q 473.21 549.37 473.80 549.21
  Q 477.87 548.09 482.74 547.95
  A 1.28 1.28 0.0 0 1 484.06 549.16
  Q 484.18 551.47 486.80 550.94
  Q 488.08 550.69 487.21 549.72
  Q 486.69 549.12 487.34 547.94
  A 1.34 1.34 0.0 0 1 488.49 547.26
  L 497.37 547.25
  A 1.35 1.33 -6.5 0 1 498.68 548.28
  L 499.19 550.40
  Q 499.34 551.06 500.03 551.08
  Q 501.21 551.11 502.23 550.68
  A 0.99 0.99 0.0 0 0 502.81 549.98
  C 503.05 548.90 503.90 548.28 505.02 548.41
  Q 508.97 548.84 512.68 549.41
  Q 515.30 549.82 515.01 552.52
  Q 514.85 554.11 516.44 554.24
  Q 518.94 554.44 519.15 551.78
  Q 519.22 550.91 520.04 551.18
  L 530.32 554.60
  A 0.68 0.67 23.0 0 1 530.71 555.56
  Q 529.33 558.11 532.20 559.65
  Q 532.71 559.92 533.09 559.49
  L 534.77 557.64
  Q 535.12 557.25 535.62 557.39
  Q 537.52 557.92 539.87 558.92
  Q 542.91 560.20 541.36 562.56
  Q 541.04 563.06 541.58 563.31
  Q 544.78 564.78 545.94 564.39
  Q 549.10 563.32 551.06 565.46
  C 552.94 567.52 550.85 571.01 553.74 571.96
  Q 554.40 572.17 554.69 571.54
  L 555.34 570.11
  Q 555.68 569.33 556.29 569.93
  L 562.45 575.93
  Q 562.89 576.37 562.62 576.93
  Q 562.12 577.97 562.13 579.14
  A 1.69 1.69 0.0 0 0 564.66 580.59
  C 567.95 578.69 569.94 582.89 571.41 585.13
  Q 571.70 585.56 571.53 586.05
  L 571.02 587.50
  A 1.08 1.07 6.7 0 0 572.15 588.92
  Q 573.22 588.81 574.08 588.41
  Q 574.55 588.19 574.80 588.63
  Q 575.72 590.22 577.04 591.51
  C 577.84 592.29 578.38 593.51 577.76 594.61
  Q 577.43 595.21 577.53 595.88
  C 578.00 598.94 580.27 597.49 582.15 598.18
  A 1.42 1.39 86.4 0 1 582.91 598.86
  L 587.74 608.38
  Q 587.99 608.88 587.81 609.41
  Q 587.54 610.20 586.82 610.70
  A 1.58 1.57 -12.1 0 0 586.16 611.71
  Q 585.87 613.28 587.45 613.65
  Q 588.99 614.01 590.53 614.22
  A 1.39 1.37 0.0 0 1 591.72 615.40
  Q 592.32 619.73 593.74 624.09
  Q 594.46 626.26 592.64 627.31
  Q 592.30 627.51 592.18 627.88
  Q 591.03 631.47 593.98 632.46
  A 1.08 1.07 -84.8 0 1 594.71 633.34
  Q 595.12 636.40 595.01 640.07
  Q 594.96 641.82 596.64 642.40
  Q 599.71 643.47 603.01 644.49
  Q 604.39 644.91 604.73 643.51
  L 607.18 633.18
  Q 607.47 631.95 608.68 632.32
  L 620.63 635.96
  Q 621.77 636.31 621.90 635.12
  L 623.34 622.24
  A 1.21 1.21 0.0 0 1 624.51 621.17
  C 631.69 620.97 638.92 621.05 646.02 620.32
  Q 649.58 619.95 654.00 619.98
  C 656.85 619.99 657.88 622.12 657.33 624.56
  Q 654.98 634.95 652.93 644.40
  A 1.07 1.07 0.0 0 0 653.75 645.68
  Q 689.77 653.80 726.14 663.03
  A 1.43 1.42 -72.5 0 0 727.83 662.15
  Q 728.84 659.46 729.20 656.90
  Q 729.47 654.91 731.43 655.34
  L 734.58 656.02
  Q 736.37 656.41 736.09 658.22
  Q 735.71 660.68 734.95 663.00
  Q 734.45 664.56 736.06 664.86
  C 742.23 666.02 748.34 667.78 754.33 669.27
  Q 775.06 674.40 796.53 679.43
  Q 804.48 681.30 810.96 682.90
  Q 822.45 685.75 833.79 688.21
  C 849.31 691.57 866.34 696.30 880.72 698.78
  Q 881.61 698.93 882.55 698.97
  A 1.39 1.39 0.0 0 0 883.99 697.65
  C 884.15 694.65 886.75 694.86 888.89 695.07
  A 0.89 0.88 83.4 0 0 889.81 693.90
  C 887.54 687.32 889.30 681.58 896.05 679.01
  C 903.03 676.37 911.16 680.81 912.34 688.26
  C 912.65 690.24 911.85 692.02 912.00 694.05
  A 1.01 0.99 87.8 0 0 912.99 694.98
  L 919.97 695.02
  A 1.86 1.85 -6.0 0 1 921.77 696.47
  L 922.26 698.62
  A 1.37 1.35 8.7 0 0 922.92 699.51
  Q 924.23 700.26 925.75 700.00
  Q 926.99 699.79 927.00 701.05
  L 927.07 714.69
  A 1.48 1.48 0.0 0 0 928.98 716.10
  L 932.81 714.96
  A 0.92 0.91 81.3 0 1 933.99 715.83
  L 934.01 720.73
  A 1.26 1.25 89.8 0 0 935.26 721.98
  L 945.38 722.01
  A 0.62 0.62 0.0 0 1 946.00 722.63
  L 946.00 731.00
  A 1.01 1.00 89.7 0 0 947.00 732.00
  L 958.25 732.00
  A 0.76 0.75 0.4 0 1 959.00 732.75
  L 959.00 747.25
  A 0.75 0.75 0.0 0 1 958.25 748.00
  L 65.50 748.00
  A 0.50 0.50 0.0 0 1 65.00 747.50
  L 65.01 732.74
  A 0.75 0.74 0.0 0 1 65.76 732.00
  L 81.24 732.00
  A 0.75 0.74 -89.6 0 0 81.98 731.26
  L 82.05 723.85
  Q 82.06 723.01 82.90 723.01
  L 96.73 722.99
  Q 97.94 722.99 97.97 721.77
  L 98.13 713.80
  Q 98.15 712.96 98.96 712.73
  C 100.44 712.31 102.04 711.97 103.69 712.03
  Q 111.67 712.35 118.75 711.04
  C 120.00 710.80 121.36 709.83 121.51 708.48
  Q 122.29 701.50 121.96 694.86
  A 0.94 0.94 0.0 0 0 121.03 693.97
  L 116.75 693.94
  A 0.71 0.71 0.0 0 1 116.04 693.23
  L 116.01 688.76
  A 0.78 0.78 0.0 0 0 115.23 687.98
  L 87.50 687.98
  A 0.53 0.52 -0.0 0 0 86.97 688.50
  L 86.96 698.57
  Q 86.96 701.38 84.18 701.00
  L 82.57 700.78
  Q 80.00 700.42 80.00 697.83
  L 80.01 689.01
  A 1.01 1.00 90.0 0 0 79.01 688.00
  L 62.48 688.00
  Q 61.96 688.00 61.97 688.52
  L 62.01 692.74
  Q 62.03 694.00 60.76 694.00
  L 54.26 694.00
  Q 53.02 694.00 53.01 692.76
  L 52.98 682.90
  A 1.58 1.57 7.6 0 0 51.83 681.40
  Q 49.55 680.74 47.39 681.65
  A 1.57 1.57 0.0 0 1 45.39 680.92
  Q 44.68 679.53 43.90 678.12
  C 42.61 675.81 43.61 672.30 46.41 672.07
  C 48.05 671.93 49.41 672.91 50.96 672.75
  Q 51.50 672.70 51.78 672.22
  Q 52.57 670.88 54.26 671.10
  A 2.46 2.46 0.0 0 0 57.04 668.65
  L 56.99 657.69
  A 1.58 1.58 0.0 0 0 55.44 656.12
  L 47.83 655.94
  A 0.86 0.85 -89.3 0 1 47.00 655.08
  L 47.01 584.00
  A 1.00 1.00 0.0 0 1 48.01 583.00
  L 122.20 583.03
  Q 123.14 583.03 123.13 583.97
  Q 123.09 588.60 123.42 593.07
  Q 123.72 597.20 123.57 601.71
  Q 123.42 606.19 123.84 610.51
  Q 123.96 611.72 123.72 612.14
  A 1.26 1.21 14.3 0 0 124.85 613.95
  Q 143.78 614.05 161.72 613.98
  A 0.27 0.27 0.0 0 0 161.99 613.72
  L 162.04 598.98
  A 0.98 0.98 0.0 0 1 163.02 598.00
  L 195.50 598.00
  A 0.50 0.49 90.0 0 1 195.99 598.50
  L 196.01 607.01
  A 0.90 0.89 -89.0 0 0 196.87 607.91
  Q 208.99 608.35 219.98 608.71
  Q 228.04 608.98 236.50 608.51
  C 245.11 608.03 254.18 607.96 262.99 608.14
  C 269.37 608.27 275.66 607.79 282.01 607.93
  Q 286.22 608.02 290.71 607.89
  Q 292.06 607.85 292.05 606.50
  L 292.00 600.35
  Q 291.99 598.60 290.28 599.00
  C 287.03 599.75 281.96 601.31 278.88 600.52
  Q 278.29 600.37 278.22 599.76
  L 277.85 596.49
  A 1.15 1.15 0.0 0 0 276.34 595.53
  Q 269.81 597.78 263.73 600.54
  Q 261.15 601.71 258.89 602.17
  C 256.65 602.63 251.66 604.06 251.90 600.12
  Q 251.95 599.30 251.17 599.55
  Q 248.30 600.49 245.26 600.76
  C 243.51 600.92 243.24 599.59 242.73 598.29
  Q 239.20 589.26 236.13 580.11
  A 0.99 0.98 -16.7 0 1 236.82 578.84
  C 243.28 577.16 249.29 575.92 255.35 572.80
  Q 256.57 572.18 255.32 571.61
  L 254.82 571.39
  Q 253.56 570.82 252.31 571.39
  L 249.72 572.58
  Q 248.46 573.15 247.87 571.91
  L 246.24 568.53
  Q 245.58 567.15 247.02 566.61
  L 267.29 559.00
  Q 269.34 558.23 270.01 560.31
  L 270.75 562.60
  Q 271.43 564.74 269.28 565.37
  Q 266.21 566.26 263.60 567.83
  Q 263.17 568.09 263.29 568.59
  Q 263.44 569.15 264.00 569.00
  Q 268.02 567.95 272.50 566.38
  Q 273.67 565.97 274.83 565.93
  A 1.44 1.43 -11.0 0 0 276.13 564.01
  L 269.76 546.55
  A 2.25 2.24 72.2 0 0 267.05 545.15
  L 238.83 553.06
  Q 237.40 553.46 237.85 554.87
  L 238.91 558.24
  A 1.54 1.54 0.0 0 1 237.96 560.15
  Q 234.31 561.47 230.96 561.80
  Q 230.44 561.85 230.14 561.43
  Q 228.86 559.60 229.01 557.20
  A 1.13 1.13 0.0 0 0 227.56 556.05
  L 204.98 562.82
  Q 204.35 563.01 204.07 562.42
  Q 202.46 559.11 201.99 555.24
  Q 201.80 553.75 200.36 554.16
  L 190.12 557.07
  Q 188.49 557.53 188.97 559.16
  L 191.56 568.00
  Q 191.98 569.45 190.50 569.76
  L 184.11 571.09
  A 2.15 2.15 0.0 0 1 181.58 569.51
  Q 178.18 555.93 173.71 542.73
  C 169.54 530.38 165.91 516.90 161.95 504.01
  A 1.48 1.47 -17.9 0 1 162.90 502.17
  L 169.25 500.06
  Q 170.53 499.64 170.93 500.93
  Q 174.74 513.46 178.24 525.73
  Q 180.05 532.09 183.20 537.32
  Z
  M 983.07 283.95
  C 980.80 276.04 977.40 268.61 975.49 260.61
  Q 975.16 259.24 973.78 259.56
  Q 968.05 260.87 961.34 263.38
  A 0.41 0.41 0.0 0 0 961.09 263.90
  L 969.12 287.42
  Q 969.59 288.79 970.99 288.45
  L 981.97 285.84
  A 1.51 1.51 0.0 0 0 983.07 283.95
  Z
  M 948.44 267.86
  L 955.67 282.33
  Q 957.43 285.85 957.07 281.93
  Q 956.32 273.89 953.24 266.59
  Q 952.40 264.62 950.29 264.96
  L 949.90 265.03
  Q 947.24 265.45 948.44 267.86
  Z
  M 919.41 287.22
  A 1.94 1.94 0.0 0 1 920.52 286.11
  Q 929.69 282.59 940.13 279.52
  Q 942.14 278.93 941.70 276.89
  L 940.82 272.71
  Q 940.44 270.95 938.74 271.53
  L 915.44 279.46
  Q 914.22 279.87 914.58 281.12
  Q 916.46 287.68 919.10 293.50
  Q 919.64 294.69 919.82 293.39
  C 920.14 291.03 918.39 289.83 919.41 287.22
  Z
  M 896.65 293.14
  A 1.50 1.49 -20.4 0 1 898.58 294.02
  Q 900.76 299.87 903.25 304.57
  Q 903.87 305.75 903.95 304.42
  Q 904.02 303.32 903.79 302.29
  Q 901.93 293.85 897.96 284.91
  Q 897.72 284.38 897.16 284.53
  C 895.90 284.88 894.65 284.86 893.40 285.33
  Q 886.63 287.90 880.68 290.05
  A 1.22 1.21 -19.5 0 0 879.94 291.59
  Q 881.99 297.65 884.58 304.22
  Q 885.20 305.78 886.11 306.63
  Q 886.88 307.34 886.72 306.31
  L 885.54 298.69
  Q 885.34 297.39 886.56 296.93
  L 896.65 293.14
  Z
  M 930.57 301.83
  Q 938.81 299.81 946.81 296.72
  Q 946.90 296.68 946.87 296.60
  L 946.81 296.34
  A 0.41 0.41 0.0 0 0 946.33 296.04
  Q 937.88 297.75 930.12 301.28
  Q 930.07 301.30 930.09 301.36
  L 930.18 301.62
  Q 930.28 301.91 930.57 301.83
  Z
  M 794.31 323.67
  L 795.59 327.59
  A 1.49 1.49 0.0 0 0 797.47 328.54
  L 871.88 304.22
  A 3.21 1.78 -18.1 0 0 874.38 301.53
  L 873.28 298.17
  A 3.21 1.78 -18.1 0 0 869.67 297.47
  L 795.27 321.79
  A 1.49 1.49 0.0 0 0 794.31 323.67
  Z
  M 788.6437 324.8119
  A 1.13 1.13 0.0 0 0 787.2224 324.0814
  L 684.4305 357.0842
  A 1.13 1.13 0.0 0 0 683.7000 358.5056
  L 685.2163 363.2281
  A 1.13 1.13 0.0 0 0 686.6376 363.9586
  L 789.4295 330.9558
  A 1.13 1.13 0.0 0 0 790.1600 329.5344
  L 788.6437 324.8119
  Z
  M 764.9489 350.9800
  A 0.52 0.52 0.0 0 0 764.2925 350.6484
  L 699.2764 372.0246
  A 0.52 0.52 0.0 0 0 698.9448 372.6810
  L 698.9511 372.7000
  A 0.52 0.52 0.0 0 0 699.6075 373.0316
  L 764.6236 351.6554
  A 0.52 0.52 0.0 0 0 764.9552 350.9990
  L 764.9489 350.9800
  Z
  M 673.00 366.03
  Q 674.47 365.45 675.08 366.92
  Q 677.36 372.47 679.63 377.88
  Q 680.10 378.99 680.54 379.32
  Q 682.48 380.80 681.90 378.43
  Q 678.84 366.03 674.39 354.95
  A 1.30 1.30 0.0 0 0 672.77 354.19
  Q 666.47 356.30 660.47 358.36
  C 658.53 359.02 656.99 360.85 655.10 358.66
  Q 654.22 357.64 653.24 358.37
  Q 652.79 358.70 652.93 359.25
  C 653.61 361.88 655.24 363.91 655.90 366.57
  Q 658.15 375.62 663.34 385.68
  Q 663.85 386.67 663.95 385.57
  C 664.12 383.61 664.03 381.78 663.41 379.89
  Q 662.14 376.00 661.28 372.14
  Q 660.97 370.78 662.27 370.26
  L 673.00 366.03
  Z
  M 650.50 373.14
  Q 652.32 378.25 655.43 383.71
  Q 655.67 384.12 656.15 384.20
  A 0.49 0.48 87.2 0 0 656.69 383.60
  Q 653.79 372.24 648.95 360.88
  A 1.47 1.46 -23.0 0 0 647.02 360.11
  Q 637.27 364.29 626.81 366.52
  Q 624.59 366.99 625.00 369.23
  C 625.95 374.30 628.18 379.30 629.71 384.33
  Q 633.79 397.76 639.25 411.63
  Q 639.59 412.50 640.51 412.67
  L 640.87 412.73
  A 0.37 0.37 0.0 0 0 641.30 412.28
  Q 637.70 397.08 633.57 383.67
  C 633.15 382.31 633.16 380.66 632.81 379.23
  Q 632.63 378.48 633.36 378.27
  Q 641.77 375.83 649.69 372.77
  Q 650.29 372.53 650.50 373.14
  Z
  M 698.02 373.28
  Q 698.28 373.08 697.96 372.99
  Q 696.92 372.68 696.21 373.60
  Q 695.80 374.14 696.46 374.00
  Q 697.30 373.82 698.02 373.28
  Z
  M 433.46 405.00
  Q 434.13 405.69 435.14 405.79
  Q 437.16 406.00 438.93 405.44
  Q 450.87 401.66 463.73 397.21
  A 1.45 1.45 0.0 0 1 465.49 397.89
  Q 467.29 401.19 468.34 404.67
  A 1.95 1.95 0.0 0 0 470.78 405.97
  L 519.95 390.89
  A 2.03 2.02 67.3 0 1 522.34 391.88
  L 526.65 400.02
  Q 526.96 400.61 527.41 400.12
  Q 528.09 399.40 527.75 398.48
  Q 523.24 386.06 519.10 373.91
  A 1.10 1.09 71.6 0 0 517.73 373.22
  L 419.03 405.20
  A 1.84 1.83 -9.1 0 0 417.75 406.96
  L 417.76 407.72
  A 1.16 1.16 0.0 0 0 419.36 408.79
  Q 425.70 406.21 431.33 404.46
  A 2.11 2.11 0.0 0 1 433.46 405.00
  Z
  M 694.67 374.54
  Q 694.85 374.48 694.99 374.35
  Q 695.32 374.08 694.90 374.01
  Q 694.18 373.89 693.48 374.23
  Q 693.02 374.45 693.44 374.73
  Q 693.94 375.05 694.41 374.68
  Q 694.53 374.59 694.67 374.54
  Z
  M 538.97 402.75
  Q 516.73 410.15 495.51 417.36
  A 0.99 0.99 0.0 0 0 494.88 418.54
  Q 495.72 421.81 496.05 423.09
  Q 496.29 424.01 497.19 423.75
  Q 512.24 419.30 528.38 414.10
  Q 564.16 402.56 597.84 391.78
  Q 607.83 388.58 618.92 384.45
  Q 620.28 383.95 619.79 382.58
  L 618.25 378.29
  Q 617.73 376.83 616.26 377.33
  Q 593.36 385.20 569.52 392.78
  Q 556.23 397.01 538.97 402.75
  Z
  M 535.48 392.22
  C 536.62 390.11 535.97 387.82 534.96 385.80
  A 1.31 1.30 -34.4 0 0 532.91 385.42
  Q 531.78 386.46 532.18 387.93
  Q 532.88 390.52 534.86 392.33
  Q 535.23 392.67 535.48 392.22
  Z
  M 711.3609 404.3423
  A 1.71 1.71 0.0 0 0 709.1781 403.3012
  L 696.1131 407.9277
  A 1.71 1.71 0.0 0 0 695.0720 410.1105
  L 695.3791 410.9777
  A 1.71 1.71 0.0 0 0 697.5619 412.0188
  L 710.6269 407.3923
  A 1.71 1.71 0.0 0 0 711.6680 405.2095
  L 711.3609 404.3423
  Z
  M 351.82 436.79
  Q 353.48 439.82 354.09 443.38
  Q 354.35 444.88 355.82 444.46
  Q 359.27 443.47 362.39 442.51
  Q 386.38 435.12 409.78 427.54
  Q 411.98 426.83 412.75 425.65
  A 1.02 1.00 -42.4 0 0 412.81 424.63
  Q 411.94 422.89 411.92 421.10
  Q 411.91 420.50 412.47 420.32
  Q 419.19 418.11 425.72 416.15
  Q 427.10 415.73 427.71 414.52
  Q 427.88 414.19 427.60 413.91
  Q 426.68 412.98 425.44 413.38
  Q 421.33 414.69 416.58 416.29
  Q 414.43 417.02 412.10 417.15
  Q 411.50 417.18 411.31 416.61
  L 408.81 408.72
  Q 408.57 407.97 407.82 408.22
  Q 380.40 417.39 354.78 425.95
  C 348.99 427.89 343.25 430.19 337.54 432.32
  Q 335.52 433.07 335.98 435.18
  Q 336.37 436.93 337.02 438.84
  Q 337.58 440.47 339.18 439.85
  L 349.41 435.92
  Q 351.00 435.31 351.82 436.79
  Z
  M 540.05 427.30
  C 552.45 422.99 564.72 419.17 576.90 414.57
  Q 584.15 411.83 591.40 408.98
  Q 591.64 408.89 591.69 408.63
  Q 591.77 408.29 591.42 408.34
  Q 581.37 409.88 574.77 411.87
  Q 552.55 418.60 530.01 425.87
  C 523.42 428.00 511.49 431.52 502.35 434.84
  Q 501.06 435.31 500.83 436.65
  Q 500.44 438.83 503.32 439.06
  A 1.89 1.82 -50.3 0 0 504.03 438.98
  Q 523.38 433.09 540.05 427.30
  Z
  M 586.52 444.13
  A 0.97 0.97 0.0 0 0 585.87 445.00
  L 585.72 447.75
  A 0.97 0.97 0.0 0 0 587.00 448.73
  L 687.38 415.61
  A 0.97 0.97 0.0 0 0 688.00 414.39
  L 686.93 411.06
  A 0.97 0.97 0.0 0 0 685.69 410.44
  L 586.52 444.13
  Z
  M 576.10 427.77
  Q 543.09 438.74 509.53 450.07
  A 0.58 0.58 0.0 0 0 509.17 450.81
  L 509.26 451.09
  Q 509.34 451.31 509.56 451.24
  Q 527.19 445.41 545.28 439.49
  C 546.54 439.08 547.78 438.97 549.02 438.56
  Q 560.52 434.75 572.00 430.70
  Q 573.64 430.12 575.28 429.54
  Q 593.51 423.14 615.05 416.49
  Q 620.53 414.80 625.77 412.93
  Q 627.14 412.44 628.36 411.67
  Q 629.47 410.97 628.17 411.14
  C 627.07 411.27 626.06 411.19 624.98 411.54
  Q 606.58 417.70 590.44 423.02
  Q 583.54 425.30 576.10 427.77
  Z
  M 427.89 435.56
  C 431.63 434.34 435.48 433.12 439.06 431.44
  C 442.12 429.99 445.42 429.41 448.69 428.52
  Q 451.46 427.76 454.27 426.78
  Q 469.41 421.46 485.06 416.90
  Q 486.62 416.45 486.15 414.89
  L 485.45 412.57
  Q 485.06 411.30 483.80 411.71
  L 426.52 430.33
  Q 424.68 430.93 425.06 432.82
  Q 425.22 433.65 425.56 434.48
  Q 426.21 436.11 427.89 435.56
  Z
  M 713.98 423.16
  A 1.09 1.09 0.0 0 1 715.27 423.66
  Q 717.05 426.81 718.33 430.39
  Q 719.02 432.32 719.65 430.38
  Q 719.77 430.02 719.37 429.64
  Q 719.00 429.29 718.94 428.78
  C 718.83 427.94 718.89 427.23 718.61 426.39
  Q 717.08 421.75 715.75 417.45
  A 2.09 2.09 0.0 0 0 713.08 416.09
  L 700.18 420.45
  A 1.81 1.80 -18.7 0 0 699.05 422.73
  Q 700.63 427.49 702.25 432.36
  Q 702.97 434.51 704.52 436.79
  Q 704.89 437.33 704.92 436.68
  C 705.04 434.55 704.16 432.06 704.07 430.68
  Q 703.94 428.80 703.97 427.18
  A 1.00 0.99 -8.5 0 1 704.65 426.27
  L 713.98 423.16
  Z
  M 480.47 428.40
  C 481.64 428.08 482.47 426.87 481.92 425.67
  C 480.38 422.32 476.03 421.81 474.50 425.69
  Q 473.19 429.00 475.48 431.65
  A 1.62 1.61 41.1 0 0 478.06 431.48
  L 479.68 428.98
  A 1.38 1.35 8.1 0 1 480.47 428.40
  Z
  M 689.88 424.95
  L 590.55 457.99
  Q 588.16 458.79 589.08 461.14
  L 589.53 462.29
  Q 590.50 464.76 593.06 464.02
  Q 603.63 460.97 613.74 457.48
  Q 627.79 452.63 640.61 448.47
  Q 642.26 447.94 643.97 447.36
  Q 670.14 438.55 691.45 431.33
  Q 692.82 430.86 692.55 429.43
  L 691.92 426.15
  A 1.58 1.57 75.3 0 0 689.88 424.95
  Z
  M 239.61 427.01
  A 1.13 1.13 0.0 0 0 238.94 427.38
  L 238.16 428.26
  A 1.13 1.13 0.0 0 0 239.01 430.13
  L 240.97 430.14
  A 1.13 1.13 0.0 0 0 242.10 429.07
  L 242.17 427.99
  A 1.13 1.13 0.0 0 0 240.86 426.81
  L 239.61 427.01
  Z
  M 337.59 490.58
  Q 338.30 492.24 339.08 493.69
  Q 339.48 494.43 339.74 493.63
  Q 340.30 491.93 339.90 489.72
  Q 339.13 485.46 335.42 473.53
  Q 331.83 462.00 329.05 452.46
  C 326.57 443.99 323.49 436.37 320.85 428.20
  Q 320.36 426.67 318.76 426.91
  L 317.57 427.09
  A 1.57 1.57 0.0 0 0 316.31 429.14
  Q 322.84 448.85 329.82 470.01
  Q 333.29 480.55 337.59 490.58
  Z
  M 258.99 432.12
  L 255.10 433.48
  A 0.70 0.70 0.0 0 0 254.67 434.38
  L 254.76 434.62
  A 2.61 2.34 -19.3 0 0 257.99 435.97
  L 258.28 435.87
  A 2.61 2.34 -19.3 0 0 259.97 432.80
  L 259.88 432.55
  A 0.70 0.70 0.0 0 0 258.99 432.12
  Z
  M 441.48 443.81
  C 442.65 441.34 444.55 439.99 447.06 439.08
  A 1.25 1.25 0.0 0 0 447.66 437.17
  C 446.37 435.39 444.27 433.42 441.86 434.12
  C 437.67 435.35 438.62 441.34 440.60 443.90
  Q 441.12 444.57 441.48 443.81
  Z
  M 244.4782 436.5208
  A 1.29 1.29 0.0 0 0 242.8841 435.6336
  L 230.7085 439.1019
  A 1.29 1.29 0.0 0 0 229.8213 440.6960
  L 229.9418 441.1192
  A 1.29 1.29 0.0 0 0 231.5359 442.0064
  L 243.7115 438.5381
  A 1.29 1.29 0.0 0 0 244.5987 436.9440
  L 244.4782 436.5208
  Z
  M 310.5069 437.9026
  A 1.21 1.21 0.0 0 0 308.9795 437.1311
  L 284.4892 445.1831
  A 1.21 1.21 0.0 0 0 283.7177 446.7105
  L 285.1731 451.1374
  A 1.21 1.21 0.0 0 0 286.7005 451.9089
  L 311.1908 443.8569
  A 1.21 1.21 0.0 0 0 311.9623 442.3295
  L 310.5069 437.9026
  Z
  M 354.53 457.36
  C 352.80 458.02 351.08 458.22 349.50 459.41
  Q 348.48 460.19 349.74 459.94
  Q 355.73 458.80 361.35 456.70
  Q 363.27 455.98 365.16 455.52
  C 368.13 454.80 370.89 453.56 373.79 452.60
  Q 394.85 445.62 415.19 438.74
  Q 417.17 438.07 415.27 437.22
  Q 414.65 436.94 413.44 437.14
  Q 412.80 437.25 411.74 437.70
  Q 408.03 439.28 403.68 440.39
  Q 397.09 442.08 379.22 448.84
  Q 372.90 451.23 366.87 453.09
  Q 360.96 454.90 354.53 457.36
  Z
  M 494.6385 445.1369
  A 0.97 0.97 0.0 0 0 493.4228 444.5014
  L 471.7997 451.2776
  A 0.97 0.97 0.0 0 0 471.1642 452.4933
  L 471.3615 453.1231
  A 0.97 0.97 0.0 0 0 472.5772 453.7586
  L 494.2003 446.9824
  A 0.97 0.97 0.0 0 0 494.8358 445.7667
  L 494.6385 445.1369
  Z
  M 567.12 449.49
  A 1.62 1.62 0.0 0 0 566.05 450.72
  L 565.79 452.11
  A 1.62 1.62 0.0 0 0 567.90 453.94
  L 576.98 450.85
  A 1.62 1.62 0.0 0 0 578.08 449.26
  L 578.03 447.99
  A 1.62 1.62 0.0 0 0 575.90 446.51
  L 567.12 449.49
  Z
  M 278.5847 449.0203
  A 1.78 1.78 0.0 0 0 276.3477 447.8658
  L 268.4788 450.3771
  A 1.78 1.78 0.0 0 0 267.3242 452.6140
  L 268.3153 455.7197
  A 1.78 1.78 0.0 0 0 270.5523 456.8742
  L 278.4212 454.3629
  A 1.78 1.78 0.0 0 0 279.5758 452.1260
  L 278.5847 449.0203
  Z
  M 400.01 453.93
  Q 399.19 454.18 399.46 454.99
  Q 399.97 456.52 400.13 458.20
  A 1.82 1.82 0.0 0 0 402.47 459.76
  L 422.21 453.78
  Q 423.30 453.45 422.78 452.44
  L 420.87 448.74
  Q 420.32 447.66 419.16 448.02
  L 400.01 453.93
  Z
  M 260.30 453.21
  L 248.00 457.38
  A 1.38 1.38 0.0 0 0 247.14 459.13
  L 247.70 460.78
  A 3.49 3.43 71.3 0 0 252.07 462.99
  L 260.48 460.14
  A 3.49 3.43 71.3 0 0 262.61 455.74
  L 262.05 454.08
  A 1.38 1.38 0.0 0 0 260.30 453.21
  Z
  M 437.81 452.89
  L 433.28 454.35
  A 0.23 0.23 0.0 0 0 433.13 454.64
  L 452.18 513.62
  A 2.75 1.70 72.1 0 0 454.65 515.72
  L 456.38 515.16
  A 2.75 1.70 72.1 0 0 457.15 512.02
  L 438.10 453.04
  A 0.23 0.23 0.0 0 0 437.81 452.89
  Z
  M 495.94 467.31
  Q 496.40 467.69 496.59 468.24
  Q 505.29 492.68 511.06 510.90
  Q 511.73 512.99 513.91 513.17
  Q 514.11 513.19 514.32 513.17
  Q 516.57 513.01 515.94 510.83
  C 511.71 496.35 506.88 482.43 502.30 468.23
  Q 499.99 461.08 497.50 454.24
  Q 496.93 452.68 495.40 453.31
  L 494.09 453.85
  Q 492.80 454.39 493.15 455.74
  L 494.80 462.20
  A 1.06 1.06 0.0 0 1 493.71 463.52
  C 492.85 463.46 491.93 463.17 491.06 463.44
  Q 473.18 468.92 454.25 475.48
  Q 452.29 476.16 453.02 478.10
  L 453.44 479.24
  Q 454.18 481.22 456.19 480.54
  L 495.35 467.20
  Q 495.68 467.08 495.94 467.31
  Z
  M 558.01 455.95
  Q 557.40 454.74 556.20 455.36
  C 554.36 456.29 552.44 457.40 550.48 458.04
  Q 532.56 463.84 513.53 470.75
  Q 511.60 471.45 511.80 473.50
  Q 511.83 473.80 511.99 474.06
  Q 512.86 475.44 514.42 474.95
  Q 533.75 468.80 555.69 461.60
  Q 557.43 461.03 558.99 460.87
  Q 560.42 460.73 559.78 459.45
  L 558.01 455.95
  Z
  M 390.77 463.02
  A 0.61 0.61 0.0 0 1 391.66 463.25
  Q 393.34 466.64 394.76 470.50
  Q 395.43 472.33 396.31 472.68
  Q 397.39 473.10 397.09 471.99
  L 392.92 456.49
  A 0.59 0.59 0.0 0 0 392.18 456.08
  C 389.02 457.04 385.98 458.56 382.88 459.55
  Q 370.73 463.42 358.98 467.89
  Q 358.02 468.25 358.51 469.17
  Q 358.57 469.28 360.20 472.35
  A 1.27 1.26 -23.1 0 0 361.72 472.96
  Q 376.34 468.08 389.83 463.50
  Q 390.33 463.33 390.77 463.02
  Z
  M 254.01 501.02
  C 249.78 486.18 244.83 471.51 239.58 457.25
  Q 239.49 456.99 239.22 457.07
  L 235.31 458.27
  Q 235.01 458.36 235.11 458.66
  L 249.83 503.47
  Q 250.54 505.62 252.45 504.50
  Q 252.47 504.48 252.67 504.36
  Q 254.64 503.21 254.01 501.02
  Z
  M 313.60 458.96
  A 1.93 1.92 -72.4 0 0 311.38 460.12
  Q 310.45 462.42 311.57 464.95
  Q 315.00 472.75 318.13 480.28
  Q 318.77 481.83 320.26 481.06
  L 320.65 480.86
  A 2.33 2.32 68.1 0 0 321.81 478.14
  L 316.79 460.93
  Q 316.64 460.41 316.19 460.10
  Q 314.99 459.27 313.60 458.96
  Z
  M 579.21 461.01
  Q 581.87 468.34 584.73 473.35
  Q 584.90 473.64 585.19 473.80
  A 0.59 0.59 0.0 0 0 586.06 473.16
  Q 584.73 467.10 582.63 461.51
  A 2.57 2.56 85.4 0 0 580.73 459.89
  L 580.25 459.79
  Q 578.65 459.48 579.21 461.01
  Z
  M 228.1997 463.2551
  A 1.87 1.87 0.0 0 0 225.7990 462.1458
  L 214.3682 466.3516
  A 1.87 1.87 0.0 0 0 213.2589 468.7523
  L 213.3003 468.8649
  A 1.87 1.87 0.0 0 0 215.7010 469.9742
  L 227.1318 465.7684
  A 1.87 1.87 0.0 0 0 228.2411 463.3677
  L 228.1997 463.2551
  Z
  M 304.54 467.71
  Q 303.86 463.81 300.04 463.26
  Q 299.52 463.18 299.07 463.46
  Q 295.92 465.44 297.54 468.91
  Q 301.24 476.78 304.27 485.38
  Q 304.69 486.56 305.85 486.10
  L 307.81 485.31
  Q 308.88 484.88 308.53 483.79
  Q 305.93 475.61 304.54 467.71
  Z
  M 290.17 488.01
  Q 290.92 490.21 293.25 490.24
  Q 293.57 490.24 293.86 490.13
  Q 295.43 489.52 295.01 487.90
  Q 292.91 479.83 290.85 471.29
  C 290.21 468.62 287.91 467.26 285.18 468.32
  A 1.77 1.74 -2.4 0 0 284.15 469.42
  Q 283.46 471.58 284.42 473.67
  Q 287.66 480.66 290.17 488.01
  Z
  M 350.82 470.97
  A 1.74 1.74 0.0 0 0 349.14 472.43
  L 348.85 474.23
  A 1.74 1.74 0.0 0 0 351.08 476.17
  L 353.53 475.42
  A 1.74 1.74 0.0 0 0 354.59 473.00
  L 354.07 471.91
  A 1.74 1.74 0.0 0 0 352.46 470.93
  L 350.82 470.97
  Z
  M 270.59 478.17
  Q 274.57 486.03 276.68 493.53
  Q 277.22 495.46 279.15 494.90
  Q 279.78 494.71 280.29 494.56
  Q 282.07 494.04 281.58 492.26
  L 277.01 475.44
  Q 276.21 472.49 273.20 473.05
  Q 272.46 473.19 271.80 473.62
  Q 269.16 475.36 270.59 478.17
  Z
  M 226.05 480.95
  A 0.70 0.70 0.0 0 1 226.90 481.47
  L 228.44 488.04
  Q 228.92 490.11 230.89 489.33
  Q 231.43 489.11 231.98 488.93
  Q 234.66 488.02 233.86 485.29
  L 231.57 477.47
  A 2.28 2.28 0.0 0 0 228.65 475.95
  L 218.52 479.34
  Q 217.22 479.78 217.83 481.00
  L 218.24 481.81
  Q 218.73 482.81 219.81 482.53
  L 226.05 480.95
  Z
  M 580.01 489.80
  C 579.29 490.98 577.59 491.84 576.30 492.24
  Q 571.07 493.86 566.21 495.49
  Q 564.80 495.96 563.54 496.83
  Q 562.97 497.23 563.41 497.77
  Q 570.48 506.51 581.48 507.56
  Q 582.97 507.71 584.48 507.45
  C 587.03 507.02 589.53 506.85 591.98 505.89
  Q 599.49 502.96 603.65 497.55
  C 608.46 491.28 610.34 485.76 611.94 478.39
  A 1.19 1.19 0.0 0 0 610.40 477.01
  Q 603.23 479.41 596.53 481.47
  Q 594.45 482.12 593.16 484.00
  Q 592.84 484.46 592.31 484.65
  Q 586.98 486.50 581.72 488.39
  Q 580.64 488.78 580.01 489.80
  Z
  M 261.54 493.29
  Q 262.60 496.77 264.46 499.17
  A 1.26 1.25 65.8 0 0 265.68 499.64
  Q 266.81 499.44 267.52 498.75
  Q 268.09 498.19 267.87 497.42
  Q 265.71 489.97 264.16 482.30
  C 263.76 480.33 262.63 478.74 261.02 477.53
  A 1.71 1.69 -45.0 0 0 258.97 477.54
  Q 254.96 480.59 257.54 484.66
  Q 260.18 488.83 261.54 493.29
  Z
  M 431.90 489.05
  L 431.07 486.59
  A 1.13 1.13 0.0 0 0 429.64 485.88
  L 359.59 509.45
  A 8.74 1.41 -18.6 0 0 351.75 513.57
  L 352.40 515.51
  A 8.74 1.41 -18.6 0 0 361.14 514.06
  L 431.19 490.48
  A 1.13 1.13 0.0 0 0 431.90 489.05
  Z
  M 325.7249 487.2899
  A 1.42 1.42 0.0 0 0 324.0036 486.2556
  L 320.9374 487.0201
  A 1.42 1.42 0.0 0 0 319.9031 488.7414
  L 319.9951 489.1101
  A 1.42 1.42 0.0 0 0 321.7164 490.1444
  L 324.7826 489.3799
  A 1.42 1.42 0.0 0 0 325.8169 487.6586
  L 325.7249 487.2899
  Z
  M 312.1382 491.9280
  A 3.18 1.44 -12.2 0 0 308.7257 491.1925
  A 3.18 1.44 -12.2 0 0 305.9218 493.2720
  A 3.18 1.44 -12.2 0 0 309.3343 494.0075
  A 3.18 1.44 -12.2 0 0 312.1382 491.9280
  Z
  M 209.6817 494.8642
  A 0.80 0.44 75.4 0 0 209.9058 493.9791
  A 0.80 0.44 75.4 0 0 209.2783 493.3158
  A 0.80 0.44 75.4 0 0 209.0542 494.2009
  A 0.80 0.44 75.4 0 0 209.6817 494.8642
  Z
  M 298.9939 495.6507
  A 3.35 1.55 -19.7 0 0 295.3175 495.3207
  A 3.35 1.55 -19.7 0 0 292.6861 497.9093
  A 3.35 1.55 -19.7 0 0 296.3625 498.2393
  A 3.35 1.55 -19.7 0 0 298.9939 495.6507
  Z
  M 203.6862 496.1008
  A 1.96 1.44 -17.8 0 0 201.3798 495.3289
  A 1.96 1.44 -17.8 0 0 199.9538 497.2992
  A 1.96 1.44 -17.8 0 0 202.2602 498.0711
  A 1.96 1.44 -17.8 0 0 203.6862 496.1008
  Z
  M 238.50 498.57
  L 237.64 495.91
  A 1.16 1.16 0.0 0 0 236.18 495.16
  L 220.87 500.10
  A 2.34 2.09 -17.9 0 0 219.29 502.81
  L 219.58 503.71
  A 2.34 2.09 -17.9 0 0 222.45 504.98
  L 237.75 500.03
  A 1.16 1.16 0.0 0 0 238.50 498.57
  Z
  M 285.0484 500.8804
  A 1.41 1.41 0.0 0 0 283.2670 499.9844
  L 279.8111 501.1273
  A 1.41 1.41 0.0 0 0 278.9151 502.9087
  L 278.9716 503.0796
  A 1.41 1.41 0.0 0 0 280.7530 503.9756
  L 284.2089 502.8327
  A 1.41 1.41 0.0 0 0 285.1049 501.0513
  L 285.0484 500.8804
  Z
  M 500.8799 503.4730
  A 3.87 3.52 -0.4 0 0 496.9854 499.9801
  A 3.87 3.52 -0.4 0 0 493.1401 503.5270
  A 3.87 3.52 -0.4 0 0 497.0346 507.0199
  A 3.87 3.52 -0.4 0 0 500.8799 503.4730
  Z
  M 202.51 536.18
  Q 202.78 536.51 203.26 536.33
  A 0.58 0.57 86.2 0 0 203.60 535.93
  Q 204.07 533.96 203.66 532.48
  C 201.81 525.76 199.75 518.81 197.27 512.17
  Q 195.27 506.81 193.86 501.90
  A 1.23 1.22 -36.3 0 0 191.66 501.57
  Q 190.43 503.44 191.11 505.68
  Q 195.64 520.59 201.55 535.70
  Q 201.58 535.77 201.62 535.84
  Q 201.81 536.08 202.10 536.03
  Q 202.35 535.98 202.51 536.18
  Z
  M 211.75 503.61
  L 203.77 506.17
  Q 202.59 506.55 203.18 507.63
  L 204.00 509.14
  Q 204.64 510.32 205.92 509.90
  L 212.09 507.85
  Q 213.66 507.33 214.01 505.72
  Q 214.10 505.33 214.03 504.96
  Q 213.65 503.00 211.75 503.61
  Z
  M 271.67 506.42
  L 271.11 504.79
  A 0.50 0.50 0.0 0 0 270.47 504.48
  L 269.08 504.96
  A 3.81 1.17 -19.1 0 0 265.87 507.32
  L 265.99 507.68
  A 3.81 1.17 -19.1 0 0 269.97 507.53
  L 271.36 507.05
  A 0.50 0.50 0.0 0 0 271.67 506.42
  Z
  M 257.9280 509.6721
  A 3.28 1.57 -26.0 0 0 254.2918 509.6989
  A 3.28 1.57 -26.0 0 0 252.0320 512.5479
  A 3.28 1.57 -26.0 0 0 255.6682 512.5211
  A 3.28 1.57 -26.0 0 0 257.9280 509.6721
  Z
  M 410.46 519.28
  Q 412.04 518.83 413.32 519.65
  A 0.42 0.41 18.7 0 0 413.96 519.34
  Q 414.47 514.28 409.79 512.97
  A 1.39 1.39 0.0 0 0 408.65 513.15
  Q 405.76 515.06 404.09 517.86
  A 2.11 2.11 0.0 0 0 405.26 520.95
  L 407.70 521.73
  Q 408.40 521.96 408.78 521.32
  L 409.60 519.95
  Q 409.90 519.44 410.46 519.28
  Z
  M 385.01 531.58
  L 385.35 532.37
  Q 385.45 532.62 385.62 532.83
  Q 385.88 533.14 386.10 533.10
  Q 386.61 532.99 386.48 532.48
  L 385.25 527.98
  A 0.97 0.97 0.0 0 0 384.15 527.28
  Q 380.13 527.98 376.32 529.50
  C 369.39 532.26 362.18 534.46 354.93 536.92
  Q 353.48 537.40 353.85 538.88
  L 353.92 539.18
  Q 354.38 541.05 356.21 540.44
  L 384.08 531.16
  A 0.75 0.75 0.0 0 1 385.01 531.58
  Z
  M 312.37 547.96
  L 316.26 554.16
  Q 316.49 554.52 316.89 554.38
  C 325.08 551.40 333.38 549.00 341.40 545.87
  Q 344.47 544.68 347.29 543.69
  Q 348.64 543.22 348.90 541.82
  Q 349.00 541.30 348.67 540.96
  Q 347.29 539.56 345.17 540.36
  Q 332.28 545.25 318.79 549.58
  C 316.62 550.28 314.91 549.30 314.07 547.14
  Q 312.72 543.70 311.41 540.62
  Q 310.43 538.31 307.91 539.00
  A 1.17 1.17 0.0 0 0 307.06 540.07
  Q 306.96 542.74 306.95 545.55
  Q 306.94 549.55 310.69 547.52
  Q 311.74 546.95 312.37 547.96
  Z
  M 419.91 604.08
  Q 422.72 599.94 425.34 596.25
  Q 427.86 592.72 431.54 589.03
  C 435.00 585.56 438.56 581.89 442.53 579.09
  Q 470.25 559.53 504.18 563.58
  Q 509.80 564.25 515.02 565.83
  Q 522.45 568.08 525.49 569.45
  C 538.04 575.09 550.08 584.40 559.05 595.68
  Q 562.37 599.85 565.33 603.69
  Q 566.10 604.70 565.64 603.51
  Q 563.98 599.26 560.96 595.29
  Q 557.60 590.87 553.72 586.42
  Q 549.37 581.44 539.26 574.22
  Q 531.06 568.37 521.63 565.02
  Q 501.81 557.99 482.58 560.49
  C 467.45 562.45 452.85 567.89 440.73 577.12
  C 438.58 578.76 436.73 580.68 434.66 582.43
  Q 432.34 584.39 430.26 586.78
  Q 424.57 593.33 420.89 599.33
  Q 418.65 603.00 416.98 607.45
  Q 416.97 607.49 416.99 607.53
  Q 417.05 607.66 417.16 607.72
  Q 417.48 607.90 417.67 607.58
  Q 418.74 605.80 419.91 604.08
  Z
  M 362.4778 568.9386
  A 3.57 3.24 97.6 0 0 366.1615 565.8285
  A 3.57 3.24 97.6 0 0 363.4222 561.8614
  A 3.57 3.24 97.6 0 0 359.7385 564.9715
  A 3.57 3.24 97.6 0 0 362.4778 568.9386
  Z
  M 339.74 568.51
  C 342.90 569.85 345.55 572.17 349.00 572.08
  Q 352.93 571.99 349.93 569.45
  Q 346.56 566.58 341.77 564.33
  C 338.37 562.73 334.79 562.80 331.09 562.83
  C 323.72 562.88 315.96 568.24 312.88 574.40
  A 1.04 1.04 0.0 0 0 314.03 575.88
  C 316.29 575.39 319.24 572.79 321.08 571.32
  Q 323.52 569.38 326.13 568.55
  Q 333.99 566.07 339.74 568.51
  Z
  M 302.97 568.09
  A 1.12 1.12 0.0 0 0 304.14 566.96
  L 304.11 564.35
  A 1.12 1.12 0.0 0 0 302.64 563.30
  L 299.68 564.27
  A 1.12 1.12 0.0 0 0 298.91 565.36
  L 298.95 566.87
  A 1.12 1.12 0.0 0 0 300.02 567.96
  L 302.97 568.09
  Z
  M 294.4216 567.6993
  A 1.55 1.55 0.0 0 0 292.4633 566.7144
  L 285.8743 568.8935
  A 1.55 1.55 0.0 0 0 284.8893 570.8518
  L 284.9584 571.0607
  A 1.55 1.55 0.0 0 0 286.9167 572.0456
  L 293.5057 569.8665
  A 1.55 1.55 0.0 0 0 294.4907 567.9082
  L 294.4216 567.6993
  Z
  M 266.91 576.50
  Q 266.21 578.94 271.61 577.33
  Q 272.60 577.03 273.62 576.69
  Q 275.05 576.20 276.50 575.65
  Q 277.92 575.11 278.03 573.59
  L 278.06 573.27
  Q 278.17 571.81 276.79 572.32
  L 267.59 575.76
  A 1.14 1.13 88.0 0 0 266.91 576.50
  Z
  M 246.30 584.73
  Q 246.25 585.29 246.82 585.59
  Q 246.90 585.63 246.98 585.61
  L 253.89 583.81
  Q 255.16 583.48 256.34 582.94
  Q 259.63 581.45 258.85 580.18
  Q 258.27 579.25 257.24 579.65
  L 247.13 583.60
  Q 246.36 583.91 246.30 584.73
  Z
  M 326.66 583.49
  Q 325.76 584.99 327.51 584.99
  L 333.72 584.98
  A 1.39 1.39 0.0 0 0 334.99 583.04
  Q 333.55 579.65 330.35 580.02
  A 3.50 3.49 12.3 0 0 327.74 581.69
  L 326.66 583.49
  Z
  M 517.50 588.26
  Q 496.15 578.72 473.68 585.63
  Q 453.25 591.91 441.83 609.25
  Q 435.01 619.61 432.54 628.99
  Q 429.21 641.57 432.37 657.60
  C 434.17 666.75 440.17 677.71 446.28 684.80
  Q 455.64 695.65 471.22 701.96
  Q 479.47 705.30 490.10 705.30
  Q 501.87 705.30 509.19 703.19
  C 527.70 697.84 543.65 684.15 550.16 665.56
  C 555.93 649.06 555.33 632.08 547.18 616.41
  Q 537.10 597.02 517.50 588.26
  Z
  M 111.13 636.31
  C 111.88 641.47 111.56 646.59 112.45 651.47
  Q 112.79 653.33 113.52 651.59
  Q 114.07 650.30 114.46 648.99
  Q 114.84 647.73 114.86 646.37
  Q 115.13 620.59 115.01 593.35
  Q 115.00 591.21 112.85 591.19
  Q 92.01 590.97 69.86 591.30
  C 65.68 591.36 61.60 591.97 57.55 591.67
  Q 55.99 591.55 55.98 593.11
  L 55.95 596.31
  Q 55.93 597.80 57.43 597.88
  Q 61.54 598.10 65.80 598.28
  Q 69.77 598.45 73.79 598.38
  Q 92.14 598.06 109.83 597.85
  Q 110.64 597.84 110.72 598.65
  Q 111.19 603.39 110.87 606.37
  Q 110.80 607.00 110.17 607.00
  L 57.01 607.22
  Q 56.00 607.23 55.94 608.23
  Q 55.93 608.40 55.94 608.56
  Q 55.96 609.85 57.25 609.85
  Q 82.56 609.89 108.71 610.04
  Q 108.99 610.04 109.26 609.94
  Q 109.72 609.76 109.81 609.76
  A 1.21 1.17 -89.5 0 1 110.94 610.95
  Q 111.15 621.89 111.03 633.26
  Q 111.02 634.10 110.18 634.09
  Q 83.71 633.73 58.05 634.31
  Q 57.36 634.32 56.75 634.66
  Q 56.28 634.92 56.08 635.35
  Q 55.87 635.84 56.40 635.84
  Q 81.62 636.10 106.85 635.99
  Q 108.67 635.98 110.43 635.78
  Q 111.04 635.71 111.13 636.31
  Z
  M 315.02 692.91
  A 0.93 0.93 0.0 0 1 314.09 693.84
  L 245.07 694.12
  Q 243.76 694.12 243.85 695.42
  L 243.99 697.77
  Q 244.07 698.97 245.27 698.97
  L 359.84 699.02
  A 1.11 1.10 90.0 0 0 360.94 697.91
  L 360.89 609.48
  Q 360.89 608.01 359.43 608.03
  C 349.24 608.11 338.98 607.80 328.72 608.09
  Q 322.87 608.26 316.54 607.87
  A 1.44 1.43 1.7 0 0 315.02 609.30
  L 315.02 692.91
  Z
  M 299.3870 625.6827
  A 3.75 3.51 42.9 0 0 299.0293 620.5588
  A 3.75 3.51 42.9 0 0 293.8930 620.5773
  A 3.75 3.51 42.9 0 0 294.2507 625.7012
  A 3.75 3.51 42.9 0 0 299.3870 625.6827
  Z
  M 162.00 633.25
  L 162.00 623.75
  A 0.75 0.75 0.0 0 0 161.25 623.00
  L 124.75 623.00
  A 0.76 0.76 0.0 0 0 123.99 623.76
  L 124.01 646.79
  A 1.10 1.10 0.0 0 0 125.06 647.89
  C 140.88 648.57 155.39 649.09 171.99 648.98
  A 1.07 1.07 0.0 0 0 173.05 647.91
  L 173.01 634.88
  A 0.88 0.88 0.0 0 0 172.13 634.00
  L 162.75 634.00
  Q 162.00 634.00 162.00 633.25
  Z
  M 277.11 634.82
  A 0.75 0.75 0.0 0 0 277.85 634.19
  L 278.64 629.07
  A 0.75 0.75 0.0 0 0 277.90 628.20
  L 244.63 627.99
  A 0.75 0.75 0.0 0 0 243.88 628.76
  L 244.01 634.23
  A 0.75 0.75 0.0 0 0 244.77 634.97
  L 277.11 634.82
  Z
  M 633.03 642.42
  L 640.65 644.21
  A 2.98 2.98 0.0 0 0 644.23 641.98
  L 645.75 635.49
  A 6.29 6.03 13.2 0 0 641.00 628.18
  L 639.84 627.91
  A 6.29 6.03 13.2 0 0 632.34 632.34
  L 630.81 638.84
  A 2.98 2.98 0.0 0 0 633.03 642.42
  Z
  M 298.9592 637.0033
  A 1.03 1.03 0.0 0 0 297.9310 635.9715
  L 296.2510 635.9686
  A 1.03 1.03 0.0 0 0 295.2192 636.9968
  L 295.1808 659.0367
  A 1.03 1.03 0.0 0 0 296.2090 660.0685
  L 297.8890 660.0714
  A 1.03 1.03 0.0 0 0 298.9208 659.0432
  L 298.9592 637.0033
  Z
  M 423.40 642.44
  Q 423.34 642.44 423.34 642.50
  C 422.65 648.75 422.70 654.40 424.28 660.73
  Q 428.69 678.32 441.49 692.60
  Q 453.77 706.29 472.03 711.74
  Q 489.96 717.10 507.11 713.30
  Q 512.71 712.06 518.71 709.52
  Q 526.61 706.18 530.72 703.50
  Q 555.30 687.46 561.41 658.82
  Q 561.99 656.06 561.85 652.68
  Q 561.71 649.57 561.74 646.49
  Q 561.74 646.32 561.57 646.31
  L 561.57 646.31
  Q 561.40 646.30 561.38 646.47
  Q 559.77 661.23 553.25 674.37
  Q 550.81 679.30 548.00 682.84
  Q 538.74 694.51 527.91 701.29
  Q 516.66 708.33 504.85 710.75
  Q 494.32 712.91 486.03 711.84
  C 477.46 710.73 467.68 707.78 460.10 703.54
  Q 448.40 696.99 439.59 685.29
  Q 427.32 668.96 423.87 649.07
  C 423.49 646.88 423.71 644.78 423.58 642.60
  Q 423.57 642.44 423.41 642.44
  L 423.40 642.44
  Z
  M 618.90 648.28
  L 619.89 645.01
  A 0.80 0.80 0.0 0 0 619.36 644.01
  L 615.70 642.91
  A 2.56 1.87 16.8 0 0 612.71 643.96
  L 612.34 645.19
  A 2.56 1.87 16.8 0 0 614.25 647.72
  L 617.91 648.82
  A 0.80 0.80 0.0 0 0 618.90 648.28
  Z
  M 278.1496 648.2409
  A 1.08 1.08 0.0 0 0 277.0677 647.1628
  L 245.8677 647.2172
  A 1.08 1.08 0.0 0 0 244.7896 648.2991
  L 244.7904 648.7591
  A 1.08 1.08 0.0 0 0 245.8723 649.8372
  L 277.0723 649.7828
  A 1.08 1.08 0.0 0 0 278.1504 648.7009
  L 278.1496 648.2409
  Z
  M 640.9788 654.0255
  A 1.70 1.70 0.0 0 0 639.7297 651.9712
  L 627.2939 648.9397
  A 1.70 1.70 0.0 0 0 625.2397 650.1887
  L 625.1212 650.6745
  A 1.70 1.70 0.0 0 0 626.3703 652.7288
  L 638.8061 655.7603
  A 1.70 1.70 0.0 0 0 640.8603 654.5113
  L 640.9788 654.0255
  Z
  M 141.61 657.23
  Q 141.69 656.90 141.41 656.70
  Q 139.53 655.33 137.68 656.63
  Q 137.25 656.93 137.43 657.43
  Q 138.69 660.81 140.03 664.05
  Q 141.04 666.50 140.94 663.85
  Q 140.82 660.38 141.61 657.23
  Z
  M 662.20 662.27
  Q 662.69 662.04 663.35 662.18
  Q 676.92 665.25 689.76 668.46
  C 699.27 670.84 708.61 672.61 717.74 674.77
  Q 764.84 685.92 807.75 695.86
  C 822.52 699.28 837.10 702.90 852.28 706.09
  Q 864.54 708.66 877.71 711.85
  A 1.05 1.04 -74.6 0 0 878.95 711.14
  Q 879.49 709.43 878.52 707.94
  A 1.22 1.21 -11.5 0 0 877.70 707.40
  Q 870.26 706.12 863.75 704.59
  C 843.90 699.90 824.23 695.61 804.51 690.97
  Q 773.03 683.57 746.49 677.04
  C 739.52 675.33 733.26 674.21 726.57 672.61
  Q 695.98 665.29 663.28 657.26
  Q 661.38 656.79 659.62 657.27
  A 1.26 1.25 -1.3 0 0 658.73 658.19
  Q 656.24 668.78 655.37 677.01
  Q 654.76 682.88 656.74 677.32
  Q 659.19 670.46 661.30 663.33
  Q 661.52 662.60 662.20 662.27
  Z
  M 636.10 658.86
  L 635.05 658.91
  A 0.77 0.76 3.2 0 0 634.33 659.55
  Q 633.68 663.72 633.13 667.83
  Q 632.63 671.58 634.17 668.12
  Q 634.73 666.88 636.61 659.48
  Q 636.78 658.82 636.10 658.86
  Z
  M 166.1707 663.3719
  A 1.26 1.26 0.0 0 0 164.9173 662.1053
  L 159.0774 662.0747
  A 1.26 1.26 0.0 0 0 157.8108 663.3281
  L 157.8093 663.6081
  A 1.26 1.26 0.0 0 0 159.0627 664.8747
  L 164.9026 664.9053
  A 1.26 1.26 0.0 0 0 166.1692 663.6519
  L 166.1707 663.3719
  Z
  M 304.54 662.10
  A 1.84 1.84 0.0 0 0 302.99 663.84
  L 302.88 666.35
  A 1.84 1.84 0.0 0 0 305.38 668.15
  L 307.44 667.35
  A 1.84 1.84 0.0 0 0 308.46 664.89
  L 307.62 663.00
  A 1.84 1.84 0.0 0 0 305.65 661.92
  L 304.54 662.10
  Z
  M 286.9074 667.9132
  A 2.97 2.50 122.2 0 0 290.6055 666.7322
  A 2.97 2.50 122.2 0 0 290.0726 662.8868
  A 2.97 2.50 122.2 0 0 286.3745 664.0678
  A 2.97 2.50 122.2 0 0 286.9074 667.9132
  Z
  M 215.99 664.01
  A 0.73 0.73 0.0 0 0 215.26 663.28
  L 191.64 663.28
  A 0.73 0.73 0.0 0 0 190.91 664.01
  L 190.91 664.05
  A 0.73 0.73 0.0 0 0 191.64 664.78
  L 215.26 664.78
  A 0.73 0.73 0.0 0 0 215.99 664.05
  L 215.99 664.01
  Z
  M 132.6206 668.8042
  A 3.76 3.54 -10.2 0 0 128.2931 665.9859
  A 3.76 3.54 -10.2 0 0 125.2194 670.1358
  A 3.76 3.54 -10.2 0 0 129.5469 672.9541
  A 3.76 3.54 -10.2 0 0 132.6206 668.8042
  Z
  M 140.46 676.29
  C 138.54 677.63 137.83 679.53 136.36 681.26
  Q 135.64 682.11 136.76 682.08
  L 139.92 681.99
  A 1.14 1.14 0.0 0 0 141.03 680.84
  L 141.00 676.57
  A 0.35 0.34 -17.3 0 0 140.46 676.29
  Z
  M 727.15 687.13
  L 730.36 686.99
  Q 732.45 686.90 731.90 684.89
  C 729.95 677.76 719.63 682.03 723.75 688.48
  A 0.57 0.57 0.0 0 0 724.56 688.64
  L 726.25 687.44
  Q 726.65 687.15 727.15 687.13
  Z
  M 562.32 717.80
  Q 561.58 717.29 560.73 717.08
  A 2.11 2.11 0.0 0 0 558.15 718.85
  L 557.83 721.17
  Q 557.76 721.72 557.33 722.08
  L 548.61 729.50
  Q 548.26 729.80 547.83 729.94
  L 546.25 730.46
  Q 545.61 730.67 545.88 731.29
  Q 546.17 731.97 546.79 731.98
  C 620.37 732.12 693.77 732.00 766.75 731.98
  C 782.65 731.98 798.88 731.78 814.75 732.05
  Q 827.78 732.27 844.00 732.21
  Q 847.07 732.20 849.79 731.38
  Q 850.62 731.13 849.79 730.87
  Q 847.60 730.18 844.82 729.73
  Q 824.68 726.42 805.89 723.51
  Q 795.22 721.85 786.14 720.25
  Q 759.73 715.59 732.25 711.01
  C 693.68 704.57 656.64 698.32 619.23 691.39
  Q 616.60 690.91 613.00 690.95
  A 1.09 1.09 0.0 0 0 611.93 692.18
  Q 612.62 697.33 611.89 702.24
  Q 611.79 702.91 611.11 702.95
  Q 606.97 703.22 603.00 702.85
  C 600.74 702.63 600.93 699.75 599.80 698.20
  A 1.14 1.14 0.0 0 1 599.59 697.31
  Q 600.30 693.04 599.93 688.83
  Q 599.87 688.20 599.26 688.05
  L 587.23 685.05
  A 2.53 2.53 0.0 0 0 584.32 686.42
  Q 583.66 687.81 583.56 689.60
  Q 583.52 690.18 584.01 690.50
  Q 585.00 691.14 584.43 692.13
  Q 581.40 697.37 578.07 702.52
  A 0.71 0.70 45.4 0 1 576.88 702.51
  C 574.56 698.80 571.93 703.55 571.33 705.57
  Q 571.15 706.17 571.44 706.74
  Q 572.35 708.47 570.93 710.22
  Q 567.44 714.52 563.54 717.75
  Q 562.95 718.24 562.32 717.80
  Z
  M 901.5963 694.1130
  A 3.69 3.13 95.5 0 0 905.0656 690.7400
  A 3.69 3.13 95.5 0 0 902.3037 686.7670
  A 3.69 3.13 95.5 0 0 898.8344 690.1400
  A 3.69 3.13 95.5 0 0 901.5963 694.1130
  Z
  M 164.28 688.14
  C 158.85 686.58 158.91 693.24 161.68 695.28
  A 2.07 2.07 0.0 0 0 164.99 693.62
  L 165.00 689.11
  Q 165.01 688.35 164.28 688.14
  Z
  M 172.9879 692.2700
  A 2.25 1.05 89.8 0 0 174.0300 690.0163
  A 2.25 1.05 89.8 0 0 172.9721 687.7700
  A 2.25 1.05 89.8 0 0 171.9300 690.0237
  A 2.25 1.05 89.8 0 0 172.9879 692.2700
  Z
  M 184.9749 689.3960
  A 1.47 1.47 0.0 0 0 183.4946 687.9362
  L 182.3947 687.9439
  A 1.47 1.47 0.0 0 0 180.9350 689.4242
  L 180.9651 693.7440
  A 1.47 1.47 0.0 0 0 182.4454 695.2038
  L 183.5453 695.1961
  A 1.47 1.47 0.0 0 0 185.0050 693.7158
  L 184.9749 689.3960
  Z
  M 893.87 705.99
  A 1.03 1.02 -88.8 0 1 894.87 705.03
  L 908.24 704.76
  Q 908.98 704.74 908.98 704.00
  L 908.98 703.74
  A 0.44 0.44 0.0 0 0 908.55 703.30
  L 891.21 703.07
  A 1.19 1.19 0.0 0 0 890.00 704.28
  L 890.19 716.20
  Q 890.22 717.71 891.70 717.97
  L 892.40 718.09
  Q 894.21 718.41 894.05 716.57
  Q 893.57 710.87 893.87 705.99
  Z
  M 152.74 722.15
  C 152.17 721.37 150.62 721.21 149.75 721.19
  Q 143.16 721.04 135.56 720.62
  C 127.20 720.15 119.07 720.18 110.70 720.25
  Q 109.72 720.26 109.08 721.64
  Q 108.96 721.90 109.07 722.19
  Q 109.75 723.81 111.51 723.80
  C 125.79 723.74 139.24 724.81 152.57 722.56
  Q 152.99 722.49 152.74 722.15
  Z
  M 919.88 729.39
  Q 919.92 728.88 919.67 728.46
  Q 919.42 728.05 918.95 727.93
  Q 916.58 727.29 913.95 727.25
  Q 897.04 727.00 881.08 727.39
  Q 876.61 727.50 871.80 728.36
  Q 870.27 728.64 870.88 730.08
  A 1.01 0.98 80.2 0 0 871.70 730.68
  C 879.41 731.46 887.36 730.60 895.10 730.81
  Q 907.54 731.13 920.25 730.68
  A 0.33 0.32 10.3 0 0 920.53 730.49
  Q 920.68 730.13 920.28 729.99
  Q 919.85 729.84 919.88 729.39
  Z"
/>
<path  d="
  M 454.24 548.48
  Q 448.96 550.38 443.18 553.16
  Q 437.89 555.70 433.28 558.97
  Q 415.25 571.74 400.61 590.48
  Q 400.09 591.16 399.21 591.23
  A 1.03 1.03 0.0 0 1 398.14 589.90
  Q 402.21 576.64 412.03 564.77
  Q 434.28 537.87 468.86 529.98
  C 480.18 527.40 490.65 527.53 502.33 528.15
  Q 510.89 528.60 518.45 530.54
  Q 544.96 537.36 564.70 556.23
  C 573.34 564.49 581.90 576.03 584.99 587.70
  A 1.14 1.13 77.2 0 1 584.11 589.11
  C 582.84 589.36 581.57 589.05 580.88 587.85
  Q 579.41 585.30 577.91 583.67
  Q 566.32 571.07 558.87 565.01
  Q 545.63 554.25 528.38 548.05
  Q 491.82 534.92 454.24 548.48
  Z"
/>
<path  d="
  M 549.23 642.71
  C 549.12 653.96 546.17 667.19 539.44 676.25
  C 526.58 693.57 507.67 702.12 486.26 700.49
  Q 477.05 699.78 468.93 695.65
  C 449.23 685.63 436.15 667.72 435.75 645.30
  Q 435.51 631.32 440.80 620.53
  Q 452.15 597.39 475.57 589.78
  Q 490.25 585.01 505.58 588.62
  Q 514.38 590.69 523.44 596.81
  C 538.32 606.86 549.40 624.92 549.23 642.71
  Z
  M 497.7426 607.0341
  A 5.79 5.41 33.6 0 0 495.9138 599.3239
  A 5.79 5.41 33.6 0 0 488.0974 600.6259
  A 5.79 5.41 33.6 0 0 489.9262 608.3361
  A 5.79 5.41 33.6 0 0 497.7426 607.0341
  Z
  M 497.0325 661.5429
  A 20.64 19.99 77.4 0 0 512.0386 637.0393
  A 20.64 19.99 77.4 0 0 488.0275 621.2571
  A 20.64 19.99 77.4 0 0 473.0214 645.7607
  A 20.64 19.99 77.4 0 0 497.0325 661.5429
  Z
  M 536.07 642.32
  A 5.78 5.78 0.0 0 0 530.29 636.54
  A 5.78 5.78 0.0 0 0 524.51 642.32
  A 5.78 5.78 0.0 0 0 530.29 648.10
  A 5.78 5.78 0.0 0 0 536.07 642.32
  Z
  M 457.2085 647.7728
  A 5.95 5.56 65.7 0 0 459.8274 640.0620
  A 5.95 5.56 65.7 0 0 452.3115 636.9272
  A 5.95 5.56 65.7 0 0 449.6926 644.6380
  A 5.95 5.56 65.7 0 0 457.2085 647.7728
  Z
  M 498.64 679.29
  C 496.29 671.94 486.54 675.47 488.02 682.49
  C 488.71 685.74 490.73 685.77 493.45 686.10
  C 497.77 686.63 499.98 683.50 498.64 679.29
  Z"
/>
<ellipse  cx="0.00" cy="0.00" transform="translate(493.00,604.69) rotate(62.6)" rx="2.48" ry="1.98"/>
<path  d="
  M 350.57 643.49
  Q 348.73 644.03 350.58 644.53
  Q 352.72 645.12 355.14 644.73
  Q 355.89 644.61 355.88 645.37
  C 355.79 649.54 356.19 653.74 356.17 657.82
  Q 356.05 674.30 356.17 692.72
  A 1.17 1.17 0.0 0 1 355.01 693.90
  L 321.00 694.00
  Q 320.00 694.01 320.00 693.00
  L 320.01 614.06
  Q 320.01 612.58 321.47 612.36
  Q 325.12 611.80 329.14 611.85
  Q 341.55 611.97 354.94 612.25
  A 1.08 1.08 0.0 0 1 356.00 613.33
  L 356.23 642.66
  A 0.60 0.60 0.0 0 1 355.54 643.26
  Q 352.67 642.87 350.57 643.49
  Z"
/>
<ellipse  cx="0.00" cy="0.00" transform="translate(492.54,641.62) rotate(67.4)" rx="15.24" ry="14.94"/>
<ellipse  cx="0.00" cy="0.00" transform="translate(530.25,642.58) rotate(64.7)" rx="2.45" ry="2.22"/>
<ellipse  cx="0.00" cy="0.00" transform="translate(454.94,643.45) rotate(86.0)" rx="2.42" ry="1.97"/>
<path  d="
  M 491.04 683.13
  C 490.68 680.00 494.03 678.38 495.52 681.75
  A 1.45 1.43 -39.1 0 1 495.36 683.19
  Q 494.65 684.16 493.78 684.60
  A 1.89 1.89 0.0 0 1 491.04 683.13
  Z"
/>
<path  d="
  M 918.75 729.86
  Q 918.01 730.10 917.57 729.72
  A 0.51 0.51 0.0 0 1 917.72 728.87
  Q 918.55 728.54 918.97 729.31
  A 0.39 0.39 0.0 0 1 918.75 729.86
  Z"
/>
</svg>
