<?xml version="1.0" encoding="UTF-8" standalone="no"?>
<!DOCTYPE svg PUBLIC "-//W3C//DTD SVG 1.1//EN" "http://www.w3.org/Graphics/SVG/1.1/DTD/svg11.dtd">
<svg xmlns="http://www.w3.org/2000/svg" version="1.1" viewBox="0.00 0.00 1400.00 1400.00">
<path  d="
  M 490.55 564.76
  Q 501.39 565.97 507.94 573.35
  C 513.85 580.01 514.12 586.52 514.09 595.04
  Q 513.93 640.93 514.02 688.99
  A 1.07 1.07 0.0 0 1 512.95 690.06
  L 500.59 690.03
  Q 500.01 690.03 500.01 689.46
  Q 499.97 645.93 500.03 597.75
  C 500.04 592.38 500.38 587.89 496.94 583.09
  Q 494.18 579.22 488.70 579.05
  Q 482.26 578.85 476.05 579.09
  A 1.00 0.99 88.9 0 1 475.02 578.09
  Q 475.01 554.22 474.88 530.50
  Q 474.86 525.78 475.39 522.00
  Q 475.86 518.57 479.63 513.76
  Q 484.42 507.64 490.02 501.35
  Q 491.00 500.25 491.01 501.73
  Q 491.10 512.29 490.56 522.51
  C 489.82 536.40 489.88 550.02 490.04 564.20
  A 0.58 0.58 0.0 0 0 490.55 564.76
  Z"
/>
<path  d="
  M 799.92 900.27
  L 802.62 894.67
  A 0.66 0.65 27.0 0 0 802.33 893.80
  Q 796.78 890.90 791.77 886.34
  A 1.05 1.05 0.0 0 0 790.40 886.30
  L 786.55 889.42
  A 1.30 1.30 0.0 0 1 784.85 889.37
  Q 778.58 883.61 774.16 876.74
  A 1.19 1.19 0.0 0 1 774.31 875.26
  L 778.35 871.17
  A 0.97 0.97 0.0 0 0 778.53 870.04
  L 774.12 861.27
  Q 773.23 859.50 771.58 860.59
  L 767.56 863.24
  A 0.85 0.85 0.0 0 1 766.28 862.76
  L 761.97 847.30
  A 2.06 2.06 0.0 0 1 763.09 844.89
  L 766.74 843.19
  A 2.51 2.50 71.5 0 0 768.13 840.39
  Q 766.73 833.93 767.02 826.92
  Q 767.05 826.14 766.27 826.24
  Q 764.73 826.44 763.19 827.06
  C 761.64 827.69 761.68 829.30 760.68 830.43
  Q 754.20 837.68 746.61 844.82
  A 0.43 0.43 0.0 0 1 745.91 844.63
  Q 744.83 841.13 745.19 837.52
  Q 745.98 829.53 745.64 822.50
  C 744.65 802.39 744.77 784.49 745.16 764.83
  Q 745.21 762.64 746.57 761.04
  Q 749.85 757.20 753.75 753.70
  C 759.83 748.24 766.08 742.68 771.64 736.98
  Q 784.07 724.23 794.99 713.51
  Q 796.01 712.50 797.19 711.61
  Q 797.60 711.30 798.11 711.24
  Q 801.86 710.84 804.88 710.86
  C 836.58 711.10 862.59 710.83 891.52 710.82
  Q 894.30 710.82 896.35 712.85
  Q 917.53 733.90 933.40 747.54
  C 935.31 749.18 937.53 747.95 939.84 748.12
  Q 960.81 749.69 987.80 748.64
  Q 997.67 748.26 1006.52 748.02
  Q 1008.46 747.97 1009.76 746.68
  Q 1012.97 743.48 1016.32 740.65
  C 1024.49 733.76 1031.49 725.60 1039.48 718.46
  Q 1043.20 715.14 1046.79 711.77
  Q 1047.17 711.42 1047.69 711.34
  Q 1051.05 710.85 1054.75 710.88
  Q 1089.88 711.22 1122.45 710.82
  C 1125.15 710.78 1131.80 710.32 1133.75 712.26
  Q 1150.92 729.39 1169.00 746.30
  C 1170.86 748.04 1171.49 749.13 1174.49 749.10
  Q 1180.97 749.05 1187.50 749.04
  Q 1221.62 749.01 1254.25 749.00
  A 0.75 0.75 0.0 0 1 1255.00 749.75
  L 1254.99 824.75
  Q 1254.99 826.17 1253.59 825.91
  Q 1250.05 825.25 1246.67 824.10
  Q 1233.45 819.58 1219.18 814.24
  A 1.86 1.85 -79.8 0 1 1217.98 812.50
  L 1218.01 772.53
  Q 1218.01 770.79 1216.27 770.90
  L 1211.97 771.18
  Q 1210.01 771.31 1210.01 773.28
  L 1210.02 794.24
  A 0.76 0.76 0.0 0 1 1209.26 795.00
  L 1178.43 795.00
  A 2.75 2.72 72.2 0 1 1176.20 793.84
  Q 1175.26 792.51 1174.58 790.88
  Q 1171.50 783.54 1169.44 775.94
  C 1168.41 772.10 1164.48 768.74 1161.55 766.17
  C 1148.82 754.99 1136.40 743.70 1123.59 732.13
  A 4.82 4.80 66.4 0 0 1120.45 730.89
  Q 1112.00 730.75 1102.86 730.21
  C 1087.90 729.32 1073.23 729.79 1058.20 730.06
  Q 1054.86 730.12 1051.90 732.17
  Q 1048.14 734.79 1043.96 738.54
  Q 1025.62 754.98 1007.09 772.37
  Q 1006.07 773.34 1005.13 774.55
  C 1003.24 777.01 1002.90 782.02 1002.85 785.04
  C 1002.76 789.89 1001.97 794.49 1001.80 799.31
  C 1001.75 800.82 1000.86 802.10 1001.34 803.62
  Q 1001.59 804.39 1002.38 804.28
  Q 1004.15 804.05 1004.59 802.73
  Q 1008.23 791.60 1013.76 781.07
  Q 1015.61 777.55 1018.52 774.31
  Q 1021.34 771.17 1023.94 768.08
  Q 1030.41 760.35 1039.32 754.09
  C 1044.83 750.22 1050.11 746.02 1056.59 743.61
  Q 1061.12 741.93 1063.98 742.32
  C 1067.14 742.75 1070.37 741.88 1073.35 741.21
  Q 1075.14 740.81 1076.46 739.64
  Q 1076.84 739.31 1077.35 739.31
  L 1095.83 739.16
  Q 1096.51 739.16 1096.89 739.72
  L 1097.72 740.90
  Q 1098.02 741.34 1098.53 741.47
  Q 1103.09 742.67 1107.53 742.91
  Q 1108.01 742.94 1108.16 743.39
  Q 1108.28 743.76 1108.43 743.41
  Q 1109.15 741.77 1110.85 742.29
  Q 1119.29 744.90 1124.77 748.77
  Q 1127.36 750.60 1129.95 752.21
  Q 1133.08 754.16 1135.42 756.08
  Q 1146.54 765.17 1154.29 775.47
  Q 1163.53 787.76 1167.36 803.59
  A 2.03 2.02 75.5 0 0 1169.87 805.07
  L 1173.06 804.17
  A 1.21 1.21 0.0 0 1 1174.59 805.19
  Q 1175.82 814.96 1176.06 823.91
  A 1.08 1.07 -0.8 0 1 1174.98 825.01
  L 1170.99 825.00
  A 1.12 1.12 0.0 0 0 1169.87 826.21
  Q 1170.53 834.15 1168.94 840.85
  A 2.41 2.41 0.0 0 0 1170.57 843.71
  L 1174.27 844.86
  A 1.18 1.17 16.9 0 1 1175.05 846.31
  L 1170.53 861.76
  A 1.87 1.86 -65.5 0 1 1167.74 862.81
  L 1163.77 860.26
  A 1.35 1.35 0.0 0 0 1161.73 861.08
  Q 1160.33 866.98 1157.02 870.63
  A 0.56 0.56 0.0 0 0 1157.13 871.47
  L 1162.45 874.86
  A 0.81 0.80 -56.2 0 1 1162.67 876.00
  Q 1157.82 882.93 1152.00 888.49
  Q 1150.88 889.56 1149.81 888.44
  L 1147.00 885.50
  A 1.37 1.37 0.0 0 0 1145.00 885.52
  Q 1140.47 890.49 1134.82 893.74
  A 1.26 1.26 0.0 0 0 1134.38 895.50
  L 1137.43 900.41
  A 0.28 0.28 0.0 0 0 1137.83 900.49
  Q 1138.42 900.05 1139.14 900.05
  Q 1186.38 899.89 1236.59 900.10
  Q 1243.52 900.13 1245.13 906.72
  C 1246.71 913.16 1242.82 918.09 1236.41 918.08
  Q 702.78 917.84 192.86 918.10
  Q 188.87 918.10 186.12 917.51
  C 180.83 916.36 180.09 909.23 181.57 904.80
  C 182.74 901.26 185.89 900.03 189.34 900.03
  Q 243.44 899.91 296.40 900.12
  C 297.73 900.12 298.80 900.47 300.06 900.66
  A 1.25 1.24 21.3 0 0 301.28 900.13
  Q 302.87 897.80 303.77 895.29
  A 1.38 1.38 0.0 0 0 303.06 893.57
  C 299.65 891.98 295.45 889.35 293.69 886.00
  A 1.19 1.18 -36.1 0 0 291.81 885.71
  L 288.89 888.58
  Q 288.49 888.97 287.94 888.96
  Q 285.32 888.93 283.87 887.13
  Q 280.07 882.39 276.52 877.20
  C 274.54 874.32 277.56 873.45 279.28 872.16
  A 1.97 1.97 0.0 0 0 279.86 869.70
  L 275.34 860.72
  A 0.74 0.73 67.3 0 0 274.45 860.35
  Q 272.40 861.02 270.83 862.58
  A 1.44 1.44 0.0 0 1 268.51 862.17
  Q 265.40 855.60 264.01 847.61
  C 263.40 844.05 266.74 843.56 269.21 842.84
  A 1.30 1.30 0.0 0 0 270.09 841.20
  C 268.53 836.28 269.22 831.29 268.99 826.20
  A 1.32 1.32 0.0 0 0 267.67 824.94
  L 256.02 824.98
  Q 255.08 824.99 255.06 825.93
  Q 254.84 834.44 255.01 842.17
  C 255.09 845.74 253.63 848.95 250.49 850.77
  A 1.47 1.46 -55.3 0 1 249.53 850.95
  C 245.28 850.30 243.91 847.26 243.96 843.24
  Q 244.07 834.46 243.99 826.01
  A 1.02 1.02 0.0 0 0 242.97 825.00
  L 180.29 825.00
  A 0.29 0.29 0.0 0 1 180.00 824.71
  L 180.00 779.00
  A 1.00 1.00 0.0 0 1 181.00 778.00
  L 205.27 778.00
  A 0.77 0.76 90.0 0 0 206.03 777.23
  L 206.01 759.82
  Q 206.01 759.23 205.42 759.19
  Q 196.18 758.65 192.37 750.88
  Q 190.82 747.70 190.89 737.32
  Q 191.12 707.00 190.94 677.75
  C 190.90 671.27 190.57 664.47 191.30 658.25
  Q 191.60 655.70 193.17 652.69
  Q 197.30 644.77 202.67 637.78
  C 205.75 633.75 209.59 632.78 214.38 633.01
  C 218.25 633.20 221.60 631.06 223.39 627.68
  C 224.55 625.47 225.66 622.80 226.30 620.36
  Q 231.94 598.89 237.89 576.90
  C 238.82 573.46 239.26 570.38 239.00 566.92
  A 2.07 2.07 0.0 0 0 236.94 565.01
  L 217.69 565.03
  Q 216.66 565.03 217.00 564.07
  Q 217.16 563.62 217.56 563.32
  Q 217.99 563.01 218.34 562.61
  Q 225.59 554.39 232.61 545.89
  C 235.87 541.94 240.86 537.45 245.83 536.15
  Q 250.56 534.91 256.26 534.91
  Q 311.00 534.93 365.89 535.12
  Q 373.92 535.15 380.68 534.90
  Q 381.99 534.85 382.35 533.60
  Q 385.24 523.56 392.17 515.49
  Q 394.02 513.34 396.76 511.69
  Q 411.72 502.68 428.82 507.17
  Q 438.87 509.81 444.01 519.25
  Q 447.27 525.25 446.66 532.60
  C 446.13 538.98 446.02 545.54 446.01 551.86
  Q 445.95 597.18 446.05 638.78
  A 1.33 1.32 -3.5 0 0 447.54 640.09
  Q 449.48 639.84 450.97 640.48
  Q 451.42 640.67 451.38 641.15
  L 450.91 647.25
  A 0.69 0.68 -88.1 0 1 450.24 647.88
  L 429.12 648.29
  Q 428.18 648.31 428.18 647.37
  L 428.16 640.83
  Q 428.16 639.36 429.55 639.83
  Q 432.03 640.67 431.93 638.53
  C 431.69 632.99 432.01 627.76 432.01 622.47
  Q 432.00 576.73 431.97 531.05
  C 431.97 525.39 427.93 520.35 421.96 519.93
  Q 413.93 519.36 409.54 520.77
  C 403.35 522.76 397.60 528.93 397.93 535.87
  Q 397.96 536.49 398.57 536.62
  Q 410.59 539.29 414.59 550.30
  Q 416.11 554.47 416.07 567.02
  Q 415.91 631.63 416.02 696.68
  Q 416.03 698.55 414.43 697.59
  C 412.80 696.60 412.05 695.16 409.77 695.11
  Q 397.11 694.83 387.24 694.90
  Q 364.71 695.06 341.08 694.93
  Q 339.91 694.92 339.91 693.75
  Q 340.12 629.42 339.81 570.41
  Q 339.79 566.58 337.04 564.58
  Q 335.21 563.25 333.50 564.90
  C 330.57 567.71 331.42 570.41 331.13 573.97
  Q 331.00 575.57 331.00 577.13
  Q 331.03 635.33 331.01 694.01
  A 0.78 0.78 0.0 0 1 330.25 694.79
  C 322.69 694.99 314.53 694.23 307.59 695.14
  Q 283.07 698.34 267.03 716.00
  Q 255.09 729.16 247.37 748.97
  Q 247.22 749.34 246.87 749.54
  Q 245.75 750.19 244.42 750.17
  Q 234.45 750.02 224.69 750.02
  C 220.45 750.02 218.64 754.21 218.97 757.86
  A 1.11 1.10 -86.0 0 0 219.82 758.84
  Q 224.78 760.02 229.51 760.07
  Q 239.78 760.19 251.03 760.01
  Q 253.55 759.97 254.32 757.46
  Q 258.74 743.03 267.06 730.87
  Q 279.89 712.14 301.61 705.04
  Q 307.57 703.09 314.98 702.99
  Q 322.48 702.89 330.24 702.94
  Q 364.20 703.16 404.49 702.88
  Q 408.01 702.86 410.43 705.81
  Q 416.37 713.07 421.63 720.10
  Q 433.77 736.29 445.14 749.87
  C 447.50 752.69 449.58 755.82 452.00 758.61
  C 453.57 760.42 453.97 762.85 453.97 765.15
  Q 454.04 802.91 453.99 844.44
  Q 453.99 845.49 453.25 844.75
  Q 451.00 842.49 448.77 840.26
  C 445.74 837.23 443.18 833.56 439.96 830.25
  Q 439.07 829.33 438.36 828.12
  Q 437.10 825.97 437.05 828.46
  Q 436.95 833.06 436.96 837.29
  C 436.96 838.69 435.80 841.21 436.14 842.25
  Q 436.85 844.39 440.07 843.98
  Q 442.00 843.73 442.04 845.68
  C 442.09 847.48 441.62 849.30 441.33 851.07
  Q 440.40 856.52 437.97 862.28
  A 1.43 1.42 27.9 0 1 435.89 862.92
  L 431.59 860.15
  A 1.08 1.07 -62.5 0 0 430.01 860.65
  Q 427.89 865.97 425.10 869.83
  A 1.23 1.23 0.0 0 0 425.41 871.57
  L 429.58 874.37
  A 1.36 1.36 0.0 0 1 429.93 876.27
  Q 425.53 882.64 420.58 887.93
  C 417.92 890.78 416.48 888.05 415.33 885.86
  A 1.41 1.41 0.0 0 0 413.08 885.52
  Q 408.03 890.58 402.36 894.45
  A 0.71 0.70 59.9 0 0 402.13 895.34
  L 403.83 898.73
  A 2.26 2.25 -12.7 0 0 405.82 899.98
  Q 414.15 900.08 422.94 900.07
  Q 616.05 899.86 797.98 900.08
  C 798.36 900.08 798.78 900.21 799.07 900.45
  Q 799.61 900.92 799.92 900.27
  Z
  M 251.66 585.66
  Q 245.76 606.92 241.16 626.59
  Q 240.84 627.97 241.60 629.06
  Q 244.33 633.01 248.24 633.01
  Q 270.19 633.00 309.61 633.00
  C 313.32 633.00 317.03 633.32 317.56 628.33
  Q 317.96 624.49 317.98 620.73
  Q 318.08 595.08 317.95 572.26
  C 317.93 568.94 316.89 565.11 312.77 565.09
  Q 288.19 564.93 262.48 565.01
  C 258.20 565.02 255.55 570.22 254.72 573.74
  Q 253.30 579.71 251.66 585.66
  Z
  M 316.9121 650.8881
  A 3.73 3.73 0.0 0 0 313.2345 647.1064
  L 303.7755 646.9743
  A 3.73 3.73 0.0 0 0 299.9938 650.6519
  L 299.9879 651.0719
  A 3.73 3.73 0.0 0 0 303.6655 654.8536
  L 313.1245 654.9857
  A 3.73 3.73 0.0 0 0 316.9062 651.3081
  L 316.9121 650.8881
  Z
  M 374.46 741.36
  Q 377.21 741.61 380.03 742.63
  Q 386.53 744.98 390.01 747.28
  Q 394.84 750.47 399.61 753.52
  C 408.52 759.23 415.56 767.01 422.37 775.58
  Q 424.53 778.30 426.01 781.53
  Q 427.68 785.18 429.51 788.32
  C 431.60 791.89 432.70 795.71 434.41 799.48
  Q 435.03 800.85 434.91 799.36
  Q 434.66 796.18 434.01 793.08
  C 432.63 786.56 431.88 779.90 431.02 773.38
  C 430.60 770.21 429.59 767.94 427.67 765.60
  Q 415.50 750.73 400.37 734.03
  Q 397.65 731.03 394.79 728.18
  Q 392.31 725.73 388.56 725.78
  Q 361.20 726.09 334.22 725.89
  Q 320.66 725.80 315.07 727.03
  C 288.81 732.81 272.33 754.71 264.76 779.18
  Q 263.35 783.77 262.08 787.52
  Q 259.46 795.31 257.21 803.17
  A 0.71 0.71 0.0 0 0 257.93 804.08
  Q 264.41 803.68 270.18 804.62
  A 1.27 1.27 0.0 0 0 271.62 803.66
  C 273.41 795.95 276.56 788.99 279.89 781.84
  Q 281.64 778.09 284.29 774.91
  Q 288.23 770.21 292.16 765.61
  Q 299.50 757.04 310.31 751.11
  C 311.87 750.25 312.58 748.91 314.16 748.05
  Q 321.06 744.35 327.69 742.33
  Q 328.19 742.18 328.71 742.30
  Q 331.48 742.96 332.51 742.71
  Q 336.68 741.71 341.18 740.55
  Q 341.65 740.42 341.92 740.02
  Q 342.34 739.38 343.12 739.34
  Q 352.52 738.86 360.75 739.21
  Q 361.27 739.24 361.61 739.62
  Q 363.21 741.38 365.38 741.62
  Q 368.90 742.00 372.93 742.69
  Q 373.31 742.76 373.57 742.47
  Q 373.69 742.33 373.67 742.18
  Q 373.54 741.27 374.46 741.36
  Z
  M 827.90 742.07
  Q 827.68 742.54 829.10 742.80
  A 1.22 1.22 0.0 0 0 829.48 742.80
  Q 833.11 742.19 836.72 741.51
  C 838.99 741.09 840.78 739.40 843.07 739.34
  Q 851.54 739.10 859.82 739.33
  Q 860.62 739.35 861.12 739.95
  Q 861.42 740.32 861.89 740.42
  Q 866.62 741.40 870.77 742.55
  Q 872.38 743.00 873.58 741.81
  A 0.93 0.92 -57.6 0 1 874.50 741.60
  C 875.94 742.06 877.43 742.27 878.82 742.91
  C 882.31 744.52 885.86 746.03 889.12 748.16
  Q 893.14 750.80 897.39 753.60
  C 906.61 759.68 913.78 767.58 921.07 775.76
  Q 922.60 777.48 923.42 779.63
  Q 924.22 781.72 925.43 784.00
  Q 930.32 793.16 933.70 803.39
  Q 934.73 806.48 938.32 804.22
  Q 939.65 803.39 939.94 804.93
  Q 941.28 811.97 941.35 818.94
  Q 941.37 820.64 941.70 822.53
  Q 942.07 824.69 939.97 824.89
  Q 938.50 825.02 937.02 825.02
  Q 936.44 825.02 936.11 825.50
  Q 935.16 826.92 935.11 828.58
  C 935.01 832.38 935.56 837.38 934.15 841.07
  A 2.02 2.02 0.0 0 0 935.49 843.74
  L 938.55 844.61
  A 2.23 2.22 13.9 0 1 940.12 847.20
  Q 938.43 855.32 935.36 863.35
  A 0.74 0.74 0.0 0 1 934.18 863.64
  Q 931.93 861.65 928.56 860.33
  A 0.88 0.87 16.7 0 0 927.39 860.95
  Q 926.50 864.97 923.92 868.17
  Q 922.27 870.20 923.51 871.96
  Q 923.79 872.35 924.25 872.52
  L 926.95 873.54
  A 1.91 1.90 -61.9 0 1 927.83 876.45
  C 926.64 878.10 925.58 879.75 924.18 881.23
  Q 921.14 884.44 918.49 887.90
  C 916.27 890.80 914.22 887.87 913.32 885.88
  A 1.32 1.32 0.0 0 0 911.22 885.46
  Q 907.57 888.85 903.84 891.73
  Q 901.86 893.26 900.26 895.43
  A 0.91 0.90 -44.7 0 0 900.25 896.49
  L 902.65 899.94
  A 1.00 0.99 -18.6 0 0 903.50 900.36
  Q 911.25 899.97 919.74 899.97
  Q 985.27 899.95 1029.78 900.13
  Q 1031.03 900.14 1032.32 900.41
  Q 1032.81 900.52 1033.13 900.14
  Q 1034.42 898.63 1035.58 896.78
  Q 1036.67 895.03 1035.10 893.99
  C 1031.71 891.74 1028.43 888.44 1025.92 885.43
  A 1.24 1.23 -44.0 0 0 1024.06 885.40
  C 1022.58 887.03 1019.75 890.79 1017.52 888.02
  Q 1013.70 883.27 1009.50 877.81
  C 1007.07 874.65 1011.63 872.89 1013.70 871.63
  A 0.66 0.65 -29.3 0 0 1013.95 870.77
  L 1008.82 860.72
  A 0.58 0.58 0.0 0 0 1008.04 860.46
  L 1003.33 862.83
  A 1.32 1.32 0.0 0 1 1001.54 862.20
  Q 998.50 855.52 996.08 847.93
  A 2.15 2.15 0.0 0 1 997.19 845.35
  L 1002.25 842.93
  A 1.37 1.37 0.0 0 0 1002.89 841.09
  Q 1002.15 839.58 1002.12 837.91
  Q 1002.07 834.12 1001.60 830.59
  A 1.18 1.10 -43.1 0 1 1001.62 830.29
  L 1002.01 828.37
  A 1.14 1.13 73.5 0 0 1000.10 827.33
  C 995.00 832.39 991.07 838.02 985.33 843.02
  A 0.64 0.63 49.1 0 1 984.43 842.95
  Q 984.01 842.46 984.00 841.80
  Q 983.99 817.95 984.01 796.14
  Q 984.01 794.99 982.87 794.99
  L 940.23 795.03
  A 0.98 0.96 -6.3 0 1 939.28 794.28
  Q 937.40 786.31 935.94 778.00
  C 935.72 776.73 935.16 775.11 934.34 774.16
  Q 928.76 767.69 921.84 761.46
  Q 909.79 750.61 898.01 739.96
  Q 893.42 735.81 888.60 732.08
  A 5.09 5.04 -25.8 0 0 885.48 731.01
  Q 868.14 730.94 850.45 730.76
  C 840.01 730.66 829.29 731.22 818.69 730.93
  C 817.00 730.88 813.80 731.02 812.41 731.99
  C 806.33 736.23 800.43 741.70 795.12 746.66
  Q 780.83 760.02 770.13 769.50
  A 3.36 3.34 69.5 0 0 769.00 771.99
  C 768.96 775.69 768.95 779.30 768.12 782.93
  Q 765.96 792.31 763.51 801.97
  Q 763.07 803.69 764.83 803.91
  Q 766.52 804.13 768.33 804.08
  Q 769.84 804.05 769.96 802.54
  Q 770.20 799.23 771.28 795.98
  C 773.90 788.09 777.99 780.24 783.35 773.75
  Q 785.91 770.66 788.64 767.35
  Q 795.80 758.67 804.50 753.46
  Q 805.75 752.72 810.68 749.07
  C 815.38 745.59 821.94 743.37 827.55 741.68
  Q 828.16 741.49 827.90 742.07
  Z
  M 374.91 780.27
  Q 363.02 774.68 352.92 775.05
  Q 335.64 775.67 322.09 786.03
  Q 318.32 788.91 315.04 793.07
  Q 301.93 809.68 303.93 830.52
  C 305.62 848.07 316.14 862.98 332.01 870.31
  Q 351.05 879.11 370.24 871.81
  Q 393.40 862.99 400.89 839.57
  Q 404.57 828.05 402.63 815.73
  C 400.18 800.21 388.76 786.80 374.91 780.27
  Z
  M 872.12 779.90
  C 864.00 776.26 853.76 774.41 844.72 775.73
  C 832.64 777.50 821.18 782.97 813.66 792.28
  C 806.65 800.96 800.81 813.09 801.06 824.23
  C 801.50 844.30 811.68 862.04 830.16 870.40
  Q 845.80 877.48 861.35 873.90
  Q 880.85 869.40 892.41 853.00
  Q 900.60 841.38 901.23 825.70
  Q 902.06 805.14 887.20 790.48
  C 882.84 786.18 877.75 782.43 872.12 779.90
  Z
  M 1039.26 807.42
  Q 1033.11 823.04 1038.11 839.99
  C 1043.37 857.86 1059.72 871.47 1077.98 874.45
  C 1101.06 878.21 1123.97 864.47 1132.45 843.03
  Q 1136.06 833.89 1136.21 824.73
  C 1136.45 809.36 1127.85 793.91 1115.38 785.11
  C 1097.30 772.36 1075.71 772.12 1057.08 784.45
  Q 1045.20 792.31 1039.26 807.42
  Z
  M 215.63 807.92
  A 1.43 1.38 -32.0 0 0 216.20 808.04
  L 237.39 807.94
  Q 240.23 807.93 240.01 805.10
  L 239.87 803.34
  Q 239.63 800.27 236.55 800.17
  Q 226.28 799.84 216.13 800.09
  Q 212.25 800.18 211.93 803.99
  Q 211.74 806.25 215.63 807.92
  Z"
/>
<path  d="
  M 630.42 530.16
  Q 618.07 529.66 605.59 529.99
  C 597.74 530.20 590.80 530.01 583.25 529.88
  Q 580.56 529.84 578.71 531.72
  Q 574.49 536.04 569.96 540.51
  Q 565.29 545.13 560.57 539.93
  C 558.19 537.31 559.43 533.79 561.89 531.85
  Q 567.06 527.76 572.25 522.10
  C 575.09 519.00 578.06 517.95 582.00 517.96
  Q 629.59 518.04 680.88 517.98
  C 685.65 517.98 691.06 520.06 691.60 525.51
  Q 691.96 529.21 692.27 533.14
  A 2.01 2.01 0.0 0 0 694.27 535.00
  Q 921.34 535.01 1145.17 534.99
  Q 1151.65 534.99 1158.42 535.41
  Q 1165.48 535.85 1174.50 538.85
  Q 1193.16 545.04 1207.88 558.45
  Q 1211.86 562.08 1216.06 565.57
  Q 1216.53 565.97 1216.78 566.49
  Q 1217.26 567.48 1216.16 567.43
  Q 1207.86 567.04 1199.50 567.04
  Q 874.14 567.06 579.25 566.91
  Q 569.22 566.91 559.47 567.56
  Q 558.26 567.65 559.05 566.73
  C 570.57 553.45 583.91 542.69 599.93 536.67
  Q 603.29 535.40 606.51 535.28
  Q 617.29 534.86 630.20 534.73
  Q 630.26 534.73 630.29 534.67
  Q 630.94 532.98 630.54 530.26
  Q 630.52 530.16 630.42 530.16
  Z
  M 677.90 534.99
  A 1.15 1.15 0.0 0 0 679.05 533.83
  L 679.02 530.11
  A 1.15 1.15 0.0 0 0 677.71 528.98
  L 667.90 530.34
  A 1.15 1.15 0.0 0 0 666.91 531.53
  L 667.01 533.92
  A 1.15 1.15 0.0 0 0 668.16 535.02
  L 677.90 534.99
  Z"
/>
<path  d="
  M 537.04 607.62
  C 539.88 597.09 544.57 587.19 550.56 577.96
  A 2.16 2.16 0.0 0 1 552.37 576.98
  L 1222.50 577.01
  Q 1223.26 577.01 1223.66 577.62
  C 1230.31 587.80 1236.25 597.28 1239.17 609.15
  A 0.57 0.57 0.0 0 1 1238.63 609.86
  C 1221.88 610.21 1205.47 609.09 1188.50 609.08
  Q 854.01 608.74 557.51 609.25
  Q 551.93 609.26 545.35 609.37
  C 543.52 609.40 541.73 609.04 539.96 609.38
  C 539.27 609.52 538.64 609.32 537.98 609.17
  A 1.26 1.25 13.9 0 1 537.04 607.62
  Z"
/>
<path  d="
  M 450.76 682.94
  L 454.80 682.92
  A 1.14 1.14 0.0 0 1 455.95 684.05
  L 456.03 718.05
  A 0.79 0.78 -85.3 0 0 456.68 718.83
  C 459.87 719.35 462.93 719.20 465.88 717.65
  Q 474.96 712.87 474.98 702.71
  Q 475.05 655.77 474.97 604.65
  Q 474.96 596.35 475.92 588.79
  A 0.80 0.79 -88.2 0 1 476.64 588.11
  Q 482.79 587.62 489.03 587.96
  Q 489.63 587.99 489.75 588.57
  Q 490.09 590.24 490.09 592.13
  Q 489.93 646.58 490.01 700.71
  Q 490.04 715.59 478.95 726.32
  Q 472.38 732.67 463.28 733.89
  Q 445.81 736.25 435.22 722.20
  Q 429.25 714.28 423.62 707.75
  A 2.74 2.72 -65.4 0 1 422.95 705.93
  L 423.19 683.55
  A 0.51 0.51 0.0 0 1 423.70 683.05
  L 427.93 683.03
  A 0.95 0.95 0.0 0 0 428.88 682.07
  L 428.80 658.11
  A 1.09 1.09 0.0 0 1 429.89 657.01
  L 449.27 657.01
  A 0.77 0.77 0.0 0 1 450.04 657.77
  L 450.14 682.33
  A 0.62 0.61 -0.0 0 0 450.76 682.94
  Z"
/>
<path  d="
  M 533.63 658.98
  C 531.10 646.89 531.94 634.38 533.93 622.08
  Q 534.11 620.99 535.21 620.99
  L 1241.46 621.00
  Q 1241.81 621.00 1241.85 621.35
  Q 1242.39 626.51 1243.14 631.42
  C 1244.53 640.53 1243.60 650.13 1241.90 659.26
  A 0.91 0.89 4.9 0 1 1241.01 660.00
  L 534.90 660.01
  Q 533.85 660.01 533.63 658.98
  Z"
/>
<path  d="
  M 1053.02 694.48
  Q 1053.02 692.89 1051.43 692.96
  C 1042.65 693.37 1034.06 693.06 1025.55 693.05
  Q 985.73 692.99 945.57 693.04
  Q 940.59 693.04 936.05 693.38
  Q 932.66 693.64 931.30 696.57
  C 930.17 698.99 932.01 701.88 934.74 701.89
  Q 986.57 702.02 1039.77 702.03
  Q 1041.51 702.03 1040.28 703.26
  C 1029.66 713.95 1018.99 725.15 1007.42 735.19
  Q 1005.04 737.25 1001.87 737.23
  Q 971.71 737.03 942.66 737.22
  Q 939.75 737.24 936.70 736.62
  Q 936.20 736.52 935.82 736.17
  C 932.47 733.07 928.86 730.25 925.56 727.05
  Q 914.62 716.42 903.36 706.12
  Q 900.91 703.89 898.27 701.94
  A 4.54 4.52 -25.9 0 0 895.71 701.06
  Q 891.20 700.93 886.63 700.95
  Q 836.15 701.23 799.69 700.82
  C 797.41 700.79 795.02 700.83 793.23 702.42
  Q 781.33 712.95 771.85 723.63
  C 770.04 725.68 767.96 727.57 765.97 729.45
  C 763.53 731.75 760.69 733.55 758.70 736.25
  Q 758.40 736.66 757.91 736.78
  Q 756.72 737.10 755.47 737.10
  Q 728.49 737.12 701.75 737.05
  Q 653.60 736.91 600.75 737.12
  Q 594.93 737.14 588.72 736.95
  Q 586.00 736.87 583.48 735.53
  Q 576.64 731.91 571.38 727.71
  Q 558.07 717.08 549.13 702.37
  Q 548.86 701.93 549.37 701.93
  Q 579.90 701.99 608.72 701.93
  C 611.72 701.92 612.85 700.52 613.00 697.72
  Q 613.21 693.70 609.22 693.39
  Q 604.36 693.00 601.50 693.01
  Q 573.53 693.08 545.39 693.02
  A 1.55 1.54 77.9 0 1 543.98 692.10
  Q 539.60 682.21 536.38 671.53
  Q 536.21 670.98 536.79 670.98
  L 1238.43 670.97
  A 0.82 0.82 0.0 0 1 1239.22 671.99
  Q 1236.69 682.23 1232.11 691.41
  C 1231.52 692.60 1230.17 693.03 1228.80 693.03
  Q 1178.55 693.00 1128.45 693.07
  A 0.46 0.46 0.0 0 0 1127.99 693.53
  L 1127.98 700.25
  A 0.73 0.73 0.0 0 1 1127.25 700.97
  L 1053.90 701.03
  A 0.86 0.86 0.0 0 1 1053.04 700.17
  L 1053.02 694.48
  Z"
/>
<rect  x="-7.01" y="-5.53" transform="translate(507.03,704.51) rotate(0.4)" width="14.02" height="11.06" rx="0.95"/>
<path  d="
  M 1192.49 735.74
  Q 1189.93 737.05 1186.87 737.18
  Q 1180.61 737.43 1175.20 737.14
  C 1173.61 737.05 1172.04 736.59 1170.89 735.44
  Q 1154.53 719.13 1138.45 702.93
  Q 1138.04 702.52 1138.61 702.42
  Q 1141.64 701.88 1144.79 701.89
  Q 1183.97 702.00 1225.36 702.02
  A 0.70 0.70 0.0 0 1 1226.04 702.88
  Q 1225.97 703.20 1225.80 703.46
  Q 1215.45 719.63 1200.24 730.91
  Q 1196.45 733.72 1192.49 735.74
  Z"
/>
<path  d="
  M 518.74 796.38
  A 0.79 0.78 -15.8 0 0 518.07 796.01
  Q 508.25 796.00 498.25 796.00
  C 491.76 796.00 485.34 795.20 485.14 786.68
  Q 484.62 764.60 485.01 745.58
  C 485.14 739.24 486.14 735.23 491.02 731.50
  Q 494.15 729.11 497.44 727.07
  C 499.61 725.73 499.07 722.03 499.09 719.92
  A 0.97 0.96 0.3 0 1 500.06 718.97
  L 512.83 718.98
  Q 513.94 718.98 513.96 720.09
  L 514.06 725.92
  A 1.63 1.62 -69.0 0 0 514.57 727.08
  C 518.18 730.45 523.13 735.24 523.06 740.55
  Q 523.02 743.74 523.00 746.99
  A 0.89 0.88 3.2 0 0 523.80 747.88
  Q 526.75 748.18 529.75 747.87
  Q 531.03 747.74 531.03 749.03
  L 531.00 808.32
  A 0.71 0.71 0.0 0 1 530.29 809.03
  L 519.97 808.99
  A 0.96 0.96 0.0 0 1 519.02 808.03
  Q 519.01 802.79 518.99 797.26
  Q 518.99 796.79 518.74 796.38
  Z
  M 510.08 742.93
  A 5.99 5.99 0.0 0 0 504.09 736.94
  A 5.99 5.99 0.0 0 0 498.10 742.93
  A 5.99 5.99 0.0 0 0 504.09 748.92
  A 5.99 5.99 0.0 0 0 510.08 742.93
  Z"
/>
<path  d="
  M 719.00 796.72
  L 718.99 807.75
  Q 718.99 809.00 717.75 809.00
  L 710.23 809.00
  A 2.23 2.23 0.0 0 1 708.00 806.78
  Q 707.96 778.07 708.03 752.25
  Q 708.03 750.33 708.58 748.53
  Q 708.72 748.05 709.22 748.00
  L 713.99 747.51
  Q 714.45 747.47 714.72 747.08
  Q 715.17 746.42 715.99 746.36
  Q 721.13 745.95 725.56 745.27
  C 727.10 745.04 728.76 745.54 729.85 746.69
  C 732.18 749.14 734.47 749.68 735.18 753.57
  C 735.75 756.74 736.19 759.82 736.18 763.07
  Q 736.12 778.98 735.77 789.59
  C 735.68 792.39 733.31 794.37 730.89 795.39
  C 727.97 796.61 722.91 795.94 719.70 796.01
  Q 719.00 796.02 719.00 796.72
  Z"
/>
<path  d="
  M 476.22 745.99
  A 0.69 0.69 0.0 0 1 476.90 746.68
  L 476.80 803.95
  A 5.10 0.91 -89.9 0 1 475.88 809.05
  L 462.88 809.03
  A 5.10 0.91 -89.9 0 1 461.98 803.93
  L 462.08 746.66
  A 0.69 0.69 0.0 0 1 462.78 745.97
  L 476.22 745.99
  Z"
/>
<path  d="
  M 553.00 746.77
  L 552.96 839.19
  A 0.81 0.81 0.0 0 1 552.15 840.00
  L 538.80 840.00
  A 0.81 0.81 0.0 0 1 537.99 839.19
  L 538.02 747.01
  A 0.81 0.81 0.0 0 1 538.82 746.20
  L 552.18 745.95
  A 0.81 0.81 0.0 0 1 553.00 746.77
  Z"
/>
<path  d="
  M 576.14 753.18
  A 0.80 0.79 88.9 0 0 576.93 753.95
  L 660.85 754.02
  A 2.14 2.14 0.0 0 0 662.99 751.90
  L 663.03 746.94
  A 0.79 0.78 -89.6 0 1 663.81 746.16
  L 677.05 746.11
  A 0.94 0.94 0.0 0 1 678.00 747.05
  L 678.00 825.25
  A 0.75 0.75 0.0 0 1 677.25 826.00
  L 563.01 826.00
  A 2.00 1.99 90.0 0 1 561.02 824.00
  L 560.99 747.95
  A 1.05 1.04 -89.5 0 1 562.05 746.90
  L 575.00 747.04
  A 0.99 0.98 89.4 0 1 575.97 748.00
  L 576.14 753.18
  Z"
/>
<path  d="
  M 686.99 746.03
  L 700.46 746.22
  Q 700.94 746.23 700.94 746.71
  L 700.99 839.51
  A 0.50 0.49 -0.0 0 1 700.49 840.00
  L 688.25 840.00
  A 2.25 2.24 90.0 0 1 686.01 837.75
  L 685.99 747.01
  A 0.98 0.98 0.0 0 1 686.99 746.03
  Z"
/>
<path  d="
  M 394.16 824.77
  A 40.74 40.74 0.0 0 1 353.42 865.51
  A 40.74 40.74 0.0 0 1 312.68 824.77
  A 40.74 40.74 0.0 0 1 353.42 784.03
  A 40.74 40.74 0.0 0 1 394.16 824.77
  Z
  M 328.34 815.28
  Q 325.83 821.34 326.27 825.77
  C 328.04 843.61 345.41 855.93 362.96 849.70
  C 370.46 847.04 377.25 839.44 379.37 831.60
  Q 381.92 822.11 377.47 813.01
  C 373.90 805.72 365.59 798.93 357.06 797.92
  Q 350.24 797.10 345.46 798.76
  Q 333.47 802.92 328.34 815.28
  Z"
/>
<path  d="
  M 1067.93 788.40
  C 1078.78 782.97 1092.25 782.34 1103.27 788.02
  Q 1116.87 795.02 1123.20 808.07
  C 1127.85 817.66 1128.24 827.53 1124.83 837.71
  Q 1119.39 853.92 1103.37 861.72
  Q 1097.82 864.43 1091.77 865.03
  Q 1084.27 865.79 1078.73 864.93
  Q 1061.28 862.23 1051.16 846.00
  Q 1043.02 832.96 1045.94 816.54
  C 1048.11 804.28 1056.93 793.90 1067.93 788.40
  Z
  M 1112.99 826.78
  C 1114.86 810.56 1098.04 795.49 1082.23 798.01
  Q 1065.10 800.74 1060.15 816.96
  Q 1056.47 829.00 1063.14 838.85
  Q 1071.22 850.79 1084.99 851.33
  C 1099.83 851.91 1111.30 841.39 1112.99 826.78
  Z"
/>
<path  d="
  M 877.70 855.97
  C 863.70 867.94 842.44 869.29 827.80 858.11
  C 823.14 854.55 817.85 849.12 815.10 844.04
  C 804.36 824.22 811.80 801.03 830.44 789.73
  C 838.93 784.57 850.29 783.02 859.94 785.02
  C 869.10 786.92 876.48 792.01 882.82 799.24
  Q 893.38 811.29 891.76 828.90
  Q 890.26 845.24 877.70 855.97
  Z
  M 826.26 814.23
  Q 820.41 826.89 828.64 839.28
  Q 832.41 844.97 838.43 848.38
  Q 843.60 851.31 849.64 851.35
  Q 857.97 851.40 863.26 848.71
  Q 872.70 843.92 876.65 833.62
  C 880.21 824.33 876.89 813.25 870.07 806.32
  C 865.57 801.74 860.74 798.27 854.31 797.80
  Q 834.54 796.34 826.26 814.23
  Z"
/>
<ellipse  cx="0.00" cy="0.00" transform="translate(353.19,824.23) rotate(56.4)" rx="16.49" ry="16.09"/>
<ellipse  cx="0.00" cy="0.00" transform="translate(851.05,824.27) rotate(48.5)" rx="16.50" ry="16.19"/>
<ellipse  cx="0.00" cy="0.00" transform="translate(1086.09,824.19) rotate(36.4)" rx="16.70" ry="16.15"/>
</svg>
