<?xml version="1.0" encoding="UTF-8" standalone="no"?>
<!DOCTYPE svg PUBLIC "-//W3C//DTD SVG 1.1//EN" "http://www.w3.org/Graphics/SVG/1.1/DTD/svg11.dtd">
<svg xmlns="http://www.w3.org/2000/svg" version="1.1" viewBox="0.00 0.00 1400.00 1400.00">
<path  d="
  M 1006.56 380.54
  Q 992.13 413.51 968.01 441.02
  C 960.70 449.35 952.11 457.25 944.22 465.41
  Q 943.82 465.83 943.42 465.40
  Q 931.35 452.25 919.86 440.15
  Q 916.95 437.09 915.05 433.46
  Q 914.81 433.02 915.19 432.68
  Q 925.82 423.43 932.13 419.09
  Q 956.13 402.60 969.28 395.23
  Q 987.85 384.82 1007.49 376.25
  A 0.43 0.43 0.0 0 1 1008.07 376.79
  Q 1007.37 378.69 1006.56 380.54
  Z
  M 944.64 415.53
  Q 949.86 412.10 954.91 408.62
  Q 955.20 408.42 954.95 408.18
  L 954.76 407.99
  Q 954.73 407.96 954.70 407.98
  Q 952.26 409.56 949.74 411.03
  Q 947.25 412.48 944.79 414.08
  Q 940.20 417.08 936.05 420.03
  Q 932.15 422.80 928.20 425.73
  Q 922.97 429.61 919.35 433.16
  Q 916.56 435.89 919.95 433.97
  Q 924.13 431.60 927.65 427.91
  C 929.29 426.19 931.55 425.11 933.42 423.64
  Q 935.52 422.00 937.73 420.55
  Q 939.68 419.28 941.33 417.94
  Q 942.91 416.67 944.64 415.53
  Z"
/>
<path  d="
  M 877.69 437.74
  C 876.95 437.88 876.17 438.52 875.51 438.90
  Q 874.79 439.32 874.16 439.90
  Q 854.46 458.01 835.93 476.52
  C 825.72 486.73 814.81 496.67 804.44 507.06
  Q 783.76 527.78 763.98 547.54
  Q 754.68 556.84 746.26 568.22
  Q 745.53 569.20 744.69 568.31
  L 724.30 546.68
  Q 723.55 545.89 724.32 545.13
  C 729.62 539.90 734.82 534.50 740.18 529.53
  Q 752.09 518.47 759.36 511.07
  C 768.06 502.23 776.67 494.31 785.23 486.05
  Q 796.90 474.80 807.86 464.41
  C 814.60 458.02 821.32 450.98 828.24 444.56
  C 837.26 436.19 845.63 427.87 854.24 419.23
  Q 856.87 416.59 859.92 414.20
  Q 884.96 394.56 914.05 377.59
  Q 915.67 376.65 915.06 378.42
  Q 913.31 383.53 910.76 388.59
  Q 897.41 415.14 878.66 437.15
  Q 878.26 437.63 877.69 437.74
  Z
  M 813.3696 478.8302
  A 2.54 2.54 0.0 0 0 812.9568 475.2619
  L 812.0007 474.5041
  A 2.54 2.54 0.0 0 0 808.4324 474.9170
  L 807.5504 476.0298
  A 2.54 2.54 0.0 0 0 807.9632 479.5981
  L 808.9193 480.3559
  A 2.54 2.54 0.0 0 0 812.4876 479.9430
  L 813.3696 478.8302
  Z"
/>
<path  d="
  M 994.96 452.23
  L 994.78 452.05
  Q 994.69 451.96 994.59 452.02
  Q 986.00 457.56 977.73 463.12
  C 970.44 468.02 963.29 473.46 955.95 478.61
  Q 955.12 479.20 954.23 478.71
  Q 953.92 478.54 953.87 478.28
  Q 953.69 477.19 954.66 476.47
  Q 961.97 471.07 969.40 465.44
  Q 973.04 462.68 977.29 460.17
  Q 979.99 458.57 982.83 456.51
  Q 985.11 454.85 987.55 453.32
  Q 1016.72 435.13 1045.35 422.85
  A 0.26 0.25 -1.6 0 1 1045.69 423.17
  Q 1042.67 431.65 1038.91 438.94
  C 1028.54 459.08 1016.60 478.77 1002.24 495.15
  Q 994.60 503.86 986.21 512.43
  A 0.95 0.94 -42.5 0 1 984.80 512.37
  Q 983.40 510.67 982.04 509.19
  Q 971.26 497.46 960.49 485.89
  Q 958.12 483.35 956.02 480.47
  Q 955.68 480.00 956.26 479.99
  Q 957.08 479.97 957.63 479.58
  Q 963.84 475.11 970.78 470.04
  Q 982.17 461.71 994.92 452.67
  A 0.30 0.29 -40.1 0 0 994.96 452.23
  Z"
/>
<path  d="
  M 906.78 439.32
  C 909.83 442.13 913.12 444.56 916.02 447.58
  Q 926.62 458.59 936.80 469.67
  Q 937.88 470.84 936.72 471.95
  L 931.79 476.66
  Q 930.64 477.76 929.59 476.56
  Q 919.04 464.45 907.48 452.56
  Q 904.90 449.91 901.05 444.35
  Q 900.71 443.87 901.09 443.42
  L 905.27 438.53
  Q 905.73 437.99 906.16 438.55
  C 906.38 438.82 906.51 439.07 906.78 439.32
  Z
  M 904.33 444.50
  A 0.49 0.48 85.1 0 0 904.99 445.06
  Q 906.93 444.24 906.83 442.55
  A 0.66 0.66 0.0 0 0 905.75 442.08
  Q 904.68 442.98 904.33 444.50
  Z"
/>
<path  d="
  M 873.59 474.80
  C 872.47 473.65 871.28 472.28 870.32 470.92
  A 1.57 1.56 -38.0 0 1 870.58 468.83
  Q 879.74 460.89 888.03 453.34
  Q 890.04 451.52 891.98 449.47
  A 0.67 0.66 43.5 0 1 892.93 449.45
  Q 908.91 464.82 923.77 481.49
  A 1.06 1.06 0.0 0 1 923.72 482.96
  C 916.39 490.06 908.35 496.60 901.63 504.19
  Q 901.28 504.59 900.99 504.14
  Q 900.27 503.00 899.52 502.19
  Q 888.45 490.14 873.59 474.80
  Z
  M 882.24 464.34
  Q 885.59 460.80 888.61 458.39
  C 890.78 456.66 892.03 454.56 893.78 452.53
  A 0.30 0.30 0.0 0 0 893.73 452.09
  L 893.46 451.90
  A 0.78 0.78 0.0 0 0 892.45 452.01
  Q 886.22 458.54 883.16 461.00
  Q 877.81 465.29 872.29 471.03
  Q 871.98 471.35 872.27 471.69
  Q 872.45 471.91 872.75 471.89
  Q 873.06 471.86 873.35 471.68
  Q 878.07 468.74 882.24 464.34
  Z"
/>
<path  d="
  M 879.80 522.30
  L 849.20 490.15
  A 1.03 1.03 0.0 0 1 849.24 488.69
  L 862.55 476.13
  A 1.03 1.03 0.0 0 1 864.01 476.17
  L 894.24 508.01
  A 1.03 1.03 0.0 0 1 894.22 509.45
  L 881.28 522.32
  A 1.03 1.03 0.0 0 1 879.80 522.30
  Z
  M 864.91 478.46
  L 864.16 477.69
  A 0.25 0.25 0.0 0 0 863.80 477.68
  L 855.90 485.39
  A 7.11 0.61 -44.3 0 0 851.24 490.80
  L 851.49 491.05
  A 7.11 0.61 -44.3 0 0 857.01 486.53
  L 864.91 478.81
  A 0.25 0.25 0.0 0 0 864.91 478.46
  Z"
/>
<path  d="
  M 945.75 483.49
  Q 946.09 483.30 946.48 483.32
  Q 946.76 483.34 947.06 483.63
  C 957.88 494.20 968.35 505.30 978.68 515.99
  Q 979.41 516.75 980.62 517.49
  A 0.32 0.32 0.0 0 1 980.68 517.99
  L 973.87 524.64
  Q 973.23 525.26 972.63 524.60
  Q 960.05 510.71 947.03 497.19
  Q 943.22 493.24 940.30 489.15
  Q 939.94 488.64 940.50 488.35
  Q 943.36 486.87 944.30 483.91
  Q 944.46 483.42 944.97 483.44
  Q 945.36 483.46 945.75 483.49
  Z
  M 946.5901 486.9980
  A 1.84 0.62 -44.6 0 0 944.8447 487.8485
  A 1.84 0.62 -44.6 0 0 943.9699 489.5820
  A 1.84 0.62 -44.6 0 0 945.7153 488.7315
  A 1.84 0.62 -44.6 0 0 946.5901 486.9980
  Z"
/>
<path  d="
  M 911.03 514.62
  A 0.91 0.90 47.1 0 1 911.07 513.44
  Q 914.14 510.19 917.38 507.35
  Q 925.54 500.19 932.24 494.47
  Q 932.65 494.12 933.04 494.50
  C 945.64 506.74 956.10 518.24 967.52 530.06
  A 0.75 0.74 46.3 0 1 967.50 531.13
  L 945.88 551.43
  Q 945.43 551.85 945.17 551.30
  C 944.92 550.77 944.47 550.07 944.07 549.67
  Q 933.73 539.50 921.74 526.82
  Q 915.83 520.56 911.03 514.62
  Z
  M 929.79 500.80
  Q 931.89 498.80 933.70 496.66
  Q 933.87 496.45 933.66 496.28
  L 933.45 496.12
  Q 933.36 496.05 933.28 496.12
  L 912.97 514.91
  Q 912.81 515.06 912.87 515.27
  Q 912.94 515.49 913.11 515.59
  Q 913.51 515.81 913.85 515.50
  C 915.21 514.29 916.78 513.73 918.06 512.41
  Q 923.97 506.35 929.79 500.80
  Z"
/>
<path  d="
  M 743.58 768.62
  L 762.65 749.64
  A 0.97 0.95 -32.1 0 0 762.89 748.64
  Q 762.26 746.80 761.00 745.55
  Q 756.50 741.11 752.37 735.73
  A 1.67 1.66 -41.5 0 0 749.85 735.58
  L 743.13 742.44
  Q 742.43 743.16 742.32 742.15
  C 742.22 741.13 741.60 740.41 740.92 739.69
  Q 722.44 720.09 707.14 704.40
  C 706.11 703.34 705.45 702.11 704.42 701.05
  A 0.68 0.68 0.0 0 1 704.53 700.01
  Q 708.10 697.59 710.84 695.05
  C 724.68 682.23 739.22 669.36 753.22 656.34
  Q 764.41 645.93 779.23 632.73
  Q 795.91 617.89 811.72 603.59
  Q 819.39 596.64 826.46 590.07
  C 833.27 583.74 839.94 577.97 846.88 571.68
  C 858.35 561.29 871.07 549.82 883.66 537.96
  A 0.57 0.56 44.6 0 1 884.43 537.96
  Q 893.13 546.26 900.48 553.98
  Q 911.29 565.34 920.55 575.20
  Q 920.99 575.67 920.52 576.12
  Q 890.68 604.40 856.57 636.56
  Q 838.51 653.59 813.75 676.62
  C 801.49 688.02 789.40 700.05 777.17 711.24
  Q 775.13 713.11 773.30 715.36
  A 1.16 1.15 -50.9 0 0 773.46 716.97
  Q 775.00 718.26 776.30 719.94
  Q 779.39 723.95 782.76 727.34
  A 1.75 1.75 0.0 0 0 785.27 727.31
  Q 793.95 718.17 802.13 710.72
  Q 809.63 703.89 816.56 696.94
  Q 824.41 689.06 833.75 680.24
  Q 854.43 660.70 876.93 639.15
  Q 891.64 625.06 909.18 608.91
  Q 913.69 604.75 920.00 598.59
  C 927.28 591.47 935.13 584.64 942.31 577.21
  C 949.39 569.89 957.17 563.49 964.18 556.32
  Q 976.99 543.22 989.33 532.71
  A 0.85 0.83 -61.6 0 1 989.97 532.51
  Q 990.51 532.57 990.71 532.11
  Q 990.89 531.67 991.29 531.40
  C 994.19 529.43 997.05 527.05 999.96 525.18
  Q 1023.30 510.22 1049.03 496.99
  A 0.66 0.66 0.0 0 1 1049.94 497.34
  Q 1050.08 497.73 1049.87 498.17
  Q 1036.27 525.99 1016.58 550.57
  Q 1015.15 552.35 1013.26 553.51
  Q 1011.41 554.66 1009.85 556.13
  Q 959.03 604.33 907.25 653.47
  Q 902.05 658.41 896.69 663.83
  C 892.08 668.48 887.07 672.85 882.45 677.36
  Q 873.85 685.75 865.41 693.66
  C 857.16 701.40 849.73 708.91 841.98 716.23
  Q 830.91 726.71 819.83 737.19
  C 809.14 747.31 799.55 756.83 787.93 767.67
  Q 783.37 771.93 778.93 776.66
  A 3.48 3.46 -23.7 0 0 778.00 779.02
  L 778.00 826.50
  Q 778.00 827.99 779.50 827.99
  L 825.25 828.02
  A 0.74 0.74 0.0 0 1 825.99 828.76
  L 826.05 840.83
  A 1.13 1.13 0.0 0 1 824.92 841.96
  L 677.00 842.02
  A 1.02 1.02 0.0 0 1 675.98 841.00
  L 676.04 827.03
  A 1.05 1.04 0.0 0 1 677.09 825.99
  L 714.94 825.99
  Q 717.00 825.99 717.01 823.93
  L 717.02 819.77
  Q 717.02 818.03 715.27 818.03
  L 693.77 818.02
  Q 692.54 818.02 693.40 817.13
  C 700.49 809.83 707.73 802.60 715.44 795.67
  Q 721.59 790.14 727.54 783.95
  A 1.50 1.50 0.0 0 0 727.46 781.79
  Q 720.49 775.52 715.05 768.62
  A 1.42 1.42 0.0 0 0 712.90 768.52
  Q 704.03 777.85 696.46 784.97
  Q 670.64 809.23 636.73 840.59
  Q 635.72 841.51 634.38 841.77
  Q 632.85 842.06 631.19 842.05
  Q 585.94 841.92 542.99 842.05
  A 0.21 0.21 0.0 0 1 542.84 841.69
  Q 549.17 835.12 553.66 831.07
  Q 575.18 811.61 599.39 790.02
  C 603.39 786.46 606.89 782.48 610.90 779.08
  C 614.82 775.77 618.35 772.13 622.04 768.52
  Q 623.18 767.41 624.16 768.66
  Q 625.01 769.75 626.22 770.54
  Q 626.72 770.88 627.13 770.43
  Q 628.10 769.34 629.29 768.49
  Q 630.42 767.68 631.52 766.67
  Q 656.23 744.00 684.04 718.04
  Q 689.43 713.01 695.83 706.82
  Q 696.93 705.77 698.06 706.78
  Q 701.41 709.78 704.58 713.12
  C 715.84 725.00 726.79 735.68 736.69 747.27
  A 0.73 0.72 -42.1 0 1 736.63 748.27
  L 729.69 754.76
  A 0.98 0.98 0.0 0 0 729.66 756.17
  L 742.08 768.62
  Q 742.83 769.36 743.58 768.62
  Z
  M 938.1874 603.3081
  A 3.29 3.11 104.3 0 0 942.0136 600.8882
  A 3.29 3.11 104.3 0 0 939.8126 596.9319
  A 3.29 3.11 104.3 0 0 935.9864 599.3518
  A 3.29 3.11 104.3 0 0 938.1874 603.3081
  Z
  M 928.58 611.11
  L 924.66 611.01
  A 1.58 1.58 0.0 0 0 923.04 612.55
  L 923.03 613.06
  A 4.99 3.42 -88.5 0 0 926.32 618.14
  L 926.56 618.14
  A 4.99 3.42 -88.5 0 0 930.11 613.24
  L 930.12 612.73
  A 1.58 1.58 0.0 0 0 928.58 611.11
  Z
  M 742.92 811.93
  Q 743.00 811.73 742.96 811.50
  Q 742.86 810.83 742.49 811.40
  Q 740.62 814.31 738.17 816.29
  Q 731.99 821.28 726.20 827.27
  A 0.45 0.45 0.0 0 0 726.52 828.03
  L 742.69 828.10
  Q 744.37 828.11 743.73 826.55
  Q 743.01 824.85 743.04 822.95
  Q 743.10 817.73 742.88 812.14
  Q 742.88 812.04 742.92 811.93
  Z"
/>
<path  d="
  M 873.14 527.34
  Q 868.55 532.20 864.98 535.49
  Q 838.64 559.75 809.44 586.44
  Q 805.51 590.03 801.59 593.60
  Q 763.80 627.87 714.67 672.14
  Q 704.14 681.64 695.74 689.66
  A 0.44 0.43 -43.5 0 1 695.14 689.65
  Q 681.17 676.07 668.46 662.14
  A 0.87 0.87 0.0 0 1 668.47 660.95
  Q 674.51 654.68 681.62 648.38
  Q 691.92 639.26 705.85 626.40
  Q 768.13 568.90 831.74 510.54
  Q 837.91 504.88 845.07 497.43
  A 0.59 0.59 0.0 0 1 846.01 497.54
  Q 846.80 498.89 847.81 499.97
  Q 859.90 512.84 873.14 526.86
  Q 873.37 527.10 873.14 527.34
  Z"
/>
<path  d="
  M 893.09 534.24
  L 893.29 534.52
  Q 893.50 534.81 893.75 534.56
  Q 898.75 529.75 903.66 524.98
  Q 904.36 524.29 905.26 523.90
  Q 906.15 523.51 906.07 522.59
  Q 906.00 521.76 906.65 522.29
  Q 909.14 524.31 910.95 526.29
  Q 920.87 537.18 931.13 547.64
  C 934.09 550.65 936.66 553.99 939.58 556.99
  A 0.78 0.77 49.0 0 1 939.50 558.14
  Q 934.28 562.24 930.11 566.41
  C 928.97 567.55 927.31 568.25 926.56 569.67
  Q 926.26 570.22 925.83 569.77
  Q 911.12 554.13 896.32 538.60
  Q 895.57 537.82 894.96 536.96
  Q 894.64 536.51 894.16 536.22
  Q 893.15 535.60 892.76 534.52
  Q 892.57 533.97 892.05 533.69
  Q 891.56 533.44 891.25 532.99
  Q 890.90 532.50 891.33 532.07
  C 893.32 530.09 895.14 528.09 897.40 526.41
  Q 900.90 523.79 903.91 520.46
  A 0.67 0.67 0.0 0 1 904.98 520.57
  Q 905.34 521.17 904.85 521.65
  Q 899.05 527.50 893.15 533.44
  A 0.61 0.60 -41.2 0 0 893.09 534.24
  Z"
/>
<path  d="
  M 657.03 651.10
  A 0.41 0.40 50.0 0 1 656.49 651.05
  L 635.12 628.35
  Q 634.76 627.96 635.14 627.61
  L 717.09 551.37
  A 0.66 0.65 45.3 0 1 717.99 551.38
  Q 729.47 562.56 739.88 574.52
  A 0.81 0.80 48.9 0 1 739.81 575.64
  Q 718.84 594.65 697.81 614.31
  C 686.25 625.13 674.26 635.59 662.11 646.84
  Q 659.86 648.92 657.03 651.10
  Z"
/>
<path  d="
  M 608.11 769.33
  L 609.91 772.73
  A 1.74 1.72 -36.9 0 1 609.61 774.75
  Q 605.75 778.69 601.63 782.23
  C 597.75 785.57 594.06 789.34 590.29 792.72
  Q 559.23 820.62 540.98 837.44
  Q 539.29 838.99 537.76 840.90
  Q 537.36 841.40 536.72 841.59
  Q 536.04 841.80 535.37 841.83
  Q 525.01 842.26 513.52 841.90
  A 0.71 0.71 0.0 0 1 512.84 841.08
  Q 512.94 840.52 513.36 840.10
  Q 515.91 837.61 518.46 835.15
  Q 518.95 834.68 518.51 834.16
  L 510.33 824.55
  A 1.03 1.02 44.8 0 0 508.76 824.55
  C 505.67 828.24 501.83 830.95 498.46 834.16
  Q 496.14 836.37 493.77 838.83
  Q 490.79 841.93 489.03 842.51
  C 485.99 843.51 484.17 841.60 481.99 839.49
  Q 475.65 833.36 469.43 826.92
  C 468.14 825.58 467.46 824.25 465.75 823.23
  Q 464.39 822.41 465.57 821.34
  C 466.01 820.94 466.61 820.77 467.09 820.28
  C 473.66 813.63 480.86 807.73 487.47 801.09
  A 0.87 0.86 43.4 0 0 487.43 799.84
  Q 482.77 795.62 479.99 791.62
  Q 478.34 789.24 476.29 791.28
  L 457.10 810.39
  Q 456.07 811.41 455.09 810.35
  L 432.94 786.38
  A 0.57 0.57 0.0 0 1 432.98 785.56
  Q 442.33 777.42 451.00 769.51
  Q 452.78 767.89 454.47 765.98
  Q 455.84 764.43 454.37 762.89
  Q 449.95 758.28 445.29 753.99
  A 0.69 0.69 0.0 0 1 445.31 752.96
  Q 449.20 749.67 452.68 746.42
  Q 469.22 730.97 485.47 715.18
  C 495.22 705.71 504.99 696.67 514.99 686.53
  C 520.06 681.38 525.83 676.50 531.10 671.27
  Q 542.44 660.03 553.89 649.34
  C 559.89 643.74 565.51 637.87 571.45 632.12
  Q 571.98 631.61 572.52 632.09
  Q 576.29 635.45 579.10 638.57
  Q 583.66 643.64 588.60 649.30
  A 0.52 0.52 0.0 0 1 588.57 650.02
  L 579.27 659.17
  A 1.07 1.07 0.0 0 0 579.26 660.69
  L 583.65 665.12
  Q 584.44 665.92 583.70 666.77
  Q 582.27 668.39 580.92 669.70
  Q 567.84 682.37 541.20 707.20
  Q 524.84 722.45 508.87 736.76
  Q 501.17 743.67 494.15 750.34
  Q 480.54 763.28 465.72 777.64
  A 1.14 1.11 68.8 0 0 465.37 778.46
  Q 465.37 779.41 465.92 779.72
  Q 467.43 780.56 468.54 779.62
  Q 472.07 776.64 475.48 773.50
  Q 528.75 724.48 585.81 671.24
  Q 598.40 659.49 608.36 648.68
  Q 610.06 646.84 613.69 646.94
  C 616.57 647.02 616.73 644.71 618.36 643.12
  Q 623.33 638.27 628.05 633.49
  A 0.73 0.72 45.3 0 1 629.09 633.50
  Q 639.80 644.57 649.74 656.40
  Q 650.37 657.15 649.68 657.86
  Q 645.58 662.09 641.68 665.67
  Q 623.95 681.98 605.75 698.62
  Q 598.74 705.03 591.14 712.29
  C 580.82 722.14 569.60 731.87 558.63 742.81
  C 558.04 743.39 557.37 743.83 556.64 744.22
  Q 556.16 744.48 556.45 744.94
  C 560.16 750.67 566.22 755.28 570.87 760.40
  Q 579.92 770.37 589.79 780.41
  Q 590.90 781.54 592.09 780.49
  Q 593.96 778.85 595.35 776.60
  Q 596.09 775.41 595.06 774.46
  C 592.94 772.49 590.75 770.48 588.82 768.35
  Q 580.15 758.73 571.31 749.74
  A 0.56 0.56 0.0 0 1 571.36 748.90
  Q 574.99 746.04 578.13 743.12
  C 601.75 721.16 625.43 700.02 649.07 678.07
  Q 654.82 672.72 660.10 667.54
  Q 661.45 666.22 662.74 667.59
  L 687.85 694.28
  A 1.10 1.10 0.0 0 1 687.83 695.80
  Q 683.83 699.89 679.50 703.75
  C 663.40 718.13 647.49 732.57 631.45 746.89
  Q 621.15 756.07 611.18 766.45
  C 610.34 767.31 609.19 767.74 608.28 768.48
  Q 607.85 768.84 608.11 769.33
  Z
  M 611.80 658.73
  Q 611.43 658.24 610.98 658.66
  L 489.55 772.05
  A 0.90 0.89 -46.4 0 0 489.58 773.39
  L 491.92 775.36
  Q 492.54 775.88 493.11 775.31
  C 500.76 767.80 509.05 760.74 516.82 753.40
  Q 545.37 726.39 574.03 699.43
  C 585.22 688.91 596.82 678.42 608.17 667.51
  C 609.86 665.90 611.71 664.61 613.42 663.05
  Q 614.43 662.13 613.59 661.05
  L 611.80 658.73
  Z
  M 559.51 758.85
  Q 558.62 757.79 557.60 757.19
  A 1.15 1.15 0.0 0 0 556.23 757.34
  L 497.59 811.93
  Q 496.87 812.60 497.51 813.35
  Q 498.45 814.45 500.58 813.62
  A 2.58 2.51 -76.0 0 0 501.29 813.18
  Q 531.15 787.07 539.14 779.11
  Q 545.81 772.47 553.08 765.70
  Q 554.72 764.18 556.09 762.60
  Q 557.65 760.81 559.42 759.55
  Q 559.85 759.25 559.51 758.85
  Z
  M 524.27 809.77
  A 5.36 5.20 9.6 0 0 525.42 808.98
  Q 538.16 797.58 550.91 785.69
  Q 553.96 782.85 556.41 779.92
  Q 557.76 778.31 556.40 776.70
  A 1.62 1.61 -38.3 0 0 554.21 776.45
  Q 552.24 777.91 550.48 779.48
  Q 535.96 792.53 524.80 803.56
  Q 523.16 805.19 521.66 806.94
  Q 520.48 808.32 521.87 809.50
  Q 522.97 810.42 524.27 809.77
  Z"
/>
<rect  x="943.01" y="799.00" width="166.06" height="11.00" rx="1.14"/>
<path  d="
  M 859.38 1005.69
  Q 860.48 1005.51 859.46 1005.07
  C 852.84 1002.17 846.76 994.21 843.05 987.93
  Q 839.69 982.24 838.14 974.38
  Q 834.24 954.62 844.54 938.31
  Q 845.09 937.45 845.80 936.73
  Q 846.14 936.38 846.23 935.90
  Q 846.42 934.92 847.26 934.28
  Q 847.54 934.07 847.65 933.75
  Q 847.69 933.61 847.65 933.47
  Q 847.56 933.15 847.30 933.36
  C 842.87 936.93 838.24 940.57 834.11 944.41
  Q 823.27 954.47 811.73 964.66
  Q 811.29 965.05 810.72 965.14
  Q 810.00 965.25 810.00 964.52
  L 810.00 929.12
  A 1.12 1.12 0.0 0 0 808.87 928.00
  L 803.00 928.01
  A 1.00 0.99 0.0 0 0 802.00 929.00
  L 802.00 964.30
  Q 802.00 967.00 799.30 967.00
  Q 727.90 966.98 655.18 967.03
  C 650.19 967.03 645.31 966.50 640.38 965.88
  A 0.44 0.43 3.8 0 1 640.00 965.45
  L 639.99 929.21
  Q 639.99 927.93 638.71 927.96
  L 633.95 928.07
  Q 632.01 928.11 632.01 930.05
  L 632.02 964.50
  A 0.64 0.64 0.0 0 1 630.99 965.01
  Q 627.71 962.55 624.69 959.77
  Q 612.50 948.55 600.36 938.03
  Q 598.63 936.53 596.48 935.30
  Q 595.75 934.89 596.24 935.58
  Q 601.83 943.53 603.75 952.81
  C 604.38 955.82 604.12 958.73 604.48 961.72
  Q 604.71 963.62 604.58 965.58
  Q 603.91 975.22 601.35 981.94
  Q 595.58 997.06 581.74 1005.25
  Q 580.41 1006.03 581.95 1006.03
  Q 621.39 1005.97 660.25 1006.02
  C 663.49 1006.02 668.59 1008.82 667.93 1012.76
  C 667.32 1016.32 664.49 1017.99 661.15 1017.99
  Q 458.18 1018.02 265.54 1017.99
  C 260.66 1017.99 257.65 1013.70 259.71 1009.20
  C 261.09 1006.18 264.55 1005.97 267.47 1005.97
  Q 290.60 1005.97 313.33 1006.12
  Q 316.76 1006.14 319.72 1005.63
  A 0.18 0.18 0.0 0 0 319.78 1005.29
  Q 310.87 1000.48 305.26 992.02
  C 301.07 985.70 297.72 977.86 296.88 970.15
  A 1.32 1.31 -3.4 0 0 295.56 968.98
  Q 283.33 969.06 271.69 969.05
  Q 269.77 969.05 268.52 967.91
  C 265.39 965.04 262.37 962.16 258.99 959.50
  Q 247.00 950.04 235.80 940.21
  A 2.32 2.28 21.0 0 1 235.02 938.49
  L 234.92 912.53
  A 0.65 0.65 0.0 0 1 235.58 911.88
  Q 246.51 912.07 256.75 912.07
  Q 399.68 912.00 554.00 912.17
  C 579.41 912.20 605.81 911.95 633.50 911.97
  Q 705.82 912.02 771.75 912.09
  C 805.02 912.12 839.12 912.03 874.50 912.12
  C 887.64 912.15 900.67 911.90 914.17 912.04
  Q 923.61 912.13 933.84 912.13
  Q 1014.84 912.14 1095.50 912.00
  Q 1138.41 911.92 1186.75 912.06
  Q 1194.84 912.09 1204.79 910.92
  Q 1206.10 910.76 1206.07 909.44
  L 1205.98 905.90
  Q 1205.94 903.96 1204.04 904.39
  Q 1200.58 905.16 1195.62 905.02
  C 1177.06 904.49 1158.02 903.47 1139.84 904.41
  C 1138.35 904.49 1136.96 904.12 1135.50 904.14
  C 1119.61 904.42 1103.76 904.99 1088.16 905.00
  Q 1001.49 905.04 916.97 904.95
  A 0.98 0.98 0.0 0 1 915.99 903.97
  L 916.01 819.98
  Q 916.01 818.97 917.02 818.97
  L 1164.10 819.01
  A 0.57 0.56 -10.6 0 0 1164.63 818.24
  L 1162.21 812.00
  A 0.68 0.68 0.0 0 1 1162.83 811.08
  L 1172.49 810.94
  Q 1173.55 810.92 1174.01 811.88
  Q 1180.50 825.25 1187.37 838.28
  Q 1195.84 854.32 1207.12 877.18
  C 1210.13 883.29 1214.68 890.87 1218.00 898.13
  A 1.43 1.43 0.0 0 0 1219.30 898.97
  L 1226.30 899.02
  A 0.76 0.75 89.2 0 1 1227.05 899.76
  Q 1227.38 911.66 1227.14 924.01
  Q 1227.08 926.93 1224.36 929.26
  C 1218.11 934.62 1211.78 940.12 1205.73 945.97
  Q 1193.22 958.05 1183.01 967.26
  Q 1181.05 969.02 1178.34 969.01
  Q 1164.29 968.95 1151.16 969.04
  Q 1149.20 969.05 1149.08 971.01
  Q 1148.51 980.88 1143.50 988.77
  C 1141.00 992.71 1137.96 996.97 1134.34 1000.01
  Q 1130.56 1003.19 1126.39 1005.32
  Q 1125.70 1005.67 1126.46 1005.80
  Q 1127.95 1006.06 1129.58 1006.05
  Q 1171.04 1005.98 1213.20 1005.98
  C 1216.97 1005.98 1221.66 1006.17 1223.96 1009.38
  C 1227.48 1014.29 1222.66 1018.01 1217.95 1018.01
  Q 990.59 1018.01 763.48 1017.96
  C 759.81 1017.96 756.42 1015.63 757.03 1011.51
  C 757.64 1007.39 761.86 1006.02 765.43 1006.01
  Q 811.17 1005.93 854.15 1006.10
  Q 856.73 1006.11 859.38 1005.69
  Z
  M 1082.99 832.16
  A 1.24 1.24 0.0 0 0 1081.75 830.92
  L 1074.23 830.92
  A 1.24 1.24 0.0 0 0 1072.99 832.16
  L 1072.99 857.78
  A 1.24 1.24 0.0 0 0 1074.23 859.02
  L 1081.75 859.02
  A 1.24 1.24 0.0 0 0 1082.99 857.78
  L 1082.99 832.16
  Z
  M 1141.00 832.27
  A 1.27 1.27 0.0 0 0 1139.73 831.00
  L 1107.31 830.90
  A 1.27 1.27 0.0 0 0 1106.11 832.59
  L 1119.82 871.28
  A 1.27 1.27 0.0 0 0 1121.02 872.13
  L 1139.73 872.09
  A 1.27 1.27 0.0 0 0 1141.00 870.82
  L 1141.00 832.27
  Z
  M 1152.00 870.58
  A 1.40 1.40 0.0 0 0 1153.40 871.98
  L 1187.64 872.07
  A 1.40 1.40 0.0 0 0 1188.88 870.02
  L 1168.81 831.71
  A 1.40 1.40 0.0 0 0 1167.57 830.96
  L 1153.40 830.96
  A 1.40 1.40 0.0 0 0 1152.00 832.36
  L 1152.00 870.58
  Z
  M 969.96 831.84
  L 969.85 840.58
  A 0.25 0.25 0.0 0 0 970.10 840.83
  L 1010.59 841.32
  A 2.45 1.49 0.7 0 0 1013.06 839.86
  L 1013.14 833.60
  A 2.45 1.49 0.7 0 0 1010.71 832.08
  L 970.21 831.59
  A 0.25 0.25 0.0 0 0 969.96 831.84
  Z
  M 946.56 891.89
  A 0.54 0.54 0.0 0 0 947.10 891.33
  L 946.95 885.60
  A 0.54 0.54 0.0 0 0 946.41 885.07
  L 929.60 885.07
  A 0.54 0.54 0.0 0 0 929.06 885.57
  L 928.65 891.50
  A 0.54 0.54 0.0 0 0 929.20 892.07
  L 946.56 891.89
  Z
  M 1030.0541 886.2164
  A 1.04 1.04 0.0 0 0 1029.0159 885.1745
  L 977.9760 885.0855
  A 1.04 1.04 0.0 0 0 976.9342 886.1236
  L 976.9259 890.8436
  A 1.04 1.04 0.0 0 0 977.9641 891.8855
  L 1029.0040 891.9745
  A 1.04 1.04 0.0 0 0 1030.0458 890.9364
  L 1030.0541 886.2164
  Z
  M 1142.0440 886.2202
  A 1.09 1.09 0.0 0 0 1140.9559 885.1283
  L 1120.0159 885.0917
  A 1.09 1.09 0.0 0 0 1118.9240 886.1798
  L 1118.9160 890.7798
  A 1.09 1.09 0.0 0 0 1120.0041 891.8717
  L 1140.9441 891.9083
  A 1.09 1.09 0.0 0 0 1142.0360 890.8202
  L 1142.0440 886.2202
  Z
  M 1210.43 917.35
  C 1209.88 918.14 1209.41 918.57 1208.71 919.21
  Q 1200.31 926.90 1191.72 935.01
  C 1185.89 940.52 1179.90 945.58 1174.20 951.25
  Q 1173.12 952.32 1173.78 953.68
  L 1174.93 956.05
  Q 1175.68 957.60 1176.98 956.46
  Q 1195.59 940.17 1213.17 922.43
  C 1214.82 920.77 1212.92 918.23 1211.59 917.18
  A 0.81 0.81 0.0 0 0 1210.43 917.35
  Z
  M 784.8829 922.9350
  A 0.99 0.99 0.0 0 0 783.8912 921.9467
  L 780.1112 921.9533
  A 0.99 0.99 0.0 0 0 779.1229 922.9451
  L 779.1771 954.0050
  A 0.99 0.99 0.0 0 0 780.1688 954.9933
  L 783.9488 954.9867
  A 0.99 0.99 0.0 0 0 784.9371 953.9949
  L 784.8829 922.9350
  Z
  M 662.8728 922.9150
  A 0.88 0.88 0.0 0 0 661.9913 922.0365
  L 657.9513 922.0436
  A 0.88 0.88 0.0 0 0 657.0728 922.9251
  L 657.1272 954.1050
  A 0.88 0.88 0.0 0 0 658.0087 954.9835
  L 662.0487 954.9764
  A 0.88 0.88 0.0 0 0 662.9272 954.0949
  L 662.8728 922.9150
  Z
  M 696.71 923.43
  Q 697.32 922.10 695.86 922.07
  L 691.40 921.99
  Q 690.01 921.96 690.01 923.35
  L 690.14 953.83
  Q 690.15 955.01 691.33 955.01
  L 695.74 955.03
  Q 697.06 955.04 697.05 953.72
  Q 696.95 941.57 696.70 929.43
  C 696.66 927.33 695.81 925.41 696.71 923.43
  Z
  M 302.49 938.76
  A 0.72 0.72 0.0 0 0 302.99 938.56
  L 307.47 934.19
  A 0.72 0.72 0.0 0 0 306.96 932.96
  L 278.63 933.37
  A 0.72 0.72 0.0 0 0 277.92 934.11
  L 278.03 938.17
  A 0.72 0.72 0.0 0 0 278.75 938.87
  L 302.49 938.76
  Z
  M 407.13 939.82
  C 410.37 939.68 411.20 936.27 413.15 934.28
  Q 414.41 933.01 412.62 933.02
  C 405.99 933.09 399.65 933.40 392.96 933.08
  Q 388.51 932.87 384.12 933.03
  Q 382.84 933.08 383.50 934.17
  Q 385.07 936.80 387.26 939.18
  Q 387.79 939.75 388.56 939.79
  Q 397.61 940.23 407.13 939.82
  Z
  M 513.97 939.19
  C 514.93 938.41 515.93 937.96 516.55 936.81
  Q 517.44 935.16 518.51 933.90
  Q 518.93 933.41 518.30 933.26
  Q 517.29 933.04 516.27 933.06
  Q 505.22 933.27 490.05 933.04
  Q 488.23 933.01 489.30 934.49
  Q 490.23 935.76 491.46 937.46
  Q 492.40 938.76 494.01 938.79
  L 512.03 939.09
  Q 512.49 939.10 512.89 939.31
  Q 513.47 939.60 513.97 939.19
  Z
  M 952.03 938.48
  L 955.25 933.98
  Q 955.98 932.96 954.72 932.99
  Q 947.68 933.15 940.95 933.23
  C 935.80 933.30 930.41 932.80 925.09 933.09
  Q 923.86 933.16 924.58 934.15
  L 927.63 938.35
  A 3.42 3.39 -16.0 0 0 930.18 939.75
  Q 939.73 940.33 949.74 939.74
  Q 951.19 939.66 952.03 938.48
  Z
  M 1032.74 933.08
  Q 1030.61 933.07 1031.94 934.73
  Q 1034.09 937.41 1034.85 938.36
  A 3.90 3.89 71.6 0 0 1037.72 939.80
  Q 1048.05 940.21 1057.90 939.73
  A 1.55 1.54 -71.4 0 0 1059.03 939.16
  L 1063.58 933.70
  A 0.35 0.34 19.9 0 0 1063.31 933.14
  L 1032.74 933.08
  Z
  M 1142.02 932.94
  A 0.95 0.95 0.0 0 0 1141.25 934.46
  L 1145.06 939.49
  A 0.95 0.95 0.0 0 0 1145.81 939.86
  L 1169.14 939.97
  A 0.95 0.95 0.0 0 0 1170.09 939.00
  L 1170.02 934.24
  A 0.95 0.95 0.0 0 0 1169.08 933.31
  L 1142.02 932.94
  Z
  M 345.31 934.87
  C 333.64 934.77 323.36 941.88 319.14 952.89
  Q 316.58 959.56 316.88 964.86
  Q 317.47 975.16 325.19 983.37
  Q 330.02 988.52 337.72 990.88
  Q 345.26 993.19 353.39 990.37
  C 361.55 987.54 369.48 979.99 371.96 971.84
  C 375.71 959.51 370.79 946.81 360.38 939.88
  Q 352.96 934.94 345.31 934.87
  Z
  M 551.8771 991.4326
  A 28.38 27.86 99.6 0 0 584.0798 968.0962
  A 28.38 27.86 99.6 0 0 561.3429 935.4674
  A 28.38 27.86 99.6 0 0 529.1402 958.8038
  A 28.38 27.86 99.6 0 0 551.8771 991.4326
  Z
  M 447.3854 991.8060
  A 28.41 27.86 96.7 0 0 478.3697 966.8404
  A 28.41 27.86 96.7 0 0 454.0146 935.3740
  A 28.41 27.86 96.7 0 0 423.0303 960.3396
  A 28.41 27.86 96.7 0 0 447.3854 991.8060
  Z
  M 883.2370 991.8635
  A 28.51 28.19 95.4 0 0 913.9849 966.1329
  A 28.51 28.19 95.4 0 0 888.6030 935.0965
  A 28.51 28.19 95.4 0 0 857.8551 960.8271
  A 28.51 28.19 95.4 0 0 883.2370 991.8635
  Z
  M 1003.76 937.43
  C 993.63 933.10 983.73 934.51 975.31 941.45
  Q 966.46 948.75 964.94 961.45
  C 963.54 973.19 970.26 983.90 980.74 988.77
  Q 986.79 991.59 992.05 991.69
  C 1014.97 992.10 1030.93 964.16 1014.40 945.70
  C 1011.54 942.50 1007.69 939.11 1003.76 937.43
  Z
  M 1076.11 951.35
  C 1073.92 955.84 1073.68 960.33 1073.69 965.24
  C 1073.71 972.75 1076.41 979.26 1082.07 984.33
  C 1088.75 990.31 1097.31 993.10 1106.24 991.50
  Q 1111.63 990.53 1115.38 988.16
  Q 1125.18 981.96 1128.25 972.51
  C 1132.09 960.72 1127.97 948.65 1118.34 940.91
  C 1104.00 929.38 1083.82 935.60 1076.11 951.35
  Z
  M 404.77 951.51
  Q 404.91 950.96 404.34 950.96
  L 392.89 951.00
  A 0.93 0.92 87.2 0 0 391.97 952.02
  Q 392.32 955.79 392.66 959.13
  Q 394.51 977.48 384.42 992.18
  Q 378.81 1000.34 370.75 1005.08
  Q 369.09 1006.06 371.02 1006.05
  Q 394.13 1005.91 417.75 1006.12
  Q 421.51 1006.15 425.34 1005.70
  Q 426.47 1005.56 425.42 1005.11
  Q 418.96 1002.37 414.29 996.67
  Q 398.30 977.16 404.77 951.51
  Z
  M 930.46 983.36
  Q 925.95 992.79 919.31 999.32
  C 916.98 1001.61 914.20 1003.16 911.53 1004.96
  Q 911.33 1005.10 911.25 1005.34
  Q 911.20 1005.49 911.26 1005.64
  A 0.66 0.66 0.0 0 0 911.88 1006.07
  Q 937.37 1005.90 962.31 1006.12
  Q 964.63 1006.14 966.76 1005.54
  Q 966.99 1005.47 966.79 1005.34
  Q 947.25 993.14 944.61 970.94
  C 943.85 964.56 944.74 958.48 946.01 952.31
  A 1.03 1.02 -82.3 0 0 945.07 951.07
  Q 939.74 950.75 934.42 951.21
  A 1.39 1.38 85.2 0 0 933.17 952.70
  Q 933.33 954.92 933.59 957.06
  C 934.63 965.61 934.32 975.28 930.46 983.36
  Z
  M 1168.07 955.94
  C 1168.46 955.09 1169.52 954.12 1170.13 953.36
  A 1.42 1.42 0.0 0 0 1169.01 951.05
  L 1150.02 951.22
  Q 1148.94 951.23 1148.94 952.31
  L 1148.93 955.69
  Q 1148.93 956.83 1150.07 956.86
  Q 1158.39 957.11 1167.04 956.67
  Q 1167.40 956.65 1167.68 956.44
  Q 1167.94 956.24 1168.07 955.94
  Z
  M 1074.46 1004.83
  C 1056.41 994.45 1049.43 972.68 1054.48 952.77
  Q 1054.63 952.16 1054.00 952.12
  Q 1047.16 951.66 1040.77 952.10
  A 0.84 0.83 -7.9 0 0 1040.01 953.10
  C 1043.95 973.12 1036.54 994.08 1018.59 1005.15
  Q 1017.17 1006.03 1018.84 1006.02
  Q 1044.97 1005.94 1071.24 1006.09
  C 1072.21 1006.10 1073.34 1005.86 1074.30 1005.71
  Q 1075.61 1005.50 1074.46 1004.83
  Z
  M 278.83 952.27
  A 0.89 0.89 0.0 0 0 277.96 953.19
  L 278.06 956.05
  A 0.89 0.89 0.0 0 0 278.96 956.91
  L 296.09 956.73
  A 0.89 0.89 0.0 0 0 296.94 956.08
  L 297.79 953.08
  A 0.89 0.89 0.0 0 0 296.91 951.95
  L 278.83 952.27
  Z
  M 494.18 984.93
  C 490.62 992.55 485.34 997.82 479.04 1003.25
  C 477.99 1004.16 476.55 1004.62 475.42 1005.43
  Q 474.58 1006.03 475.62 1006.03
  Q 499.14 1005.97 526.23 1006.06
  Q 528.19 1006.06 530.34 1005.70
  Q 531.46 1005.52 530.50 1004.91
  C 518.10 997.09 509.98 984.43 509.07 969.52
  Q 508.58 961.40 510.05 953.62
  Q 510.32 952.21 508.89 952.10
  Q 503.55 951.69 497.83 952.13
  A 0.78 0.77 -8.2 0 0 497.13 953.06
  C 499.10 962.84 498.46 975.74 494.18 984.93
  Z"
/>
<rect  x="-9.01" y="-6.00" transform="translate(869.01,836.00) rotate(-0.2)" width="18.02" height="12.00" rx="0.91"/>
<path  d="
  M 259.99 831.96
  A 0.97 0.97 0.0 0 1 260.96 830.99
  L 407.52 830.99
  A 3.55 0.95 0.0 0 1 411.07 831.94
  L 411.07 841.04
  A 3.55 0.95 0.0 0 1 407.52 841.99
  L 260.96 841.99
  A 0.97 0.97 0.0 0 1 259.99 841.02
  L 259.99 831.96
  Z"
/>
<path  d="
  M 719.76 852.76
  Q 719.85 852.90 719.90 853.05
  Q 719.95 853.21 719.95 853.38
  Q 720.06 875.18 719.99 890.70
  Q 719.99 892.01 721.30 892.01
  L 725.75 892.00
  Q 727.01 892.00 727.01 890.75
  L 726.98 851.23
  A 1.21 1.20 -90.0 0 1 728.18 850.02
  Q 741.95 849.97 754.75 850.32
  Q 755.53 850.34 757.49 850.69
  Q 758.03 850.78 758.07 851.32
  Q 759.25 865.43 759.04 878.47
  Q 758.94 884.50 759.05 890.78
  Q 759.07 892.00 760.29 892.00
  L 764.65 892.00
  Q 766.06 892.01 766.06 890.60
  L 765.98 851.24
  Q 765.98 850.73 766.48 850.66
  Q 769.51 850.22 772.40 850.18
  Q 783.49 850.00 796.77 850.26
  Q 797.94 850.28 797.95 851.46
  L 798.13 890.82
  Q 798.14 892.00 799.32 892.01
  L 803.48 892.02
  Q 804.98 892.03 804.98 890.52
  L 805.05 851.52
  Q 805.05 850.36 806.21 850.33
  Q 830.57 849.69 852.30 850.15
  Q 853.57 850.18 853.73 851.45
  Q 853.98 853.47 853.99 855.46
  Q 854.07 874.73 854.09 890.60
  Q 854.10 892.02 855.51 892.02
  L 859.49 892.02
  Q 861.00 892.01 861.00 890.50
  L 861.01 851.94
  Q 861.01 850.98 861.97 850.99
  Q 870.99 851.14 880.05 850.52
  Q 890.40 849.82 902.31 850.03
  A 0.75 0.74 0.8 0 1 903.04 850.77
  L 903.02 903.31
  Q 903.02 904.91 901.43 904.91
  Q 857.95 905.03 816.10 905.01
  C 795.25 905.00 774.43 903.94 753.52 903.95
  Q 678.77 904.01 609.28 904.00
  C 594.54 903.99 578.93 904.91 564.73 904.93
  Q 411.15 905.09 246.52 904.97
  Q 241.43 904.96 236.34 904.75
  A 1.35 1.35 0.0 0 1 235.04 903.39
  L 235.09 893.37
  A 1.30 1.30 0.0 0 1 236.38 892.07
  L 257.60 891.94
  Q 259.13 891.93 259.08 890.40
  L 258.97 886.49
  Q 258.93 885.05 257.48 885.05
  L 235.89 885.03
  Q 234.99 885.03 235.00 884.14
  L 235.01 851.81
  A 0.79 0.78 -1.5 0 1 235.76 851.03
  Q 240.25 850.80 244.74 850.87
  Q 279.88 851.40 312.62 850.33
  Q 313.65 850.30 313.71 851.33
  Q 313.98 855.50 314.01 859.72
  Q 314.12 875.37 314.06 890.54
  Q 314.05 892.01 315.52 892.01
  L 319.50 892.01
  Q 321.02 892.01 321.02 890.50
  L 320.98 851.72
  A 0.80 0.80 0.0 0 1 321.77 850.92
  Q 329.70 850.81 339.72 850.90
  Q 365.24 851.15 388.70 850.79
  Q 391.02 850.75 393.36 850.54
  C 395.83 850.31 398.12 850.86 400.55 850.67
  Q 407.76 850.13 413.57 850.09
  Q 455.43 849.84 493.42 850.08
  A 0.63 0.62 0.5 0 1 494.04 850.70
  L 494.07 890.67
  Q 494.07 892.02 495.42 892.02
  L 499.47 892.02
  Q 501.03 892.02 501.02 890.46
  Q 500.98 873.43 501.02 856.10
  Q 501.02 853.88 501.26 851.54
  A 1.75 1.74 3.0 0 1 503.02 849.96
  L 538.73 850.27
  A 0.38 0.38 0.0 0 1 539.10 850.65
  Q 539.08 867.26 539.04 883.71
  Q 539.03 887.23 539.23 891.17
  Q 539.32 893.01 541.18 893.03
  L 545.91 893.07
  A 0.85 0.85 0.0 0 0 546.75 892.36
  Q 547.03 890.64 547.03 888.84
  Q 546.99 870.04 546.99 851.14
  Q 546.99 850.71 547.42 850.68
  C 550.68 850.43 553.78 850.08 557.05 850.06
  Q 583.90 849.89 610.74 850.08
  C 624.81 850.18 639.52 849.93 654.24 850.03
  A 0.90 0.90 0.0 0 1 655.13 850.93
  L 654.97 890.73
  Q 654.96 892.00 656.23 892.00
  L 660.77 892.00
  Q 662.03 892.00 662.03 890.74
  Q 662.00 872.78 662.00 855.27
  Q 662.00 853.32 662.23 851.45
  Q 662.40 850.07 663.80 850.06
  Q 686.64 849.90 709.96 850.05
  Q 714.73 850.08 719.49 850.44
  Q 720.06 850.49 720.15 851.05
  Q 720.25 851.58 719.85 851.98
  Q 719.49 852.33 719.76 852.76
  Z
  M 589.0611 886.4037
  A 1.40 1.40 0.0 0 0 587.6684 884.9964
  L 581.4085 884.9637
  A 1.40 1.40 0.0 0 0 580.0012 886.3563
  L 579.9789 890.6163
  A 1.40 1.40 0.0 0 0 581.3716 892.0236
  L 587.6315 892.0563
  A 1.40 1.40 0.0 0 0 589.0388 890.6637
  L 589.0611 886.4037
  Z
  M 620.10 886.31
  A 1.21 1.21 0.0 0 0 618.89 885.10
  L 600.09 885.10
  A 1.21 1.21 0.0 0 0 598.88 886.31
  L 598.88 890.71
  A 1.21 1.21 0.0 0 0 600.09 891.92
  L 618.89 891.92
  A 1.21 1.21 0.0 0 0 620.10 890.71
  L 620.10 886.31
  Z"
/>
<path  d="
  M 657.99 924.16
  Q 657.75 923.86 657.90 923.52
  Q 658.17 922.91 658.67 923.35
  Q 659.39 923.98 660.38 924.07
  Q 661.51 924.17 660.48 924.65
  L 658.66 925.50
  Q 658.09 925.77 658.00 925.14
  Q 657.98 924.99 658.06 924.84
  A 0.62 0.62 0.0 0 0 657.99 924.16
  Z"
/>
<circle  cx="885.96" cy="963.35" r="22.06"/>
<ellipse  cx="0.00" cy="0.00" transform="translate(1101.49,963.49) rotate(39.8)" rx="22.13" ry="21.82"/>
<path  d="
  M 324.10 956.16
  Q 327.33 946.66 337.53 942.76
  Q 341.48 941.25 347.05 941.78
  C 355.87 942.63 363.47 949.40 366.08 957.64
  C 368.20 964.36 366.95 972.10 362.10 977.22
  C 358.12 981.43 352.50 985.23 346.41 985.32
  Q 329.81 985.55 324.01 969.96
  Q 321.61 963.48 324.10 956.16
  Z"
/>
<ellipse  cx="0.00" cy="0.00" transform="translate(450.67,963.52) rotate(86.3)" rx="21.80" ry="21.69"/>
<circle  cx="556.64" cy="963.42" r="21.85"/>
<ellipse  cx="0.00" cy="0.00" transform="translate(992.84,963.59) rotate(50.2)" rx="21.96" ry="21.70"/>
<path  d="
  M 74.42 1016.20
  Q 72.01 1017.98 68.49 1018.01
  Q 60.24 1018.08 52.06 1017.97
  Q 49.19 1017.93 46.97 1016.55
  A 1.51 1.49 -83.3 0 1 46.33 1015.73
  C 44.66 1010.51 48.21 1006.24 53.29 1006.04
  Q 59.73 1005.78 68.65 1005.94
  C 71.30 1005.99 73.63 1007.04 75.08 1009.19
  C 76.49 1011.28 76.64 1014.56 74.42 1016.20
  Z"
/>
<path  d="
  M 220.27 1017.98
  C 218.00 1017.97 215.92 1017.06 215.27 1014.62
  C 213.98 1009.81 217.71 1006.30 222.19 1006.06
  Q 231.37 1005.57 239.21 1006.15
  C 242.75 1006.41 247.20 1009.88 245.83 1014.02
  C 245.01 1016.49 242.91 1018.04 240.29 1018.04
  Q 230.25 1018.03 220.27 1017.98
  Z"
/>
<path  d="
  M 111.70 1015.62
  C 109.63 1010.47 111.62 1006.12 117.59 1006.05
  Q 126.42 1005.95 137.98 1006.01
  Q 142.01 1006.03 144.16 1008.65
  C 147.80 1013.07 144.81 1017.93 139.52 1017.96
  Q 128.10 1018.04 116.25 1017.98
  C 114.62 1017.98 112.39 1017.33 111.70 1015.62
  Z"
/>
<path  d="
  M 699.92 1009.79
  C 701.73 1006.53 705.90 1006.02 709.21 1006.02
  Q 720.45 1006.00 731.90 1005.97
  C 735.85 1005.96 741.37 1009.30 739.12 1014.04
  Q 737.23 1018.05 732.72 1018.04
  Q 718.76 1018.01 705.86 1018.00
  Q 700.52 1017.99 699.42 1012.65
  Q 699.13 1011.22 699.92 1009.79
  Z"
/>
<path  d="
  M 1301.96 1016.54
  Q 1299.67 1017.98 1296.37 1017.99
  Q 1280.16 1018.06 1265.42 1017.99
  C 1261.07 1017.97 1257.70 1018.63 1255.38 1013.64
  Q 1254.90 1012.61 1255.33 1011.29
  C 1256.59 1007.40 1259.68 1005.96 1263.47 1005.98
  Q 1277.97 1006.05 1293.65 1006.01
  Q 1298.48 1006.00 1301.35 1007.84
  C 1304.48 1009.84 1305.39 1014.37 1301.96 1016.54
  Z"
/>
<path  d="
  M 184.48 1017.96
  C 176.47 1017.62 176.02 1010.34 182.01 1006.64
  Q 182.43 1006.37 182.93 1006.42
  Q 188.89 1007.03 195.25 1006.94
  Q 196.76 1006.92 198.07 1008.42
  Q 201.36 1012.21 198.33 1016.30
  Q 197.17 1017.86 195.24 1017.96
  Q 190.17 1018.21 184.48 1017.96
  Z"
/>
<ellipse  cx="0.00" cy="0.00" transform="translate(1330.51,1012.26) rotate(3.4)" rx="6.30" ry="5.73"/>
<path  d="
  M 32.61 1012.97
  C 31.37 1016.04 29.02 1018.00 25.66 1016.71
  Q 22.15 1015.36 23.33 1011.40
  C 25.09 1005.46 30.78 1007.56 32.61 1012.05
  A 1.20 1.20 0.0 0 1 32.61 1012.97
  Z"
/>
<ellipse  cx="0.00" cy="0.00" transform="translate(1358.12,1012.47) rotate(127.9)" rx="4.66" ry="4.33"/>
</svg>
