<?xml version="1.0" encoding="UTF-8" standalone="no"?>
<!DOCTYPE svg PUBLIC "-//W3C//DTD SVG 1.1//EN" "http://www.w3.org/Graphics/SVG/1.1/DTD/svg11.dtd">
<svg xmlns="http://www.w3.org/2000/svg" version="1.1" viewBox="0.00 0.00 1024.00 1024.00">
<path  d="
  M 322.94 609.03
  L 321.80 611.40
  A 0.55 0.54 -58.0 0 1 320.97 611.60
  C 317.50 608.87 319.56 602.86 319.58 599.25
  A 2.28 2.28 0.0 0 1 321.60 597.00
  L 323.26 596.82
  Q 323.99 596.73 324.00 595.99
  L 324.03 587.06
  A 1.21 1.21 0.0 0 0 322.79 585.85
  Q 300.62 586.44 274.98 587.32
  C 272.86 587.39 270.90 587.97 268.76 587.83
  A 0.82 0.82 0.0 0 1 267.99 587.01
  L 268.05 573.66
  Q 268.06 571.76 266.16 571.92
  L 249.25 573.34
  A 1.12 1.11 -88.3 0 0 248.25 574.29
  Q 247.58 578.93 248.66 584.02
  A 1.62 1.62 0.0 0 1 247.23 585.97
  L 246.85 586.01
  Q 244.77 586.20 244.20 584.19
  Q 243.00 579.94 242.93 576.66
  Q 242.88 574.56 240.80 574.82
  Q 215.34 578.01 193.02 580.38
  Q 191.24 580.57 189.64 581.04
  A 0.87 0.86 86.8 0 0 189.03 581.73
  Q 188.84 582.78 188.50 583.83
  Q 188.17 584.86 187.16 584.67
  Q 186.56 584.56 186.43 583.96
  L 186.01 581.99
  A 1.36 1.35 -7.6 0 0 184.60 580.92
  Q 167.00 582.06 148.25 582.26
  Q 147.49 582.27 146.75 582.28
  Q 128.75 582.41 118.25 581.67
  Q 104.98 580.74 91.22 578.59
  C 79.35 576.73 68.00 573.37 56.64 569.49
  Q 53.05 568.25 49.68 568.17
  Q 36.92 567.87 24.72 567.91
  Q 22.13 567.92 22.01 565.33
  L 21.98 564.63
  Q 21.88 562.69 23.82 562.49
  C 32.50 561.63 41.33 562.11 50.09 561.99
  Q 52.85 561.95 55.24 560.58
  Q 60.33 557.68 65.43 554.97
  Q 89.70 542.08 114.16 535.25
  Q 134.85 529.48 155.09 524.31
  Q 162.20 522.50 171.09 520.88
  Q 171.61 520.78 171.79 520.29
  C 172.12 519.42 171.93 518.41 172.33 517.51
  C 173.63 514.61 177.36 513.42 180.29 512.80
  Q 180.88 512.67 180.91 512.07
  L 181.01 510.25
  A 1.30 1.28 -89.5 0 1 182.25 509.02
  L 185.83 508.88
  Q 186.45 508.85 186.69 509.42
  Q 187.07 510.26 187.12 511.19
  Q 187.15 511.83 187.79 511.90
  Q 191.74 512.32 194.30 511.63
  Q 197.01 510.89 199.96 510.85
  A 1.86 1.85 3.2 0 0 201.78 509.23
  C 202.04 507.21 203.11 505.84 204.95 504.98
  Q 209.44 502.89 213.02 502.39
  Q 220.07 501.41 226.15 502.37
  C 227.88 502.64 229.32 503.29 231.01 502.36
  Q 249.11 492.50 266.55 483.63
  C 277.68 477.98 288.91 473.96 300.55 471.22
  Q 314.51 467.93 325.48 466.47
  Q 333.47 465.40 355.04 465.07
  Q 364.98 464.92 384.73 466.55
  Q 406.90 468.38 422.48 470.36
  Q 438.13 472.35 452.58 474.64
  Q 454.30 474.91 455.17 473.40
  L 460.10 464.83
  A 0.57 0.01 -49.0 0 1 460.39 464.48
  Q 462.66 461.82 464.78 462.69
  Q 466.27 463.30 465.62 464.77
  L 461.17 474.89
  A 0.67 0.67 0.0 0 0 461.64 475.81
  Q 476.83 479.04 492.04 481.47
  C 504.02 483.38 515.80 486.58 527.86 488.44
  Q 544.34 490.99 562.86 494.25
  C 576.16 496.59 589.90 498.44 603.57 500.36
  Q 627.73 503.74 650.51 505.20
  Q 659.33 505.76 670.50 505.88
  Q 711.29 506.31 735.75 505.96
  Q 737.46 505.94 740.04 504.72
  Q 740.49 504.50 740.68 504.05
  Q 741.65 501.79 743.35 500.11
  Q 769.36 474.47 795.32 448.08
  C 802.72 440.55 809.95 432.60 817.71 424.80
  Q 842.70 399.65 866.17 376.34
  Q 867.80 374.73 869.68 376.03
  C 873.65 378.77 878.11 381.24 881.32 384.68
  A 0.75 0.75 0.0 0 0 882.47 384.62
  C 883.24 383.63 883.84 382.66 884.72 381.76
  Q 899.69 366.61 914.93 351.59
  A 2.76 2.75 39.2 0 1 918.35 351.24
  C 920.78 352.80 923.44 354.16 925.81 355.81
  Q 935.29 362.40 946.04 369.14
  A 2.44 2.42 19.6 0 1 947.16 371.48
  L 945.69 384.27
  Q 945.63 384.78 945.40 385.24
  Q 944.59 386.81 945.45 388.14
  A 1.47 1.45 75.1 0 0 946.57 388.80
  Q 949.10 389.01 951.47 390.01
  Q 952.22 390.33 951.92 391.08
  L 951.12 393.15
  Q 950.85 393.82 950.13 393.86
  L 944.71 394.11
  A 1.59 1.59 0.0 0 0 943.21 395.45
  C 942.62 399.08 943.26 402.06 941.99 405.69
  A 0.87 0.86 -78.4 0 0 942.74 406.84
  L 948.25 407.21
  Q 949.23 407.27 949.18 408.25
  L 949.07 410.81
  Q 949.02 411.90 947.94 411.91
  L 941.91 411.99
  A 0.71 0.70 3.3 0 0 941.22 412.60
  L 937.91 436.12
  Q 937.67 437.82 939.38 437.98
  L 941.00 438.13
  Q 942.02 438.23 942.00 439.25
  L 941.96 442.09
  A 0.74 0.73 -79.3 0 1 940.97 442.77
  Q 936.82 441.23 932.37 442.90
  A 1.17 1.17 0.0 0 1 930.80 441.63
  Q 931.94 433.80 933.77 426.02
  Q 934.47 423.04 931.40 423.03
  Q 921.00 422.99 910.50 423.14
  Q 908.27 423.17 906.12 422.65
  Q 905.58 422.51 905.70 421.97
  Q 905.92 421.01 906.95 421.00
  Q 919.44 420.98 933.46 420.99
  A 1.70 1.69 -84.4 0 0 935.12 419.62
  L 935.19 419.28
  Q 935.40 418.18 934.28 418.13
  L 927.60 417.86
  Q 926.86 417.83 927.02 417.12
  L 928.13 412.18
  A 2.32 2.31 9.8 0 0 926.15 409.38
  Q 921.69 408.85 916.20 409.03
  Q 915.63 409.05 915.13 409.32
  L 913.80 410.05
  A 0.42 0.41 88.1 0 1 913.23 409.51
  L 914.00 407.76
  Q 914.23 407.25 914.78 407.16
  C 917.15 406.80 919.35 406.04 921.78 406.04
  Q 928.20 406.01 934.69 405.95
  A 2.49 2.47 -65.8 0 0 936.35 405.31
  L 936.71 405.00
  A 0.49 0.49 0.0 0 0 936.40 404.15
  Q 925.49 403.81 916.86 404.09
  Q 914.69 404.16 912.92 405.11
  Q 911.74 405.74 911.14 407.12
  Q 909.21 411.53 907.57 415.66
  C 906.86 417.44 905.62 419.18 905.22 421.01
  Q 904.95 422.24 904.37 423.33
  Q 901.35 428.98 898.75 434.89
  C 893.49 446.83 886.99 458.16 881.83 470.18
  Q 876.79 481.95 871.12 492.64
  A 0.95 0.95 0.0 0 0 871.96 494.04
  L 900.46 494.02
  Q 901.61 494.02 901.96 492.92
  C 905.98 480.09 909.17 466.56 913.01 453.60
  C 914.11 449.88 914.90 446.10 915.85 442.51
  A 20.96 1.16 -74.8 0 0 916.59 439.68
  Q 917.73 435.30 919.02 429.61
  A 1.31 1.30 6.6 0 0 917.75 428.02
  L 907.08 427.99
  Q 905.73 427.99 906.06 426.68
  Q 906.27 425.88 907.10 425.32
  A 1.86 1.81 -61.5 0 1 908.13 425.00
  Q 914.47 424.92 920.36 425.03
  Q 923.58 425.09 922.84 428.20
  C 921.66 433.12 920.56 437.99 918.81 443.17
  A 1.38 1.37 10.2 0 0 920.07 444.98
  Q 925.70 445.17 931.75 444.91
  Q 933.13 444.85 934.26 445.12
  A 1.16 1.15 -80.2 0 1 935.13 446.36
  Q 934.50 453.04 933.23 460.50
  C 930.97 473.79 928.80 486.36 926.10 500.31
  Q 923.52 513.73 921.99 526.88
  A 0.92 0.92 0.0 0 0 922.85 527.90
  Q 938.08 528.75 954.09 531.66
  Q 962.14 533.13 968.83 535.48
  Q 974.56 537.49 976.87 542.08
  C 980.70 549.68 980.56 560.02 978.99 568.26
  Q 978.60 570.30 979.52 572.04
  Q 979.76 572.49 980.23 572.67
  Q 987.27 575.35 993.26 578.71
  A 1.49 1.48 45.1 0 1 993.26 581.30
  Q 992.49 581.74 991.57 581.92
  Q 985.82 583.04 981.10 583.09
  Q 979.09 583.12 979.08 585.12
  C 979.04 590.80 978.61 594.65 974.68 599.40
  Q 974.25 599.93 973.59 600.08
  Q 968.47 601.27 962.27 602.72
  C 960.93 603.04 959.57 602.89 958.37 603.29
  Q 957.78 603.48 957.85 604.10
  L 958.03 605.82
  A 0.81 0.80 82.9 0 1 957.35 606.70
  Q 929.14 610.94 901.45 612.08
  Q 896.52 612.28 892.49 613.09
  A 0.65 0.65 0.0 0 0 891.96 613.73
  Q 891.96 616.51 892.00 619.56
  Q 892.04 621.76 889.58 621.97
  Q 869.35 623.75 846.42 626.07
  C 843.62 626.36 840.66 626.33 837.82 626.27
  Q 837.19 626.26 837.20 626.89
  Q 837.21 627.26 837.36 627.61
  A 0.58 0.57 71.7 0 1 836.97 628.39
  C 831.64 629.72 825.75 630.30 820.49 630.86
  Q 805.44 632.47 791.62 633.81
  A 0.58 0.57 -2.7 0 1 790.99 633.24
  L 791.00 629.98
  Q 791.00 629.29 790.33 629.18
  Q 788.24 628.84 786.03 629.22
  Q 780.47 630.19 774.92 630.22
  C 773.48 630.23 772.26 630.91 770.86 630.85
  Q 770.22 630.83 769.95 630.24
  L 761.31 611.30
  A 2.28 2.28 0.0 0 0 759.27 609.97
  Q 742.14 609.74 725.70 609.94
  Q 724.90 609.95 724.26 610.39
  A 0.77 0.77 0.0 0 0 724.17 611.57
  C 728.94 616.24 733.60 623.77 734.06 630.53
  Q 734.79 641.44 730.07 648.69
  A 0.88 0.88 0.0 0 0 730.81 650.06
  L 755.16 650.06
  A 0.86 0.86 0.0 0 1 756.02 650.91
  L 756.06 653.95
  A 0.79 0.78 89.3 0 1 755.29 654.75
  L 725.24 655.14
  A 1.47 1.42 -63.0 0 0 724.42 655.42
  C 717.31 660.63 710.61 663.41 701.45 662.13
  Q 693.94 661.08 687.97 656.59
  Q 687.54 656.26 687.10 656.57
  C 677.91 662.94 665.18 664.34 655.51 658.21
  C 650.19 654.84 647.41 650.19 644.74 644.71
  Q 643.19 641.52 642.75 638.45
  Q 640.61 623.54 651.59 612.93
  A 0.45 0.45 0.0 0 0 651.31 612.15
  Q 646.18 611.82 641.00 611.85
  Q 595.02 612.09 549.01 612.00
  C 537.97 611.97 527.29 611.06 516.54 610.87
  A 0.69 0.69 0.0 0 1 515.90 609.95
  Q 516.21 609.01 516.88 608.24
  Q 519.61 605.09 522.43 602.08
  A 1.05 1.05 0.0 0 0 522.20 600.47
  Q 486.66 579.01 451.92 557.18
  C 450.78 556.47 448.32 555.23 446.96 555.16
  Q 438.50 554.72 422.55 555.52
  Q 413.98 555.95 396.00 556.02
  C 394.56 556.03 392.72 556.31 391.27 557.22
  C 375.18 567.45 359.80 578.83 343.94 589.42
  C 341.72 590.91 339.74 592.72 337.54 594.22
  C 335.48 595.62 334.25 597.65 335.08 600.16
  Q 335.66 601.92 337.56 601.94
  Q 341.92 601.99 346.80 602.08
  Q 348.50 602.12 348.92 603.65
  A 1.58 1.58 0.0 0 1 347.66 605.64
  Q 344.04 606.24 340.08 605.92
  Q 337.64 605.73 335.55 606.80
  A 0.59 0.58 68.1 0 0 335.26 607.50
  L 335.36 607.78
  Q 335.46 608.10 335.76 607.95
  C 337.39 607.12 339.27 606.59 340.94 607.54
  A 0.62 0.62 0.0 0 1 341.08 608.51
  Q 339.25 610.42 336.59 609.94
  Q 335.01 609.66 335.00 611.27
  L 334.95 616.34
  Q 334.93 618.15 336.73 617.99
  Q 339.79 617.72 342.62 618.41
  Q 355.38 621.54 357.77 634.81
  Q 359.08 642.13 355.15 648.56
  A 0.97 0.96 -74.2 0 0 355.97 650.03
  Q 495.65 649.97 635.37 650.02
  Q 637.85 650.02 640.29 650.23
  Q 640.71 650.26 640.77 650.67
  L 641.27 653.93
  Q 641.38 654.70 640.61 654.75
  Q 638.85 654.85 637.22 654.85
  Q 461.36 655.14 245.94 654.95
  Q 244.97 654.95 244.98 653.98
  L 245.00 651.12
  A 1.13 1.13 0.0 0 1 246.13 650.00
  L 322.37 650.02
  A 0.42 0.42 0.0 0 0 322.74 649.39
  C 321.52 647.30 320.18 645.25 320.05 642.74
  Q 319.71 636.12 320.30 631.46
  Q 320.70 628.30 323.35 624.92
  A 2.18 2.13 -25.0 0 0 323.80 623.73
  Q 324.25 616.55 323.84 609.21
  Q 323.74 607.37 322.94 609.03
  Z
  M 941.51 372.27
  Q 935.14 369.14 928.04 364.14
  Q 922.71 360.38 918.17 357.45
  A 2.02 2.01 -52.0 0 0 915.61 357.77
  L 895.40 379.40
  A 0.36 0.36 0.0 0 0 895.66 380.00
  L 939.78 380.03
  A 1.31 1.31 0.0 0 0 941.08 378.56
  Q 940.75 375.98 941.81 373.00
  A 0.59 0.59 0.0 0 0 941.51 372.27
  Z
  M 876.13 387.55
  L 869.53 382.56
  A 2.23 2.23 0.0 0 0 866.39 383.03
  C 864.91 385.05 863.50 387.12 861.71 388.89
  Q 855.46 395.07 849.41 401.05
  A 0.54 0.54 0.0 0 0 849.79 401.97
  Q 856.42 402.00 863.56 402.05
  C 865.64 402.06 867.50 400.41 868.69 398.84
  Q 872.32 394.07 876.30 390.18
  Q 877.74 388.77 876.13 387.55
  Z
  M 918.98 385.67
  Q 920.18 384.99 921.47 384.98
  Q 929.25 384.89 937.04 384.82
  Q 938.86 384.81 939.17 386.68
  Q 939.21 386.92 939.46 386.90
  L 939.71 386.87
  Q 939.93 386.85 939.88 386.63
  Q 939.58 385.49 940.02 384.41
  A 0.95 0.95 0.0 0 0 939.17 383.10
  Q 928.21 382.69 917.63 383.13
  C 910.22 383.43 902.23 382.79 894.53 383.03
  C 892.85 383.08 891.33 383.80 890.13 384.89
  Q 885.03 389.48 880.57 393.92
  Q 879.52 394.97 881.00 394.97
  Q 905.16 395.06 931.85 395.09
  Q 934.51 395.09 937.36 394.80
  Q 937.86 394.74 938.07 394.29
  Q 939.36 391.52 938.90 388.73
  Q 938.79 388.09 938.13 388.09
  Q 936.51 388.08 935.84 386.71
  Q 935.56 386.15 934.94 386.15
  L 919.05 385.96
  Q 918.48 385.95 918.98 385.67
  Z
  M 856.93 450.01
  C 859.43 450.01 861.40 452.44 862.20 454.55
  A 2.21 2.20 -10.1 0 0 864.27 455.99
  L 883.71 456.01
  Q 885.12 456.01 885.56 454.67
  C 886.36 452.25 887.48 449.74 888.80 447.57
  Q 894.45 438.29 898.17 428.12
  C 899.12 425.51 900.53 423.14 901.57 420.56
  Q 904.58 413.10 908.23 405.25
  Q 909.56 402.38 910.72 399.27
  Q 911.16 398.08 909.90 398.05
  Q 900.22 397.79 889.61 398.08
  C 884.78 398.20 884.74 400.76 881.97 403.54
  Q 873.75 411.78 866.16 419.32
  C 863.54 421.91 861.65 425.02 858.98 427.57
  Q 855.00 431.37 851.60 435.30
  C 847.64 439.89 843.50 444.09 839.31 448.27
  Q 838.52 449.06 839.11 449.61
  A 1.65 1.63 -23.2 0 0 840.23 450.05
  Q 848.44 449.99 856.93 450.01
  Z
  M 880.62 399.65
  Q 881.01 399.09 880.34 398.95
  C 878.16 398.46 876.56 399.10 874.89 400.69
  Q 860.03 414.97 856.57 418.82
  Q 843.89 432.92 830.39 446.06
  Q 828.86 447.55 826.95 449.73
  C 824.15 452.90 820.69 456.17 818.27 458.83
  C 806.92 471.34 795.56 480.91 782.88 493.71
  Q 780.31 496.31 782.18 499.46
  L 782.44 499.90
  Q 784.23 502.91 786.80 500.54
  Q 791.99 495.76 797.38 489.61
  Q 807.85 477.68 821.57 463.73
  C 825.16 460.09 828.57 456.05 832.02 452.18
  Q 835.90 447.85 839.88 443.68
  C 845.96 437.31 851.17 431.20 857.92 424.42
  Q 861.84 420.48 865.79 415.98
  Q 871.05 410.01 876.95 404.50
  C 878.41 403.13 879.48 401.29 880.62 399.65
  Z
  M 937.1099 399.9306
  A 0.98 0.98 0.0 0 0 936.1282 398.9523
  L 915.8883 398.9877
  A 0.98 0.98 0.0 0 0 914.9100 399.9694
  L 914.9101 400.0094
  A 0.98 0.98 0.0 0 0 915.8918 400.9877
  L 936.1317 400.9523
  A 0.98 0.98 0.0 0 0 937.1100 399.9706
  L 937.1099 399.9306
  Z
  M 855.92 404.47
  Q 851.94 405.62 846.77 404.53
  Q 846.25 404.43 845.76 404.61
  C 843.11 405.61 842.28 407.90 840.52 409.84
  Q 838.56 412.00 836.55 413.96
  Q 835.52 414.97 836.96 414.98
  L 851.19 415.03
  A 2.73 2.73 0.0 0 0 853.04 414.33
  Q 857.54 410.28 861.99 405.32
  A 0.72 0.72 0.0 0 0 861.54 404.12
  Q 858.47 403.73 855.92 404.47
  Z
  M 847.99 420.00
  A 0.65 0.65 0.0 0 0 848.35 419.89
  L 849.44 419.17
  A 0.65 0.65 0.0 0 0 849.08 417.98
  L 833.05 418.00
  A 0.65 0.65 0.0 0 0 832.73 418.08
  L 831.45 418.78
  A 0.65 0.65 0.0 0 0 831.76 420.00
  L 847.99 420.00
  Z
  M 752.96 500.87
  C 754.78 500.58 757.12 498.49 758.43 497.18
  Q 776.30 479.32 793.80 461.80
  C 795.61 459.99 798.02 458.34 799.86 456.51
  Q 812.87 443.55 825.67 430.67
  C 827.56 428.77 828.91 426.65 830.62 424.67
  Q 831.05 424.17 830.41 424.02
  Q 827.46 423.34 825.57 425.09
  Q 814.49 435.35 806.20 444.33
  Q 798.50 452.66 792.45 458.86
  C 783.63 467.88 774.55 476.42 766.16 485.92
  Q 760.29 492.56 752.54 500.02
  Q 751.39 501.13 752.96 500.87
  Z
  M 804.61 461.15
  Q 807.15 461.28 809.00 459.42
  Q 825.73 442.64 843.28 425.25
  Q 844.61 423.93 842.74 423.93
  L 838.48 423.94
  Q 836.63 423.94 835.31 425.25
  C 828.63 431.91 822.08 438.32 815.73 445.39
  Q 809.93 451.85 803.08 458.48
  A 1.39 1.39 0.0 0 0 803.05 460.45
  Q 803.68 461.10 804.61 461.15
  Z
  M 917.71 449.10
  L 903.89 499.91
  A 0.84 0.83 7.4 0 0 904.70 500.96
  L 919.73 501.00
  Q 920.81 501.01 920.99 499.94
  Q 924.05 481.97 927.48 461.70
  Q 928.36 456.50 929.05 449.22
  A 1.12 1.12 0.0 0 0 927.93 448.00
  L 919.12 448.02
  A 1.46 1.46 0.0 0 0 917.71 449.10
  Z
  M 829.65 492.03
  C 838.18 480.87 847.62 470.50 856.98 460.17
  Q 859.42 457.48 858.91 453.99
  Q 858.84 453.49 858.43 453.19
  Q 857.08 452.18 855.63 452.10
  Q 851.51 451.86 840.37 452.00
  C 839.35 452.01 838.46 451.59 837.50 451.52
  Q 837.05 451.49 836.71 451.79
  Q 833.30 454.80 830.81 458.02
  Q 828.49 461.02 825.74 463.77
  Q 813.03 476.44 804.84 486.09
  Q 801.47 490.07 798.41 493.01
  Q 797.97 493.44 797.90 493.95
  Q 797.77 495.02 798.85 495.02
  Q 812.82 495.06 826.34 494.99
  C 828.45 494.98 828.75 493.21 829.65 492.03
  Z
  M 861.08 460.95
  Q 871.74 461.07 881.36 460.95
  Q 883.43 460.92 883.14 458.96
  Q 883.05 458.41 882.51 458.52
  C 880.43 458.97 878.28 457.96 876.04 457.98
  Q 869.62 458.04 863.77 458.02
  Q 862.30 458.01 861.32 459.10
  L 860.61 459.87
  Q 859.65 460.93 861.08 460.95
  Z
  M 877.57 471.79
  Q 879.22 468.65 880.79 465.34
  A 0.94 0.94 0.0 0 0 879.94 464.00
  Q 868.61 463.97 858.75 464.07
  Q 857.10 464.09 856.45 464.96
  Q 854.90 467.03 853.39 468.74
  Q 845.25 477.95 836.90 487.63
  C 835.21 489.58 833.94 491.70 831.95 493.41
  Q 831.36 493.92 831.22 494.68
  A 0.31 0.31 0.0 0 0 831.52 495.05
  L 865.71 495.02
  A 1.39 1.38 -78.3 0 0 866.98 494.18
  Q 871.70 482.95 877.57 471.79
  Z
  M 345.21 480.71
  Q 344.57 484.59 345.61 488.91
  A 0.35 0.35 0.0 0 0 346.14 489.12
  Q 346.59 488.84 346.65 488.26
  C 347.18 483.15 346.55 477.98 347.78 472.80
  A 2.07 2.04 -50.0 0 0 347.68 471.52
  Q 347.47 471.02 347.01 470.88
  A 0.49 0.49 0.0 0 0 346.38 471.28
  C 345.94 474.36 345.74 477.55 345.21 480.71
  Z
  M 361.06 475.82
  A 1.83 1.81 -79.6 0 1 362.19 477.48
  C 362.23 480.34 363.47 482.31 362.03 485.15
  A 1.33 1.32 4.4 0 0 363.63 487.01
  Q 369.70 485.02 375.98 482.70
  Q 383.97 479.76 391.88 478.76
  Q 396.14 478.22 394.88 473.85
  Q 394.73 473.31 394.17 473.26
  Q 385.75 472.51 377.14 471.97
  Q 372.79 471.70 368.35 471.26
  Q 361.69 470.61 353.92 471.20
  Q 353.43 471.24 353.25 471.70
  Q 352.49 473.64 352.03 475.69
  Q 351.42 478.41 353.87 477.10
  C 356.45 475.72 357.99 474.56 361.06 475.82
  Z
  M 288.73 483.67
  Q 302.31 479.82 315.64 477.34
  C 318.12 476.88 320.65 477.05 323.10 476.62
  Q 325.74 476.15 328.53 476.08
  Q 334.35 475.92 339.56 475.96
  Q 341.03 475.97 341.02 474.51
  L 341.01 472.31
  Q 341.00 471.00 339.69 471.13
  C 333.16 471.78 326.94 471.97 320.14 473.08
  Q 304.08 475.71 288.25 480.67
  A 1.51 1.50 -87.3 0 0 287.33 481.51
  Q 286.85 482.64 287.47 483.31
  Q 287.99 483.88 288.73 483.67
  Z
  M 409.27 475.27
  Q 405.35 473.99 401.54 473.96
  Q 399.85 473.94 399.53 475.61
  L 398.60 480.52
  Q 398.33 481.95 399.79 481.96
  L 409.97 482.00
  A 1.18 1.18 0.0 0 0 411.16 480.78
  C 411.10 478.93 411.50 476.00 409.27 475.27
  Z
  M 393.89 483.69
  L 394.05 482.02
  Q 394.11 481.35 393.46 481.48
  Q 385.11 483.07 378.44 485.50
  Q 368.59 489.09 359.71 492.21
  Q 356.63 493.29 352.90 493.96
  Q 348.83 494.68 352.95 495.03
  C 355.90 495.29 358.40 494.12 361.05 494.05
  C 364.79 493.95 368.45 494.11 372.30 493.60
  Q 376.66 493.02 381.01 493.03
  Q 397.43 493.08 415.44 493.00
  A 0.67 0.67 0.0 0 0 416.11 492.34
  Q 416.15 486.94 415.81 481.71
  C 415.69 479.82 414.94 478.07 414.45 476.24
  Q 414.37 475.96 414.10 475.90
  Q 413.47 475.76 413.55 476.40
  Q 413.61 476.86 413.82 477.28
  Q 414.06 477.75 414.06 478.29
  L 414.02 484.02
  A 1.03 1.03 0.0 0 1 412.98 485.04
  L 395.02 484.94
  Q 393.78 484.93 393.89 483.69
  Z
  M 431.94 493.27
  Q 431.58 492.54 431.91 491.81
  A 1.22 1.20 16.1 0 1 433.20 491.11
  C 439.38 492.07 445.89 491.94 452.27 492.57
  Q 463.90 493.72 475.99 495.07
  C 477.80 495.27 479.27 496.14 481.07 495.98
  A 1.14 1.14 0.0 0 0 482.10 494.78
  Q 481.86 490.43 480.74 486.62
  A 1.97 1.97 0.0 0 0 479.32 485.26
  Q 469.13 482.68 460.89 481.62
  Q 454.94 480.85 449.53 480.25
  Q 443.98 479.63 438.02 478.66
  Q 428.41 477.09 419.12 475.92
  Q 418.44 475.83 418.49 476.52
  L 420.99 510.32
  A 0.65 0.65 0.0 0 0 421.62 510.93
  Q 439.22 511.48 455.53 510.77
  C 459.25 510.60 463.06 510.11 466.76 510.20
  C 472.99 510.34 479.04 509.32 485.18 508.83
  A 0.92 0.91 77.8 0 0 485.97 507.60
  L 482.59 498.58
  Q 482.38 498.03 481.79 497.98
  L 432.71 493.80
  Q 432.17 493.76 431.94 493.27
  Z
  M 321.98 483.47
  Q 322.52 483.72 323.01 483.40
  Q 323.46 483.11 323.99 483.05
  C 327.62 482.65 331.41 481.59 335.06 482.58
  C 336.55 482.98 337.63 482.41 339.00 482.59
  Q 339.89 482.71 339.93 481.81
  L 340.09 477.84
  Q 340.13 476.87 339.20 477.14
  C 337.87 477.53 336.57 478.11 335.16 478.04
  Q 325.21 477.49 315.29 479.17
  Q 301.52 481.49 289.63 485.16
  Q 288.57 485.49 289.11 486.47
  L 290.71 489.30
  A 1.32 1.31 -37.2 0 0 292.79 489.58
  Q 294.90 487.47 297.47 487.53
  Q 299.51 487.57 301.52 487.08
  Q 309.01 485.24 316.52 483.44
  Q 317.05 483.31 317.57 483.48
  Q 319.37 484.07 321.03 483.44
  Q 321.51 483.26 321.98 483.47
  Z
  M 350.4400 488.8800
  A 3.87 0.36 90.0 0 0 350.8000 485.0100
  A 3.87 0.36 90.0 0 0 350.4400 481.1400
  A 3.87 0.36 90.0 0 0 350.0800 485.0100
  A 3.87 0.36 90.0 0 0 350.4400 488.8800
  Z
  M 282.4823 483.6863
  A 0.67 0.67 0.0 0 0 281.6181 483.2979
  L 281.5620 483.3192
  A 0.67 0.67 0.0 0 0 281.1736 484.1834
  L 287.4377 500.6737
  A 0.67 0.67 0.0 0 0 288.3019 501.0621
  L 288.3580 501.0408
  A 0.67 0.67 0.0 0 0 288.7464 500.1766
  L 282.4823 483.6863
  Z
  M 327.10 487.56
  Q 328.01 488.12 328.89 487.50
  A 0.63 0.62 -37.9 0 0 329.01 486.58
  Q 326.75 483.95 323.19 484.07
  Q 321.25 484.13 321.06 486.19
  Q 321.00 486.85 321.83 487.40
  Q 322.48 487.84 323.27 487.85
  Q 324.29 487.86 325.28 487.43
  A 1.98 1.96 -40.6 0 1 327.10 487.56
  Z
  M 260.80 496.91
  Q 259.64 498.34 260.03 500.25
  Q 260.16 500.86 260.71 500.55
  L 261.40 500.14
  A 0.96 0.96 0.0 0 1 262.84 500.91
  Q 262.99 503.24 262.07 505.43
  Q 262.01 505.58 262.16 505.65
  L 262.48 505.78
  Q 262.82 505.92 262.94 505.57
  Q 264.33 501.62 263.86 497.33
  Q 263.78 496.55 263.25 495.89
  Q 262.91 495.48 263.27 495.08
  C 266.05 492.06 271.94 490.02 275.83 488.92
  Q 277.31 488.51 276.70 487.09
  Q 276.18 485.87 273.81 486.40
  Q 272.85 486.62 271.96 487.04
  C 265.16 490.33 258.27 493.61 251.75 497.40
  Q 248.85 499.08 245.77 500.64
  C 242.06 502.51 238.55 504.69 235.02 506.91
  Q 233.69 507.74 233.81 509.31
  L 233.93 510.92
  Q 234.05 512.56 235.25 511.44
  Q 240.44 506.58 244.02 504.64
  Q 252.05 500.29 260.38 496.36
  Q 261.80 495.70 260.80 496.91
  Z
  M 573.19 508.92
  Q 573.43 509.06 573.67 508.98
  Q 574.29 508.80 573.73 508.47
  Q 569.58 506.01 565.66 502.92
  C 562.82 500.69 559.97 499.74 556.50 499.17
  C 543.77 497.09 530.81 495.40 518.18 492.65
  Q 501.60 489.02 484.78 486.31
  Q 483.88 486.16 484.19 487.03
  Q 485.23 489.92 485.00 492.99
  Q 484.96 493.60 485.37 494.06
  Q 486.54 495.36 488.38 495.63
  Q 511.61 499.11 534.39 503.19
  C 546.30 505.32 558.22 506.98 570.00 508.81
  Q 571.33 509.02 572.46 508.80
  Q 572.85 508.73 573.19 508.92
  Z
  M 302.51 489.74
  A 2.51 2.50 -84.8 0 0 301.05 490.96
  L 297.96 496.79
  A 0.69 0.69 0.0 0 0 298.20 497.69
  L 298.51 497.88
  A 0.28 0.28 0.0 0 0 298.91 497.78
  Q 302.05 492.13 306.05 491.12
  Q 308.34 490.55 310.08 489.31
  Q 311.89 488.02 309.69 488.25
  Q 305.99 488.64 302.51 489.74
  Z
  M 276.65 489.86
  L 265.40 494.83
  A 1.13 1.13 0.0 0 0 265.46 496.92
  Q 267.26 497.60 269.11 496.25
  Q 272.77 493.59 277.11 492.08
  Q 278.10 491.73 277.94 490.69
  Q 277.88 490.29 277.48 489.97
  A 0.80 0.80 0.0 0 0 276.65 489.86
  Z
  M 326.72 492.90
  Q 327.36 492.95 326.85 492.57
  Q 325.37 491.46 323.73 491.21
  A 0.75 0.75 0.0 0 0 322.92 491.68
  L 322.80 491.99
  A 0.50 0.50 0.0 0 0 323.23 492.67
  L 326.72 492.90
  Z
  M 313.78 494.84
  Q 314.19 494.96 314.60 494.94
  A 0.24 0.24 0.0 0 0 314.72 494.49
  Q 313.67 493.82 312.73 494.26
  Q 311.65 494.77 312.83 494.93
  Q 313.02 494.95 313.21 494.88
  Q 313.49 494.76 313.78 494.84
  Z
  M 322.42 526.63
  Q 324.23 526.02 326.12 526.01
  Q 335.68 525.96 345.60 525.75
  C 347.09 525.72 348.82 525.23 350.00 525.22
  Q 358.68 525.20 367.35 524.61
  C 373.76 524.17 379.82 524.22 386.03 523.79
  Q 393.85 523.25 400.05 523.10
  Q 409.38 522.87 419.20 523.04
  A 0.63 0.62 -6.0 0 0 419.83 522.27
  Q 417.05 510.75 416.92 497.28
  Q 416.90 495.01 414.72 495.01
  Q 411.99 495.01 409.36 495.34
  C 402.86 496.16 395.97 496.10 389.78 496.10
  A 0.68 0.68 0.0 0 0 389.10 496.71
  Q 388.74 500.71 387.77 505.02
  Q 386.70 509.78 382.44 509.80
  Q 365.83 509.87 353.20 510.79
  Q 336.30 512.03 319.13 513.21
  C 316.57 513.39 314.12 513.88 311.58 514.12
  A 0.68 0.68 0.0 0 0 310.97 514.80
  L 310.96 530.28
  Q 310.96 532.11 312.79 532.07
  L 319.03 531.91
  Q 320.86 531.86 320.85 530.03
  C 320.84 528.70 320.89 527.14 322.42 526.63
  Z
  M 308.6502 495.3741
  A 1.36 0.56 -29.8 0 0 307.1917 495.5641
  A 1.36 0.56 -29.8 0 0 306.2898 496.7259
  A 1.36 0.56 -29.8 0 0 307.7483 496.5359
  A 1.36 0.56 -29.8 0 0 308.6502 495.3741
  Z
  M 347.94 496.72
  Q 348.15 496.26 348.69 495.96
  Q 349.39 495.59 348.61 495.45
  Q 346.97 495.15 345.45 495.36
  Q 330.51 497.38 316.65 499.15
  Q 316.27 499.20 316.21 499.58
  Q 316.16 499.91 316.49 499.93
  Q 320.77 500.17 324.70 499.71
  Q 330.54 499.03 332.83 498.99
  Q 338.52 498.90 344.00 498.93
  C 346.53 498.94 349.10 498.25 351.66 498.20
  Q 367.47 497.90 384.46 498.01
  A 3.00 2.97 26.9 0 0 386.26 497.43
  Q 386.63 497.16 386.81 496.74
  Q 387.06 496.16 386.43 496.15
  Q 368.37 495.74 360.06 496.45
  Q 354.43 496.93 349.96 496.71
  A 1.81 1.77 -53.1 0 0 349.24 496.82
  L 348.36 497.16
  Q 347.62 497.45 347.94 496.72
  Z
  M 883.60 522.06
  C 884.90 523.13 885.31 524.69 884.81 526.27
  Q 882.93 532.22 876.17 532.06
  Q 866.11 531.81 856.42 532.38
  A 0.54 0.53 18.1 0 0 856.03 532.57
  Q 852.91 536.17 849.93 539.98
  A 0.04 0.04 0.0 0 0 849.96 540.04
  Q 869.02 540.07 886.97 540.10
  A 2.53 2.52 -82.0 0 0 889.41 538.25
  L 900.87 497.17
  A 0.95 0.95 0.0 0 0 899.95 495.96
  L 870.78 496.03
  A 1.50 1.49 7.2 0 0 869.33 497.15
  Q 868.58 500.06 867.03 502.98
  C 864.80 507.20 862.99 511.72 861.50 516.20
  A 2.05 2.05 0.0 0 0 863.35 518.90
  Q 869.47 519.19 875.93 518.91
  C 879.15 518.77 881.18 520.06 883.60 522.06
  Z
  M 789.91 510.87
  Q 790.53 511.83 791.74 511.88
  Q 802.24 512.27 813.82 511.95
  A 1.86 1.86 0.0 0 0 815.40 510.98
  Q 818.79 504.76 823.41 499.14
  Q 824.29 498.06 822.90 498.05
  Q 811.11 497.94 801.07 498.01
  C 799.50 498.02 798.21 497.56 796.72 497.22
  Q 795.61 496.96 794.82 497.77
  Q 791.03 501.61 786.62 504.76
  A 0.84 0.84 0.0 0 0 786.44 505.95
  Q 788.22 508.28 789.91 510.87
  Z
  M 281.48 500.14
  Q 281.11 500.69 281.20 501.35
  A 0.49 0.49 0.0 0 0 282.07 501.58
  Q 283.51 499.71 282.22 497.68
  Q 281.73 496.91 281.35 497.74
  Q 281.08 498.33 281.44 498.81
  Q 281.93 499.47 281.48 500.14
  Z
  M 539.77 507.44
  Q 541.94 507.80 543.54 507.65
  Q 543.65 507.65 543.73 507.57
  Q 543.86 507.45 543.69 507.27
  Q 543.52 507.09 543.28 507.05
  Q 542.02 506.85 540.72 506.64
  Q 530.06 504.93 519.12 503.17
  Q 511.94 502.02 503.33 500.71
  Q 495.51 499.51 487.51 497.84
  Q 485.49 497.42 486.23 499.35
  L 488.60 505.50
  Q 489.17 507.01 490.79 507.00
  Q 494.81 506.98 499.17 507.58
  Q 503.33 508.15 509.14 507.57
  Q 509.76 507.51 510.26 507.12
  C 512.38 505.48 517.82 506.20 520.28 506.59
  C 526.75 507.63 533.85 506.48 539.77 507.44
  Z
  M 847.00 505.84
  Q 847.87 505.59 847.89 506.49
  L 848.03 512.02
  Q 848.04 512.67 848.69 512.76
  Q 853.55 513.47 858.17 512.71
  A 1.26 1.25 5.2 0 0 859.15 511.90
  Q 860.77 507.31 863.00 503.06
  C 863.75 501.61 864.00 500.08 864.63 498.58
  A 0.43 0.43 0.0 0 0 864.23 497.99
  L 829.51 497.99
  A 1.64 1.64 0.0 0 0 828.16 498.70
  Q 824.84 503.62 820.38 508.39
  Q 819.42 509.42 819.03 510.72
  Q 818.62 512.09 820.06 512.09
  L 843.93 512.07
  A 1.07 1.06 1.4 0 0 844.99 511.07
  L 845.17 508.06
  Q 845.25 506.77 846.36 506.12
  Q 846.66 505.94 847.00 505.84
  Z
  M 781.42 503.93
  C 780.06 502.14 778.96 500.13 777.30 498.65
  A 1.84 1.83 55.2 0 0 775.44 498.31
  Q 769.90 500.39 764.73 502.48
  Q 754.88 506.46 744.43 508.27
  Q 744.29 508.29 744.21 508.42
  Q 744.14 508.54 744.29 508.71
  Q 744.36 508.79 744.47 508.79
  C 746.62 508.87 748.60 508.88 750.79 509.44
  Q 756.81 510.99 762.63 511.06
  C 764.10 511.07 765.34 511.69 766.80 511.80
  C 768.90 511.97 770.20 510.55 772.42 511.71
  Q 774.16 512.63 776.00 513.35
  Q 776.52 513.55 777.02 513.29
  C 779.95 511.74 783.04 512.18 786.19 511.87
  Q 786.98 511.79 786.54 511.13
  Q 784.06 507.41 781.42 503.93
  Z
  M 315.06 501.20
  Q 314.38 499.59 312.61 500.12
  C 311.21 500.53 310.99 502.03 310.96 503.27
  Q 310.88 506.75 310.98 510.16
  A 1.05 1.04 86.6 0 0 312.11 511.17
  Q 347.39 508.23 384.25 506.80
  Q 384.31 506.80 384.34 506.75
  Q 385.03 505.65 385.49 501.29
  Q 385.51 501.08 385.30 501.08
  C 369.63 500.97 354.23 500.65 338.52 501.61
  Q 328.70 502.21 318.72 502.06
  Q 317.26 502.04 315.81 501.80
  Q 315.27 501.71 315.06 501.20
  Z
  M 306.66 501.09
  C 301.23 502.43 295.88 503.14 290.43 504.42
  Q 282.84 506.20 274.94 507.42
  A 2.31 2.31 0.0 0 0 273.03 509.21
  Q 272.71 510.68 272.94 512.09
  A 0.96 0.96 0.0 0 0 273.84 512.89
  Q 280.90 513.25 287.35 512.67
  C 295.24 511.97 300.49 511.90 307.02 511.96
  A 0.95 0.95 0.0 0 0 307.98 511.02
  L 308.08 502.22
  A 1.15 1.15 0.0 0 0 306.66 501.09
  Z
  M 581.30 509.77
  Q 583.73 510.91 586.37 511.35
  C 592.61 512.39 599.16 513.54 605.53 512.80
  A 0.24 0.24 0.0 0 0 605.72 512.45
  L 602.95 506.81
  Q 602.72 506.34 602.20 506.25
  Q 587.49 503.81 573.08 501.75
  C 572.23 501.63 571.50 501.16 570.70 501.13
  A 0.45 0.45 0.0 0 0 570.35 501.88
  Q 574.76 506.69 581.30 509.77
  Z
  M 903.17 507.64
  A 2.15 2.14 7.1 0 1 905.22 506.05
  L 919.15 505.91
  Q 919.90 505.90 920.13 505.18
  L 920.24 504.80
  A 0.36 0.36 0.0 0 0 919.92 504.33
  Q 912.38 503.84 904.35 504.09
  A 2.70 2.69 7.7 0 0 901.86 505.98
  Q 896.72 522.60 893.07 537.76
  Q 892.76 539.03 893.59 539.96
  A 0.63 0.63 0.0 0 0 894.68 539.68
  Q 896.46 531.62 898.67 523.88
  Q 900.84 516.25 903.17 507.64
  Z
  M 250.45 507.18
  A 0.41 0.41 0.0 0 0 250.55 507.91
  Q 251.01 508.05 251.42 507.77
  A 0.39 0.39 0.0 0 0 251.57 507.31
  Q 251.32 506.60 250.45 507.18
  Z
  M 666.47 514.11
  L 666.66 513.75
  Q 667.41 512.35 665.82 512.29
  Q 638.22 511.21 609.27 506.85
  Q 606.57 506.45 607.50 509.02
  Q 607.61 509.33 607.77 509.79
  A 4.50 4.50 0.0 0 0 611.41 512.72
  C 618.84 513.72 626.38 513.95 633.74 514.29
  Q 639.13 514.54 644.23 514.89
  Q 649.53 515.26 654.63 515.24
  C 657.80 515.23 660.86 515.95 664.08 515.68
  Q 665.70 515.55 666.47 514.11
  Z
  M 220.06 509.85
  C 221.65 509.16 223.19 509.09 224.76 508.52
  A 0.48 0.48 0.0 0 0 224.97 507.76
  L 224.79 507.54
  Q 224.42 507.09 223.85 507.19
  L 217.72 508.26
  Q 216.22 508.52 217.34 509.55
  Q 218.44 510.55 220.06 509.85
  Z
  M 211.44 512.49
  A 1.02 1.00 17.9 0 0 212.49 511.97
  Q 213.26 510.49 213.02 508.78
  Q 212.96 508.31 212.51 508.45
  Q 209.89 509.25 207.90 510.68
  Q 206.51 511.67 208.20 511.95
  L 211.44 512.49
  Z
  M 522.76 509.38
  L 513.25 508.07
  A 0.01 0.01 0.0 0 0 513.24 508.08
  L 513.21 508.27
  A 4.63 0.72 7.8 0 0 517.70 509.61
  L 518.06 509.66
  A 4.63 0.72 7.8 0 0 522.74 509.58
  L 522.77 509.39
  A 0.01 0.01 0.0 0 0 522.76 509.38
  Z
  M 248.18 524.13
  L 247.91 514.72
  A 0.63 0.63 0.0 0 1 248.53 514.07
  Q 250.77 514.03 253.01 513.94
  Q 255.26 513.86 257.46 513.43
  Q 261.62 512.62 266.39 513.04
  Q 269.62 513.33 269.09 510.15
  Q 268.96 509.40 268.23 509.61
  Q 260.75 511.79 251.23 512.74
  C 249.29 512.94 247.74 513.86 245.78 513.98
  Q 244.95 514.04 245.40 514.73
  Q 245.49 514.85 245.57 514.98
  Q 245.92 515.50 245.72 516.09
  Q 245.12 517.92 244.75 519.98
  Q 244.45 521.69 244.68 523.34
  Q 245.39 528.43 244.77 533.57
  A 0.50 0.50 0.0 0 1 244.22 534.01
  L 243.94 533.98
  Q 243.06 533.89 243.05 533.01
  L 242.98 527.26
  Q 242.96 525.65 241.36 525.79
  Q 232.81 526.54 224.46 528.22
  Q 224.01 528.31 224.01 528.77
  L 224.01 555.91
  A 1.16 1.16 0.0 0 0 225.41 557.05
  L 256.01 550.69
  Q 257.51 550.38 256.02 550.03
  Q 244.32 547.34 233.13 546.85
  C 231.28 546.77 229.81 545.85 227.98 546.02
  A 1.09 1.09 0.0 0 1 226.80 544.75
  C 227.00 543.65 227.43 542.70 228.49 542.19
  Q 237.98 537.62 243.76 536.01
  Q 247.98 534.83 256.79 533.47
  C 260.49 532.90 264.06 533.23 267.71 532.40
  A 1.71 1.71 0.0 0 0 269.05 530.73
  L 269.02 516.73
  Q 269.01 514.58 266.88 514.84
  Q 265.55 515.00 263.89 515.21
  Q 261.65 515.48 262.20 517.67
  Q 263.07 521.09 262.99 524.37
  A 0.63 0.63 0.0 0 1 262.37 524.98
  L 249.13 525.05
  Q 248.21 525.05 248.18 524.13
  Z
  M 522.12 510.42
  Q 520.81 510.82 519.39 510.85
  Q 506.00 511.07 493.80 510.97
  Q 490.89 510.95 492.74 513.20
  Q 493.96 514.68 495.34 515.92
  Q 497.68 518.04 500.84 517.81
  Q 508.84 517.22 515.68 517.06
  Q 522.09 516.90 528.77 516.31
  Q 534.14 515.84 539.27 516.28
  C 547.52 516.99 555.68 516.97 564.07 517.06
  Q 569.50 517.12 578.40 517.83
  Q 589.45 518.71 600.25 517.58
  Q 601.36 517.46 600.31 517.07
  C 597.55 516.05 594.07 516.08 591.25 515.53
  Q 573.82 512.09 559.05 510.69
  C 553.54 510.17 547.74 511.10 541.54 510.62
  C 535.58 510.17 530.03 510.01 524.32 510.07
  Q 523.19 510.09 522.12 510.42
  Z
  M 479.30 516.48
  Q 479.30 516.26 479.52 516.25
  L 489.27 515.87
  A 0.78 0.78 0.0 0 0 489.93 514.73
  L 488.72 512.43
  Q 488.23 511.49 487.17 511.63
  C 482.99 512.20 478.61 511.93 474.26 512.29
  Q 470.74 512.59 467.72 512.77
  Q 439.46 514.38 421.80 513.97
  Q 420.78 513.94 421.42 514.74
  C 421.88 515.30 422.00 516.34 421.99 517.04
  C 421.97 520.06 423.22 523.24 426.54 524.00
  C 431.43 525.13 436.72 524.96 441.77 524.46
  Q 460.64 522.59 477.97 520.84
  Q 483.82 520.25 490.01 519.97
  Q 491.04 519.92 492.08 519.44
  A 1.01 1.00 46.7 0 0 492.13 517.64
  Q 491.05 517.06 489.83 517.06
  Q 484.62 517.09 479.33 516.79
  Q 479.30 516.79 479.30 516.76
  L 479.30 516.48
  Z
  M 740.44 513.71
  C 743.27 514.07 746.59 514.08 749.18 513.16
  Q 751.00 512.52 749.08 512.32
  C 745.17 511.91 741.31 512.24 737.39 511.93
  C 732.78 511.56 727.73 512.19 723.78 512.11
  Q 708.81 511.81 696.34 512.47
  Q 685.20 513.05 677.23 513.11
  Q 675.72 513.12 674.48 513.17
  Q 668.83 513.36 670.01 515.57
  A 0.99 0.99 0.0 0 0 670.88 516.09
  Q 692.90 516.09 714.51 515.97
  Q 717.84 515.95 721.03 515.71
  Q 723.00 515.56 725.17 514.56
  C 729.74 512.44 735.61 513.10 740.44 513.71
  Z
  M 272.68 515.17
  A 0.65 0.65 0.0 0 0 272.03 515.82
  L 272.01 530.72
  Q 272.01 531.89 273.19 531.90
  Q 278.60 531.96 283.44 531.66
  C 292.57 531.07 299.36 530.97 307.21 531.02
  A 0.81 0.81 0.0 0 0 308.03 530.21
  L 308.09 516.08
  A 1.01 1.01 0.0 0 0 307.08 515.07
  L 272.68 515.17
  Z
  M 235.76 519.81
  Q 235.84 519.29 236.11 518.85
  Q 236.45 518.32 237.08 518.28
  L 241.69 517.93
  Q 242.89 517.84 243.17 516.67
  Q 243.48 515.34 241.24 515.11
  A 1.49 1.43 -46.2 0 0 240.76 515.13
  L 224.46 518.39
  Q 223.09 518.66 223.06 520.06
  L 222.98 523.47
  Q 222.93 525.68 225.08 525.15
  Q 234.20 522.86 242.50 522.88
  A 0.65 0.64 0.9 0 0 243.15 522.26
  L 243.16 521.91
  Q 243.20 521.05 242.34 521.10
  Q 239.28 521.31 236.46 520.79
  Q 235.64 520.63 235.76 519.81
  Z
  M 256.47 515.90
  Q 253.41 516.02 250.51 516.31
  Q 250.29 516.33 250.29 516.55
  L 250.30 516.96
  Q 250.30 517.20 250.54 517.19
  L 259.19 516.82
  Q 259.60 516.80 259.81 516.45
  Q 260.08 516.02 259.82 515.61
  Q 259.51 515.12 258.95 515.27
  C 258.04 515.50 257.49 515.86 256.47 515.90
  Z
  M 761.32 515.50
  C 755.71 516.50 750.22 517.97 744.62 519.23
  Q 743.53 519.47 744.63 519.62
  Q 750.06 520.39 755.16 519.75
  C 761.53 518.96 767.40 518.86 773.79 518.99
  Q 774.34 519.00 774.73 519.27
  Q 775.31 519.68 776.05 519.59
  Q 777.17 519.45 776.23 518.82
  Q 769.25 514.10 761.32 515.50
  Z
  M 199.6165 516.2866
  A 1.44 1.05 -23.9 0 0 197.8746 515.9100
  A 1.44 1.05 -23.9 0 0 196.9835 517.4534
  A 1.44 1.05 -23.9 0 0 198.7254 517.8300
  A 1.44 1.05 -23.9 0 0 199.6165 516.2866
  Z
  M 191.37 516.43
  Q 189.53 517.09 187.73 517.25
  Q 186.72 517.34 186.31 518.30
  Q 185.99 519.05 186.80 519.01
  L 191.20 518.83
  Q 191.94 518.79 191.98 518.05
  L 192.03 516.92
  A 0.50 0.49 81.3 0 0 191.37 516.43
  Z
  M 832.60 517.53
  C 831.37 517.09 829.33 517.04 828.00 517.03
  Q 805.25 516.87 781.76 517.12
  A 0.95 0.95 0.0 0 0 780.83 518.18
  L 780.89 518.73
  Q 781.02 519.84 782.14 519.91
  C 787.22 520.22 791.99 519.26 796.99 519.18
  Q 812.24 518.92 828.50 518.95
  Q 830.95 518.95 832.56 518.51
  Q 834.14 518.07 832.60 517.53
  Z
  M 835.98 517.30
  L 835.98 518.68
  A 0.28 0.28 0.0 0 0 836.26 518.96
  L 851.61 519.02
  A 5.11 0.80 0.2 0 0 856.72 518.24
  L 856.72 517.90
  A 5.11 0.80 0.2 0 0 851.61 517.08
  L 836.26 517.02
  A 0.28 0.28 0.0 0 0 835.98 517.30
  Z
  M 182.1510 518.7513
  A 1.99 1.04 -9.8 0 0 180.0130 518.0652
  A 1.99 1.04 -9.8 0 0 178.2290 519.4287
  A 1.99 1.04 -9.8 0 0 180.3670 520.1148
  A 1.99 1.04 -9.8 0 0 182.1510 518.7513
  Z
  M 728.36 533.98
  C 730.48 533.80 733.38 533.16 734.89 531.73
  Q 735.98 530.71 735.97 528.82
  Q 735.96 525.26 736.11 522.10
  Q 736.19 520.40 735.43 518.76
  Q 735.21 518.30 734.70 518.33
  Q 725.90 518.76 722.18 526.29
  Q 721.94 526.77 722.03 527.30
  C 722.48 529.98 725.04 534.24 728.36 533.98
  Z
  M 201.74 527.18
  A 1.62 1.62 0.0 0 1 201.93 524.47
  Q 203.76 523.45 205.38 524.66
  A 0.31 0.31 0.0 0 0 205.88 524.45
  Q 206.11 522.34 204.14 522.30
  Q 202.40 522.27 200.72 523.65
  A 1.42 1.41 -18.7 0 0 200.21 524.67
  Q 199.65 534.77 200.28 543.65
  Q 200.31 544.15 200.76 544.38
  Q 202.32 545.20 204.16 544.94
  Q 212.39 543.78 219.95 544.01
  A 1.02 1.01 -89.2 0 0 220.99 542.99
  L 221.00 520.07
  Q 221.00 519.41 220.34 519.52
  L 208.01 521.65
  Q 206.99 521.83 207.44 522.75
  Q 208.36 524.65 207.19 527.09
  A 1.50 1.48 6.3 0 1 206.18 527.89
  Q 203.53 528.52 201.74 527.18
  Z
  M 529.20 526.11
  Q 544.58 525.34 560.40 523.71
  C 566.78 523.05 572.64 522.99 578.86 522.94
  C 582.81 522.91 586.23 521.55 590.23 521.76
  Q 590.61 521.78 590.62 521.41
  L 590.63 521.15
  Q 590.64 521.08 590.58 521.08
  Q 587.53 520.79 584.50 520.93
  Q 581.53 521.08 578.48 521.06
  Q 563.78 520.99 549.08 520.87
  C 539.03 520.79 528.92 519.54 518.87 520.19
  Q 517.26 520.29 518.63 521.15
  Q 520.76 522.48 522.68 524.04
  C 524.34 525.39 525.93 525.87 527.88 526.48
  Q 528.00 526.52 528.13 526.51
  Q 528.32 526.49 528.48 526.37
  Q 528.80 526.13 529.20 526.11
  Z
  M 612.75 520.37
  Q 612.18 520.16 611.63 520.43
  Q 610.93 520.77 611.70 520.91
  Q 612.53 521.06 613.46 520.84
  Q 613.96 520.72 613.51 520.47
  Q 613.12 520.25 612.75 520.37
  Z
  M 587.95 531.99
  A 0.52 0.52 0.0 0 0 588.05 532.49
  Q 588.46 532.96 589.01 532.75
  Q 590.71 532.13 592.25 532.09
  C 596.26 531.99 600.21 532.24 604.24 532.08
  Q 636.72 530.80 675.50 529.52
  Q 692.26 528.97 699.51 529.06
  Q 701.04 529.08 701.04 527.55
  L 701.03 522.50
  Q 701.03 521.01 699.53 520.99
  C 694.80 520.93 690.13 521.73 685.49 521.81
  C 671.29 522.05 658.71 522.94 645.58 523.18
  Q 636.63 523.34 628.32 523.86
  Q 615.60 524.66 602.50 525.22
  C 597.48 525.44 589.84 526.27 587.95 531.99
  Z
  M 716.02 527.79
  C 715.79 524.68 716.60 523.10 719.37 521.66
  Q 720.25 521.20 719.26 521.14
  Q 712.96 520.79 706.82 521.11
  Q 705.02 521.21 704.98 523.02
  L 704.91 527.32
  Q 704.88 529.00 706.57 529.00
  L 714.91 528.98
  A 1.12 1.11 88.1 0 0 716.02 527.79
  Z
  M 518.56 524.92
  C 515.53 523.03 512.60 521.32 508.75 521.19
  Q 502.54 521.00 499.75 521.34
  Q 487.34 522.88 474.47 523.92
  C 466.77 524.54 458.51 525.60 450.50 526.19
  C 449.31 526.28 448.34 526.82 447.14 526.85
  Q 436.29 527.14 426.46 527.03
  Q 422.77 526.99 418.97 526.26
  Q 414.83 525.47 413.04 528.44
  A 1.04 1.04 0.0 0 0 413.93 530.02
  Q 424.30 530.02 434.46 529.99
  C 437.32 529.98 440.10 529.08 442.77 529.12
  Q 451.07 529.27 458.12 528.78
  Q 466.22 528.23 473.34 528.17
  Q 483.40 528.08 494.03 528.01
  C 501.20 527.96 508.23 527.34 515.35 526.85
  C 516.52 526.77 517.57 526.26 518.56 525.64
  A 0.43 0.43 0.0 0 0 518.56 524.92
  Z
  M 810.9801 527.2787
  A 3.03 0.98 91.7 0 0 812.0496 524.2791
  A 3.03 0.98 91.7 0 0 811.1599 521.2213
  A 3.03 0.98 91.7 0 0 810.0904 524.2209
  A 3.03 0.98 91.7 0 0 810.9801 527.2787
  Z
  M 194.99 527.50
  Q 195.34 528.31 194.60 528.81
  Q 193.55 529.53 192.28 529.65
  Q 188.44 530.02 184.80 531.06
  A 0.96 0.96 0.0 0 0 184.10 531.96
  L 183.97 535.99
  A 1.95 1.95 0.0 0 1 182.22 537.86
  C 180.50 538.04 178.74 537.94 177.03 538.32
  Q 173.48 539.11 169.73 539.07
  A 0.70 0.70 0.0 0 0 169.02 539.72
  Q 168.65 544.17 169.40 548.21
  C 170.19 552.44 170.00 556.72 170.08 560.93
  A 0.79 0.78 -3.3 0 0 170.95 561.70
  L 197.55 558.66
  A 0.37 0.37 0.0 0 0 197.88 558.33
  Q 198.58 552.14 197.66 547.14
  Q 196.98 543.45 197.04 539.96
  Q 197.15 532.60 196.99 524.45
  Q 196.95 522.67 195.19 522.97
  L 163.25 528.33
  A 1.39 1.37 -3.7 0 0 162.10 529.62
  Q 161.66 538.20 162.20 545.84
  Q 162.32 547.54 163.95 547.04
  Q 164.17 546.98 164.40 546.93
  A 1.96 1.96 0.0 0 0 165.92 544.71
  L 164.97 538.75
  A 1.60 1.60 0.0 0 1 166.36 536.91
  C 168.48 536.65 170.41 535.98 172.59 536.07
  Q 176.27 536.22 179.87 535.42
  A 1.14 1.13 -83.2 0 0 180.64 534.81
  Q 181.37 533.30 180.81 531.56
  Q 180.61 530.97 180.22 531.46
  C 178.61 533.45 175.32 532.83 173.07 533.36
  Q 171.77 533.66 171.05 532.55
  Q 170.86 532.28 170.77 531.97
  Q 170.35 530.66 171.69 530.36
  C 173.20 530.01 174.71 529.48 176.25 529.29
  Q 183.08 528.43 189.59 527.19
  C 191.06 526.91 192.61 527.05 194.11 526.96
  Q 194.74 526.92 194.99 527.50
  Z
  M 804.83 524.26
  Q 803.30 524.95 802.00 524.96
  Q 773.43 525.16 738.98 525.09
  Q 738.17 525.09 737.59 525.83
  Q 737.47 525.99 737.42 526.16
  A 0.65 0.64 -82.1 0 0 738.03 526.98
  L 805.60 526.99
  Q 807.54 526.99 806.59 525.30
  L 805.62 523.59
  A 0.26 0.26 0.0 0 0 805.28 523.49
  Q 805.06 523.60 805.07 523.86
  A 0.41 0.41 0.0 0 1 804.83 524.26
  Z
  M 832.0891 525.1916
  A 1.10 1.10 0.0 0 0 830.9852 524.0955
  L 816.9253 524.1445
  A 1.10 1.10 0.0 0 0 815.8292 525.2484
  L 815.8309 525.7484
  A 1.10 1.10 0.0 0 0 816.9348 526.8445
  L 830.9947 526.7955
  A 1.10 1.10 0.0 0 0 832.0908 525.6916
  L 832.0891 525.1916
  Z
  M 836.0593 526.8999
  A 1.38 1.06 89.2 0 0 837.0999 525.5052
  A 1.38 1.06 89.2 0 0 836.0207 524.1401
  A 1.38 1.06 89.2 0 0 834.9801 525.5348
  A 1.38 1.06 89.2 0 0 836.0593 526.8999
  Z
  M 838.91 524.47
  L 838.88 526.13
  A 0.65 0.65 0.0 0 0 839.52 526.79
  L 844.90 526.88
  A 33.29 1.19 1.0 0 0 878.20 526.27
  L 878.21 525.69
  A 33.29 1.19 1.0 0 0 844.95 523.92
  L 839.57 523.83
  A 0.65 0.65 0.0 0 0 838.91 524.47
  Z
  M 409.98 528.11
  L 410.49 526.93
  Q 411.39 524.85 409.15 525.15
  Q 401.24 526.19 392.00 525.93
  Q 387.27 525.79 382.53 526.25
  C 374.88 526.99 367.57 527.07 360.03 527.25
  C 358.35 527.29 356.64 527.89 354.92 527.91
  Q 342.19 528.06 329.71 528.07
  C 328.31 528.07 326.88 528.68 325.60 528.43
  A 1.30 1.29 5.7 0 0 324.05 529.69
  C 324.05 531.16 325.27 531.66 326.57 531.45
  Q 329.70 530.95 332.67 530.97
  Q 361.38 531.17 392.43 530.83
  C 397.34 530.78 402.21 529.91 407.20 529.92
  Q 409.19 529.93 409.98 528.11
  Z
  M 583.89 530.28
  C 584.76 528.44 586.16 527.28 587.52 525.80
  Q 588.12 525.15 587.25 525.33
  C 582.01 526.39 576.59 526.00 571.07 526.42
  Q 551.05 527.93 531.02 529.37
  Q 527.95 529.59 523.17 531.06
  C 522.38 531.30 521.40 531.95 520.81 532.53
  Q 519.24 534.07 521.44 534.06
  C 538.78 534.01 555.25 533.43 571.65 532.71
  C 574.88 532.57 577.94 532.01 581.09 531.92
  C 582.29 531.89 583.36 531.41 583.89 530.28
  Z
  M 156.82 535.22
  Q 156.94 545.52 157.28 555.57
  C 157.34 557.20 157.64 558.71 157.90 560.31
  Q 158.43 563.69 158.80 560.29
  C 159.19 556.79 158.06 552.39 157.97 549.08
  Q 157.78 542.00 157.76 534.97
  C 157.75 533.92 158.12 533.12 158.17 532.12
  A 1.10 1.10 0.0 0 0 156.85 530.99
  Q 128.71 536.68 103.34 545.38
  C 99.81 546.59 95.21 548.52 91.05 549.88
  Q 89.51 550.38 86.74 551.56
  Q 84.61 552.46 82.33 553.07
  Q 82.18 553.12 82.22 553.27
  L 82.29 553.52
  Q 82.36 553.76 82.60 553.69
  Q 101.64 548.03 115.28 544.30
  Q 135.11 538.88 156.10 534.63
  A 0.61 0.60 84.1 0 1 156.82 535.22
  Z
  M 490.30 532.34
  Q 493.03 531.81 495.83 531.51
  Q 495.93 531.50 495.92 531.39
  L 495.88 531.12
  A 0.21 0.20 -3.0 0 0 495.67 530.94
  Q 482.19 531.21 467.95 531.16
  Q 462.00 531.13 452.09 531.73
  Q 444.06 532.22 436.22 532.07
  Q 431.87 531.98 426.97 532.63
  Q 421.61 533.35 414.32 533.01
  Q 413.06 532.95 411.68 533.17
  Q 411.17 533.26 410.98 533.74
  Q 410.69 534.51 411.02 535.26
  Q 411.23 535.72 411.74 535.78
  C 415.74 536.21 419.17 535.02 423.09 535.01
  Q 434.51 534.98 445.99 534.69
  C 447.19 534.66 448.25 534.32 449.43 534.29
  Q 464.79 533.86 478.89 533.70
  Q 481.75 533.67 484.61 533.28
  Q 487.55 532.88 490.30 532.34
  Z
  M 738.63 534.25
  Q 739.46 535.34 739.83 534.02
  Q 740.06 533.19 739.71 532.32
  A 0.70 0.70 0.0 0 0 738.66 532.01
  Q 737.54 532.82 738.63 534.25
  Z
  M 743.21 532.11
  L 743.18 532.36
  Q 743.16 532.67 743.46 532.69
  Q 745.52 532.83 747.39 532.73
  Q 747.60 532.71 747.60 532.50
  L 747.59 532.25
  Q 747.59 532.24 747.58 532.24
  Q 745.35 532.27 743.40 531.96
  Q 743.22 531.93 743.21 532.11
  Z
  M 307.91 534.18
  Q 307.86 534.04 307.85 533.90
  Q 307.78 533.28 307.16 533.25
  C 304.50 533.10 302.18 533.69 299.65 533.74
  Q 291.36 533.90 279.52 534.56
  Q 265.75 535.32 254.46 537.21
  Q 250.32 537.90 246.68 539.18
  Q 245.39 539.64 246.75 539.79
  Q 252.34 540.41 257.66 539.76
  Q 263.21 539.08 268.41 538.89
  Q 294.87 537.92 321.99 537.74
  C 326.39 537.71 330.70 536.91 335.14 536.95
  Q 358.72 537.16 382.49 536.70
  C 384.11 536.67 385.70 536.32 387.29 536.31
  Q 397.36 536.28 407.12 535.75
  A 1.15 1.14 0.9 0 0 408.19 534.72
  Q 408.22 534.42 408.16 534.18
  Q 407.86 533.05 406.69 533.05
  Q 394.03 533.01 383.67 533.27
  C 381.00 533.34 378.45 534.04 375.74 534.03
  Q 346.08 533.95 319.25 534.09
  C 315.43 534.11 312.30 535.30 308.26 534.47
  A 0.49 0.48 84.0 0 1 307.91 534.18
  Z
  M 927.87 543.23
  A 2.48 2.47 -36.5 0 1 930.15 543.57
  Q 932.75 545.49 933.16 548.58
  Q 933.18 548.71 933.30 548.76
  Q 933.43 548.81 933.58 548.73
  Q 933.67 548.68 933.68 548.59
  Q 934.78 541.72 932.15 535.19
  Q 931.92 534.61 931.34 534.38
  Q 926.69 532.55 922.05 533.13
  Q 921.34 533.22 921.00 533.87
  Q 918.69 538.37 921.07 543.34
  C 922.07 545.43 924.48 545.33 926.33 544.64
  A 1.30 1.27 -87.1 0 0 927.00 544.02
  Q 927.28 543.44 927.87 543.23
  Z
  M 680.40 535.73
  Q 678.30 534.85 676.63 536.40
  Q 669.09 543.43 661.93 547.87
  Q 660.18 548.95 662.24 548.97
  L 671.44 549.03
  A 4.72 4.71 -67.1 0 0 674.81 547.66
  L 683.37 539.19
  Q 684.95 537.62 682.90 536.77
  Q 681.65 536.25 680.40 535.73
  Z
  M 939.31 539.03
  Q 943.93 538.85 948.64 540.07
  A 1.80 1.77 41.9 0 0 949.70 540.02
  Q 951.77 539.26 951.17 538.09
  Q 950.67 537.09 949.57 536.92
  L 937.85 535.09
  A 0.81 0.81 0.0 0 0 936.93 536.00
  Q 937.14 537.49 937.90 538.77
  Q 938.16 539.21 938.12 539.72
  Q 937.61 545.64 938.50 550.19
  C 939.00 552.76 938.80 555.29 939.32 557.80
  Q 939.34 557.92 939.47 557.89
  Q 939.52 557.88 939.57 557.84
  Q 939.70 557.73 939.70 557.56
  Q 939.72 553.19 939.84 549.21
  A 1.17 1.17 0.0 0 1 941.00 548.08
  L 949.59 548.04
  Q 950.94 548.03 951.24 546.71
  Q 951.35 546.25 951.12 545.75
  A 1.01 1.00 -11.5 0 0 950.24 545.17
  Q 945.25 544.99 940.65 543.79
  Q 940.08 543.65 939.73 543.17
  Q 938.62 541.63 938.69 539.65
  Q 938.71 539.05 939.31 539.03
  Z
  M 834.02 539.83
  Q 831.65 540.15 830.15 540.57
  Q 830.07 540.59 830.06 540.68
  L 830.01 541.16
  Q 829.97 541.44 830.26 541.41
  Q 835.84 540.73 842.91 541.00
  A 3.22 3.20 23.1 0 0 845.32 540.04
  Q 846.21 539.14 846.64 537.80
  Q 846.89 537.03 846.11 537.26
  Q 839.91 539.05 834.02 539.83
  Z
  M 633.95 553.53
  A 0.42 0.42 0.0 0 1 633.86 552.80
  C 639.00 549.18 642.83 544.30 646.85 539.37
  A 0.81 0.81 0.0 0 0 646.42 538.07
  C 644.18 537.50 642.46 538.25 640.58 539.76
  Q 633.13 545.73 625.47 551.78
  A 1.30 1.29 46.0 0 0 625.44 553.79
  C 626.89 555.02 630.16 555.08 632.05 555.53
  Q 634.21 556.05 636.39 556.07
  Q 642.74 556.11 649.19 555.89
  A 0.95 0.95 0.0 0 0 650.10 555.01
  L 650.12 554.70
  A 0.50 0.50 0.0 0 0 649.64 554.16
  Q 642.42 553.94 635.77 553.89
  Q 634.86 553.88 633.95 553.53
  Z
  M 960.66 551.21
  Q 960.06 549.10 962.25 549.08
  L 970.26 549.03
  Q 972.89 549.01 972.15 546.48
  L 971.99 545.94
  Q 971.31 543.63 968.93 543.97
  L 960.69 545.12
  Q 958.74 545.40 958.85 543.43
  L 958.91 542.40
  Q 958.99 541.05 960.35 541.00
  L 964.48 540.84
  Q 964.73 540.83 964.71 540.59
  Q 964.70 540.43 964.54 540.41
  Q 962.57 540.21 960.61 539.74
  Q 960.10 539.61 959.69 539.26
  L 958.77 538.45
  Q 958.09 537.86 958.04 538.76
  Q 957.86 542.12 958.35 545.01
  Q 959.05 549.12 959.05 551.06
  Q 959.05 554.27 959.26 557.23
  Q 959.35 558.60 959.95 557.36
  Q 961.50 554.17 960.66 551.21
  Z
  M 688.91 539.41
  Q 687.03 538.44 685.54 539.94
  L 677.84 547.69
  Q 676.47 549.06 678.41 549.05
  L 683.80 548.99
  A 4.13 4.12 18.0 0 0 687.07 547.33
  L 690.55 542.66
  Q 691.83 540.93 689.92 539.94
  L 688.91 539.41
  Z
  M 651.49 540.63
  Q 649.57 539.39 648.29 541.23
  Q 645.14 545.76 640.27 550.29
  A 0.44 0.43 22.8 0 0 640.58 551.04
  L 646.25 550.96
  Q 647.23 550.95 647.81 550.15
  Q 650.88 545.83 655.38 543.14
  Q 656.47 542.49 655.25 542.16
  C 653.81 541.78 652.75 541.45 651.49 540.63
  Z
  M 587.18 555.67
  A 0.34 0.33 40.5 0 1 587.13 555.15
  C 588.37 553.98 589.72 553.04 590.78 551.69
  Q 594.56 546.84 598.78 542.54
  A 0.91 0.90 -36.6 0 0 598.94 541.49
  Q 598.57 540.78 597.99 540.78
  Q 596.34 540.78 595.36 541.54
  Q 585.59 549.15 575.14 556.51
  Q 574.56 556.92 574.99 557.50
  Q 575.12 557.68 575.49 557.87
  Q 575.73 558.00 576.06 558.00
  C 580.39 558.05 584.69 557.58 588.89 558.43
  Q 591.61 558.99 594.24 558.99
  Q 611.15 559.02 625.29 558.89
  Q 626.79 558.88 625.48 558.13
  Q 623.55 557.04 621.04 557.04
  Q 606.31 557.06 591.67 557.00
  Q 589.15 556.99 587.18 555.67
  Z
  M 723.55 548.51
  L 723.56 548.25
  Q 723.56 548.20 723.51 548.20
  C 720.05 548.06 716.63 547.93 713.22 547.23
  Q 704.15 545.37 695.19 542.25
  A 1.48 1.48 0.0 0 0 693.50 542.80
  L 690.01 547.74
  A 0.68 0.68 0.0 0 0 690.32 548.77
  Q 690.78 548.94 691.50 548.95
  Q 707.39 549.19 723.25 548.81
  Q 723.55 548.81 723.55 548.51
  Z
  M 593.32 552.39
  A 0.96 0.96 0.0 0 0 594.03 554.00
  L 615.34 554.01
  A 0.96 0.96 0.0 0 0 615.87 552.25
  L 602.67 543.48
  A 0.96 0.96 0.0 0 0 601.43 543.63
  L 593.32 552.39
  Z
  M 852.46 552.38
  Q 853.01 552.53 853.51 552.82
  Q 853.58 552.85 853.65 552.84
  Q 853.84 552.80 853.88 552.67
  Q 853.96 552.35 853.71 552.15
  C 851.31 550.19 850.10 547.53 847.90 545.53
  A 1.23 1.23 0.0 0 0 846.53 545.34
  C 845.02 546.08 843.31 546.11 841.70 545.75
  Q 835.97 544.46 830.53 545.95
  Q 829.44 546.25 830.43 546.79
  C 831.33 547.27 832.34 547.77 833.34 547.97
  Q 843.05 549.85 852.46 552.38
  Z
  M 917.26 545.19
  L 917.08 554.56
  A 0.10 0.10 0.0 0 0 917.18 554.67
  L 917.25 554.67
  A 4.66 1.39 -88.9 0 0 918.73 550.03
  L 918.73 549.77
  A 4.66 1.39 -88.9 0 0 917.43 545.09
  L 917.36 545.09
  A 0.10 0.10 0.0 0 0 917.26 545.19
  Z
  M 813.92 547.74
  C 829.11 553.18 844.77 557.58 860.44 561.61
  Q 861.21 561.80 861.10 561.02
  C 860.86 559.21 860.26 557.47 858.23 556.90
  C 856.15 556.31 854.24 555.47 852.14 555.01
  C 843.49 553.10 834.98 550.43 826.58 548.47
  Q 819.14 546.72 812.22 545.13
  Q 810.67 544.77 811.55 546.09
  Q 812.25 547.14 813.92 547.74
  Z
  M 853.56 545.43
  A 0.70 0.70 0.0 0 0 852.95 546.63
  L 856.63 550.05
  A 0.70 0.70 0.0 0 0 856.99 550.22
  L 883.45 554.61
  A 0.70 0.70 0.0 0 0 884.26 553.82
  L 883.96 551.57
  A 0.70 0.70 0.0 0 0 883.39 550.98
  L 853.56 545.43
  Z
  M 538.84 585.30
  A 0.40 0.40 0.0 0 1 539.60 585.40
  Q 539.80 586.95 541.33 586.98
  Q 547.81 587.09 555.35 586.76
  Q 555.75 586.75 555.84 586.36
  Q 555.88 586.19 555.72 586.09
  Q 555.17 585.74 555.18 585.08
  Q 555.20 583.85 556.28 583.30
  A 1.69 1.68 -19.9 0 1 558.70 584.43
  L 559.07 586.08
  Q 559.29 587.08 560.32 587.03
  C 562.71 586.91 564.74 586.92 567.13 587.52
  Q 569.01 587.99 570.75 588.01
  Q 578.54 588.13 586.11 587.94
  A 1.06 1.06 0.0 0 0 587.14 586.77
  Q 586.68 582.66 587.74 578.86
  A 0.79 0.78 17.2 0 0 587.23 577.91
  C 583.00 576.52 578.81 575.37 574.86 573.24
  Q 558.24 564.31 540.21 555.66
  Q 538.20 554.70 536.12 555.40
  Q 531.73 556.89 527.32 558.37
  A 0.56 0.55 -25.4 0 0 527.02 559.19
  Q 527.35 559.73 527.88 560.04
  C 539.01 566.55 552.18 573.00 563.24 579.78
  Q 564.66 580.66 565.65 582.31
  Q 566.27 583.33 565.43 584.18
  L 565.12 584.49
  Q 564.15 585.48 563.70 584.17
  Q 563.03 582.16 561.16 581.09
  Q 550.34 574.89 534.13 566.40
  Q 528.55 563.48 522.68 559.42
  Q 521.06 558.29 522.66 557.14
  Q 523.55 556.51 524.49 556.18
  Q 530.02 554.23 535.25 551.34
  Q 536.52 550.64 535.11 550.52
  Q 534.85 550.50 534.63 550.69
  Q 534.26 550.99 533.78 551.00
  C 523.98 551.14 514.61 550.72 504.80 551.16
  Q 503.44 551.22 504.14 552.39
  Q 505.80 555.20 507.54 558.32
  Q 508.58 560.17 511.00 561.53
  C 517.79 565.37 524.87 569.00 531.79 572.78
  C 536.08 575.12 541.17 577.13 545.27 580.21
  Q 546.78 581.35 545.64 582.86
  Q 544.79 583.99 543.50 583.72
  Q 542.90 583.59 543.00 582.99
  Q 543.09 582.50 542.98 582.02
  Q 542.86 581.49 542.37 581.25
  C 536.35 578.19 530.10 575.18 523.97 571.78
  Q 508.07 562.97 492.06 554.10
  Q 487.84 551.76 483.28 549.57
  Q 482.12 549.01 483.28 548.46
  Q 484.15 548.04 485.18 548.05
  Q 497.31 548.16 508.15 547.87
  C 510.37 547.82 512.35 547.36 514.50 547.02
  Q 517.72 546.52 514.47 546.39
  Q 496.71 545.67 479.00 545.97
  Q 477.67 545.99 476.56 546.67
  Q 475.55 547.28 476.51 547.96
  Q 484.53 553.71 494.45 559.01
  Q 511.68 568.22 526.95 576.79
  Q 531.05 579.09 535.26 581.18
  Q 537.02 582.06 537.97 583.69
  Q 538.16 584.01 537.94 584.32
  L 532.15 592.64
  A 0.86 0.86 0.0 0 0 532.41 593.87
  L 532.71 594.05
  A 0.57 0.57 0.0 0 0 533.54 593.76
  Q 534.22 591.95 536.09 591.95
  Q 557.63 592.03 579.64 592.15
  Q 582.66 592.16 585.45 591.81
  Q 589.51 591.28 585.59 590.15
  Q 584.76 589.90 583.81 589.91
  Q 560.55 590.07 538.57 590.01
  Q 536.86 590.00 536.81 588.33
  Q 536.79 587.75 537.24 587.39
  Q 538.35 586.52 538.84 585.30
  Z
  M 200.80 549.09
  Q 201.03 553.63 200.96 557.92
  A 0.97 0.97 0.0 0 0 202.04 558.90
  L 220.06 556.81
  Q 221.07 556.69 221.05 555.68
  L 220.95 548.05
  A 1.07 1.07 0.0 0 0 219.88 546.99
  L 200.71 547.01
  Q 200.14 547.01 200.31 547.55
  C 200.48 548.12 200.77 548.42 200.80 549.09
  Z
  M 166.95 550.92
  A 1.02 1.02 0.0 0 0 165.88 549.91
  L 163.35 550.02
  A 1.02 1.02 0.0 0 0 162.38 551.10
  L 163.25 565.09
  A 1.02 1.02 0.0 0 0 164.23 566.05
  L 165.97 566.12
  A 1.02 1.02 0.0 0 0 167.03 565.10
  L 166.95 550.92
  Z
  M 501.44 556.61
  C 502.73 557.48 504.15 558.02 505.52 558.84
  Q 505.62 558.90 505.68 558.78
  Q 505.74 558.67 505.77 558.53
  Q 505.80 558.40 505.70 558.31
  Q 503.05 555.80 501.64 552.32
  A 1.64 1.63 -8.1 0 0 500.29 551.31
  Q 496.51 550.92 492.91 551.02
  Q 491.05 551.06 492.73 551.85
  C 495.73 553.24 498.70 554.75 501.44 556.61
  Z
  M 756.16 553.22
  A 0.82 0.81 -84.1 0 0 755.43 552.32
  Q 753.17 552.09 751.38 552.08
  Q 701.60 551.86 656.42 552.07
  Q 655.02 552.08 654.86 553.47
  Q 654.84 553.64 654.88 553.81
  Q 655.11 554.92 656.24 554.93
  Q 703.03 555.17 750.71 554.95
  Q 753.08 554.94 755.54 554.53
  Q 756.01 554.45 756.07 553.98
  L 756.16 553.22
  Z
  M 944.41 567.55
  Q 948.96 568.69 953.89 569.86
  Q 956.49 570.48 954.09 569.29
  C 951.86 568.18 949.36 567.87 946.94 567.11
  Q 939.57 564.81 931.98 562.83
  Q 930.97 562.56 929.98 562.32
  Q 907.80 556.95 889.83 552.36
  Q 888.76 552.08 888.27 553.07
  Q 887.94 553.73 888.09 554.50
  A 1.48 1.47 0.9 0 0 889.23 555.67
  Q 912.37 560.71 934.90 565.36
  Q 939.39 566.28 944.41 567.55
  Z
  M 759.96 553.27
  C 760.01 553.57 759.96 553.82 759.98 554.12
  Q 760.02 554.54 760.44 554.54
  Q 761.23 554.54 761.50 553.82
  Q 761.83 552.91 760.87 552.49
  A 0.64 0.63 30.4 0 0 760.11 552.68
  Q 759.91 552.95 759.96 553.27
  Z
  M 956.89 574.18
  Q 960.94 575.05 965.32 574.84
  Q 969.71 574.63 965.35 574.11
  Q 957.66 573.18 950.21 571.35
  Q 939.65 568.75 928.80 566.69
  Q 919.22 564.86 909.24 562.51
  Q 889.86 557.93 863.17 553.93
  Q 861.81 553.72 862.43 554.95
  Q 862.57 555.23 862.77 555.46
  Q 863.46 556.26 864.49 556.47
  Q 906.04 565.33 942.51 571.64
  Q 946.06 572.26 949.94 572.88
  Q 953.46 573.45 956.89 574.18
  Z
  M 339.71 584.92
  L 336.10 585.00
  A 1.16 1.15 89.7 0 0 334.97 586.15
  L 334.96 588.01
  A 0.90 0.90 0.0 0 0 336.27 588.82
  C 339.06 587.36 341.08 585.14 343.73 583.50
  Q 347.35 581.27 350.47 578.88
  Q 364.14 568.44 377.19 560.53
  Q 379.51 559.13 381.62 557.45
  Q 382.18 557.00 381.46 556.98
  C 375.20 556.73 369.30 558.27 363.05 558.10
  Q 353.03 557.82 341.91 559.09
  A 1.12 1.11 86.8 0 0 340.92 560.20
  L 341.05 583.54
  Q 341.05 584.89 339.71 584.92
  Z
  M 966.76 559.75
  Q 969.31 559.95 971.37 559.55
  Q 972.43 559.35 971.38 559.13
  Q 968.88 558.63 966.71 559.24
  Q 965.30 559.64 966.76 559.75
  Z
  M 900.85 571.30
  Q 915.80 574.91 930.41 578.41
  Q 931.42 578.65 932.32 579.20
  Q 932.73 579.44 933.20 579.49
  Q 939.38 580.16 945.12 579.66
  Q 950.06 579.23 954.49 579.22
  C 958.70 579.21 963.45 579.45 967.74 578.66
  Q 968.31 578.55 968.16 577.98
  L 968.07 577.63
  A 0.52 0.52 0.0 0 0 967.60 577.25
  C 963.78 577.04 959.99 576.92 956.15 576.39
  Q 948.98 575.41 941.54 574.29
  Q 934.88 573.28 927.03 571.73
  Q 907.20 567.82 886.44 563.83
  C 881.89 562.96 877.59 561.71 872.83 560.90
  Q 869.55 560.33 866.17 559.25
  Q 864.42 558.69 865.15 560.38
  Q 865.51 561.21 865.92 562.02
  A 3.55 3.52 -6.0 0 0 868.20 563.85
  C 879.14 566.64 890.01 568.68 900.85 571.30
  Z
  M 715.1177 568.8792
  A 4.57 0.94 88.9 0 0 715.9698 564.2920
  A 4.57 0.94 88.9 0 0 714.9423 559.7408
  A 4.57 0.94 88.9 0 0 714.0902 564.3280
  A 4.57 0.94 88.9 0 0 715.1177 568.8792
  Z
  M 719.9816 569.3500
  A 4.84 1.06 90.1 0 0 721.0500 564.5119
  A 4.84 1.06 90.1 0 0 719.9984 559.6700
  A 4.84 1.06 90.1 0 0 718.9300 564.5081
  A 4.84 1.06 90.1 0 0 719.9816 569.3500
  Z
  M 662.0809 568.3388
  A 4.13 1.05 88.6 0 0 663.0297 564.1843
  A 4.13 1.05 88.6 0 0 661.8791 560.0812
  A 4.13 1.05 88.6 0 0 660.9303 564.2357
  A 4.13 1.05 88.6 0 0 662.0809 568.3388
  Z
  M 666.12 566.80
  Q 666.23 567.54 666.44 567.77
  A 1.47 1.42 -63.9 0 0 668.90 566.88
  C 669.17 564.65 669.56 561.08 667.04 559.99
  A 0.53 0.52 -72.2 0 0 666.33 560.36
  Q 665.64 563.51 666.12 566.80
  Z
  M 671.5136 568.8397
  A 4.39 0.53 89.3 0 0 671.9900 564.4435
  A 4.39 0.53 89.3 0 0 671.4064 560.0603
  A 4.39 0.53 89.3 0 0 670.9300 564.4565
  A 4.39 0.53 89.3 0 0 671.5136 568.8397
  Z
  M 710.93 568.78
  C 710.62 566.39 710.50 562.74 711.57 560.43
  Q 711.73 560.10 711.37 560.06
  L 710.99 560.00
  A 0.52 0.51 9.8 0 0 710.42 560.40
  Q 709.52 564.44 710.37 568.66
  Q 710.42 568.89 710.65 568.85
  L 710.91 568.81
  Q 710.93 568.81 710.93 568.78
  Z
  M 630.90 563.82
  Q 626.55 562.84 621.99 563.09
  Q 620.95 563.15 620.94 564.23
  Q 620.94 564.41 620.92 566.70
  Q 620.91 567.80 622.01 567.84
  Q 634.57 568.30 644.58 567.94
  Q 645.77 567.90 646.98 567.64
  Q 649.26 567.15 646.98 566.62
  Q 643.40 565.79 639.10 565.72
  Q 637.00 565.68 635.03 565.00
  Q 633.02 564.30 630.90 563.82
  Z
  M 833.02 584.01
  A 0.66 0.66 0.0 0 1 832.44 584.99
  L 790.88 585.00
  A 1.48 1.47 76.6 0 0 789.57 587.14
  L 800.85 609.59
  Q 801.30 610.49 800.35 610.84
  L 800.02 610.96
  Q 798.62 611.48 797.97 610.13
  Q 786.87 587.07 774.50 564.24
  Q 774.09 563.47 772.99 563.03
  Q 772.63 562.88 772.24 563.09
  A 0.56 0.55 -26.6 0 0 771.99 563.82
  Q 782.24 585.69 794.08 609.23
  Q 794.75 610.56 795.33 612.30
  A 0.77 0.76 -3.7 0 0 795.93 612.82
  Q 798.59 613.30 801.21 612.70
  Q 803.04 612.27 804.83 612.04
  C 816.79 610.50 828.77 609.50 840.77 608.23
  Q 844.12 607.88 849.03 608.01
  Q 850.21 608.04 851.14 607.51
  A 1.39 1.39 0.0 0 0 851.72 605.73
  Q 847.56 596.57 843.63 586.57
  C 840.93 579.67 837.39 572.75 834.34 565.80
  Q 834.23 565.56 833.97 565.54
  L 831.17 565.30
  A 0.24 0.24 0.0 0 0 830.93 565.62
  Q 832.84 570.80 835.13 575.89
  Q 841.15 589.32 847.07 602.72
  A 1.10 1.09 66.7 0 1 846.49 604.18
  Q 845.90 604.43 845.18 604.14
  A 1.58 1.55 -1.3 0 1 844.35 603.36
  Q 838.13 590.39 834.14 581.13
  Q 830.44 572.52 826.43 565.06
  A 0.45 0.45 0.0 0 0 825.85 564.86
  Q 825.61 564.96 825.47 565.15
  A 2.00 1.96 53.4 0 0 825.21 567.06
  Q 828.57 575.85 833.02 584.01
  Z
  M 579.20 563.69
  Q 577.99 563.21 577.26 564.23
  A 0.27 0.27 0.0 0 0 577.43 564.65
  Q 580.04 565.03 582.43 564.91
  Q 583.58 564.85 582.51 564.42
  Q 581.30 563.94 579.98 563.86
  Q 579.57 563.84 579.20 563.69
  Z
  M 592.60 565.36
  A 0.96 0.96 0.0 0 1 591.04 565.51
  Q 589.47 563.70 587.12 563.97
  A 1.27 1.27 0.0 0 0 586.00 565.22
  L 585.98 568.81
  A 1.16 1.15 0.8 0 0 587.12 569.97
  Q 597.69 570.13 607.41 569.62
  Q 607.63 569.61 607.63 569.39
  L 607.63 569.13
  Q 607.63 569.09 607.59 569.09
  Q 602.59 568.93 597.58 567.84
  A 0.74 0.74 0.0 0 1 597.11 566.73
  Q 597.51 566.07 597.59 565.35
  A 0.83 0.82 -76.4 0 0 597.08 564.50
  Q 593.85 563.18 592.60 565.36
  Z
  M 609.61 566.15
  C 611.05 566.42 612.19 567.06 613.73 566.89
  C 614.86 566.77 616.02 567.01 616.72 565.87
  A 0.31 0.31 0.0 0 0 616.48 565.40
  L 603.61 564.20
  A 0.23 0.22 5.1 0 0 603.36 564.40
  L 603.32 564.70
  Q 603.30 564.91 603.51 564.96
  Q 606.54 565.58 609.61 566.15
  Z
  M 687.20 567.00
  A 0.73 0.73 0.0 0 0 686.47 566.27
  L 675.69 566.27
  A 0.73 0.73 0.0 0 0 674.96 567.00
  L 674.96 567.04
  A 0.73 0.73 0.0 0 0 675.69 567.77
  L 686.47 567.77
  A 0.73 0.73 0.0 0 0 687.20 567.04
  L 687.20 567.00
  Z
  M 704.5302 567.4666
  A 0.26 0.26 0.0 0 0 704.2780 567.1990
  L 692.2233 566.8413
  A 0.26 0.26 0.0 0 0 691.9557 567.0934
  L 691.9498 567.2934
  A 0.26 0.26 0.0 0 0 692.2020 567.5610
  L 704.2567 567.9187
  A 0.26 0.26 0.0 0 0 704.5243 567.6666
  L 704.5302 567.4666
  Z
  M 656.8971 567.5397
  A 2.45 0.44 2.8 0 0 654.4715 566.9805
  A 2.45 0.44 2.8 0 0 652.0029 567.3003
  A 2.45 0.44 2.8 0 0 654.4285 567.8595
  A 2.45 0.44 2.8 0 0 656.8971 567.5397
  Z
  M 733.9100 567.4872
  A 4.92 0.45 0.2 0 0 728.9916 567.0200
  A 4.92 0.45 0.2 0 0 724.0700 567.4528
  A 4.92 0.45 0.2 0 0 728.9884 567.9200
  A 4.92 0.45 0.2 0 0 733.9100 567.4872
  Z
  M 738.86 567.53
  L 738.86 568.61
  A 0.25 0.25 0.0 0 0 739.11 568.86
  L 760.00 568.75
  A 2.88 0.71 -0.3 0 0 762.88 568.03
  L 762.88 567.87
  A 2.88 0.71 -0.3 0 0 760.00 567.17
  L 739.11 567.28
  A 0.25 0.25 0.0 0 0 738.86 567.53
  Z
  M 581.71 569.83
  L 581.75 569.51
  Q 581.80 569.16 581.45 569.14
  L 578.73 568.94
  Q 578.58 568.93 578.44 568.99
  Q 577.97 569.17 578.14 569.43
  Q 578.37 569.75 578.76 569.77
  L 581.64 569.89
  Q 581.70 569.89 581.71 569.83
  Z
  M 959.06 570.61
  Q 957.69 569.87 956.34 569.89
  Q 955.41 569.91 956.15 570.47
  Q 957.30 571.35 959.01 571.00
  Q 959.56 570.88 959.06 570.61
  Z
  M 962.7658 571.8700
  A 1.54 0.41 16.6 0 0 961.4071 571.0371
  A 1.54 0.41 16.6 0 0 959.8142 570.9900
  A 1.54 0.41 16.6 0 0 961.1729 571.8229
  A 1.54 0.41 16.6 0 0 962.7658 571.8700
  Z
  M 971.41 575.66
  Q 972.38 575.54 971.45 575.23
  Q 970.56 574.93 969.64 575.07
  Q 969.38 575.11 969.29 575.36
  Q 969.19 575.64 969.60 575.86
  A 0.45 0.33 -27.3 0 0 969.73 575.88
  L 971.41 575.66
  Z
  M 977.66 578.04
  A 0.37 0.37 0.0 0 0 977.41 578.68
  Q 977.93 579.17 978.46 578.81
  A 0.34 0.34 0.0 0 0 978.42 578.23
  Q 978.05 578.03 977.66 578.04
  Z
  M 628.95 589.66
  C 618.70 585.11 607.91 581.90 596.92 580.15
  Q 594.67 579.79 592.10 579.88
  A 1.18 1.18 0.0 0 0 590.95 581.07
  L 591.00 590.78
  Q 591.01 591.82 592.05 591.83
  Q 609.80 591.89 626.25 592.18
  Q 628.30 592.22 629.15 591.61
  Q 630.75 590.46 628.95 589.66
  Z
  M 661.79 590.75
  Q 662.11 590.17 661.91 589.74
  Q 661.70 589.26 661.18 589.26
  Q 652.43 589.22 644.49 588.97
  Q 642.10 588.89 640.44 587.70
  Q 635.66 584.28 630.33 581.45
  Q 630.03 581.29 629.80 581.53
  L 629.36 581.96
  A 0.35 0.34 40.4 0 0 629.41 582.48
  L 640.66 590.37
  A 4.04 3.99 62.2 0 0 643.01 591.11
  L 660.46 590.94
  A 0.75 0.75 0.0 0 1 660.91 591.09
  Q 661.08 591.22 661.20 591.40
  A 0.35 0.35 0.0 0 0 661.81 591.35
  Q 661.95 591.04 661.79 590.75
  Z
  M 707.3800 584.0633
  A 3.81 1.00 0.2 0 0 703.5735 583.0500
  A 3.81 1.00 0.2 0 0 699.7600 584.0367
  A 3.81 1.00 0.2 0 0 703.5665 585.0500
  A 3.81 1.00 0.2 0 0 707.3800 584.0633
  Z
  M 330.0423 588.9098
  A 1.42 1.14 89.1 0 0 331.1599 587.4721
  A 1.42 1.14 89.1 0 0 329.9977 586.0702
  A 1.42 1.14 89.1 0 0 328.8801 587.5079
  A 1.42 1.14 89.1 0 0 330.0423 588.9098
  Z
  M 704.95 594.37
  Q 707.02 594.72 707.03 592.62
  L 707.04 590.40
  Q 707.05 588.00 704.65 588.01
  L 700.90 588.02
  Q 700.23 588.02 700.09 588.69
  Q 699.68 590.76 700.27 592.81
  Q 700.50 593.63 701.35 593.77
  L 704.95 594.37
  Z
  M 712.37 588.61
  Q 712.60 589.33 713.20 589.65
  A 0.42 0.41 16.4 0 0 713.81 589.32
  Q 713.88 588.19 712.89 587.96
  Q 712.74 587.92 712.59 588.00
  Q 712.24 588.22 712.37 588.61
  Z
  M 738.1999 590.0153
  A 0.76 0.76 0.0 0 0 737.4372 589.2579
  L 719.0573 589.3221
  A 0.76 0.76 0.0 0 0 718.3000 590.0847
  L 718.3001 590.1247
  A 0.76 0.76 0.0 0 0 719.0628 590.8821
  L 737.4427 590.8179
  A 0.76 0.76 0.0 0 0 738.2000 590.0553
  L 738.1999 590.0153
  Z
  M 742.15 590.98
  L 767.73 590.98
  A 0.14 0.14 0.0 0 0 767.87 590.84
  L 767.87 590.81
  A 4.49 1.71 -0.0 0 0 763.38 589.10
  L 746.50 589.10
  A 4.49 1.71 0.0 0 0 742.01 590.81
  L 742.01 590.84
  A 0.14 0.14 0.0 0 0 742.15 590.98
  Z
  M 330.96 593.93
  A 0.86 0.86 0.0 0 0 329.66 593.04
  Q 328.73 593.61 328.97 595.01
  Q 329.15 596.10 330.04 595.45
  Q 330.78 594.91 330.96 593.93
  Z
  M 708.37 600.70
  C 706.06 599.20 703.17 598.19 700.52 597.39
  Q 699.92 597.21 699.93 597.83
  L 700.00 602.99
  Q 700.01 603.63 700.64 603.50
  Q 703.64 602.88 706.68 602.96
  Q 708.25 603.00 708.69 601.59
  Q 708.87 601.02 708.37 600.70
  Z
  M 322.74 602.48
  Q 323.28 603.26 323.67 602.39
  Q 324.25 601.05 323.93 599.63
  A 0.56 0.55 -26.3 0 0 323.03 599.33
  Q 321.47 600.63 322.74 602.48
  Z
  M 330.0237 607.1300
  A 2.62 1.09 89.7 0 0 331.1000 604.5043
  A 2.62 1.09 89.7 0 0 329.9963 601.8900
  A 2.62 1.09 89.7 0 0 328.9200 604.5157
  A 2.62 1.09 89.7 0 0 330.0237 607.1300
  Z
  M 689.20 607.79
  C 687.87 606.26 687.46 604.30 685.57 603.34
  Q 684.83 602.96 684.96 603.78
  Q 685.57 607.59 688.19 610.57
  A 0.53 0.52 -57.2 0 0 689.09 610.37
  L 689.47 609.11
  Q 689.70 608.37 689.20 607.79
  Z
  M 718.83 617.17
  Q 722.75 620.85 724.52 625.71
  Q 727.35 633.52 725.28 640.30
  A 0.60 0.60 0.0 0 0 725.91 641.08
  L 726.28 641.04
  Q 726.41 641.03 726.46 640.91
  Q 730.89 628.41 722.09 617.77
  Q 715.52 609.84 703.93 609.89
  C 700.67 609.91 697.12 611.27 694.11 612.49
  Q 691.87 613.39 690.00 615.32
  C 687.45 617.96 684.69 620.17 683.07 623.58
  Q 679.69 630.71 681.42 638.85
  Q 682.37 643.31 682.71 638.76
  C 683.09 633.64 682.40 627.35 685.71 623.13
  C 688.25 619.88 691.77 616.47 695.63 614.59
  Q 702.32 611.33 709.78 612.83
  Q 715.41 613.96 718.83 617.17
  Z
  M 329.91 615.09
  A 0.91 0.90 -81.2 0 0 330.82 614.42
  Q 331.18 613.08 330.95 611.72
  A 0.60 0.60 0.0 0 0 329.90 611.42
  Q 328.86 612.61 328.44 614.41
  Q 328.29 615.01 328.92 615.04
  L 329.91 615.09
  Z
  M 712.33 620.28
  Q 708.60 618.87 705.54 619.07
  Q 703.29 619.22 700.67 619.70
  Q 698.45 620.11 696.63 621.25
  Q 690.66 625.01 689.52 631.39
  C 689.11 633.71 688.50 636.03 689.67 638.25
  Q 690.50 639.82 690.72 638.06
  Q 690.96 636.01 690.95 634.01
  C 690.92 629.84 694.65 625.31 697.78 622.91
  C 699.05 621.93 700.62 621.59 702.12 621.15
  C 703.60 620.72 705.04 621.01 706.47 620.40
  Q 706.94 620.20 707.43 620.35
  Q 709.63 621.05 712.27 620.74
  Q 713.26 620.62 712.33 620.28
  Z
  M 330.6235 620.4806
  A 1.42 0.97 -17.6 0 0 328.9767 619.9854
  A 1.42 0.97 -17.6 0 0 327.9165 621.3394
  A 1.42 0.97 -17.6 0 0 329.5633 621.8346
  A 1.42 0.97 -17.6 0 0 330.6235 620.4806
  Z
  M 343.31 625.31
  C 335.10 621.87 327.80 627.02 325.12 635.03
  Q 324.90 635.68 325.58 635.65
  Q 326.15 635.63 326.36 635.14
  C 328.54 630.05 331.84 626.24 337.54 625.84
  Q 341.61 625.55 344.44 628.00
  C 346.80 630.03 349.19 632.51 350.03 635.46
  Q 350.48 637.05 351.18 638.33
  Q 352.05 639.92 351.95 638.11
  Q 351.43 628.71 343.31 625.31
  Z"
/>
<path  d="
  M 880.54 436.63
  L 879.94 438.47
  A 0.51 0.51 0.0 0 1 879.07 438.66
  L 877.42 436.84
  A 2.63 2.62 -33.1 0 0 874.39 436.21
  Q 872.71 436.98 871.49 438.06
  Q 869.47 439.86 870.78 437.49
  C 872.40 434.55 873.03 430.82 870.07 428.43
  Q 867.90 426.68 865.56 425.89
  Q 865.03 425.72 865.36 425.27
  Q 865.73 424.77 866.35 424.82
  Q 870.02 425.11 873.69 425.03
  A 1.52 1.52 0.0 0 0 875.08 424.06
  L 878.47 415.26
  Q 878.78 414.45 879.03 415.28
  L 881.65 423.85
  A 1.69 1.69 0.0 0 0 883.31 425.05
  L 891.45 424.88
  A 0.38 0.37 3.8 0 1 891.83 425.31
  Q 891.79 425.56 891.56 425.68
  Q 887.92 427.73 885.03 430.34
  C 882.72 432.43 884.81 435.85 885.50 438.16
  Q 886.08 440.07 884.49 438.86
  Q 883.00 437.72 881.81 436.37
  A 0.75 0.74 33.3 0 0 880.54 436.63
  Z"
/>
<ellipse  cx="916.98" cy="416.02" rx="2.31" ry="0.92"/>
<ellipse  cx="0.00" cy="0.00" transform="translate(913.01,441.52) rotate(-0.7)" rx="1.80" ry="1.33"/>
<path  d="
  M 909.95 450.87
  A 0.52 0.52 0.0 0 1 910.64 451.15
  Q 911.33 452.85 910.30 453.90
  Q 910.03 454.18 909.68 454.00
  Q 908.95 453.62 908.43 452.96
  A 0.80 0.80 0.0 0 1 908.45 451.96
  Q 909.04 451.26 909.95 450.87
  Z"
/>
<path  d="
  M 834.60 461.31
  A 0.91 0.90 36.0 0 1 834.39 460.02
  Q 836.00 457.89 837.90 460.38
  A 1.01 1.01 0.0 0 1 837.26 461.99
  Q 835.92 462.21 834.60 461.31
  Z"
/>
<ellipse  cx="0.00" cy="0.00" transform="translate(829.14,466.19) rotate(132.0)" rx="1.15" ry="0.64"/>
<path  d="
  M 825.58 477.23
  A 0.39 0.38 88.1 0 1 826.06 477.68
  Q 825.57 480.08 823.15 479.73
  A 0.36 0.36 0.0 0 1 822.87 479.22
  Q 823.52 477.80 825.58 477.23
  Z"
/>
<path  d="
  M 363.95 478.22
  A 0.13 0.13 0.0 0 1 364.08 478.09
  L 364.13 478.09
  A 2.94 1.90 89.3 0 1 366.07 481.01
  L 366.07 481.81
  A 2.94 1.90 89.3 0 1 364.21 484.77
  L 364.16 484.77
  A 0.13 0.13 0.0 0 1 364.03 484.64
  L 363.95 478.22
  Z"
/>
<path  d="
  M 372.04 479.82
  A 1.44 1.43 58.0 0 1 370.93 479.56
  Q 370.47 479.23 370.23 478.68
  A 0.55 0.55 0.0 0 1 370.80 477.92
  L 373.63 478.26
  Q 374.45 478.36 373.85 478.92
  Q 373.09 479.64 372.04 479.82
  Z"
/>
<path  d="
  M 912.72 487.69
  C 912.91 487.26 913.04 486.91 913.16 486.45
  Q 913.39 485.52 913.64 486.44
  Q 914.09 488.03 913.63 489.51
  Q 913.37 490.35 912.88 489.63
  Q 912.26 488.72 912.72 487.69
  Z"
/>
<path  d="
  M 425.18 492.46
  Q 425.38 492.92 425.51 493.40
  Q 425.68 494.02 425.21 494.48
  Q 424.83 494.86 424.35 494.78
  Q 423.85 494.69 423.66 494.23
  Q 422.40 491.15 423.53 489.16
  Q 424.15 488.06 424.60 489.25
  C 424.98 490.28 424.78 491.49 425.18 492.46
  Z"
/>
<circle  cx="477.22" cy="491.52" r="1.42"/>
<path  d="
  M 911.36 496.37
  Q 911.68 495.02 912.75 494.09
  A 0.53 0.53 0.0 0 1 913.55 494.22
  Q 914.32 495.52 913.71 496.79
  Q 913.16 497.93 911.99 497.52
  Q 911.16 497.23 911.36 496.37
  Z"
/>
<path  d="
  M 892.44 501.45
  Q 892.59 499.72 893.89 499.37
  Q 894.75 499.14 895.41 499.79
  A 0.79 0.78 40.8 0 1 895.49 500.81
  Q 894.65 501.94 893.08 502.09
  Q 892.38 502.15 892.44 501.45
  Z"
/>
<path  d="
  M 478.13 502.10
  Q 479.91 502.72 480.05 504.49
  Q 480.10 505.04 479.54 505.05
  L 477.34 505.07
  A 1.40 1.40 0.0 0 1 475.95 503.42
  Q 476.30 501.47 478.13 502.10
  Z"
/>
<ellipse  cx="0.00" cy="0.00" transform="translate(425.88,505.14) rotate(85.8)" rx="2.03" ry="0.84"/>
<path  d="
  M 780.80 507.96
  Q 778.84 506.95 777.99 504.98
  A 0.61 0.61 0.0 0 1 778.70 504.14
  Q 780.68 504.65 781.94 506.60
  Q 782.27 507.10 781.87 507.53
  L 781.63 507.80
  Q 781.28 508.20 780.80 507.96
  Z"
/>
<ellipse  cx="0.00" cy="0.00" transform="translate(764.97,507.99) rotate(-0.6)" rx="1.20" ry="0.75"/>
<path  d="
  M 723.05 527.01
  Q 723.12 526.25 723.90 526.18
  A 1.06 1.02 -69.9 0 0 724.58 525.85
  C 728.44 521.56 732.64 521.66 734.69 527.49
  Q 734.87 527.99 734.71 528.50
  Q 733.61 532.15 728.82 532.11
  Q 725.85 532.08 724.71 529.83
  Q 724.47 529.35 723.99 529.10
  Q 722.93 528.56 723.05 527.01
  Z
  M 731.1799 527.0055
  A 1.66 1.05 -0.5 0 0 729.5108 525.9700
  A 1.66 1.05 -0.5 0 0 727.8601 527.0345
  A 1.66 1.05 -0.5 0 0 729.5292 528.0700
  A 1.66 1.05 -0.5 0 0 731.1799 527.0055
  Z"
/>
<path  d="
  M 698.04 525.30
  A 0.47 0.47 0.0 0 1 697.60 525.80
  L 697.51 525.80
  A 2.18 1.19 -3.1 0 1 695.27 524.73
  L 695.25 524.47
  A 2.18 1.19 -3.1 0 1 697.37 523.17
  L 697.46 523.16
  A 0.47 0.47 0.0 0 1 697.95 523.61
  L 698.04 525.30
  Z"
/>
<path  d="
  M 258.28 530.09
  Q 257.64 530.90 256.52 530.94
  Q 255.96 530.96 256.01 530.40
  Q 256.11 529.37 256.96 528.69
  Q 257.25 528.45 257.59 528.55
  Q 258.09 528.70 257.91 529.19
  Q 257.78 529.53 258.06 529.74
  Q 258.55 530.11 258.88 529.60
  Q 259.12 529.22 259.59 529.37
  Q 259.93 529.49 259.68 529.74
  Q 259.32 530.11 258.88 529.93
  Q 258.52 529.79 258.28 530.09
  Z"
/>
<ellipse  cx="0.00" cy="0.00" transform="translate(253.34,529.98) rotate(24.3)" rx="1.18" ry="0.67"/>
<path  d="
  M 193.45 541.19
  Q 193.66 540.90 193.99 540.80
  A 0.51 0.51 0.0 0 1 194.61 541.13
  Q 194.99 542.22 194.98 543.21
  Q 194.98 543.71 194.49 543.80
  Q 193.47 543.99 192.58 543.31
  A 0.84 0.83 -64.4 0 1 192.28 542.45
  Q 192.51 541.53 193.45 541.19
  Z"
/>
<path  d="
  M 227.25 549.00
  A 0.22 0.22 0.0 0 1 227.49 548.81
  L 227.59 548.82
  A 1.60 1.34 -84.1 0 1 228.76 550.55
  L 228.69 551.24
  A 1.60 1.34 -84.1 0 1 227.19 552.70
  L 227.09 552.69
  A 0.22 0.22 0.0 0 1 226.90 552.45
  L 227.25 549.00
  Z"
/>
<ellipse  cx="0.00" cy="0.00" transform="translate(193.99,553.03) rotate(90.9)" rx="2.36" ry="0.92"/>
<rect  x="-32.95" y="-2.47" transform="translate(106.11,652.49) rotate(-0.1)" width="65.90" height="4.94" rx="1.62"/>
<rect  x="-10.47" y="-2.43" transform="translate(228.63,652.49) rotate(0.1)" width="20.94" height="4.86" rx="1.59"/>
<path  d="
  M 768.53 652.71
  L 768.65 653.59
  Q 768.73 654.19 768.17 654.42
  Q 766.12 655.26 763.70 654.86
  Q 762.30 654.63 762.16 653.22
  L 761.97 651.35
  Q 761.83 649.94 763.25 649.98
  Q 764.98 650.04 766.95 649.93
  Q 767.84 649.88 768.45 650.35
  Q 769.10 650.83 768.69 651.68
  Q 768.45 652.17 768.53 652.71
  Z"
/>
</svg>
