<?xml version="1.0" encoding="UTF-8" standalone="no"?>
<!DOCTYPE svg PUBLIC "-//W3C//DTD SVG 1.1//EN" "http://www.w3.org/Graphics/SVG/1.1/DTD/svg11.dtd">
<svg xmlns="http://www.w3.org/2000/svg" version="1.1" viewBox="0.00 0.00 1024.00 1024.00">
<path  d="
  M 467.62 514.42
  C 468.18 511.70 469.03 509.21 469.44 506.36
  Q 470.44 499.38 471.36 492.63
  Q 471.43 492.13 471.84 491.85
  Q 471.99 491.75 472.17 491.72
  Q 472.81 491.63 472.84 490.99
  C 473.00 487.74 473.51 482.31 472.23 479.05
  A 0.75 0.74 79.2 0 1 472.92 478.03
  L 483.47 478.03
  A 0.65 0.65 0.0 0 1 484.12 478.63
  L 484.15 478.99
  A 0.90 0.90 0.0 0 1 483.26 479.97
  L 475.98 480.04
  Q 474.01 480.05 474.12 482.02
  L 474.17 483.01
  Q 474.29 484.98 476.26 484.98
  L 482.22 485.01
  A 0.72 0.72 0.0 0 1 482.91 485.94
  L 481.86 489.31
  Q 481.66 489.96 480.97 489.99
  Q 480.25 490.01 479.58 489.80
  Q 478.82 489.56 479.08 488.81
  Q 479.25 488.31 479.56 487.91
  Q 480.03 487.32 479.28 487.24
  L 475.55 486.86
  Q 473.76 486.68 473.94 488.46
  L 474.13 490.42
  Q 474.28 491.98 475.78 491.55
  Q 479.49 490.50 483.10 491.07
  Q 485.03 491.38 485.03 489.43
  L 485.03 479.42
  Q 485.03 478.92 485.29 478.49
  Q 485.87 477.54 485.94 476.50
  Q 486.35 470.25 487.04 464.00
  C 487.28 461.86 486.74 460.20 485.19 458.63
  Q 478.33 451.68 469.80 444.95
  C 468.83 444.18 467.82 443.38 466.56 443.16
  Q 463.47 442.62 460.62 441.79
  Q 458.83 441.27 458.99 439.28
  Q 459.09 438.07 460.30 438.06
  L 475.66 437.99
  Q 476.78 437.99 477.23 436.96
  Q 477.31 436.78 477.30 436.58
  Q 477.30 435.50 476.23 435.33
  Q 472.34 434.72 468.69 435.45
  Q 463.92 436.40 459.22 435.78
  A 0.47 0.47 0.0 0 1 458.83 435.20
  L 458.91 434.89
  A 1.11 1.10 6.8 0 1 459.97 434.06
  C 466.18 434.01 472.08 434.01 478.42 433.24
  Q 482.89 432.70 487.42 432.99
  Q 490.09 433.17 490.05 430.49
  L 490.01 427.53
  Q 489.97 425.05 487.49 425.11
  Q 481.87 425.22 479.26 423.70
  A 0.64 0.64 0.0 0 1 479.05 422.79
  Q 480.37 420.78 479.95 418.62
  Q 479.83 417.96 479.16 417.96
  L 475.90 417.96
  Q 475.26 417.97 475.13 418.59
  L 474.73 420.53
  Q 474.38 422.21 473.46 420.77
  Q 472.96 420.00 472.98 419.15
  Q 473.07 411.48 472.90 403.98
  A 1.04 1.04 0.0 0 0 471.83 402.96
  Q 466.24 403.10 460.74 402.91
  Q 459.71 402.88 458.83 402.45
  A 1.00 1.00 0.0 0 1 458.92 400.61
  L 460.12 400.16
  Q 460.66 399.96 460.78 399.39
  Q 461.21 397.26 460.20 395.28
  A 0.83 0.83 0.0 0 1 460.93 394.07
  L 471.00 393.95
  A 1.14 1.13 88.5 0 0 472.12 392.76
  L 471.99 390.03
  Q 471.97 389.50 471.49 389.26
  Q 471.02 389.03 470.64 388.74
  Q 468.90 387.39 471.10 387.22
  Q 477.11 386.76 483.88 387.07
  A 1.05 1.04 -85.9 0 0 484.96 386.13
  L 485.11 384.53
  Q 485.26 383.05 483.78 383.05
  L 464.13 383.00
  Q 462.39 383.00 462.96 381.36
  L 463.56 379.66
  Q 464.11 378.08 465.79 378.04
  L 469.26 377.94
  A 0.78 0.77 88.2 0 0 470.01 377.13
  Q 469.96 376.21 470.29 375.35
  A 0.91 0.91 0.0 0 1 471.92 375.20
  L 473.20 377.36
  Q 473.53 377.91 474.17 377.93
  L 483.95 378.16
  A 1.09 1.09 0.0 0 0 485.07 377.05
  L 484.92 368.75
  A 0.91 0.91 0.0 0 0 483.91 367.86
  Q 481.41 368.12 479.18 366.66
  A 0.73 0.72 -65.6 0 1 478.88 365.85
  Q 479.07 365.18 479.61 364.74
  A 1.03 1.03 0.0 0 1 480.47 364.53
  L 483.46 365.13
  A 1.31 1.30 -84.2 0 0 485.02 363.85
  Q 485.05 336.46 484.95 310.56
  Q 484.94 308.63 483.77 307.09
  C 480.92 303.33 488.49 299.41 488.82 304.18
  C 488.98 306.60 488.25 309.02 488.21 311.53
  Q 487.84 334.42 488.07 358.68
  A 1.27 1.26 1.7 0 0 489.25 359.93
  Q 492.21 360.14 495.46 359.95
  Q 497.94 359.81 495.73 358.67
  Q 491.72 356.61 491.29 352.74
  C 490.67 347.28 491.75 343.09 496.88 340.06
  C 499.55 338.48 502.15 338.86 505.01 339.65
  C 511.91 341.56 514.65 349.85 511.47 356.03
  C 510.55 357.83 506.16 358.88 504.15 359.47
  A 0.52 0.52 0.0 0 0 503.94 360.36
  C 504.83 361.17 506.80 360.92 507.94 360.97
  Q 512.06 361.14 509.09 364.18
  Q 507.80 365.50 507.87 367.85
  A 0.97 0.96 77.5 0 0 509.21 368.71
  Q 512.17 367.46 515.01 369.43
  Q 515.53 369.79 515.07 370.23
  Q 514.51 370.76 513.76 370.95
  Q 513.28 371.07 513.25 371.56
  L 512.94 376.66
  Q 512.84 378.22 514.41 378.21
  L 514.88 378.21
  Q 515.83 378.21 515.93 377.25
  Q 516.35 373.09 515.66 369.96
  A 0.68 0.68 0.0 0 1 516.14 369.16
  Q 517.98 368.65 519.81 369.27
  Q 520.42 369.48 520.05 370.00
  Q 519.47 370.81 518.56 371.12
  Q 517.98 371.31 517.99 371.92
  L 518.10 377.06
  Q 518.11 377.79 518.81 378.01
  Q 520.24 378.46 521.38 377.96
  Q 522.09 377.66 522.10 376.83
  Q 522.15 372.66 521.86 369.63
  Q 521.81 369.12 522.29 369.28
  L 524.22 369.92
  Q 524.61 370.05 524.51 370.44
  Q 523.69 373.69 524.10 377.21
  Q 524.20 378.09 525.09 378.13
  L 527.20 378.22
  Q 529.11 378.30 529.03 376.40
  Q 528.93 373.75 529.28 371.33
  Q 529.39 370.53 530.14 370.75
  A 0.99 0.99 0.0 0 1 530.84 371.67
  Q 530.98 375.49 531.08 379.30
  Q 531.11 380.46 531.69 381.55
  A 1.06 1.06 0.0 0 1 530.73 383.10
  L 524.89 382.97
  A 0.89 0.88 0.3 0 0 523.98 383.86
  L 524.03 390.62
  Q 524.04 392.10 525.52 392.13
  L 526.41 392.15
  A 1.56 1.56 0.0 0 0 528.01 390.59
  L 528.02 385.40
  A 0.58 0.57 3.5 0 1 528.67 384.83
  L 528.96 384.86
  A 1.16 1.16 0.0 0 1 529.98 385.99
  L 530.06 390.65
  A 1.53 1.52 -1.7 0 0 531.65 392.14
  L 532.63 392.10
  Q 534.32 392.04 534.10 390.37
  Q 533.70 387.36 534.47 385.23
  Q 534.99 383.77 535.55 385.21
  Q 536.33 387.22 535.93 390.50
  A 1.43 1.42 -88.5 0 0 537.44 392.10
  Q 541.01 391.85 544.63 392.06
  Q 547.07 392.20 546.99 394.74
  A 2.13 2.13 0.0 0 1 545.21 396.78
  L 542.84 397.18
  A 1.05 1.04 7.3 0 0 542.05 397.78
  L 540.77 400.65
  A 1.95 1.95 0.0 0 1 539.10 401.81
  Q 534.75 402.06 530.44 403.61
  C 528.07 404.46 528.37 408.94 531.21 408.96
  Q 538.15 409.02 545.58 409.01
  Q 547.35 409.00 547.04 410.75
  L 546.94 411.30
  A 1.72 1.72 0.0 0 1 545.35 412.71
  Q 537.65 413.19 531.42 412.92
  Q 529.60 412.84 530.14 414.58
  Q 530.97 417.23 531.07 419.71
  Q 531.15 421.83 533.27 421.90
  Q 539.73 422.10 546.17 421.96
  Q 548.74 421.90 550.40 422.67
  C 553.47 424.09 554.63 429.05 555.20 432.19
  A 1.15 1.14 3.0 0 0 556.00 433.07
  C 557.09 433.40 558.08 432.82 558.04 431.67
  Q 557.90 426.68 558.08 422.00
  Q 558.12 421.12 558.96 420.86
  L 559.27 420.76
  A 0.49 0.49 0.0 0 1 559.90 421.22
  L 560.11 430.67
  Q 560.14 432.21 561.67 432.22
  L 562.45 432.23
  Q 563.90 432.24 563.93 430.79
  L 564.08 422.79
  Q 564.10 421.89 565.00 421.82
  L 565.35 421.79
  A 0.48 0.47 -2.9 0 1 565.87 422.25
  L 566.04 432.07
  A 0.84 0.84 0.0 0 0 567.13 432.86
  L 568.93 432.28
  Q 569.82 432.00 569.84 431.07
  L 570.06 423.00
  A 1.23 1.23 0.0 0 1 571.05 421.82
  L 571.31 421.77
  A 0.50 0.50 0.0 0 1 571.92 422.26
  L 572.04 431.66
  Q 572.06 433.28 573.67 433.10
  L 575.28 432.92
  Q 576.66 432.77 576.82 431.38
  Q 577.43 426.12 576.60 421.40
  Q 576.52 420.95 576.98 420.93
  L 578.28 420.87
  Q 578.91 420.84 578.91 421.46
  L 579.03 432.03
  A 1.04 1.03 -2.8 0 0 580.16 433.05
  Q 582.79 432.80 584.99 433.83
  A 1.95 1.95 0.0 0 1 585.80 436.66
  Q 585.07 437.80 583.61 437.92
  Q 577.38 438.42 573.03 437.28
  A 1.63 1.63 0.0 0 0 570.99 438.86
  L 570.97 464.87
  A 1.15 1.15 0.0 0 0 572.13 466.02
  L 579.96 465.94
  Q 581.87 465.92 580.38 464.73
  C 579.59 464.10 578.52 463.43 578.27 462.39
  Q 576.45 454.88 582.94 452.75
  C 585.17 452.02 588.15 453.57 589.46 455.21
  C 592.49 459.02 590.44 462.27 587.39 465.13
  A 0.53 0.52 23.5 0 0 587.75 466.04
  L 602.96 466.00
  Q 604.17 466.00 604.09 464.79
  L 603.91 462.14
  A 1.17 1.17 0.0 0 0 602.80 461.05
  C 597.35 460.81 593.60 455.65 593.03 450.59
  C 592.04 441.94 597.66 434.22 606.89 435.02
  C 620.39 436.20 622.77 459.56 608.98 461.08
  Q 608.11 461.18 608.07 462.04
  L 607.93 464.55
  Q 607.85 466.00 609.30 466.00
  L 625.68 466.01
  Q 627.12 466.02 627.12 464.57
  L 626.99 409.40
  Q 626.98 407.78 628.60 407.94
  L 629.05 407.99
  Q 630.02 408.09 630.02 409.05
  L 629.95 464.75
  A 1.30 1.29 89.8 0 0 631.25 466.05
  L 636.70 466.01
  Q 638.14 466.00 638.14 464.55
  L 638.11 456.25
  Q 638.10 454.93 639.42 454.94
  Q 644.49 455.00 649.59 454.14
  Q 651.26 453.85 652.54 454.84
  Q 652.75 455.00 652.85 455.26
  Q 653.50 457.01 651.66 457.37
  Q 647.18 458.23 642.00 458.00
  A 1.05 1.05 0.0 0 0 640.90 459.05
  L 640.99 481.00
  A 0.97 0.97 0.0 0 0 641.96 481.97
  L 651.95 482.02
  A 1.24 1.23 -11.4 0 0 653.09 480.31
  C 652.21 478.22 650.20 477.18 649.48 475.00
  C 648.24 471.25 650.43 467.26 654.66 466.82
  Q 660.05 466.26 661.69 471.39
  C 663.23 476.23 659.74 477.41 657.13 480.29
  A 0.91 0.90 -31.5 0 0 656.92 481.14
  Q 657.14 481.97 657.97 481.99
  Q 665.55 482.15 675.18 481.91
  A 0.57 0.57 0.0 0 1 675.72 482.70
  Q 671.38 493.04 668.05 503.25
  C 667.45 505.09 668.23 506.37 670.18 506.06
  Q 671.21 505.90 672.17 506.03
  Q 672.66 506.10 672.75 506.59
  Q 674.21 514.28 678.14 521.31
  Q 678.38 521.73 678.86 521.79
  C 684.29 522.52 689.64 521.30 694.86 521.13
  Q 701.97 520.90 708.78 521.02
  A 1.20 1.20 0.0 0 0 710.00 519.82
  L 710.05 486.97
  A 0.89 0.86 -23.1 0 1 710.31 486.35
  Q 710.95 485.70 711.50 485.97
  A 2.46 2.39 -78.0 0 1 712.87 488.14
  Q 713.12 504.40 712.94 520.02
  A 1.06 1.05 0.3 0 0 714.01 521.09
  L 740.65 520.96
  Q 742.91 520.95 742.93 523.21
  L 743.04 536.91
  A 1.90 1.89 89.8 0 0 744.92 538.79
  L 765.71 538.95
  A 2.33 2.33 0.0 0 1 767.85 540.43
  L 771.30 549.38
  Q 771.48 549.86 771.97 549.72
  Q 775.82 548.67 780.49 548.94
  A 1.42 1.42 0.0 0 0 781.99 547.59
  Q 782.10 545.42 782.62 543.35
  A 1.75 1.74 6.4 0 1 784.29 542.02
  L 788.04 541.95
  A 1.96 1.96 0.0 0 0 789.96 539.98
  Q 789.93 531.36 792.15 523.45
  C 796.54 507.82 813.95 502.81 826.39 512.94
  Q 829.13 515.16 830.53 517.87
  Q 830.83 518.45 830.64 519.06
  Q 830.61 519.15 830.55 519.22
  Q 830.06 519.79 830.81 519.85
  Q 836.86 520.38 842.33 519.46
  Q 845.42 518.94 848.79 519.28
  Q 849.40 519.34 849.83 519.77
  Q 850.01 519.95 850.12 520.19
  Q 850.37 520.71 850.95 520.75
  Q 852.73 520.86 854.30 520.67
  Q 862.57 519.64 874.09 517.38
  Q 875.32 517.14 875.88 518.26
  Q 876.02 518.53 876.02 518.83
  Q 876.01 520.36 874.52 520.67
  Q 867.43 522.15 860.10 523.41
  C 852.99 524.63 846.18 526.37 839.09 527.78
  C 837.61 528.08 836.14 528.00 834.66 528.21
  Q 834.06 528.30 834.20 528.89
  L 836.35 537.57
  A 1.24 1.24 0.0 0 0 837.73 538.50
  Q 862.05 535.04 887.26 531.30
  Q 890.31 530.84 893.04 530.45
  Q 919.25 526.69 945.00 523.52
  Q 974.30 519.92 1004.47 517.76
  A 0.63 0.63 0.0 0 0 1005.06 517.13
  L 1004.97 500.23
  A 1.16 1.15 81.4 0 0 1003.48 499.13
  Q 999.26 500.40 994.81 501.69
  Q 991.68 502.59 988.68 502.80
  C 985.16 503.04 980.61 502.59 977.50 504.37
  Q 974.68 505.99 972.14 507.46
  Q 970.91 508.17 971.16 506.78
  Q 971.23 506.42 971.46 506.04
  Q 971.76 505.54 971.78 504.95
  L 972.10 492.90
  A 1.15 1.14 -9.5 0 1 972.85 491.86
  C 979.84 489.34 987.30 488.63 994.77 487.38
  C 997.45 486.93 1000.02 487.01 1002.73 486.93
  Q 1004.86 486.85 1004.90 484.73
  L 1005.18 471.52
  Q 1005.21 470.17 1006.56 470.06
  L 1007.13 470.01
  Q 1008.46 469.91 1008.59 471.23
  Q 1008.83 473.59 1008.86 475.86
  Q 1009.21 498.18 1008.96 520.52
  A 0.38 0.37 89.2 0 1 1008.61 520.89
  C 996.24 521.73 984.18 522.79 971.86 524.28
  Q 883.93 534.90 800.42 548.34
  Q 781.69 551.36 768.15 553.19
  Q 757.57 554.63 748.46 556.29
  C 729.79 559.71 711.23 562.11 692.75 565.30
  C 676.53 568.11 661.41 570.34 645.92 573.08
  Q 623.37 577.08 597.02 581.33
  Q 560.75 587.18 509.93 596.60
  Q 509.72 596.64 509.80 596.83
  L 509.92 597.10
  Q 509.94 597.16 510.01 597.16
  Q 513.57 597.00 517.40 596.49
  Q 526.13 595.32 534.26 594.58
  Q 550.82 593.08 567.76 590.72
  Q 589.71 587.67 609.65 584.70
  C 626.99 582.12 644.96 578.95 661.77 576.60
  Q 676.24 574.57 689.68 572.08
  Q 700.26 570.12 709.41 568.76
  C 725.71 566.35 742.38 563.19 758.92 560.92
  Q 775.99 558.57 792.14 555.91
  Q 803.06 554.12 811.91 552.82
  C 835.36 549.40 857.87 545.61 882.07 542.38
  Q 890.70 541.23 901.88 539.49
  Q 912.03 537.91 922.55 536.70
  Q 932.27 535.58 942.37 534.10
  Q 972.77 529.67 999.97 527.33
  Q 1004.06 526.98 1008.24 527.04
  A 0.77 0.75 87.5 0 1 1008.99 527.74
  C 1009.52 533.82 1010.01 541.16 1006.14 546.40
  Q 1000.38 554.20 995.00 562.27
  Q 984.32 578.28 972.60 594.43
  Q 966.13 603.35 961.09 610.94
  Q 950.19 627.38 939.54 642.06
  Q 938.01 644.17 935.46 644.15
  Q 888.55 643.76 841.28 644.31
  C 837.76 644.35 834.24 644.80 830.74 644.87
  Q 816.43 645.13 800.23 645.37
  Q 800.16 645.37 800.16 645.43
  L 800.16 645.73
  Q 800.15 646.03 800.45 646.02
  Q 801.28 645.99 802.01 646.40
  Q 802.54 646.71 803.16 646.72
  C 818.74 647.01 835.07 647.97 850.45 648.02
  Q 892.14 648.15 934.37 648.10
  A 0.72 0.72 0.0 0 1 934.99 649.19
  L 930.38 656.92
  Q 929.78 657.93 930.94 657.99
  Q 934.16 658.18 936.68 658.10
  Q 958.56 657.37 980.49 658.52
  Q 988.67 658.95 995.24 659.07
  Q 998.55 659.14 997.99 662.70
  Q 997.78 664.06 996.44 664.41
  Q 994.18 665.00 991.42 664.96
  Q 978.28 664.81 965.13 664.34
  Q 954.96 663.98 945.10 663.98
  Q 499.85 664.01 53.96 663.97
  C 47.42 663.97 40.99 664.49 34.51 664.70
  C 31.83 664.78 29.32 664.08 26.60 664.58
  Q 22.50 665.33 18.79 663.34
  Q 17.51 662.66 18.25 661.41
  Q 20.32 657.93 24.21 657.98
  Q 34.05 658.10 42.49 658.01
  Q 45.00 657.98 43.08 656.36
  Q 31.95 647.01 23.74 632.31
  Q 19.37 624.49 17.60 616.35
  Q 17.46 615.69 16.82 615.48
  L 14.67 614.80
  A 0.77 0.76 8.8 0 1 14.13 614.07
  L 14.01 600.60
  A 0.59 0.58 0.0 0 1 14.60 600.02
  Q 27.87 600.01 41.50 600.04
  C 46.26 600.06 50.87 599.18 55.18 599.20
  Q 60.13 599.22 65.25 599.20
  Q 114.58 598.93 163.64 599.08
  A 1.20 1.19 -73.3 0 0 164.67 598.52
  Q 167.80 593.49 169.91 588.83
  Q 170.10 588.41 170.55 588.53
  Q 173.98 589.49 178.29 587.89
  Q 178.76 587.71 178.89 587.22
  Q 179.21 586.05 178.91 584.87
  Q 178.69 584.03 177.82 584.02
  L 170.90 583.95
  Q 169.65 583.93 169.18 582.77
  Q 169.01 582.35 169.39 581.89
  Q 170.00 581.18 170.92 581.15
  L 177.78 580.94
  Q 178.98 580.91 179.04 579.72
  L 179.11 578.44
  Q 179.18 577.05 177.80 577.07
  Q 173.05 577.11 171.14 576.67
  A 0.66 0.66 0.0 0 1 171.14 575.39
  Q 173.25 574.91 175.60 574.92
  Q 198.95 575.06 221.41 575.00
  Q 223.58 574.99 225.67 574.69
  A 0.95 0.94 9.1 0 0 226.38 574.18
  L 227.06 572.84
  Q 227.31 572.36 227.83 572.23
  Q 230.53 571.54 233.24 572.55
  A 1.11 1.11 0.0 0 0 234.71 571.75
  Q 236.14 565.23 237.91 560.04
  Q 238.61 557.97 240.93 557.78
  Q 241.41 557.74 241.60 558.19
  Q 242.15 559.53 241.91 560.79
  A 0.98 0.97 -84.4 0 0 242.86 561.96
  L 257.46 562.00
  A 0.72 0.72 0.0 0 1 258.18 562.71
  Q 258.23 568.41 257.76 573.18
  C 257.45 576.33 253.62 576.79 251.13 577.01
  Q 249.12 577.18 248.99 579.20
  L 248.97 579.61
  Q 248.88 581.10 250.36 581.07
  L 255.48 580.99
  A 2.92 2.90 -81.0 0 0 258.19 579.01
  C 260.42 572.46 262.81 565.85 264.42 559.15
  Q 265.73 553.71 267.30 548.68
  C 267.61 547.68 268.62 546.64 268.65 545.75
  Q 269.14 530.51 269.22 515.25
  Q 269.22 513.52 270.61 512.92
  Q 271.14 512.70 271.30 513.24
  Q 272.00 515.52 272.01 518.00
  Q 272.08 532.17 271.98 545.73
  Q 271.97 547.09 273.33 547.02
  L 276.99 546.85
  Q 277.93 546.80 277.93 545.86
  C 277.93 542.80 278.20 539.79 278.16 536.74
  Q 277.87 512.59 278.12 488.14
  Q 278.13 487.08 279.17 486.89
  L 279.78 486.78
  A 1.03 1.02 85.0 0 1 280.98 487.79
  L 281.00 545.57
  Q 281.00 546.91 282.32 547.01
  L 283.12 547.08
  Q 284.46 547.18 284.73 545.87
  L 285.70 541.18
  Q 285.83 540.56 286.44 540.39
  L 287.96 539.96
  A 1.13 1.13 0.0 0 0 288.67 539.36
  Q 289.49 537.64 289.74 535.70
  Q 290.19 532.20 290.92 528.65
  A 0.81 0.80 6.2 0 1 291.71 528.02
  L 296.73 528.03
  A 1.28 1.28 0.0 0 0 298.01 526.76
  L 298.04 510.96
  A 1.00 0.99 -89.4 0 1 299.04 509.97
  L 305.32 510.03
  A 0.57 0.53 -24.2 0 1 305.59 510.12
  Q 306.42 510.69 306.17 511.19
  Q 305.91 511.72 305.31 511.82
  Q 304.24 511.98 303.26 512.27
  Q 302.65 512.45 302.37 513.02
  Q 301.67 514.43 302.02 516.12
  Q 302.17 516.87 302.93 516.92
  Q 309.94 517.38 317.20 516.87
  Q 318.02 516.82 318.01 516.00
  L 317.98 513.05
  A 0.97 0.97 0.0 0 0 317.21 512.11
  Q 307.60 510.09 305.24 499.04
  C 303.94 492.93 308.23 486.69 313.30 483.87
  C 322.58 478.72 334.38 484.66 335.12 495.61
  C 335.52 501.39 334.99 504.99 330.52 508.97
  C 328.60 510.67 325.41 511.26 323.03 512.34
  Q 322.51 512.58 322.28 513.10
  Q 321.71 514.47 321.98 515.91
  Q 322.19 516.99 323.29 516.99
  L 337.98 517.02
  A 0.94 0.94 0.0 0 0 338.92 516.07
  Q 338.85 508.89 339.21 501.13
  Q 339.29 499.55 340.62 499.11
  A 1.60 1.59 -15.2 0 1 342.69 500.29
  Q 343.14 502.38 343.12 504.21
  Q 343.05 510.86 342.97 518.26
  C 342.94 521.58 341.79 524.66 342.45 527.99
  A 0.93 0.93 0.0 0 0 344.05 528.44
  Q 345.05 527.37 345.27 525.80
  Q 346.07 519.98 347.30 514.30
  A 1.43 1.42 5.8 0 1 348.68 513.18
  L 362.75 512.98
  A 1.37 1.36 7.1 0 0 364.04 511.98
  C 364.45 510.51 363.86 509.23 362.41 508.64
  C 354.45 505.46 350.65 497.68 354.13 489.61
  C 357.95 480.73 370.88 478.97 376.82 486.63
  C 383.45 495.19 379.80 506.67 368.69 509.22
  Q 368.05 509.37 368.02 510.03
  L 367.95 511.45
  Q 367.88 512.90 369.34 512.95
  Q 374.78 513.11 379.69 512.87
  Q 382.42 512.74 382.68 515.60
  Q 383.26 521.90 385.03 528.13
  A 0.90 0.90 0.0 0 0 386.22 528.72
  Q 388.68 527.78 391.48 528.06
  A 1.16 1.15 8.4 0 0 392.74 527.13
  Q 397.73 502.02 402.00 476.80
  Q 402.33 474.87 401.01 473.48
  Q 395.08 467.25 388.22 461.15
  C 383.57 457.02 379.90 452.14 375.36 447.98
  Q 374.27 446.98 375.75 446.96
  L 377.13 446.94
  A 3.09 3.08 66.3 0 1 379.26 447.77
  Q 383.56 451.81 387.53 456.12
  C 390.03 458.82 393.25 460.56 395.67 463.24
  Q 396.96 464.67 396.97 462.74
  L 397.07 437.29
  Q 397.08 436.03 398.28 435.64
  Q 398.49 435.58 398.69 435.47
  Q 399.99 434.77 399.99 436.25
  L 400.03 465.75
  Q 400.03 466.79 401.07 466.88
  Q 405.94 467.30 408.82 466.88
  A 1.41 1.40 86.0 0 0 410.02 465.49
  Q 409.96 437.86 410.08 409.76
  Q 410.08 408.36 411.05 407.32
  A 1.25 1.25 0.0 0 1 413.13 407.74
  Q 413.94 409.98 413.95 412.10
  Q 414.05 437.99 413.97 466.08
  A 0.67 0.66 3.8 0 0 414.56 466.75
  Q 420.03 467.40 425.34 466.77
  Q 427.02 466.56 426.74 464.89
  Q 425.56 457.68 426.17 449.57
  A 0.62 0.62 0.0 0 1 426.80 449.00
  L 434.92 449.07
  A 1.28 1.28 0.0 0 1 436.17 450.16
  L 436.25 450.73
  A 1.01 1.01 0.0 0 1 435.28 451.89
  L 429.92 452.02
  A 1.06 1.05 -1.4 0 0 428.89 453.09
  L 429.05 465.49
  A 0.64 0.63 88.3 0 0 429.71 466.12
  L 430.03 466.11
  Q 430.94 466.08 430.96 465.17
  L 431.09 460.45
  Q 431.14 458.91 432.67 458.92
  L 438.60 458.94
  Q 439.90 458.94 439.91 460.25
  L 439.96 475.05
  A 0.91 0.90 89.7 0 1 439.07 475.96
  L 434.25 476.01
  Q 432.61 476.03 432.97 477.62
  Q 434.38 483.97 435.38 490.51
  C 437.02 501.12 438.84 511.67 440.66 522.24
  Q 441.45 526.81 442.74 532.01
  Q 443.28 534.15 444.34 534.86
  Q 445.93 535.93 445.94 534.01
  C 445.97 526.80 446.26 519.72 446.17 512.65
  Q 445.96 496.17 446.07 481.00
  C 446.29 450.49 445.97 419.95 446.03 388.98
  Q 446.04 381.23 446.43 373.85
  Q 446.54 371.84 447.90 370.96
  Q 448.19 370.78 448.56 370.79
  Q 449.98 370.85 449.98 372.27
  L 449.98 518.94
  A 0.97 0.96 -89.7 0 0 450.93 519.91
  L 458.79 520.03
  A 1.14 1.14 0.0 0 1 459.92 521.21
  Q 459.74 526.89 460.97 532.92
  Q 461.79 536.95 462.82 532.97
  Q 463.92 528.73 464.57 523.52
  C 465.11 519.32 464.09 515.45 463.20 511.46
  Q 462.97 510.43 463.31 509.47
  Q 463.95 507.68 464.74 509.41
  L 467.06 514.49
  Q 467.44 515.30 467.62 514.42
  Z
  M 494.3700 363.4750
  A 2.86 1.58 -0.1 0 0 491.5072 361.9000
  A 2.86 1.58 -0.1 0 0 488.6500 363.4850
  A 2.86 1.58 -0.1 0 0 491.5128 365.0600
  A 2.86 1.58 -0.1 0 0 494.3700 363.4750
  Z
  M 490.87 378.14
  A 1.54 1.52 6.8 0 0 492.01 377.26
  Q 493.68 373.49 492.73 368.77
  Q 492.62 368.21 492.06 368.08
  Q 490.80 367.80 489.63 368.01
  Q 489.02 368.13 488.99 368.75
  Q 488.81 373.50 489.06 376.78
  Q 489.18 378.42 490.87 378.14
  Z
  M 511.9587 371.9970
  A 1.17 1.17 0.0 0 0 510.7785 370.8373
  L 510.1185 370.8430
  A 1.17 1.17 0.0 0 0 508.9588 372.0232
  L 509.0013 376.9030
  A 1.17 1.17 0.0 0 0 510.1815 378.0627
  L 510.8415 378.0570
  A 1.17 1.17 0.0 0 0 512.0012 376.8768
  L 511.9587 371.9970
  Z
  M 514.25 382.98
  A 1.56 1.56 0.0 0 0 512.74 384.89
  L 514.13 390.80
  A 1.56 1.56 0.0 0 0 515.61 392.01
  L 520.44 392.12
  A 1.56 1.56 0.0 0 0 522.04 390.56
  L 522.04 384.49
  A 1.56 1.56 0.0 0 0 520.47 382.93
  L 514.25 382.98
  Z
  M 492.0131 385.2753
  A 1.43 1.43 0.0 0 0 490.5881 383.8403
  L 490.4481 383.8398
  A 1.43 1.43 0.0 0 0 489.0131 385.2648
  L 488.9869 392.7847
  A 1.43 1.43 0.0 0 0 490.4119 394.2197
  L 490.5519 394.2202
  A 1.43 1.43 0.0 0 0 491.9869 392.7952
  L 492.0131 385.2753
  Z
  M 485.05 390.11
  A 1.09 1.09 0.0 0 0 483.96 389.02
  L 475.04 389.02
  A 1.09 1.09 0.0 0 0 473.95 390.11
  L 473.95 392.91
  A 1.09 1.09 0.0 0 0 475.04 394.00
  L 483.96 394.00
  A 1.09 1.09 0.0 0 0 485.05 392.91
  L 485.05 390.11
  Z
  M 485.0686 397.1906
  A 1.16 1.16 0.0 0 0 483.9066 396.0327
  L 464.0266 396.0674
  A 1.16 1.16 0.0 0 0 462.8687 397.2294
  L 462.8714 398.7894
  A 1.16 1.16 0.0 0 0 464.0334 399.9473
  L 483.9134 399.9126
  A 1.16 1.16 0.0 0 0 485.0713 398.7506
  L 485.0686 397.1906
  Z
  M 491.6923 398.4431
  A 1.32 0.70 -26.4 0 0 490.1988 398.4030
  A 1.32 0.70 -26.4 0 0 489.3277 399.6169
  A 1.32 0.70 -26.4 0 0 490.8212 399.6570
  A 1.32 0.70 -26.4 0 0 491.6923 398.4431
  Z
  M 484.45 413.94
  L 484.99 415.14
  Q 485.33 415.88 486.15 415.92
  L 489.87 416.07
  A 1.16 1.16 0.0 0 0 491.08 414.89
  L 490.98 403.71
  A 0.76 0.75 -0.4 0 0 490.21 402.96
  L 476.54 403.13
  A 1.36 1.35 -86.3 0 0 475.21 404.30
  Q 474.55 409.13 475.49 413.23
  Q 475.96 415.30 477.75 414.15
  C 479.48 413.04 481.70 412.73 483.65 413.27
  Q 484.21 413.42 484.45 413.94
  Z
  M 523.80 404.68
  Q 521.97 405.20 519.15 405.03
  Q 517.68 404.94 518.18 406.33
  L 518.62 407.56
  A 2.15 2.15 0.0 0 0 520.66 408.99
  L 525.16 408.95
  Q 526.62 408.93 526.10 407.56
  L 525.28 405.42
  Q 524.88 404.37 523.80 404.68
  Z
  M 522.31 419.68
  A 1.43 1.43 0.0 0 0 523.51 420.79
  L 526.58 421.21
  A 1.43 1.43 0.0 0 0 528.16 419.44
  L 526.79 414.02
  A 1.43 1.43 0.0 0 0 525.39 412.95
  L 522.61 412.96
  A 1.43 1.43 0.0 0 0 521.22 414.70
  L 522.31 419.68
  Z
  M 490.2217 420.3635
  A 1.33 1.33 0.0 0 0 488.9057 419.0196
  L 483.2660 418.9606
  A 1.33 1.33 0.0 0 0 481.9221 420.2766
  L 481.9183 420.6365
  A 1.33 1.33 0.0 0 0 483.2343 421.9804
  L 488.8740 422.0394
  A 1.33 1.33 0.0 0 0 490.2179 420.7234
  L 490.2217 420.3635
  Z
  M 489.08 437.34
  L 489.02 435.58
  A 0.67 0.67 0.0 0 0 488.33 434.93
  L 482.12 435.14
  A 3.42 1.42 -1.9 0 0 478.75 436.67
  L 478.76 436.93
  A 3.42 1.42 -1.9 0 0 482.22 438.24
  L 488.43 438.03
  A 0.67 0.67 0.0 0 0 489.08 437.34
  Z
  M 568.10 438.05
  A 1.05 1.05 0.0 0 0 567.05 437.00
  L 541.12 436.99
  A 1.05 1.05 0.0 0 0 540.16 438.46
  L 551.98 465.35
  A 1.05 1.05 0.0 0 0 552.95 465.98
  L 566.98 465.96
  A 1.05 1.05 0.0 0 0 568.03 464.91
  L 568.10 438.05
  Z
  M 506.44 445.79
  L 509.43 447.80
  A 1.46 1.46 0.0 0 0 511.45 447.40
  L 512.14 446.38
  A 3.93 3.19 -56.1 0 0 511.68 441.34
  L 511.57 441.26
  A 3.93 3.19 -56.1 0 0 506.73 442.75
  L 506.04 443.77
  A 1.46 1.46 0.0 0 0 506.44 445.79
  Z
  M 473.79 444.42
  Q 478.92 448.87 484.16 453.07
  Q 485.10 453.83 486.11 454.50
  A 1.13 1.12 18.7 0 0 487.86 453.64
  Q 488.18 448.76 487.99 444.02
  A 1.04 1.04 0.0 0 0 486.97 443.02
  C 482.38 442.95 477.18 443.57 472.80 442.24
  A 0.68 0.68 0.0 0 0 472.01 443.22
  C 472.30 443.77 473.23 443.94 473.79 444.42
  Z
  M 603.93 473.99
  A 1.30 1.30 0.0 0 0 605.21 472.47
  L 604.63 469.10
  A 1.30 1.30 0.0 0 0 603.35 468.02
  L 589.31 468.00
  A 1.30 1.30 0.0 0 0 588.01 469.29
  L 587.99 472.71
  A 1.30 1.30 0.0 0 0 589.29 474.02
  L 603.93 473.99
  Z
  M 614.18 470.80
  A 1.41 1.41 0.0 0 1 616.84 470.80
  Q 617.10 471.53 616.96 472.89
  A 1.02 1.02 0.0 0 0 617.98 474.03
  L 624.70 473.97
  Q 627.11 473.95 627.01 471.55
  L 626.96 470.42
  Q 626.85 467.98 624.42 467.99
  L 609.61 468.02
  A 1.29 1.28 79.7 0 0 608.41 469.76
  Q 608.94 471.19 608.95 472.66
  Q 608.96 474.00 610.30 474.00
  L 612.94 473.99
  Q 614.56 473.99 614.15 472.42
  Q 613.92 471.54 614.18 470.80
  Z
  M 638.1453 469.4940
  A 1.45 1.45 0.0 0 0 636.7004 468.0389
  L 631.6004 468.0211
  A 1.45 1.45 0.0 0 0 630.1453 469.4660
  L 630.1347 472.5060
  A 1.45 1.45 0.0 0 0 631.5796 473.9611
  L 636.6796 473.9789
  A 1.45 1.45 0.0 0 0 638.1347 472.5340
  L 638.1453 469.4940
  Z
  M 560.74 472.86
  A 1.15 1.15 0.0 0 1 561.98 474.00
  L 562.01 479.77
  Q 562.02 481.03 563.27 481.02
  L 568.64 481.00
  Q 570.03 480.99 570.02 479.61
  L 570.01 470.47
  Q 570.01 468.93 568.47 468.94
  Q 560.48 469.03 552.53 469.18
  Q 550.67 469.22 549.50 470.71
  Q 549.28 470.99 549.26 471.36
  Q 549.21 472.53 550.37 472.68
  Q 555.00 473.32 560.74 472.86
  Z
  M 577.88 473.47
  Q 580.22 472.84 582.80 472.93
  Q 584.31 472.98 584.18 471.47
  L 584.08 470.35
  Q 583.97 468.98 582.60 468.99
  L 577.90 469.02
  A 1.08 1.08 0.0 0 0 576.83 470.15
  L 576.96 472.80
  Q 577.00 473.70 577.88 473.47
  Z
  M 532.7130 478.4024
  A 3.41 2.99 -13.7 0 0 528.6919 476.3051
  A 3.41 2.99 -13.7 0 0 526.0870 480.0176
  A 3.41 2.99 -13.7 0 0 530.1081 482.1149
  A 3.41 2.99 -13.7 0 0 532.7130 478.4024
  Z
  M 584.0576 477.0938
  A 1.12 1.12 0.0 0 0 582.9356 475.9758
  L 578.0756 475.9842
  A 1.12 1.12 0.0 0 0 576.9576 477.1062
  L 576.9624 479.8662
  A 1.12 1.12 0.0 0 0 578.0844 480.9842
  L 582.9444 480.9758
  A 1.12 1.12 0.0 0 0 584.0624 479.8538
  L 584.0576 477.0938
  Z
  M 604.9924 477.1448
  A 1.12 1.12 0.0 0 0 603.8744 476.0228
  L 589.1544 475.9972
  A 1.12 1.12 0.0 0 0 588.0324 477.1152
  L 588.0276 479.8752
  A 1.12 1.12 0.0 0 0 589.1456 480.9972
  L 603.8656 481.0228
  A 1.12 1.12 0.0 0 0 604.9876 479.9048
  L 604.9924 477.1448
  Z
  M 614.0372 477.0988
  A 1.06 1.06 0.0 0 0 612.9977 476.0187
  L 610.0583 475.9622
  A 1.06 1.06 0.0 0 0 608.9781 477.0017
  L 608.9228 479.8812
  A 1.06 1.06 0.0 0 0 609.9623 480.9613
  L 612.9017 481.0178
  A 1.06 1.06 0.0 0 0 613.9819 479.9783
  L 614.0372 477.0988
  Z
  M 626.0127 476.9379
  A 0.95 0.95 0.0 0 0 625.0644 475.9862
  L 617.9444 475.9738
  A 0.95 0.95 0.0 0 0 616.9927 476.9221
  L 616.9873 480.0421
  A 0.95 0.95 0.0 0 0 617.9356 480.9938
  L 625.0556 481.0062
  A 0.95 0.95 0.0 0 0 626.0073 480.0579
  L 626.0127 476.9379
  Z
  M 638.0887 477.1865
  A 1.14 1.14 0.0 0 0 636.9648 476.0307
  L 631.1653 475.9498
  A 1.14 1.14 0.0 0 0 630.0095 477.0737
  L 629.9713 479.8135
  A 1.14 1.14 0.0 0 0 631.0952 480.9693
  L 636.8947 481.0502
  A 1.14 1.14 0.0 0 0 638.0505 479.9263
  L 638.0887 477.1865
  Z
  M 628.26 500.70
  Q 627.86 501.98 629.20 502.00
  L 635.11 502.09
  A 2.22 2.21 13.6 0 0 637.13 500.86
  Q 638.68 497.72 639.05 494.18
  A 1.15 1.15 0.0 0 0 637.86 492.91
  L 631.35 493.15
  A 1.01 1.00 -81.9 0 0 630.44 493.84
  L 628.26 500.70
  Z
  M 581.42 495.06
  Q 581.89 494.02 580.75 494.02
  L 574.24 493.98
  A 2.05 2.04 -72.6 0 0 572.56 494.86
  Q 570.58 497.75 570.98 501.05
  Q 571.04 501.54 571.51 501.66
  C 572.94 502.05 578.41 502.90 579.16 500.74
  Q 580.24 497.63 581.42 495.06
  Z
  M 595.73 495.10
  A 0.87 0.87 0.0 0 0 594.90 493.98
  L 588.02 493.95
  A 0.87 0.87 0.0 0 0 587.18 494.57
  L 585.27 500.92
  A 0.87 0.87 0.0 0 0 586.10 502.04
  L 593.00 502.03
  A 0.87 0.87 0.0 0 0 593.84 501.41
  L 595.73 495.10
  Z
  M 609.87 494.66
  A 0.51 0.50 -81.8 0 0 609.39 494.01
  L 603.26 493.98
  A 1.24 1.24 0.0 0 0 602.25 494.50
  Q 600.25 497.34 599.94 500.36
  Q 599.77 502.01 601.43 502.03
  L 606.36 502.09
  Q 607.63 502.10 608.00 500.88
  L 609.87 494.66
  Z
  M 621.07 502.03
  A 1.81 1.81 0.0 0 0 622.79 500.72
  L 624.05 496.26
  A 1.81 1.81 0.0 0 0 622.29 493.96
  L 616.87 494.02
  A 1.81 1.81 0.0 0 0 615.14 495.36
  L 613.95 499.81
  A 1.81 1.81 0.0 0 0 615.71 502.09
  L 621.07 502.03
  Z
  M 653.01 495.63
  A 1.21 1.21 0.0 0 0 651.87 493.96
  L 645.47 494.03
  A 1.21 1.21 0.0 0 0 644.30 495.01
  L 643.21 500.55
  A 1.21 1.21 0.0 0 0 644.37 502.00
  L 649.54 502.09
  A 1.21 1.21 0.0 0 0 650.68 501.34
  L 653.01 495.63
  Z
  M 659.82 493.91
  A 0.82 0.82 0.0 0 0 659.05 494.42
  L 656.36 501.00
  A 0.82 0.82 0.0 0 0 657.14 502.13
  L 662.49 501.99
  A 0.82 0.82 0.0 0 0 663.23 501.48
  L 665.81 495.13
  A 0.82 0.82 0.0 0 0 665.06 494.00
  L 659.82 493.91
  Z
  M 527.1372 509.0906
  A 3.64 3.04 -16.1 0 0 522.7970 507.1792
  A 3.64 3.04 -16.1 0 0 520.1428 511.1094
  A 3.64 3.04 -16.1 0 0 524.4830 513.0208
  A 3.64 3.04 -16.1 0 0 527.1372 509.0906
  Z
  M 537.9935 510.1376
  A 3.48 3.11 -3.5 0 0 534.3301 507.2458
  A 3.48 3.11 -3.5 0 0 531.0465 510.5624
  A 3.48 3.11 -3.5 0 0 534.7099 513.4542
  A 3.48 3.11 -3.5 0 0 537.9935 510.1376
  Z
  M 496.06 511.65
  L 495.91 508.71
  A 1.21 1.21 0.0 0 0 494.64 507.57
  L 493.40 507.63
  A 3.59 2.53 -3.0 0 0 489.95 510.35
  L 489.96 510.65
  A 3.59 2.53 -3.0 0 0 493.68 512.99
  L 494.92 512.92
  A 1.21 1.21 0.0 0 0 496.06 511.65
  Z
  M 657.08 511.50
  A 1.61 1.61 0.0 0 0 655.47 509.89
  A 1.61 1.61 0.0 0 0 653.86 511.50
  A 1.61 1.61 0.0 0 0 655.47 513.11
  A 1.61 1.61 0.0 0 0 657.08 511.50
  Z
  M 339.06 528.62
  L 338.94 521.98
  A 0.27 0.27 0.0 0 0 338.67 521.72
  L 325.17 521.95
  A 2.27 1.01 -1.0 0 0 322.92 523.00
  L 323.01 528.16
  A 2.27 1.01 -1.0 0 0 325.29 529.13
  L 338.79 528.89
  A 0.27 0.27 0.0 0 0 339.06 528.62
  Z
  M 317.9360 523.1561
  A 1.21 1.21 0.0 0 0 316.7239 521.9482
  L 303.1840 521.9718
  A 1.21 1.21 0.0 0 0 301.9761 523.1839
  L 301.9840 527.7039
  A 1.21 1.21 0.0 0 0 303.1961 528.9118
  L 316.7360 528.8882
  A 1.21 1.21 0.0 0 0 317.9439 527.6761
  L 317.9360 523.1561
  Z
  M 458.1990 524.3158
  A 1.31 1.31 0.0 0 0 456.8822 523.0127
  L 450.2623 523.0474
  A 1.31 1.31 0.0 0 0 448.9592 524.3642
  L 448.9610 524.7042
  A 1.31 1.31 0.0 0 0 450.2778 526.0073
  L 456.8977 525.9726
  A 1.31 1.31 0.0 0 0 458.2008 524.6558
  L 458.1990 524.3158
  Z
  M 733.0158 524.3151
  A 1.34 1.34 0.0 0 0 731.6711 522.9798
  L 714.3312 523.0403
  A 1.34 1.34 0.0 0 0 712.9959 524.3849
  L 713.0042 526.7649
  A 1.34 1.34 0.0 0 0 714.3489 528.1002
  L 731.6888 528.0397
  A 1.34 1.34 0.0 0 0 733.0241 526.6951
  L 733.0158 524.3151
  Z
  M 739.70 527.99
  A 1.42 1.42 0.0 0 0 741.10 526.35
  L 740.77 524.23
  A 1.42 1.42 0.0 0 0 739.39 523.03
  L 736.64 522.99
  A 1.42 1.42 0.0 0 0 735.22 524.17
  L 734.84 526.35
  A 1.42 1.42 0.0 0 0 736.25 528.01
  L 739.70 527.99
  Z
  M 681.08 524.00
  A 1.05 1.05 0.0 0 0 680.15 525.53
  L 681.14 527.46
  A 1.05 1.05 0.0 0 0 682.09 528.02
  L 688.98 527.95
  A 1.05 1.05 0.0 0 0 690.02 526.97
  L 690.15 525.12
  A 1.05 1.05 0.0 0 0 689.10 524.00
  L 681.08 524.00
  Z
  M 710.0069 525.1185
  A 1.14 1.14 0.0 0 0 708.8630 523.9825
  L 693.1031 524.0375
  A 1.14 1.14 0.0 0 0 691.9671 525.1815
  L 691.9731 526.9015
  A 1.14 1.14 0.0 0 0 693.1170 528.0375
  L 708.8769 527.9825
  A 1.14 1.14 0.0 0 0 710.0129 526.8385
  L 710.0069 525.1185
  Z
  M 579.20 530.00
  A 3.02 3.02 0.0 0 0 576.18 526.98
  A 3.02 3.02 0.0 0 0 573.16 530.00
  A 3.02 3.02 0.0 0 0 576.18 533.02
  A 3.02 3.02 0.0 0 0 579.20 530.00
  Z
  M 636.14 529.99
  A 3.12 3.12 0.0 0 0 633.02 526.87
  A 3.12 3.12 0.0 0 0 629.90 529.99
  A 3.12 3.12 0.0 0 0 633.02 533.11
  A 3.12 3.12 0.0 0 0 636.14 529.99
  Z
  M 449.05 529.89
  L 448.94 533.83
  Q 448.91 535.00 450.08 535.01
  L 456.37 535.03
  Q 458.03 535.04 458.03 533.37
  L 458.03 529.70
  Q 458.03 527.52 455.96 528.21
  Q 452.98 529.21 450.16 528.92
  Q 449.09 528.80 449.05 529.89
  Z
  M 683.88 533.07
  C 684.28 538.06 691.92 536.78 689.67 531.09
  Q 689.38 530.36 688.61 530.20
  Q 686.24 529.73 683.59 530.17
  Q 682.76 530.31 683.09 531.08
  L 683.81 532.78
  A 0.90 0.87 32.6 0 1 683.88 533.07
  Z
  M 709.9139 531.2387
  A 1.20 1.20 0.0 0 0 708.7097 530.0429
  L 693.1898 530.0971
  A 1.20 1.20 0.0 0 0 691.9940 531.3013
  L 692.0061 534.7813
  A 1.20 1.20 0.0 0 0 693.2103 535.9771
  L 708.7302 535.9229
  A 1.20 1.20 0.0 0 0 709.9260 534.7187
  L 709.9139 531.2387
  Z
  M 731.74 535.96
  A 1.31 1.31 0.0 0 0 733.06 534.61
  L 732.95 531.18
  A 1.31 1.31 0.0 0 0 731.63 529.91
  L 714.35 530.04
  A 1.31 1.31 0.0 0 0 713.06 531.29
  L 712.92 534.45
  A 1.31 1.31 0.0 0 0 714.22 535.82
  L 731.74 535.96
  Z
  M 740.8694 531.7210
  A 1.76 1.76 0.0 0 0 739.0820 529.9889
  L 737.6222 530.0118
  A 1.76 1.76 0.0 0 0 735.8900 531.7993
  L 735.9306 534.3790
  A 1.76 1.76 0.0 0 0 737.7180 536.1111
  L 739.1778 536.0882
  A 1.76 1.76 0.0 0 0 740.9100 534.3007
  L 740.8694 531.7210
  Z
  M 752.43 541.84
  L 754.02 545.15
  Q 754.31 545.74 754.95 545.82
  Q 760.59 546.51 765.97 545.34
  A 1.13 1.12 83.6 0 0 766.86 544.21
  C 766.81 542.18 765.13 541.16 763.19 541.08
  Q 757.46 540.87 752.85 541.12
  Q 752.10 541.16 752.43 541.84
  Z
  M 759.41 547.38
  Q 756.12 547.91 756.97 551.18
  Q 757.11 551.73 757.67 551.80
  Q 761.47 552.29 766.05 551.78
  Q 768.23 551.54 768.12 549.34
  L 768.07 548.49
  Q 767.99 546.93 766.42 546.93
  Q 762.27 546.92 759.41 547.38
  Z
  M 326.96 548.04
  Q 324.07 547.48 322.19 550.50
  Q 321.84 551.05 322.20 551.60
  Q 323.77 554.03 326.55 554.06
  C 329.70 554.09 330.06 548.64 326.96 548.04
  Z
  M 367.2176 550.4648
  A 3.52 3.09 -9.9 0 0 363.2187 548.0260
  A 3.52 3.09 -9.9 0 0 360.2824 551.6752
  A 3.52 3.09 -9.9 0 0 364.2813 554.1140
  A 3.52 3.09 -9.9 0 0 367.2176 550.4648
  Z
  M 401.47 548.17
  Q 397.89 547.26 396.17 550.63
  A 0.88 0.86 50.6 0 0 396.11 551.30
  C 396.72 553.30 399.26 555.99 401.43 554.20
  Q 403.83 552.23 402.71 549.28
  A 1.80 1.79 86.8 0 0 401.47 548.17
  Z
  M 434.67 548.22
  Q 431.15 547.25 429.30 550.29
  Q 429.04 550.73 429.17 551.22
  Q 430.01 554.34 433.00 554.80
  Q 433.52 554.88 433.95 554.57
  Q 437.12 552.31 435.62 549.03
  A 1.50 1.46 -3.7 0 0 434.67 548.22
  Z
  M 474.6863 548.9293
  A 2.81 2.81 0.0 0 0 470.7420 548.4450
  L 469.9855 549.0360
  A 2.81 2.81 0.0 0 0 469.5012 552.9803
  L 469.9937 553.6107
  A 2.81 2.81 0.0 0 0 473.9380 554.0950
  L 474.6945 553.5040
  A 2.81 2.81 0.0 0 0 475.1788 549.5597
  L 474.6863 548.9293
  Z
  M 971.26 566.50
  A 3.25 3.25 0.0 0 0 968.01 563.25
  A 3.25 3.25 0.0 0 0 964.76 566.50
  A 3.25 3.25 0.0 0 0 968.01 569.75
  A 3.25 3.25 0.0 0 0 971.26 566.50
  Z
  M 242.14 573.23
  C 243.82 571.29 250.21 571.95 253.07 572.03
  Q 255.00 572.08 255.35 570.18
  L 256.13 565.85
  Q 256.46 564.01 254.59 564.01
  L 241.82 564.01
  A 0.77 0.76 2.0 0 0 241.05 564.72
  Q 240.73 569.06 241.07 572.88
  Q 241.19 574.32 242.14 573.23
  Z
  M 200.12 578.22
  Q 200.38 577.26 199.39 577.21
  Q 190.49 576.75 181.67 577.12
  Q 180.83 577.15 180.84 577.99
  L 180.86 580.04
  A 1.04 1.04 0.0 0 0 181.91 581.07
  L 200.26 580.90
  Q 201.24 580.89 200.60 580.14
  Q 199.84 579.26 200.12 578.22
  Z
  M 216.54 577.98
  Q 217.23 577.92 216.82 578.49
  Q 215.11 580.86 216.75 580.94
  Q 221.56 581.20 225.84 580.83
  Q 227.11 580.72 227.19 579.44
  L 227.24 578.59
  Q 227.32 577.06 225.79 577.05
  L 202.98 577.01
  A 1.11 1.10 89.2 0 0 201.88 578.15
  L 201.93 579.89
  A 1.20 1.20 0.0 0 0 203.15 581.06
  L 213.18 580.88
  Q 213.98 580.87 214.00 580.06
  Q 214.02 579.26 214.33 578.48
  Q 214.45 578.17 214.79 578.14
  L 216.54 577.98
  Z
  M 243.95 578.29
  A 1.04 1.04 0.0 0 0 243.67 578.60
  L 243.13 579.52
  A 1.04 1.04 0.0 0 0 244.08 581.09
  L 246.05 580.98
  A 1.04 1.04 0.0 0 0 247.03 579.93
  L 247.01 578.09
  A 1.04 1.04 0.0 0 0 245.35 577.26
  L 243.95 578.29
  Z
  M 232.24 579.28
  L 228.65 578.81
  A 0.38 0.37 -76.6 0 0 228.25 579.06
  L 228.06 579.56
  Q 227.91 579.99 228.36 579.93
  Q 229.76 579.75 231.01 580.41
  Q 231.49 580.66 231.99 580.43
  Q 232.30 580.29 232.53 580.01
  Q 233.05 579.38 232.24 579.28
  Z
  M 302.07 583.76
  A 2.79 2.79 0.0 0 0 299.28 580.97
  L 298.72 580.97
  A 2.79 2.79 0.0 0 0 295.93 583.76
  L 295.93 585.36
  A 2.79 2.79 0.0 0 0 298.72 588.15
  L 299.28 588.15
  A 2.79 2.79 0.0 0 0 302.07 585.36
  L 302.07 583.76
  Z
  M 322.1802 587.2860
  A 3.64 3.32 46.4 0 0 322.0743 582.3605
  A 3.64 3.32 46.4 0 0 317.1598 582.0140
  A 3.64 3.32 46.4 0 0 317.2657 586.9395
  A 3.64 3.32 46.4 0 0 322.1802 587.2860
  Z
  M 376.6988 588.1920
  A 3.64 3.36 93.8 0 0 380.2926 584.7827
  A 3.64 3.36 93.8 0 0 377.1812 580.9280
  A 3.64 3.36 93.8 0 0 373.5874 584.3373
  A 3.64 3.36 93.8 0 0 376.6988 588.1920
  Z
  M 412.0194 582.1707
  A 3.65 3.34 -43.0 0 0 407.0721 582.2173
  A 3.65 3.34 -43.0 0 0 406.6806 587.1493
  A 3.65 3.34 -43.0 0 0 411.6279 587.1027
  A 3.65 3.34 -43.0 0 0 412.0194 582.1707
  Z
  M 226.9385 584.7244
  A 1.26 1.26 0.0 0 0 225.6163 583.5297
  L 217.2071 583.9557
  A 1.26 1.26 0.0 0 0 216.0125 585.2779
  L 216.1015 587.0356
  A 1.26 1.26 0.0 0 0 217.4237 588.2303
  L 225.8329 587.8043
  A 1.26 1.26 0.0 0 0 227.0275 586.4821
  L 226.9385 584.7244
  Z
  M 198.86 588.11
  A 1.30 1.30 0.0 0 0 200.08 586.88
  L 200.16 585.39
  A 1.30 1.30 0.0 0 0 198.86 584.02
  L 182.36 584.08
  A 1.30 1.30 0.0 0 0 181.07 585.33
  L 180.99 587.87
  A 1.30 1.30 0.0 0 0 182.37 589.20
  L 198.86 588.11
  Z
  M 214.0859 585.2184
  A 1.23 1.23 0.0 0 0 212.8495 583.9948
  L 203.2296 584.0452
  A 1.23 1.23 0.0 0 0 202.0061 585.2816
  L 202.0141 586.8016
  A 1.23 1.23 0.0 0 0 203.2505 588.0252
  L 212.8704 587.9748
  A 1.23 1.23 0.0 0 0 214.0939 586.7384
  L 214.0859 585.2184
  Z
  M 246.9618 585.0575
  A 1.21 1.21 0.0 0 0 245.7022 583.8993
  L 245.1027 583.9244
  A 1.21 1.21 0.0 0 0 243.9445 585.1840
  L 244.0182 586.9425
  A 1.21 1.21 0.0 0 0 245.2778 588.1007
  L 245.8773 588.0756
  A 1.21 1.21 0.0 0 0 247.0355 586.8160
  L 246.9618 585.0575
  Z
  M 254.31 587.99
  A 1.26 1.26 0.0 0 0 255.45 587.25
  L 256.10 585.80
  A 1.26 1.26 0.0 0 0 254.98 584.02
  L 250.29 583.91
  A 1.26 1.26 0.0 0 0 249.00 585.17
  L 248.99 586.75
  A 1.26 1.26 0.0 0 0 250.26 588.01
  L 254.31 587.99
  Z
  M 509.2754 597.1449
  A 2.07 0.35 -6.8 0 0 507.1786 597.0425
  A 2.07 0.35 -6.8 0 0 505.1646 597.6351
  A 2.07 0.35 -6.8 0 0 507.2614 597.7375
  A 2.07 0.35 -6.8 0 0 509.2754 597.1449
  Z
  M 68.1174 603.2000
  A 1.29 1.29 0.0 0 0 66.8229 601.9145
  L 52.2030 601.9655
  A 1.29 1.29 0.0 0 0 50.9175 603.2600
  L 50.9226 604.7400
  A 1.29 1.29 0.0 0 0 52.2171 606.0255
  L 66.8370 605.9745
  A 1.29 1.29 0.0 0 0 68.1225 604.6800
  L 68.1174 603.2000
  Z
  M 70.63 602.16
  Q 70.31 602.17 70.39 602.48
  L 71.17 605.72
  A 0.34 0.34 0.0 0 0 71.50 605.98
  Q 79.27 606.11 85.65 605.88
  Q 88.14 605.79 88.22 602.99
  Q 88.23 602.47 87.72 602.38
  C 82.67 601.38 77.49 601.82 70.63 602.16
  Z
  M 128.1457 603.1426
  A 1.23 1.23 0.0 0 0 126.9093 601.9190
  L 111.2495 602.0010
  A 1.23 1.23 0.0 0 0 110.0260 603.2374
  L 110.0343 604.8174
  A 1.23 1.23 0.0 0 0 111.2707 606.0410
  L 126.9305 605.9590
  A 1.23 1.23 0.0 0 0 128.1540 604.7226
  L 128.1457 603.1426
  Z
  M 146.1356 603.1278
  A 1.21 1.21 0.0 0 0 144.9193 601.9241
  L 131.1995 601.9959
  A 1.21 1.21 0.0 0 0 129.9958 603.2123
  L 130.0044 604.8522
  A 1.21 1.21 0.0 0 0 131.2207 606.0559
  L 144.9405 605.9841
  A 1.21 1.21 0.0 0 0 146.1442 604.7677
  L 146.1356 603.1278
  Z
  M 26.73 606.45
  L 27.11 603.07
  Q 27.15 602.73 26.87 602.52
  Q 26.32 602.11 25.60 602.07
  Q 21.42 601.81 17.77 602.20
  Q 16.84 602.30 16.87 603.23
  L 16.93 605.00
  Q 16.96 606.00 17.97 606.02
  Q 21.27 606.08 24.46 606.00
  Q 25.49 605.97 26.33 606.61
  Q 26.68 606.88 26.73 606.45
  Z
  M 49.18 603.62
  A 1.61 1.61 0.0 0 0 47.57 602.01
  L 31.03 602.01
  A 1.61 1.61 0.0 0 0 29.42 603.62
  L 29.42 604.40
  A 1.61 1.61 0.0 0 0 31.03 606.01
  L 47.57 606.01
  A 1.61 1.61 0.0 0 0 49.18 604.40
  L 49.18 603.62
  Z
  M 107.0287 603.2651
  A 1.27 1.27 0.0 0 0 105.7565 601.9973
  L 91.2365 602.0227
  A 1.27 1.27 0.0 0 0 89.9687 603.2949
  L 89.9713 604.7549
  A 1.27 1.27 0.0 0 0 91.2435 606.0227
  L 105.7635 605.9973
  A 1.27 1.27 0.0 0 0 107.0313 604.7251
  L 107.0287 603.2651
  Z
  M 159.63 605.96
  A 0.81 0.81 0.0 0 0 160.36 605.50
  L 161.48 603.10
  A 0.81 0.81 0.0 0 0 160.74 601.95
  L 148.74 602.10
  A 0.81 0.81 0.0 0 0 147.94 602.91
  L 147.95 605.25
  A 0.81 0.81 0.0 0 0 148.77 606.06
  L 159.63 605.96
  Z
  M 209.37 612.07
  C 211.06 610.11 211.58 606.28 208.23 605.97
  C 199.61 605.16 205.70 616.30 209.37 612.07
  Z
  M 239.0804 612.6322
  A 3.48 3.14 104.3 0 0 242.9827 610.0356
  A 3.48 3.14 104.3 0 0 240.7996 605.8878
  A 3.48 3.14 104.3 0 0 236.8973 608.4844
  A 3.48 3.14 104.3 0 0 239.0804 612.6322
  Z
  M 26.9724 609.0338
  A 1.09 1.09 0.0 0 0 25.8767 607.9495
  L 18.0368 607.9906
  A 1.09 1.09 0.0 0 0 16.9525 609.0863
  L 16.9676 611.9662
  A 1.09 1.09 0.0 0 0 18.0633 613.0505
  L 25.9032 613.0094
  A 1.09 1.09 0.0 0 0 26.9875 611.9137
  L 26.9724 609.0338
  Z
  M 29.53 612.08
  Q 29.41 612.21 29.36 612.38
  Q 29.19 612.96 29.80 612.96
  L 47.80 612.88
  Q 49.14 612.87 49.08 611.53
  L 48.95 609.04
  Q 48.89 607.93 47.79 607.95
  Q 39.51 608.06 31.22 608.04
  C 29.34 608.03 28.70 609.70 29.62 611.28
  A 0.68 0.68 0.0 0 1 29.53 612.08
  Z
  M 67.9873 608.8951
  A 0.89 0.89 0.0 0 0 67.0957 608.0067
  L 51.7958 608.0334
  A 0.89 0.89 0.0 0 0 50.9073 608.9249
  L 50.9127 612.0049
  A 0.89 0.89 0.0 0 0 51.8043 612.8933
  L 67.1042 612.8666
  A 0.89 0.89 0.0 0 0 67.9927 611.9751
  L 67.9873 608.8951
  Z
  M 88.10 608.94
  A 0.91 0.91 0.0 0 0 87.19 608.03
  L 71.83 608.03
  A 0.91 0.91 0.0 0 0 70.92 608.94
  L 70.92 612.00
  A 0.91 0.91 0.0 0 0 71.83 612.91
  L 87.19 612.91
  A 0.91 0.91 0.0 0 0 88.10 612.00
  L 88.10 608.94
  Z
  M 106.9776 609.0751
  A 1.08 1.08 0.0 0 0 105.8957 607.9970
  L 91.0357 608.0230
  A 1.08 1.08 0.0 0 0 89.9576 609.1049
  L 89.9624 611.8649
  A 1.08 1.08 0.0 0 0 91.0443 612.9430
  L 105.9043 612.9170
  A 1.08 1.08 0.0 0 0 106.9824 611.8351
  L 106.9776 609.0751
  Z
  M 128.1075 608.9942
  A 0.99 0.99 0.0 0 0 127.1157 608.0060
  L 111.0158 608.0341
  A 0.99 0.99 0.0 0 0 110.0275 609.0258
  L 110.0325 611.9258
  A 0.99 0.99 0.0 0 0 111.0243 612.9140
  L 127.1242 612.8859
  A 0.99 0.99 0.0 0 0 128.1125 611.8942
  L 128.1075 608.9942
  Z
  M 146.0350 609.0320
  A 1.06 1.06 0.0 0 0 144.9713 607.9757
  L 131.0314 608.0243
  A 1.06 1.06 0.0 0 0 129.9751 609.0880
  L 129.9850 611.9280
  A 1.06 1.06 0.0 0 0 131.0487 612.9843
  L 144.9886 612.9357
  A 1.06 1.06 0.0 0 0 146.0449 611.8720
  L 146.0350 609.0320
  Z
  M 153.53 612.79
  A 0.65 0.65 0.0 0 0 153.94 612.61
  L 157.57 609.14
  A 0.65 0.65 0.0 0 0 157.12 608.02
  L 148.70 607.94
  A 0.65 0.65 0.0 0 0 148.05 608.57
  L 147.97 612.44
  A 0.65 0.65 0.0 0 0 148.67 613.10
  L 153.53 612.79
  Z"
/>
<path  d="
  M 1000.57 484.16
  Q 1000.10 484.46 999.56 484.59
  Q 998.84 484.76 999.31 484.18
  Q 1000.18 483.11 1001.56 483.21
  Q 1002.10 483.25 1001.72 483.64
  Q 1001.43 483.92 1001.04 483.99
  A 1.36 1.32 -64.2 0 0 1000.57 484.16
  Z"
/>
<path  d="
  M 977.67 674.75
  A 3.18 3.18 0.0 0 1 974.61 677.02
  Q 929.23 676.85 881.75 677.13
  Q 874.50 677.18 849.25 677.96
  C 832.43 678.49 813.43 677.73 795.27 678.06
  C 784.06 678.25 772.38 678.04 760.93 678.04
  Q 465.78 677.99 184.25 678.08
  Q 158.82 678.08 136.74 677.39
  Q 126.18 677.06 116.72 677.04
  Q 81.61 676.97 41.51 676.99
  A 2.74 2.72 -28.9 0 1 40.07 676.58
  Q 37.99 675.32 38.25 673.31
  Q 38.48 671.44 40.37 671.37
  Q 49.39 671.03 58.23 671.03
  Q 515.60 670.95 958.56 671.09
  Q 966.63 671.09 975.98 671.35
  Q 978.65 671.42 977.89 673.98
  L 977.67 674.75
  Z"
/>
<path  d="
  M 894.00 686.90
  Q 894.17 687.48 893.86 688.10
  Q 892.51 690.85 889.44 690.88
  Q 850.13 691.22 810.74 690.95
  Q 791.02 690.81 773.01 690.94
  Q 762.82 691.02 752.99 691.01
  Q 443.17 690.93 132.64 691.08
  Q 128.32 691.09 125.32 690.58
  Q 123.23 690.23 122.40 687.90
  Q 122.23 687.43 122.48 687.00
  Q 124.00 684.37 125.89 684.31
  Q 143.13 683.80 148.11 683.87
  Q 172.84 684.20 198.25 684.78
  Q 208.46 685.01 218.35 685.01
  Q 503.62 685.00 782.23 685.01
  C 796.20 685.02 810.18 683.98 824.11 684.33
  Q 834.27 684.59 842.54 684.40
  Q 867.80 683.81 890.59 684.31
  Q 893.24 684.37 894.00 686.90
  Z"
/>
<path  d="
  M 813.49 701.34
  Q 812.44 703.73 809.74 703.76
  Q 802.70 703.81 796.25 703.82
  Q 513.55 704.22 213.51 703.90
  C 210.98 703.90 205.09 704.68 204.29 701.44
  C 203.66 698.90 207.27 697.48 209.22 697.37
  C 220.41 696.72 231.50 696.92 242.68 696.91
  Q 514.55 696.84 778.24 697.07
  Q 788.05 697.08 805.00 697.71
  C 808.10 697.83 810.91 696.76 813.25 699.61
  A 1.65 1.65 0.0 0 1 813.49 701.34
  Z"
/>
<path  d="
  M 283.27 713.44
  Q 283.44 711.25 285.64 711.26
  Q 289.73 711.26 294.25 711.25
  Q 509.62 710.69 719.25 711.21
  Q 728.90 711.23 738.98 711.27
  Q 740.97 711.27 740.95 713.26
  L 740.94 713.77
  Q 740.92 715.64 739.06 715.78
  C 730.41 716.42 721.66 716.99 712.89 717.00
  Q 656.09 717.05 596.88 716.96
  Q 589.37 716.95 581.73 716.49
  C 567.14 715.62 552.64 715.98 537.93 716.01
  C 529.06 716.03 520.28 716.96 511.49 716.98
  Q 464.96 717.10 410.36 716.88
  Q 405.65 716.87 399.05 716.42
  C 397.16 716.29 395.42 716.72 393.58 716.60
  Q 384.55 715.98 376.41 716.42
  Q 353.91 717.63 331.98 716.52
  C 315.81 715.70 300.67 716.11 284.96 715.87
  Q 283.08 715.84 283.23 713.96
  L 283.27 713.44
  Z"
/>
</svg>
