<?xml version="1.0" encoding="UTF-8" standalone="no"?>
<!DOCTYPE svg PUBLIC "-//W3C//DTD SVG 1.1//EN" "http://www.w3.org/Graphics/SVG/1.1/DTD/svg11.dtd">
<svg xmlns="http://www.w3.org/2000/svg" version="1.1" viewBox="0.00 0.00 1400.00 1400.00">
<path  d="
  M 273.18 733.18
  Q 278.45 733.14 280.36 732.66
  Q 285.34 731.40 290.26 730.53
  Q 312.77 726.55 331.33 725.05
  Q 362.19 722.55 391.22 720.47
  Q 403.06 719.62 419.99 718.97
  Q 444.38 718.03 467.50 717.34
  Q 476.88 717.05 487.50 717.01
  Q 509.44 716.93 530.51 716.32
  Q 540.97 716.02 550.49 716.01
  Q 613.69 715.95 675.99 716.01
  C 682.34 716.02 688.77 716.08 695.31 716.61
  C 704.45 717.35 713.48 716.12 722.37 716.11
  Q 771.13 716.06 817.55 715.87
  Q 823.42 715.85 828.43 716.02
  C 838.71 716.38 849.90 715.73 859.26 716.28
  Q 860.55 716.36 861.89 716.83
  A 0.03 0.03 0.0 0 1 861.88 716.89
  L 852.76 717.35
  Q 852.15 717.38 852.50 717.87
  Q 852.59 718.00 852.75 718.07
  Q 853.01 718.19 852.83 718.41
  Q 852.52 718.80 851.99 718.73
  Q 851.52 718.67 851.06 718.68
  Q 847.98 718.78 845.27 718.35
  Q 844.50 718.23 844.74 718.97
  L 844.86 719.34
  A 0.92 0.92 0.0 0 0 845.73 719.97
  L 863.71 719.99
  A 0.83 0.82 87.3 0 1 864.53 720.74
  Q 865.16 727.26 864.90 733.67
  A 1.69 1.69 0.0 0 1 863.44 735.27
  Q 858.74 735.93 851.92 735.57
  Q 848.86 735.41 846.22 734.47
  Q 845.81 734.32 845.38 734.37
  Q 838.47 735.20 830.89 734.61
  A 1.23 1.23 0.0 0 1 829.76 733.36
  Q 829.85 727.37 829.87 720.62
  Q 829.87 719.45 830.80 718.68
  Q 830.99 718.52 830.81 718.35
  L 830.60 718.15
  Q 830.56 718.10 830.50 718.13
  Q 829.26 718.81 829.01 720.08
  A 1.02 1.02 0.0 0 1 827.73 720.87
  Q 826.82 720.61 825.95 720.86
  Q 825.28 721.06 825.24 721.77
  Q 824.86 728.22 825.29 733.45
  A 1.13 1.13 0.0 0 1 824.23 734.67
  Q 817.55 735.06 810.66 734.42
  A 0.70 0.69 1.4 0 1 810.02 733.75
  L 809.74 721.76
  Q 809.73 721.05 809.01 721.00
  L 806.25 720.84
  Q 805.38 720.79 805.30 721.67
  Q 804.80 727.47 805.19 733.30
  Q 805.29 734.85 803.74 734.84
  L 792.20 734.77
  A 1.32 1.31 90.0 0 1 790.89 733.45
  L 790.87 720.92
  A 1.06 1.06 0.0 0 1 791.94 719.86
  L 808.35 719.99
  Q 808.63 719.99 808.88 719.85
  L 809.14 719.71
  Q 809.31 719.62 809.49 719.64
  Q 816.59 720.54 823.72 719.56
  A 0.45 0.44 -10.7 0 0 824.09 719.02
  L 824.02 718.75
  A 0.39 0.38 -17.4 0 0 823.50 718.48
  Q 822.52 718.87 821.51 718.63
  Q 817.83 717.76 814.56 717.25
  A 2.16 2.13 40.5 0 0 813.58 717.32
  Q 812.65 717.61 811.53 717.62
  Q 807.69 717.68 803.26 718.44
  Q 798.51 719.25 793.01 718.68
  Q 791.46 718.52 789.87 719.51
  Q 789.50 719.73 789.18 719.45
  Q 789.00 719.30 788.76 719.27
  Q 788.30 719.21 787.97 719.54
  Q 786.33 721.18 786.30 723.32
  Q 786.24 728.74 786.25 734.19
  A 0.75 0.75 0.0 0 1 785.50 734.95
  L 771.60 734.94
  Q 770.76 734.94 770.76 734.10
  L 770.86 721.56
  Q 770.86 721.17 770.47 721.13
  L 770.13 721.10
  Q 770.06 721.09 770.05 721.16
  Q 769.70 723.30 768.48 724.86
  Q 768.03 725.43 768.02 724.70
  L 767.97 722.23
  Q 767.93 719.78 766.96 722.03
  C 766.49 723.11 766.23 723.84 766.24 725.05
  Q 766.26 729.83 765.42 734.25
  A 0.95 0.94 -83.9 0 1 764.47 735.02
  L 751.05 734.69
  A 1.14 1.14 0.0 0 1 749.93 733.57
  L 749.71 721.25
  Q 749.69 719.95 750.99 719.92
  L 764.56 719.65
  Q 764.69 719.65 764.69 719.52
  L 764.69 719.27
  Q 764.69 719.04 764.46 719.03
  Q 761.24 718.75 758.18 718.77
  C 754.06 718.80 749.92 717.60 745.70 718.07
  Q 745.43 718.10 745.20 718.23
  Q 744.74 718.51 744.22 718.42
  Q 739.68 717.67 735.66 718.43
  Q 734.43 718.66 733.10 718.66
  Q 731.61 718.67 730.11 719.27
  Q 729.89 719.35 730.11 719.61
  Q 730.24 719.75 730.43 719.76
  L 744.22 720.04
  A 0.82 0.82 0.0 0 1 745.03 720.85
  L 745.19 733.46
  Q 745.21 734.70 743.98 734.71
  Q 736.88 734.75 730.49 734.46
  Q 729.42 734.41 728.55 733.69
  Q 728.14 733.36 727.62 733.37
  L 702.91 733.80
  Q 701.93 733.81 701.90 732.84
  Q 701.76 728.04 701.96 722.43
  Q 702.02 720.87 703.58 720.86
  L 713.20 720.78
  A 0.83 0.81 23.9 0 0 713.74 720.58
  L 714.66 719.82
  Q 715.26 719.32 714.48 719.30
  C 710.99 719.24 707.61 719.49 704.24 718.54
  C 701.75 717.83 698.49 717.32 696.15 718.58
  Q 695.70 718.82 695.24 718.59
  Q 695.12 718.53 695.00 718.48
  Q 694.69 718.36 694.36 718.40
  L 687.10 719.42
  A 0.27 0.27 0.0 0 0 686.86 719.72
  L 686.90 720.02
  Q 686.99 720.70 687.68 720.75
  Q 692.12 721.06 695.93 719.84
  A 0.59 0.59 0.0 0 1 696.70 720.33
  Q 697.50 726.50 696.95 733.52
  A 1.04 1.04 0.0 0 1 695.86 734.48
  L 684.56 733.88
  A 0.84 0.83 -88.9 0 1 683.77 733.05
  L 683.76 724.47
  A 2.44 2.43 1.2 0 0 681.44 722.05
  Q 680.06 721.99 678.87 721.46
  Q 678.33 721.22 678.27 721.82
  Q 677.74 727.59 678.30 732.89
  A 0.81 0.81 0.0 0 1 677.52 733.78
  L 638.60 734.79
  A 1.50 1.50 0.0 0 1 637.06 733.34
  L 636.70 721.40
  Q 636.69 721.18 636.46 721.18
  L 636.16 721.19
  Q 636.10 721.19 636.10 721.26
  Q 636.07 723.29 635.72 724.47
  Q 635.45 725.34 634.56 725.18
  Q 633.15 724.91 632.90 723.54
  Q 632.77 722.88 632.42 723.44
  Q 632.19 723.80 632.16 724.25
  Q 631.86 729.85 632.20 733.62
  Q 632.25 734.23 631.65 734.32
  Q 626.28 735.19 620.99 734.55
  A 1.24 1.24 0.0 0 1 619.90 733.32
  L 619.93 724.13
  A 1.26 1.25 88.9 0 0 618.63 722.87
  L 616.30 722.95
  Q 615.24 722.98 615.17 724.05
  Q 614.83 729.04 615.32 733.51
  Q 615.38 734.09 614.81 734.08
  L 604.21 734.03
  Q 603.65 734.02 603.69 733.46
  Q 603.96 729.91 603.91 725.96
  Q 603.91 725.62 603.87 725.27
  Q 603.75 724.06 603.35 724.34
  Q 602.75 724.75 602.06 724.50
  Q 601.25 724.21 601.02 723.42
  A 0.42 0.42 0.0 0 0 600.66 723.12
  Q 600.28 723.09 600.16 723.33
  Q 599.95 723.73 600.35 723.94
  Q 600.47 724.00 600.60 724.01
  Q 601.01 724.05 600.87 724.43
  Q 600.71 724.85 600.31 724.72
  A 1.82 1.82 0.0 0 1 599.03 723.01
  Q 599.02 722.66 598.71 722.47
  Q 598.21 722.16 598.28 722.75
  Q 598.37 723.50 598.70 724.17
  A 1.78 1.74 39.1 0 1 598.84 725.37
  Q 597.94 729.25 598.06 732.97
  Q 598.12 734.58 596.50 734.71
  Q 592.75 735.00 589.19 734.67
  Q 587.85 734.54 587.90 733.19
  C 587.97 730.94 588.45 726.50 587.58 724.44
  Q 587.30 723.77 587.06 724.46
  L 586.64 725.67
  Q 586.06 727.34 584.57 726.38
  L 582.92 725.32
  A 0.55 0.55 0.0 0 0 582.08 725.77
  L 581.88 733.35
  A 1.50 1.50 0.0 0 1 580.41 734.81
  L 574.23 734.91
  Q 572.84 734.94 572.78 733.55
  Q 572.64 730.05 571.79 725.82
  A 1.26 1.25 3.7 0 0 570.95 724.87
  Q 568.95 724.21 566.64 725.16
  Q 566.01 725.41 566.00 726.09
  L 565.97 733.37
  A 1.31 1.31 0.0 0 1 564.82 734.66
  Q 559.77 735.26 555.60 734.20
  C 554.52 733.93 553.32 733.93 552.23 734.11
  A 0.35 0.35 0.0 0 1 551.82 733.76
  L 551.83 733.47
  Q 551.83 733.37 551.93 733.36
  L 555.81 732.98
  A 1.11 1.11 0.0 0 0 556.79 731.69
  C 556.32 728.98 556.27 723.83 551.78 725.06
  Q 551.20 725.22 551.00 725.79
  Q 549.62 729.80 550.15 733.69
  Q 550.24 734.33 549.60 734.28
  C 547.77 734.16 546.27 734.73 544.33 734.64
  Q 536.54 734.27 528.66 734.46
  Q 527.00 734.50 525.56 735.14
  C 524.13 735.77 522.70 736.49 521.10 736.54
  Q 516.38 736.69 512.05 736.45
  Q 509.11 736.29 506.22 734.71
  Q 505.83 734.49 505.61 734.88
  Q 505.41 735.24 505.00 735.23
  C 453.04 734.35 398.95 736.77 347.08 740.38
  C 335.89 741.16 324.54 741.34 313.26 742.17
  Q 304.74 742.80 296.23 743.17
  C 285.96 743.62 275.63 744.68 265.47 745.14
  Q 257.45 745.50 250.64 746.31
  Q 245.31 746.94 239.58 747.44
  C 234.17 747.91 228.93 748.95 223.55 749.43
  Q 217.42 749.97 211.76 750.84
  Q 209.50 751.18 207.34 751.75
  Q 204.98 752.37 202.51 752.18
  A 0.07 0.06 0.0 0 0 202.44 752.24
  L 202.43 752.50
  Q 202.42 752.71 202.62 752.72
  Q 204.98 752.89 207.26 752.56
  Q 209.46 752.25 211.81 752.04
  Q 225.43 750.86 237.48 749.63
  Q 239.49 749.42 241.51 749.29
  Q 260.22 748.04 279.04 746.73
  Q 283.24 746.44 287.95 746.26
  Q 292.51 746.08 296.86 745.73
  C 303.18 745.22 309.45 745.08 315.73 744.64
  Q 319.49 744.37 323.27 744.36
  Q 333.26 744.30 351.72 743.56
  Q 369.80 742.84 403.00 742.78
  C 406.73 742.77 410.76 742.29 414.58 742.24
  Q 456.47 741.63 489.61 741.98
  Q 514.59 742.24 533.51 741.45
  Q 543.05 741.06 553.50 741.04
  Q 654.37 740.88 745.25 741.15
  Q 755.40 741.18 765.25 741.14
  Q 824.78 740.88 879.59 741.07
  C 890.60 741.10 901.27 741.90 912.30 741.93
  Q 955.12 742.03 1005.60 741.86
  C 1024.10 741.80 1042.44 743.17 1060.99 743.07
  A 0.95 0.95 0.0 0 1 1061.94 744.12
  C 1060.81 755.49 1062.15 767.74 1062.20 778.41
  Q 1062.21 778.91 1061.71 778.92
  L 1046.51 779.27
  Q 1046.32 779.28 1046.33 779.46
  L 1046.33 779.78
  Q 1046.34 779.84 1046.40 779.84
  Q 1053.95 779.57 1061.89 780.00
  A 0.80 0.80 0.0 0 1 1062.64 780.74
  L 1063.46 790.94
  A 0.46 0.46 0.0 0 0 1064.07 791.34
  L 1064.35 791.25
  Q 1064.56 791.18 1064.58 790.96
  L 1065.28 780.76
  A 1.18 1.18 0.0 0 1 1066.52 779.66
  C 1077.56 780.25 1088.56 780.19 1099.80 780.66
  C 1121.07 781.56 1142.29 780.06 1163.49 780.03
  Q 1204.28 779.96 1250.04 780.10
  A 1.03 1.03 0.0 0 1 1251.07 781.10
  Q 1251.38 792.95 1246.99 804.75
  Q 1246.25 806.73 1244.84 808.59
  C 1243.49 810.37 1242.74 812.43 1241.56 814.34
  Q 1238.74 818.92 1235.59 823.67
  Q 1231.48 829.85 1225.14 834.90
  Q 1208.21 848.39 1185.20 854.56
  Q 1174.69 857.39 1166.60 858.62
  Q 1150.38 861.09 1135.75 862.25
  Q 1071.20 867.38 1005.00 869.27
  Q 1001.54 869.37 996.73 870.21
  Q 996.05 870.33 996.49 870.86
  Q 998.22 872.97 999.33 875.78
  Q 999.55 876.35 1000.14 876.51
  Q 1001.67 876.92 1003.29 876.92
  Q 1034.23 876.99 1063.23 876.85
  C 1081.47 876.76 1099.58 878.01 1117.82 877.98
  Q 1143.10 877.94 1168.66 877.95
  C 1181.38 877.96 1195.05 878.96 1208.00 878.99
  C 1219.00 879.01 1230.48 878.88 1241.93 879.44
  Q 1250.44 879.86 1259.38 880.12
  C 1263.91 880.26 1268.27 881.03 1272.91 881.27
  Q 1273.07 881.28 1273.08 881.45
  L 1273.08 881.74
  A 0.06 0.05 -85.9 0 1 1273.02 881.80
  C 1271.57 881.75 1270.02 882.13 1268.62 882.06
  C 1261.36 881.71 1253.57 882.73 1247.43 882.78
  Q 1232.53 882.90 1218.24 883.52
  C 1196.12 884.47 1174.02 883.55 1151.90 884.49
  Q 1139.74 885.01 1133.50 885.01
  Q 716.50 885.00 299.50 885.00
  C 287.78 885.00 276.18 884.03 264.48 884.05
  Q 235.93 884.09 205.72 883.92
  C 198.80 883.87 191.72 883.36 184.78 883.16
  Q 171.90 882.79 158.96 883.04
  C 153.86 883.13 148.85 882.31 144.00 882.23
  Q 136.71 882.12 129.11 881.72
  Q 128.89 881.71 128.89 881.49
  L 128.88 881.21
  Q 128.87 881.12 128.96 881.11
  C 133.18 880.66 137.45 880.02 141.62 880.01
  Q 156.50 879.99 172.16 880.00
  C 174.91 880.01 177.44 879.27 180.03 879.21
  C 200.49 878.69 221.03 879.59 241.43 878.64
  C 247.78 878.34 254.18 878.03 260.48 878.02
  Q 337.10 877.99 405.25 877.83
  Q 410.64 877.82 416.92 877.79
  Q 421.78 877.77 428.57 877.39
  Q 439.71 876.77 449.62 876.84
  Q 479.99 877.05 510.42 877.08
  Q 514.58 877.09 519.78 876.73
  A 3.38 3.36 -76.1 0 0 522.42 875.12
  L 524.86 871.11
  A 0.58 0.58 0.0 0 0 524.58 870.27
  Q 522.18 869.30 520.24 869.25
  Q 472.49 868.02 437.89 865.51
  Q 409.83 863.48 374.27 858.93
  Q 330.69 853.35 285.48 841.98
  Q 265.77 837.02 245.88 830.10
  A 1.96 1.96 0.0 0 0 243.49 831.07
  Q 237.53 842.88 230.54 855.60
  Q 226.50 862.97 219.61 866.29
  Q 216.41 867.84 211.10 867.90
  C 194.68 868.10 178.21 868.08 161.28 867.97
  A 0.28 0.28 0.0 0 1 161.01 867.69
  Q 161.01 854.63 160.96 841.00
  Q 160.95 839.44 160.78 837.66
  A 0.72 0.71 -88.5 0 0 160.17 837.01
  L 157.85 836.68
  Q 157.34 836.61 156.88 836.37
  L 152.84 834.29
  A 1.77 1.77 0.0 0 1 151.89 832.74
  Q 151.88 831.22 153.00 831.17
  Q 156.88 830.98 160.08 830.93
  A 0.98 0.98 0.0 0 0 161.04 829.95
  L 161.04 806.55
  Q 161.04 805.10 159.65 804.71
  Q 154.31 803.22 149.47 800.07
  Q 147.64 798.88 148.11 796.29
  Q 149.47 788.93 148.88 781.63
  A 0.88 0.87 -87.9 0 0 148.15 780.84
  L 141.96 779.83
  Q 140.95 779.67 140.94 778.65
  L 140.93 777.27
  A 1.09 1.09 0.0 0 1 141.98 776.17
  L 149.17 775.87
  Q 150.32 775.82 150.21 774.67
  Q 150.20 774.47 150.17 774.27
  Q 150.04 773.21 148.98 773.16
  L 142.76 772.85
  Q 141.19 772.77 141.09 771.20
  L 140.99 769.72
  Q 140.88 768.07 142.53 768.05
  L 148.99 768.01
  A 1.01 1.01 0.0 0 0 149.99 766.94
  C 149.86 764.89 149.12 762.98 149.10 760.90
  Q 149.00 753.87 148.13 746.96
  A 1.76 1.74 -12.7 0 1 149.33 745.08
  L 159.67 741.68
  A 1.95 1.95 0.0 0 0 161.01 739.83
  L 161.05 712.42
  Q 161.05 711.04 159.68 710.92
  L 156.50 710.64
  A 7.38 3.87 -11.1 0 1 153.32 709.69
  Q 152.66 709.27 152.18 708.66
  Q 151.14 707.34 152.81 707.19
  Q 155.91 706.91 159.51 707.17
  A 1.39 1.39 0.0 0 0 161.00 705.78
  L 161.00 674.24
  Q 161.00 673.03 162.21 673.02
  Q 186.22 672.95 211.41 673.03
  C 221.86 673.07 226.57 678.90 230.94 687.74
  Q 237.47 700.94 243.77 713.48
  C 245.15 716.21 246.84 718.61 248.20 721.33
  A 0.70 0.70 0.0 0 0 248.95 721.72
  Q 251.76 721.27 254.45 720.59
  Q 270.34 716.54 281.24 714.70
  Q 298.29 711.82 314.61 709.28
  Q 324.21 707.79 334.44 706.74
  Q 355.99 704.52 377.55 702.40
  Q 388.03 701.37 397.49 700.74
  Q 423.45 699.03 443.69 698.43
  Q 460.73 697.93 478.02 697.38
  C 492.09 696.94 505.39 696.98 519.05 697.02
  Q 523.65 697.04 527.85 696.48
  Q 528.50 696.39 528.62 697.04
  L 529.20 700.18
  A 0.83 0.83 0.0 0 0 529.87 700.84
  L 531.76 701.17
  Q 532.39 701.28 532.55 700.66
  Q 532.94 699.25 533.18 697.74
  Q 533.42 696.21 534.90 696.19
  Q 559.11 695.86 582.84 696.06
  C 589.44 696.12 595.66 695.96 601.55 691.82
  C 606.92 688.06 608.62 683.86 609.06 677.03
  Q 609.70 667.12 609.97 657.82
  Q 610.82 628.78 612.09 601.74
  C 612.46 593.94 618.29 588.58 625.57 586.73
  A 1.88 1.87 83.3 0 0 626.99 584.92
  L 627.09 555.25
  Q 627.10 554.13 628.17 553.82
  Q 632.43 552.56 637.26 553.74
  Q 639.20 554.21 638.85 552.24
  L 638.79 551.87
  Q 638.43 549.89 636.46 549.45
  Q 631.24 548.29 628.43 550.62
  A 0.42 0.41 71.3 0 1 627.75 550.28
  Q 628.02 542.02 628.01 533.89
  Q 627.98 487.77 628.02 442.38
  Q 628.02 437.67 632.35 439.52
  Q 632.76 439.69 633.17 439.84
  Q 637.94 441.55 637.96 446.62
  Q 638.04 474.86 637.98 500.00
  C 637.95 515.96 638.86 532.32 639.31 548.15
  Q 639.36 549.89 639.61 551.60
  C 639.93 553.71 639.21 555.69 639.22 557.80
  Q 639.28 570.68 639.21 583.71
  Q 639.20 584.97 640.46 584.95
  L 642.70 584.91
  Q 643.83 584.89 643.83 583.76
  Q 644.03 558.45 644.01 533.50
  Q 644.01 531.13 644.68 529.21
  A 0.94 0.91 36.7 0 0 644.54 528.35
  C 643.67 527.19 644.43 526.14 644.36 524.85
  Q 644.03 518.54 644.13 513.05
  Q 644.18 509.92 647.13 510.99
  Q 648.84 511.62 650.52 512.23
  A 4.91 4.91 0.0 0 1 653.73 516.42
  Q 654.07 520.57 654.07 522.75
  Q 654.02 555.69 654.10 583.70
  Q 654.11 584.93 655.34 584.94
  Q 657.69 584.96 657.69 584.96
  Q 658.92 584.97 658.91 583.75
  Q 658.75 560.11 659.08 537.00
  C 659.32 520.46 658.90 503.65 659.06 486.92
  Q 659.07 485.96 660.03 485.97
  L 660.99 485.99
  A 1.01 1.00 0.3 0 1 661.99 486.99
  L 662.04 583.74
  Q 662.04 584.95 663.24 584.95
  L 666.71 584.95
  Q 667.92 584.95 667.92 583.74
  Q 667.95 563.89 668.06 545.25
  Q 668.07 543.43 668.27 541.47
  A 1.44 1.43 -2.5 0 1 669.43 540.21
  C 674.22 539.33 679.15 540.94 679.73 546.50
  Q 680.10 550.01 680.07 553.51
  Q 679.89 569.62 680.15 584.07
  Q 680.17 584.90 680.99 584.89
  L 683.82 584.87
  Q 684.75 584.87 684.77 583.94
  L 685.13 571.03
  A 1.07 1.07 0.0 0 1 686.21 569.99
  L 693.77 570.05
  A 1.24 1.24 0.0 0 0 695.01 568.94
  C 695.44 564.98 687.74 566.21 685.70 566.81
  A 0.27 0.26 85.1 0 1 685.36 566.52
  Q 686.14 560.61 686.10 555.18
  Q 685.93 529.92 686.02 502.87
  A 0.81 0.80 7.6 0 1 687.03 502.10
  C 692.92 503.60 694.00 505.90 693.91 512.25
  Q 693.57 535.01 695.22 561.64
  C 695.37 564.17 696.69 566.02 696.77 568.43
  Q 697.02 576.35 697.04 583.78
  A 1.05 1.05 0.0 0 0 697.93 584.82
  Q 701.44 585.34 705.16 584.71
  Q 705.76 584.61 705.81 584.00
  Q 706.42 576.20 705.88 566.31
  Q 705.70 562.91 704.60 560.54
  Q 704.41 560.14 704.51 559.72
  Q 705.64 554.63 705.68 550.63
  Q 705.81 536.69 706.19 521.85
  Q 706.23 520.27 707.81 520.13
  Q 707.94 520.11 708.08 520.13
  A 1.99 1.98 -87.5 0 1 709.89 522.11
  Q 709.94 538.00 710.24 552.46
  C 710.28 554.36 710.76 556.33 711.35 558.12
  C 712.15 560.57 710.39 562.32 710.28 564.69
  Q 709.85 574.13 709.97 584.11
  A 0.71 0.70 0.4 0 0 710.66 584.80
  C 712.12 584.85 713.50 585.15 714.97 585.11
  Q 729.47 584.75 748.28 585.87
  Q 758.80 586.50 763.91 594.05
  C 766.28 597.55 766.54 602.43 766.69 606.50
  Q 767.97 641.48 769.35 677.43
  C 769.45 680.28 770.50 682.96 771.64 685.57
  C 774.90 693.02 783.56 696.08 791.19 696.06
  Q 872.48 695.87 946.63 696.11
  Q 956.01 696.14 971.25 697.09
  Q 971.96 697.14 972.01 697.84
  L 972.16 699.93
  Q 972.23 700.90 973.19 700.95
  L 974.76 701.03
  A 0.91 0.90 -85.0 0 0 975.71 700.23
  Q 975.88 698.72 976.69 697.62
  Q 976.98 697.23 977.47 697.22
  C 1001.33 696.62 1025.83 697.88 1049.63 698.30
  C 1053.11 698.36 1056.54 698.80 1059.99 698.93
  A 1.02 1.02 0.0 0 1 1060.97 699.94
  L 1061.08 708.51
  A 0.59 0.59 0.0 0 1 1060.48 709.11
  C 1044.98 708.81 1030.09 708.29 1016.49 707.98
  Q 1006.84 707.76 996.51 707.33
  C 983.66 706.80 970.88 707.24 957.83 707.19
  Q 939.92 707.12 923.50 707.10
  Q 724.26 706.91 526.25 707.03
  Q 493.39 707.06 434.77 709.36
  Q 418.88 709.98 394.58 711.73
  Q 369.66 713.52 338.50 718.25
  Q 311.18 722.40 285.46 729.31
  Q 277.52 731.44 272.97 732.35
  Q 272.91 732.36 272.91 732.42
  L 272.91 732.92
  Q 272.91 733.19 273.18 733.18
  Z
  M 653.5490 528.3936
  A 0.27 0.27 0.0 0 0 653.2748 528.1278
  L 645.3558 528.2522
  A 0.27 0.27 0.0 0 0 645.0901 528.5264
  L 645.0910 528.5864
  A 0.27 0.27 0.0 0 0 645.3652 528.8522
  L 653.2842 528.7278
  A 0.27 0.27 0.0 0 0 653.5499 528.4536
  L 653.5490 528.3936
  Z
  M 622.79 597.91
  C 628.36 598.32 633.39 597.84 639.25 597.81
  Q 656.80 597.72 670.00 597.93
  Q 682.92 598.14 693.75 597.95
  C 708.18 597.69 723.43 598.07 738.33 597.85
  C 744.95 597.75 752.11 598.41 758.94 597.80
  Q 761.28 597.60 759.41 596.18
  Q 755.59 593.27 749.71 592.57
  Q 744.34 591.94 738.50 591.96
  C 703.31 592.09 668.11 591.55 631.26 593.38
  C 627.33 593.58 624.89 594.54 622.19 597.18
  A 0.35 0.34 -49.4 0 0 622.23 597.71
  Q 622.48 597.89 622.79 597.91
  Z
  M 713.59 611.24
  C 714.81 612.67 716.85 613.58 718.46 612.10
  A 1.88 1.88 0.0 0 0 719.05 610.45
  C 718.55 606.98 715.13 607.74 713.54 609.85
  Q 713.01 610.56 713.59 611.24
  Z
  M 750.5500 610.6565
  A 2.58 2.33 -0.3 0 0 747.9578 608.3400
  A 2.58 2.33 -0.3 0 0 745.3900 610.6835
  A 2.58 2.33 -0.3 0 0 747.9822 613.0000
  A 2.58 2.33 -0.3 0 0 750.5500 610.6565
  Z
  M 728.9054 609.9074
  A 2.47 2.12 -19.7 0 0 725.8654 608.7441
  A 2.47 2.12 -19.7 0 0 724.2546 611.5726
  A 2.47 2.12 -19.7 0 0 727.2946 612.7359
  A 2.47 2.12 -19.7 0 0 728.9054 609.9074
  Z
  M 687.85 609.23
  A 0.57 0.57 0.0 0 0 687.51 609.35
  L 685.41 610.95
  A 0.57 0.57 0.0 0 0 685.78 611.97
  L 696.46 611.56
  A 0.57 0.57 0.0 0 0 696.87 610.62
  L 695.84 609.42
  A 0.57 0.57 0.0 0 0 695.41 609.22
  L 687.85 609.23
  Z
  M 764.34 644.91
  Q 753.50 644.80 739.78 644.37
  Q 715.81 643.62 678.82 644.20
  Q 670.74 644.33 662.22 644.71
  Q 653.73 645.09 645.57 645.32
  Q 645.35 645.32 645.35 645.55
  L 645.35 645.56
  Q 645.35 645.81 645.60 645.81
  C 650.73 645.78 655.72 645.66 660.82 646.03
  Q 664.92 646.34 669.13 646.33
  C 673.85 646.32 678.58 646.77 683.44 646.85
  Q 715.19 647.36 736.06 646.59
  C 737.91 646.52 739.81 646.16 741.62 646.19
  Q 753.15 646.42 764.07 645.66
  Q 764.45 645.63 764.44 645.25
  L 764.43 644.99
  Q 764.42 644.91 764.34 644.91
  Z
  M 630.80 660.33
  Q 630.79 660.59 630.84 660.85
  Q 631.02 661.90 632.09 661.90
  L 650.99 661.83
  Q 652.62 661.83 652.05 660.30
  L 651.83 659.71
  A 2.33 2.32 -12.0 0 0 649.49 658.20
  L 631.71 659.37
  A 0.98 0.98 0.0 0 0 630.80 660.33
  Z
  M 679.92 683.98
  A 0.95 0.95 0.0 0 0 678.97 683.03
  A 0.95 0.95 0.0 0 0 678.02 683.98
  A 0.95 0.95 0.0 0 0 678.97 684.93
  A 0.95 0.95 0.0 0 0 679.92 683.98
  Z
  M 684.89 683.94
  A 0.91 0.91 0.0 0 0 683.98 683.03
  A 0.91 0.91 0.0 0 0 683.07 683.94
  A 0.91 0.91 0.0 0 0 683.98 684.85
  A 0.91 0.91 0.0 0 0 684.89 683.94
  Z
  M 676.0685 684.0572
  A 1.54 0.86 2.5 0 0 674.5675 683.1308
  A 1.54 0.86 2.5 0 0 672.9915 683.9228
  A 1.54 0.86 2.5 0 0 674.4925 684.8492
  A 1.54 0.86 2.5 0 0 676.0685 684.0572
  Z
  M 689.85 683.97
  A 0.91 0.91 0.0 0 0 688.94 683.06
  A 0.91 0.91 0.0 0 0 688.03 683.97
  A 0.91 0.91 0.0 0 0 688.94 684.88
  A 0.91 0.91 0.0 0 0 689.85 683.97
  Z
  M 164.11 710.25
  C 164.92 710.34 165.66 710.76 166.65 710.79
  Q 179.24 711.22 191.50 710.67
  C 194.91 710.51 197.27 708.68 200.42 707.93
  Q 201.42 707.69 200.44 707.40
  C 198.54 706.83 196.88 707.78 195.05 707.92
  Q 183.80 708.77 171.11 709.19
  Q 165.15 709.38 159.74 708.92
  Q 158.52 708.82 157.38 709.26
  Q 157.25 709.31 157.17 709.41
  Q 157.04 709.56 157.26 709.74
  Q 157.48 709.92 157.76 709.92
  Q 161.13 709.93 164.11 710.25
  Z
  M 837.68 717.21
  L 833.70 717.19
  A 0.39 0.37 15.0 0 0 833.37 717.37
  Q 833.16 717.70 833.40 717.85
  Q 833.53 717.93 833.69 717.93
  Q 835.46 717.90 837.56 717.80
  Q 837.77 717.79 837.78 717.58
  L 837.79 717.33
  Q 837.79 717.21 837.68 717.21
  Z
  M 840.99 718.51
  Q 840.80 718.74 840.51 718.76
  Q 836.36 719.15 832.36 718.89
  Q 831.88 718.86 832.10 719.29
  L 832.27 719.61
  Q 832.34 719.75 832.49 719.76
  Q 838.17 720.06 843.28 719.83
  Q 843.78 719.81 844.12 719.43
  Q 844.25 719.29 844.26 719.10
  Q 844.28 718.62 843.83 718.45
  L 840.75 717.24
  A 0.30 0.30 0.0 0 0 840.34 717.52
  Q 840.35 717.92 840.75 717.95
  A 0.34 0.34 0.0 0 1 840.99 718.51
  Z
  M 828.2196 718.9675
  A 1.24 0.83 -1.5 0 0 826.9583 718.1703
  A 1.24 0.83 -1.5 0 0 825.7404 719.0325
  A 1.24 0.83 -1.5 0 0 827.0017 719.8297
  A 1.24 0.83 -1.5 0 0 828.2196 718.9675
  Z
  M 787.0285 719.1847
  A 8.09 0.62 -1.1 0 0 778.9281 718.7201
  A 8.09 0.62 -1.1 0 0 770.8515 719.4953
  A 8.09 0.62 -1.1 0 0 778.9519 719.9599
  A 8.09 0.62 -1.1 0 0 787.0285 719.1847
  Z
  M 845.76 726.01
  L 846.09 732.59
  Q 846.10 732.69 846.20 732.68
  L 846.51 732.68
  Q 846.72 732.67 846.72 732.46
  L 846.88 722.83
  Q 846.91 721.01 845.18 720.45
  Q 844.91 720.36 844.63 720.39
  Q 843.31 720.50 843.16 721.82
  Q 842.87 724.40 843.15 727.10
  Q 843.34 728.90 844.04 727.23
  L 844.74 725.55
  Q 844.81 725.38 844.84 725.38
  L 845.18 725.41
  Q 845.73 725.45 845.76 726.01
  Z
  M 664.6815 732.3012
  A 0.25 0.25 0.0 0 1 664.4302 732.5499
  L 664.4302 732.5499
  A 0.25 0.25 0.0 0 1 664.1815 732.2986
  L 664.2385 721.4188
  A 0.25 0.25 0.0 0 1 664.4898 721.1701
  L 664.4898 721.1701
  A 0.25 0.25 0.0 0 1 664.7385 721.4214
  L 664.6815 732.3012
  Z
  M 551.14 723.41
  Q 551.48 723.02 551.54 722.51
  Q 551.61 721.91 551.15 722.30
  Q 550.20 723.09 550.17 724.26
  Q 550.15 724.85 550.71 724.64
  Q 551.18 724.46 551.03 724.10
  Q 550.87 723.71 551.14 723.41
  Z
  M 562.21 722.20
  C 561.28 722.23 560.47 721.95 559.54 722.03
  Q 559.32 722.05 559.21 722.22
  Q 559.11 722.36 559.29 722.56
  Q 559.47 722.76 559.73 722.77
  Q 561.57 722.81 563.20 722.67
  Q 564.13 722.59 563.24 722.32
  Q 562.75 722.18 562.21 722.20
  Z
  M 575.01 722.77
  Q 575.69 722.91 576.37 722.81
  Q 577.03 722.71 576.44 722.40
  Q 575.75 722.04 575.02 722.17
  Q 573.44 722.45 575.01 722.77
  Z
  M 843.5668 732.7465
  A 1.97 0.45 86.6 0 0 843.8992 730.7533
  A 1.97 0.45 86.6 0 0 843.3332 728.8135
  A 1.97 0.45 86.6 0 0 843.0008 730.8067
  A 1.97 0.45 86.6 0 0 843.5668 732.7465
  Z
  M 268.68 733.24
  Q 267.69 733.49 268.70 733.67
  Q 269.81 733.87 270.83 733.45
  Q 271.49 733.18 270.78 733.10
  Q 269.70 732.98 268.68 733.24
  Z
  M 294.5199 733.3812
  A 0.26 0.26 0.0 0 0 294.2594 733.1216
  L 284.6794 733.1384
  A 0.26 0.26 0.0 0 0 284.4199 733.3988
  L 284.4201 733.5388
  A 0.26 0.26 0.0 0 0 284.6806 733.7984
  L 294.2606 733.7816
  A 0.26 0.26 0.0 0 0 294.5201 733.5212
  L 294.5199 733.3812
  Z
  M 598.29 750.78
  Q 599.21 750.88 600.35 750.69
  Q 601.12 750.57 600.37 750.37
  Q 599.27 750.09 598.28 750.22
  Q 596.02 750.52 598.29 750.78
  Z
  M 916.3100 750.4913
  A 0.26 0.26 0.0 0 0 916.0505 750.2308
  L 903.6705 750.2092
  A 0.26 0.26 0.0 0 0 903.4100 750.4687
  L 903.4100 750.4887
  A 0.26 0.26 0.0 0 0 903.6695 750.7492
  L 916.0495 750.7708
  A 0.26 0.26 0.0 0 0 916.3100 750.5113
  L 916.3100 750.4913
  Z
  M 564.84 750.49
  A 0.26 0.26 0.0 0 0 564.58 750.23
  L 553.76 750.23
  A 0.26 0.26 0.0 0 0 553.50 750.49
  L 553.50 750.51
  A 0.26 0.26 0.0 0 0 553.76 750.77
  L 564.58 750.77
  A 0.26 0.26 0.0 0 0 564.84 750.51
  L 564.84 750.49
  Z
  M 589.74 750.48
  A 0.27 0.27 0.0 0 0 589.47 750.21
  L 569.55 750.21
  A 0.27 0.27 0.0 0 0 569.28 750.48
  L 569.28 750.52
  A 0.27 0.27 0.0 0 0 569.55 750.79
  L 589.47 750.79
  A 0.27 0.27 0.0 0 0 589.74 750.52
  L 589.74 750.48
  Z
  M 476.65 756.89
  L 476.74 756.62
  Q 476.80 756.44 476.61 756.39
  Q 473.08 755.59 471.38 758.40
  Q 471.12 758.83 471.57 758.60
  Q 471.87 758.45 472.05 758.18
  C 472.93 756.87 475.14 756.65 476.60 756.92
  Q 476.64 756.93 476.65 756.89
  Z
  M 450.5800 767.4934
  A 0.26 0.26 0.0 0 0 450.3205 767.2329
  L 435.5205 767.2071
  A 0.26 0.26 0.0 0 0 435.2600 767.4666
  L 435.2600 767.4866
  A 0.26 0.26 0.0 0 0 435.5195 767.7471
  L 450.3195 767.7729
  A 0.26 0.26 0.0 0 0 450.5800 767.5134
  L 450.5800 767.4934
  Z
  M 528.4799 768.3576
  A 0.32 0.32 0.0 0 0 528.1594 768.0381
  L 468.6995 768.1419
  A 0.32 0.32 0.0 0 0 468.3800 768.4624
  L 468.3801 768.5024
  A 0.32 0.32 0.0 0 0 468.7006 768.8219
  L 528.1605 768.7181
  A 0.32 0.32 0.0 0 0 528.4800 768.3976
  L 528.4799 768.3576
  Z
  M 980.6499 768.3840
  A 0.31 0.31 0.0 0 0 980.3394 768.0746
  L 939.7395 768.1454
  A 0.31 0.31 0.0 0 0 939.4300 768.4560
  L 939.4301 768.4960
  A 0.31 0.31 0.0 0 0 939.7406 768.8054
  L 980.3405 768.7346
  A 0.31 0.31 0.0 0 0 980.6500 768.4240
  L 980.6499 768.3840
  Z
  M 599.58 769.77
  Q 743.22 769.74 887.30 769.75
  Q 887.54 769.75 887.54 769.52
  L 887.54 769.16
  Q 887.54 768.96 887.34 768.96
  Q 764.60 768.87 641.80 768.91
  Q 620.30 768.92 599.57 769.29
  Q 599.34 769.29 599.35 769.52
  L 599.35 769.53
  Q 599.35 769.77 599.58 769.77
  Z
  M 198.89 770.12
  Q 198.69 770.10 198.54 769.95
  Q 198.28 769.68 197.91 769.65
  Q 192.62 769.12 189.96 769.51
  Q 177.75 771.29 166.48 772.37
  Q 165.88 772.42 165.71 772.92
  A 0.49 0.49 0.0 0 0 166.09 773.57
  C 178.33 775.61 190.41 777.70 203.41 777.70
  C 214.09 777.70 224.10 778.22 234.69 778.73
  Q 241.77 779.07 248.71 779.02
  Q 269.62 778.88 291.81 779.58
  Q 319.24 780.45 361.49 779.88
  Q 377.39 779.66 398.49 779.85
  Q 398.55 779.85 398.55 779.79
  L 398.56 779.54
  Q 398.56 779.22 398.24 779.22
  Q 383.67 779.10 369.00 778.51
  C 353.89 777.90 338.71 777.76 324.36 777.69
  C 321.89 777.68 319.45 777.19 317.00 777.19
  C 300.91 777.21 284.48 776.95 267.75 776.51
  Q 251.86 776.10 235.50 775.65
  Q 224.21 775.35 202.70 770.58
  C 201.42 770.30 200.16 770.29 198.89 770.12
  Z
  M 155.43 834.04
  Q 156.20 834.64 157.24 834.83
  C 159.81 835.30 162.26 835.91 164.98 835.94
  Q 179.54 836.08 193.92 835.90
  Q 196.74 835.86 199.73 835.55
  Q 199.97 835.53 199.94 835.28
  Q 199.90 835.00 199.62 834.95
  Q 197.60 834.56 195.72 833.96
  Q 193.56 833.27 191.31 833.22
  Q 174.46 832.88 156.81 833.11
  Q 155.54 833.12 154.75 833.84
  A 0.04 0.03 -75.1 0 0 154.78 833.90
  Q 154.91 833.86 155.05 833.88
  A 0.82 0.81 67.3 0 1 155.43 834.04
  Z"
/>
<path  d="
  M 1188.14 749.37
  Q 1185.52 748.88 1182.87 748.60
  Q 1166.84 746.90 1144.19 744.20
  Q 1133.68 742.95 1124.29 742.26
  Q 1095.84 740.15 1067.40 738.68
  A 0.46 0.46 0.0 0 1 1066.96 738.22
  L 1067.00 719.77
  A 0.53 0.53 0.0 0 1 1067.57 719.24
  Q 1092.37 720.89 1118.49 722.79
  Q 1147.80 724.93 1173.19 729.43
  Q 1178.41 730.36 1190.49 733.99
  Q 1207.22 739.03 1219.21 747.54
  C 1225.70 752.14 1230.33 758.02 1235.39 764.02
  Q 1235.83 764.55 1236.56 764.78
  A 0.37 0.36 -89.3 0 0 1237.01 764.33
  C 1234.11 753.84 1226.28 744.29 1217.48 737.52
  C 1203.62 726.85 1188.24 721.44 1170.85 718.45
  C 1151.06 715.05 1129.58 713.45 1108.49 711.87
  Q 1087.16 710.28 1067.03 709.16
  A 0.93 0.93 0.0 0 1 1066.15 708.23
  L 1066.14 699.50
  A 0.52 0.51 0.6 0 1 1066.67 698.99
  Q 1108.26 700.25 1149.56 704.68
  C 1167.02 706.55 1184.52 709.67 1200.39 715.10
  Q 1208.09 717.74 1217.49 723.39
  C 1233.50 733.00 1245.11 746.70 1249.74 764.55
  Q 1251.11 769.82 1251.04 775.97
  A 1.04 1.03 0.3 0 1 1250.00 776.99
  Q 1199.25 776.99 1148.27 777.01
  Q 1138.91 777.02 1128.77 777.47
  Q 1111.09 778.25 1094.41 778.04
  C 1085.19 777.92 1075.78 778.87 1066.18 778.91
  Q 1065.78 778.91 1065.78 778.51
  L 1065.89 767.46
  Q 1065.90 767.08 1066.11 766.75
  Q 1066.30 766.46 1066.12 766.16
  Q 1065.95 765.87 1065.96 765.54
  L 1066.11 743.80
  Q 1066.12 743.09 1066.83 743.12
  Q 1088.76 744.15 1111.76 745.07
  C 1121.78 745.47 1132.11 746.43 1142.01 747.02
  Q 1147.21 747.32 1152.30 747.77
  Q 1165.06 748.88 1179.06 749.73
  Q 1183.84 750.02 1188.12 749.62
  Q 1189.05 749.54 1188.14 749.37
  Z"
/>
<path  d="
  M 880.47 719.30
  Q 880.23 719.16 879.94 719.13
  Q 878.01 718.98 875.94 718.84
  Q 874.82 718.76 874.51 717.71
  Q 874.21 716.72 873.67 717.60
  Q 872.66 719.26 869.87 718.75
  Q 869.33 718.66 869.19 718.13
  Q 869.16 718.00 869.08 717.88
  A 1.38 1.30 78.4 0 0 868.32 717.35
  Q 865.76 716.75 863.15 717.00
  Q 863.09 717.01 863.07 716.95
  L 863.07 716.95
  Q 863.04 716.81 863.17 716.77
  Q 864.56 716.35 865.86 716.31
  Q 902.16 715.27 944.61 716.46
  C 962.41 716.96 983.76 716.67 1003.34 717.39
  Q 1032.25 718.44 1060.22 719.05
  Q 1060.74 719.06 1060.75 719.58
  L 1061.10 736.95
  Q 1061.12 737.97 1060.10 737.93
  Q 1039.40 737.03 1021.37 736.12
  C 1000.85 735.09 979.96 734.81 959.75 734.42
  Q 950.71 734.24 941.50 734.56
  Q 940.02 734.61 938.94 735.23
  Q 938.49 735.49 937.96 735.50
  Q 932.00 735.64 926.00 735.51
  C 924.48 735.48 923.47 734.49 921.85 734.50
  Q 914.71 734.55 906.81 734.76
  Q 905.00 734.81 903.34 734.33
  Q 901.47 733.79 898.41 734.36
  C 894.86 735.01 891.32 734.93 887.72 734.82
  A 0.85 0.84 -89.7 0 1 886.90 733.98
  L 886.86 725.00
  Q 886.85 723.27 885.13 723.13
  Q 883.35 722.98 882.47 721.36
  Q 881.78 720.07 881.38 721.48
  C 880.43 724.81 880.96 729.90 881.14 733.56
  A 1.17 1.17 0.0 0 1 879.97 734.79
  L 870.24 734.83
  A 1.11 1.11 0.0 0 1 869.13 733.73
  L 869.01 721.99
  A 1.06 1.06 0.0 0 1 870.15 720.92
  C 872.06 721.06 876.72 721.41 878.51 720.28
  Q 879.35 719.75 880.38 719.68
  Q 881.04 719.64 880.47 719.30
  Z
  M 902.87 728.63
  Q 902.43 726.01 903.42 723.61
  Q 903.51 723.38 903.29 723.28
  L 903.28 723.28
  Q 903.10 723.20 903.00 723.37
  Q 902.04 724.91 901.97 726.76
  Q 901.87 729.85 901.71 733.21
  Q 901.69 733.63 902.10 733.72
  L 902.43 733.79
  Q 902.73 733.86 902.75 733.55
  Q 903.05 729.66 902.87 728.63
  Z
  M 898.04 727.81
  Q 898.06 726.64 897.67 725.53
  Q 897.34 724.62 897.21 725.58
  Q 896.69 729.36 897.06 733.12
  Q 897.14 733.90 897.88 733.62
  Q 898.94 733.21 900.05 733.22
  Q 900.62 733.22 900.77 732.67
  Q 901.14 731.30 900.76 729.92
  Q 900.60 729.33 900.03 729.14
  L 898.66 728.69
  Q 898.03 728.48 898.04 727.81
  Z"
/>
</svg>
