<?xml version="1.0" encoding="UTF-8" standalone="no"?>
<!DOCTYPE svg PUBLIC "-//W3C//DTD SVG 1.1//EN" "http://www.w3.org/Graphics/SVG/1.1/DTD/svg11.dtd">
<svg xmlns="http://www.w3.org/2000/svg" version="1.1" viewBox="0.00 0.00 1024.00 1024.00">
<path  d="
  M 460.21 551.98
  L 407.01 551.99
  A 0.99 0.98 0.0 0 1 406.02 551.01
  L 406.03 545.17
  A 1.10 1.10 0.0 0 0 405.05 544.08
  Q 395.14 543.01 385.73 543.01
  Q 306.44 543.00 228.63 542.99
  Q 225.36 542.99 223.82 546.10
  Q 211.54 570.91 200.50 593.49
  Q 198.86 596.83 197.26 600.12
  Q 191.50 611.96 185.62 623.67
  Q 183.97 626.95 181.38 630.87
  C 178.72 634.90 174.50 637.06 169.49 637.05
  Q 134.07 636.97 101.19 637.01
  A 1.19 1.19 0.0 0 1 100.05 635.48
  Q 100.65 633.50 101.70 631.43
  Q 124.21 586.81 146.36 542.16
  C 148.15 538.58 150.64 535.47 152.02 531.73
  A 1.35 1.34 15.7 0 0 151.01 529.94
  Q 140.91 528.01 130.05 523.89
  A 1.48 1.48 0.0 0 0 128.05 525.19
  C 127.91 527.65 127.20 529.97 127.14 532.48
  Q 126.78 546.74 125.54 557.74
  Q 125.14 561.26 124.96 564.84
  C 124.83 567.44 124.49 569.91 123.55 572.33
  Q 122.84 574.17 122.91 572.20
  Q 123.18 565.25 122.66 558.30
  C 121.70 545.29 121.91 531.99 122.06 519.08
  Q 122.07 518.43 121.43 518.29
  Q 113.73 516.55 107.50 513.51
  Q 106.53 513.04 106.02 512.08
  C 105.24 510.61 103.63 509.76 102.02 509.54
  Q 97.72 508.95 93.45 508.30
  Q 92.97 508.23 92.52 508.38
  C 89.10 509.54 87.69 507.71 84.75 507.11
  Q 78.13 505.77 72.45 504.03
  C 70.51 503.44 68.51 501.81 68.17 499.70
  C 67.01 492.66 68.04 486.89 76.03 485.77
  Q 82.44 484.88 87.64 482.74
  Q 89.21 482.09 91.03 482.36
  Q 97.46 483.32 105.05 482.93
  A 0.84 0.84 0.0 0 0 105.85 482.10
  Q 105.91 479.86 106.95 478.02
  Q 107.21 477.55 107.70 477.34
  L 114.00 474.63
  A 1.61 1.60 78.2 0 0 114.96 473.16
  L 115.04 437.52
  Q 115.05 437.20 115.36 437.29
  Q 115.61 437.37 115.68 437.75
  Q 116.05 439.61 116.05 441.50
  Q 116.12 457.22 116.00 473.11
  A 0.97 0.97 0.0 0 0 117.00 474.09
  Q 121.31 473.99 124.60 472.54
  Q 132.57 469.02 139.34 465.92
  A 0.63 0.62 -37.7 0 0 139.48 464.87
  Q 138.39 463.98 137.62 462.90
  C 132.32 455.44 127.05 448.22 121.32 441.05
  C 92.27 404.71 63.95 368.00 34.63 331.28
  Q 33.61 330.00 35.25 330.00
  L 89.54 329.98
  A 4.27 4.25 -23.7 0 1 92.42 331.10
  C 129.88 365.46 167.85 401.81 205.49 436.78
  A 1.49 1.49 0.0 0 0 207.95 436.06
  Q 209.54 429.94 212.00 424.15
  C 215.61 415.65 218.30 406.93 221.93 398.43
  Q 223.96 393.66 226.31 387.75
  Q 238.98 355.95 251.49 324.47
  Q 254.90 315.88 259.20 307.17
  C 260.85 303.83 263.14 297.94 267.60 297.97
  Q 283.15 298.07 300.01 297.95
  C 302.28 297.93 305.93 298.15 305.69 301.24
  C 305.25 307.10 304.91 313.01 304.16 318.88
  Q 301.31 341.32 299.28 363.40
  Q 298.72 369.47 297.95 375.57
  C 297.24 381.17 296.90 386.44 296.16 391.91
  Q 293.86 408.92 292.07 426.42
  Q 291.93 427.75 292.15 429.23
  Q 292.23 429.76 292.76 429.84
  Q 294.12 430.04 295.50 430.04
  Q 355.96 429.97 416.41 430.01
  C 423.10 430.01 426.77 429.60 431.03 433.46
  C 432.64 434.92 432.82 436.83 432.63 438.90
  Q 431.74 448.61 432.08 457.75
  Q 432.13 459.03 433.41 459.02
  Q 463.12 459.00 498.54 459.19
  Q 503.02 459.21 506.80 458.61
  Q 507.30 458.53 507.46 458.05
  C 512.31 443.47 518.07 428.24 523.09 413.18
  Q 534.04 380.35 546.12 343.99
  Q 549.13 334.93 552.20 325.00
  Q 555.86 313.12 559.94 301.50
  Q 560.40 300.20 559.04 299.98
  Q 556.99 299.63 554.91 298.83
  Q 552.20 297.78 555.05 297.27
  Q 557.47 296.83 560.24 296.99
  A 1.87 1.86 -74.5 0 0 562.02 295.98
  L 562.54 294.95
  Q 562.95 294.16 562.06 294.11
  C 553.65 293.67 544.62 294.82 535.90 292.87
  Q 534.46 292.55 534.87 291.13
  Q 535.05 290.48 535.48 289.92
  A 2.42 2.40 -68.1 0 1 537.62 288.99
  Q 555.77 290.74 566.10 289.68
  Q 573.64 288.90 580.95 289.05
  Q 586.43 289.16 591.35 292.76
  Q 592.84 293.85 592.89 295.50
  Q 593.39 310.77 592.69 329.00
  Q 592.22 341.32 592.11 349.00
  Q 591.91 361.74 591.33 373.76
  Q 590.83 384.21 590.94 393.74
  Q 591.11 407.99 590.55 418.75
  Q 590.34 422.75 590.23 426.75
  Q 589.88 438.68 590.06 456.55
  Q 590.08 458.93 592.46 458.96
  C 600.26 459.06 607.23 459.04 615.17 458.63
  Q 638.38 457.42 650.66 458.58
  Q 659.16 459.39 668.15 458.97
  A 0.84 0.84 0.0 0 0 668.75 457.59
  Q 667.41 456.01 666.50 454.05
  Q 661.24 442.77 655.51 433.16
  A 2.15 2.11 75.3 0 0 653.76 432.12
  C 649.25 431.96 643.85 432.97 640.60 429.17
  Q 639.24 427.58 640.58 425.85
  Q 643.55 422.01 648.05 422.01
  Q 665.32 421.99 685.59 422.00
  C 687.81 422.00 689.42 423.61 691.25 424.61
  A 1.25 1.25 0.0 0 1 691.89 425.53
  Q 692.77 431.41 686.67 432.06
  Q 686.06 432.13 686.45 432.60
  Q 696.10 444.41 706.03 458.15
  Q 706.31 458.54 706.77 458.63
  Q 710.21 459.30 713.49 459.15
  Q 726.92 458.53 738.62 457.59
  Q 745.03 457.08 753.51 454.61
  Q 768.60 450.21 783.85 445.68
  Q 793.97 442.68 804.32 439.91
  Q 814.67 437.15 824.25 435.68
  Q 849.45 431.84 869.71 433.34
  Q 903.85 435.85 931.25 451.33
  Q 945.51 459.39 957.70 471.43
  Q 978.22 491.69 987.66 518.36
  A 2.56 2.56 0.0 0 0 990.12 520.08
  Q 1004.03 519.93 1015.83 520.16
  Q 1018.07 520.20 1019.97 521.44
  C 1023.00 523.41 1022.51 527.59 1019.56 529.32
  Q 1016.54 531.09 1013.07 530.99
  Q 1000.43 530.60 988.04 531.02
  Q 987.10 531.05 987.04 531.98
  C 985.95 547.06 974.87 559.73 961.75 565.99
  Q 945.36 573.79 926.82 574.14
  A 1.02 1.02 0.0 0 0 925.83 575.07
  Q 925.02 583.69 923.17 591.29
  C 921.56 597.90 916.89 601.40 910.44 603.17
  Q 903.38 605.10 896.45 606.24
  Q 891.20 607.11 887.52 606.97
  C 881.75 606.74 876.54 601.80 873.22 597.26
  Q 865.25 586.35 858.54 576.30
  A 3.19 3.16 72.6 0 0 855.87 574.89
  Q 824.59 575.21 793.50 574.79
  Q 790.27 574.75 787.34 574.74
  C 781.90 574.72 776.60 573.98 771.12 573.99
  A 1.99 1.98 7.6 0 0 769.20 575.45
  C 768.55 577.82 766.85 580.73 769.27 582.77
  Q 773.12 586.01 775.16 591.30
  C 778.59 600.19 772.96 609.63 764.52 612.67
  C 761.27 613.85 757.27 614.41 753.83 613.26
  Q 744.27 610.05 741.96 600.07
  C 740.14 592.18 742.70 584.66 750.24 580.94
  A 1.09 1.09 0.0 0 0 750.72 579.45
  Q 748.81 575.80 747.43 571.89
  C 746.93 570.49 745.85 569.72 744.42 569.53
  Q 721.58 566.44 699.59 562.08
  Q 693.00 560.78 686.42 559.12
  A 1.76 1.75 -76.2 0 0 684.28 560.42
  Q 683.75 562.69 682.66 564.90
  A 1.57 1.55 -69.3 0 1 680.86 565.72
  Q 677.89 564.93 674.77 564.94
  A 0.83 0.82 87.8 0 1 673.94 564.16
  Q 673.92 563.68 674.24 563.31
  Q 676.41 560.89 677.62 557.71
  Q 677.82 557.18 677.27 557.04
  Q 668.52 554.95 658.47 552.06
  Q 647.84 549.01 637.10 550.86
  C 625.20 552.92 612.78 553.42 600.43 553.02
  Q 597.86 552.93 600.15 554.12
  Q 602.61 555.39 604.74 556.80
  C 606.25 557.78 608.19 557.93 609.94 557.92
  Q 615.03 557.88 619.89 557.93
  C 627.22 558.00 631.97 566.51 629.16 572.93
  Q 626.20 579.71 618.40 581.25
  Q 606.74 583.57 588.94 582.76
  Q 588.17 582.73 587.47 582.40
  Q 586.97 582.16 586.50 582.46
  Q 586.04 582.76 585.48 582.81
  Q 582.80 583.06 580.00 583.06
  Q 564.66 583.04 546.50 582.92
  Q 544.12 582.91 541.00 583.32
  A 1.14 1.13 16.1 0 0 540.29 583.71
  L 537.30 587.28
  A 0.97 0.97 0.0 0 0 537.50 588.70
  Q 538.79 589.59 540.21 590.09
  Q 552.28 594.38 563.80 599.85
  C 570.81 603.18 577.72 605.83 584.84 608.86
  C 590.93 611.45 597.84 608.75 604.01 610.60
  C 610.01 612.40 613.99 618.42 612.27 624.70
  C 611.24 628.44 609.60 631.89 606.00 633.61
  Q 602.52 635.26 598.67 636.90
  C 592.78 639.42 586.78 639.26 580.71 638.84
  Q 575.56 638.48 569.98 638.71
  Q 569.27 638.74 568.60 638.58
  Q 567.68 638.37 567.04 639.17
  Q 566.66 639.64 566.16 639.32
  L 565.75 639.06
  A 0.36 0.32 58.5 0 0 565.56 639.00
  Q 532.88 638.83 497.04 639.00
  Q 495.02 639.01 492.67 639.21
  C 491.24 639.33 489.77 640.61 488.84 641.66
  Q 478.17 653.70 468.18 664.49
  A 0.83 0.83 0.0 0 0 468.38 665.77
  Q 470.63 667.06 473.55 667.01
  Q 482.25 666.88 492.26 666.94
  C 496.18 666.96 498.46 668.42 500.75 671.17
  Q 501.89 672.53 502.09 674.48
  Q 502.88 682.00 496.58 685.05
  Q 494.55 686.03 492.03 686.03
  Q 462.49 685.96 452.98 685.96
  C 450.70 685.96 448.71 685.87 446.90 687.60
  C 443.94 690.43 441.32 693.64 438.55 696.58
  Q 425.96 709.98 415.39 721.62
  C 405.37 732.64 395.36 743.20 385.60 753.98
  Q 373.51 767.35 361.11 779.85
  C 359.75 781.22 358.25 782.04 356.28 782.02
  Q 335.63 781.78 317.40 782.57
  Q 308.54 782.95 299.51 782.76
  Q 298.09 782.73 298.43 781.35
  L 298.90 779.45
  Q 299.22 778.14 300.57 778.13
  L 328.49 777.99
  A 2.83 2.82 16.6 0 0 330.82 776.74
  Q 339.09 764.51 347.41 751.19
  Q 354.05 740.57 358.11 734.28
  Q 373.25 710.84 388.76 685.45
  Q 392.66 679.06 397.96 670.71
  Q 402.13 664.14 406.94 655.83
  Q 411.86 647.35 416.21 639.80
  Q 421.11 631.30 426.22 622.33
  Q 430.44 614.92 435.63 604.70
  Q 444.44 587.31 448.35 578.83
  Q 453.30 568.08 457.88 559.24
  C 458.97 557.14 459.36 554.69 460.59 552.67
  Q 461.01 551.98 460.21 551.98
  Z
  M 553.73 382.10
  Q 553.38 383.04 552.39 383.23
  L 538.05 386.08
  Q 537.35 386.22 537.12 386.89
  Q 531.57 403.72 525.76 421.14
  C 525.33 422.40 524.72 423.46 524.21 424.66
  A 1.14 1.14 0.0 0 0 525.58 426.19
  Q 535.56 423.28 545.33 421.63
  Q 545.81 421.54 545.95 421.07
  Q 554.43 391.32 562.49 361.15
  C 562.88 359.68 562.90 358.16 563.30 356.72
  Q 565.96 347.02 567.53 338.30
  Q 569.22 328.94 571.23 319.81
  Q 573.28 310.52 575.47 300.62
  A 0.49 0.49 0.0 0 1 576.07 300.25
  L 576.39 300.33
  Q 577.17 300.53 576.99 301.30
  Q 573.41 317.50 570.62 333.92
  C 569.64 339.69 568.28 345.24 567.03 351.08
  C 564.48 363.04 561.26 374.93 558.50 386.70
  C 555.39 399.95 550.96 414.80 547.41 428.41
  Q 543.58 443.14 539.58 457.16
  Q 539.05 459.00 540.97 459.04
  Q 560.92 459.46 583.03 458.89
  Q 584.88 458.84 584.90 456.99
  C 585.03 441.21 584.81 425.21 585.42 409.02
  Q 586.08 391.39 586.34 373.75
  Q 586.36 372.66 586.39 371.50
  Q 586.70 358.62 587.38 345.76
  Q 588.04 333.38 588.26 322.85
  C 588.42 315.20 589.31 307.32 588.92 299.64
  Q 588.66 294.28 583.31 294.06
  Q 577.32 293.80 569.04 294.08
  Q 567.87 294.12 567.12 295.02
  L 565.02 297.53
  Q 563.22 299.69 566.03 299.80
  Q 570.52 299.96 569.53 302.53
  Q 567.98 306.57 567.01 311.00
  Q 566.00 315.66 564.47 320.26
  Q 559.57 334.99 555.58 349.41
  Q 553.69 356.25 551.58 362.89
  Q 549.51 369.42 547.78 376.02
  Q 547.58 376.79 546.80 376.91
  L 545.84 377.05
  Q 544.82 377.21 545.13 376.22
  Q 549.15 363.51 552.78 351.22
  Q 555.40 342.36 558.74 332.25
  Q 563.00 319.31 566.82 304.80
  C 567.07 303.85 566.96 302.84 565.96 302.37
  Q 564.84 301.85 564.46 303.02
  L 539.97 379.38
  A 1.27 1.27 0.0 0 0 541.40 381.02
  L 554.05 378.76
  Q 555.08 378.58 554.70 379.55
  L 553.73 382.10
  Z
  M 300.42 303.90
  Q 300.54 303.71 300.60 303.49
  A 0.40 0.40 0.0 0 0 300.21 302.98
  L 268.83 303.13
  Q 267.12 303.14 266.16 304.57
  L 263.61 308.36
  Q 262.53 309.98 264.47 309.98
  L 299.00 309.97
  A 1.11 1.11 0.0 0 0 300.10 308.75
  Q 299.88 306.55 300.28 304.25
  Q 300.31 304.06 300.42 303.90
  Z
  M 233.60 391.50
  C 231.93 395.51 231.14 399.67 229.57 403.79
  Q 225.71 413.93 222.35 424.58
  Q 222.03 425.57 222.23 426.42
  Q 222.39 427.07 222.63 426.45
  Q 224.86 420.94 227.04 415.37
  C 227.72 413.65 228.15 411.85 228.97 410.19
  Q 232.40 403.26 234.41 396.01
  Q 236.13 389.78 238.17 384.47
  Q 240.56 378.26 242.86 372.31
  Q 245.05 366.62 247.30 360.14
  Q 255.01 337.91 263.22 317.53
  Q 264.19 315.13 266.63 315.62
  Q 267.15 315.72 267.79 315.71
  L 295.56 315.20
  A 1.29 1.28 -86.2 0 1 296.85 316.68
  Q 295.79 323.41 295.17 329.95
  Q 294.56 336.47 293.74 343.05
  Q 291.54 360.84 289.43 378.18
  Q 288.70 384.18 288.00 392.84
  Q 287.50 398.99 286.49 407.50
  Q 285.32 417.40 284.35 427.69
  Q 284.22 429.04 285.33 429.82
  Q 285.62 430.03 285.96 430.04
  A 0.99 0.98 -85.4 0 0 286.99 429.16
  Q 289.45 406.29 291.32 389.76
  Q 294.13 365.02 296.41 344.44
  Q 296.86 340.39 297.15 336.27
  C 297.52 331.12 298.83 326.04 298.97 320.85
  Q 299.07 317.46 299.95 313.92
  A 0.74 0.73 -83.2 0 0 299.24 313.01
  L 261.90 313.18
  Q 261.31 313.19 261.04 313.71
  Q 260.13 315.50 259.44 317.42
  C 256.18 326.50 252.23 335.19 248.65 344.23
  Q 241.19 363.08 234.52 380.49
  C 229.03 394.82 223.42 408.02 217.73 423.34
  Q 215.51 429.28 213.20 435.05
  A 0.90 0.90 0.0 0 0 213.62 436.19
  Q 213.99 436.39 214.39 436.26
  Q 215.49 435.91 215.91 434.84
  C 217.69 430.26 219.68 425.66 221.22 420.98
  Q 222.91 415.83 225.31 410.32
  C 226.22 408.21 226.71 405.96 227.61 403.88
  Q 229.54 399.40 231.15 394.08
  Q 231.59 392.62 232.60 391.23
  Q 232.74 391.04 232.97 391.00
  Q 233.11 390.99 233.24 390.98
  Q 233.82 390.96 233.60 391.50
  Z
  M 646.18 428.01
  L 686.94 427.93
  A 0.12 0.12 0.0 0 0 687.06 427.81
  L 687.06 427.78
  A 8.09 1.99 -0.1 0 0 678.97 425.81
  L 654.15 425.85
  A 8.09 1.99 -0.1 0 0 646.06 427.86
  L 646.06 427.89
  A 0.12 0.12 0.0 0 0 646.18 428.01
  Z
  M 513.22 456.72
  Q 513.08 457.13 513.01 457.60
  Q 512.81 458.92 514.14 459.00
  Q 523.66 459.57 534.52 458.75
  A 1.25 1.25 0.0 0 0 535.64 457.84
  L 544.19 427.80
  A 1.35 1.35 0.0 0 0 542.59 426.12
  Q 533.87 428.11 524.50 430.30
  C 521.93 430.90 520.97 433.56 520.23 435.74
  Q 516.89 445.53 513.22 456.72
  Z
  M 435.49 465.29
  Q 433.33 466.43 431.75 466.73
  Q 422.25 468.52 413.07 470.44
  C 410.64 470.94 408.17 471.16 405.75 471.55
  C 402.23 472.11 398.76 471.97 395.28 472.55
  Q 392.84 472.96 390.12 472.96
  Q 344.31 473.01 298.28 473.00
  Q 288.45 473.00 279.29 471.61
  Q 265.51 469.52 255.03 466.90
  Q 247.44 465.00 242.15 462.83
  Q 232.65 458.92 224.25 451.06
  A 0.85 0.84 -30.3 0 1 224.63 449.62
  Q 247.93 443.99 272.18 443.21
  Q 284.24 442.82 296.74 442.87
  Q 350.32 443.06 404.62 442.89
  Q 404.78 442.89 404.83 442.75
  L 407.61 435.27
  Q 407.71 434.99 407.41 434.99
  Q 348.56 434.67 280.16 434.95
  Q 276.23 434.96 272.33 434.93
  Q 250.71 434.77 229.42 438.69
  Q 219.72 440.47 211.39 442.14
  Q 209.26 442.56 211.11 443.70
  Q 212.80 444.74 214.35 446.07
  Q 231.61 460.98 248.55 475.72
  C 252.12 478.83 255.81 481.33 260.38 481.25
  A 0.45 0.45 0.0 0 0 260.73 480.54
  Q 259.23 478.46 257.27 477.02
  Q 250.47 471.99 244.69 467.31
  Q 242.90 465.86 245.10 466.53
  C 247.91 467.39 250.43 468.82 253.18 469.64
  Q 268.31 474.15 283.75 475.14
  Q 284.18 475.16 284.49 475.47
  Q 284.98 475.96 285.52 475.45
  Q 285.98 475.01 286.62 475.01
  Q 348.78 475.13 393.75 474.78
  Q 398.71 474.75 402.59 474.73
  C 409.03 474.71 414.54 473.54 420.73 472.61
  Q 424.55 472.03 428.92 471.97
  C 445.06 471.74 462.11 471.98 478.50 471.98
  Q 574.00 472.00 669.50 472.04
  Q 692.97 472.04 713.80 471.95
  Q 722.25 471.91 729.67 470.98
  Q 741.44 469.51 745.40 468.52
  Q 750.75 467.18 756.83 465.87
  Q 756.87 465.86 756.88 465.90
  L 756.96 466.18
  Q 757.02 466.37 756.84 466.44
  Q 749.74 469.29 743.60 470.55
  Q 738.78 471.55 732.21 472.74
  C 730.00 473.14 727.73 472.97 725.58 473.43
  Q 723.14 473.96 720.79 473.99
  Q 705.11 474.19 689.25 473.96
  C 680.03 473.82 670.31 474.63 661.35 473.72
  Q 659.26 473.51 657.61 473.72
  C 654.05 474.15 650.25 473.86 646.50 473.87
  Q 550.60 474.06 439.21 474.12
  Q 435.36 474.12 431.89 473.97
  Q 424.72 473.66 417.49 475.18
  A 0.36 0.34 -84.4 0 0 417.25 475.39
  L 417.12 475.76
  Q 417.05 475.96 417.25 475.96
  Q 426.32 476.07 434.86 476.19
  C 435.80 476.20 436.63 476.56 437.58 476.58
  Q 478.05 477.27 520.65 476.71
  C 522.74 476.68 524.74 476.26 526.84 476.24
  Q 533.75 476.17 540.66 476.19
  C 547.72 476.21 556.77 477.04 565.00 477.03
  Q 587.47 477.02 609.01 476.99
  Q 617.08 476.98 628.99 476.40
  Q 648.63 475.46 662.25 476.26
  Q 684.90 477.60 705.11 476.50
  Q 713.26 476.05 720.04 476.10
  Q 728.49 476.16 734.73 475.27
  Q 746.24 473.63 756.41 470.10
  C 762.84 467.86 769.25 466.29 775.44 464.25
  Q 795.74 457.56 816.30 452.61
  Q 826.52 450.15 835.56 449.16
  C 854.03 447.15 873.35 447.30 891.26 451.87
  Q 910.97 456.91 929.58 467.38
  Q 946.47 476.88 960.81 492.24
  Q 964.63 496.33 967.18 500.46
  Q 967.83 501.51 966.61 501.76
  L 958.10 503.48
  A 0.33 0.32 -8.8 0 0 957.84 503.83
  L 957.87 504.13
  Q 957.87 504.17 958.04 504.15
  Q 961.10 503.90 963.85 503.18
  Q 966.21 502.56 968.73 502.76
  Q 969.40 502.81 969.82 503.33
  Q 975.07 509.81 978.16 519.07
  Q 978.32 519.55 977.86 519.77
  Q 971.42 522.78 964.50 524.04
  Q 964.33 524.07 964.19 524.19
  Q 964.06 524.30 964.21 524.51
  Q 964.40 524.76 964.71 524.80
  Q 972.31 525.57 979.03 521.40
  Q 979.72 520.98 979.77 521.78
  L 979.79 522.19
  Q 979.84 522.99 979.14 523.38
  Q 976.07 525.06 972.50 525.95
  Q 964.56 527.92 956.28 529.41
  Q 949.94 530.55 940.56 531.39
  Q 932.80 532.08 924.75 532.73
  Q 919.29 533.16 907.09 533.11
  C 830.75 532.74 755.09 532.90 680.50 533.14
  Q 669.07 533.18 657.92 533.27
  C 656.61 533.28 655.35 533.63 654.03 533.65
  Q 632.09 533.89 613.30 534.51
  Q 611.68 534.56 610.48 535.36
  Q 610.01 535.67 610.57 535.68
  Q 637.27 536.21 669.46 536.14
  Q 764.81 535.92 892.01 536.03
  Q 902.40 536.04 912.08 535.73
  Q 926.68 535.27 941.66 534.71
  Q 953.79 534.26 969.01 530.38
  Q 972.63 529.45 976.43 528.61
  Q 980.27 527.76 983.86 526.77
  Q 987.31 525.81 990.78 525.89
  Q 1003.86 526.18 1016.38 525.69
  Q 1016.53 525.69 1016.53 525.54
  L 1016.52 525.27
  A 0.41 0.41 0.0 0 0 1016.11 524.86
  Q 1004.30 524.76 991.85 524.92
  C 988.50 524.96 984.23 524.76 983.12 520.82
  Q 981.39 514.68 978.61 509.03
  C 969.17 489.84 954.98 473.04 937.96 461.68
  Q 899.44 435.98 851.12 437.97
  Q 831.49 438.78 817.02 442.14
  Q 793.23 447.68 757.33 458.58
  Q 745.12 462.28 736.10 462.72
  Q 723.19 463.36 710.09 464.31
  Q 707.55 464.49 705.40 463.64
  Q 703.68 462.95 702.60 461.47
  Q 691.64 446.42 680.49 432.02
  A 0.63 0.62 59.1 0 0 679.75 431.83
  Q 679.19 432.08 679.17 432.64
  Q 679.14 433.81 679.74 434.69
  Q 690.79 450.85 702.54 466.10
  Q 702.93 466.60 702.29 466.66
  Q 683.81 468.38 663.89 467.77
  C 662.90 467.74 662.03 467.44 661.05 467.28
  Q 658.89 466.93 661.01 466.37
  L 669.29 464.17
  Q 669.91 464.01 669.69 463.40
  L 669.59 463.10
  Q 669.52 462.93 669.34 462.95
  Q 658.50 464.29 654.00 464.21
  Q 643.18 464.03 635.00 464.03
  Q 601.42 464.00 565.25 463.93
  C 559.22 463.92 553.15 463.34 547.19 463.32
  Q 535.89 463.27 524.77 462.91
  C 516.94 462.66 509.23 463.31 501.37 463.00
  C 491.23 462.61 480.94 462.84 470.67 463.37
  Q 452.80 464.31 434.86 464.35
  Q 434.67 464.35 434.57 464.53
  Q 434.34 464.91 434.79 464.89
  Q 435.09 464.88 435.40 464.89
  Q 436.21 464.91 435.49 465.29
  Z
  M 409.86 435.99
  L 407.16 441.73
  A 0.92 0.92 0.0 0 0 408.00 443.04
  L 425.56 442.77
  Q 427.12 442.75 427.08 441.19
  L 426.95 437.01
  Q 426.90 435.31 425.20 435.17
  Q 417.71 434.58 410.85 435.29
  A 1.24 1.23 -80.1 0 0 409.86 435.99
  Z
  M 425.99 448.37
  Q 426.09 454.90 426.21 461.93
  A 1.17 1.15 20.3 0 0 426.61 462.78
  Q 427.23 463.31 428.11 463.60
  Q 429.25 463.98 428.47 463.06
  L 428.25 462.80
  Q 427.92 462.40 427.93 461.89
  Q 428.02 457.30 427.00 452.99
  Q 426.39 450.44 426.88 446.50
  Q 426.97 445.75 426.56 446.38
  Q 425.97 447.28 425.99 448.37
  Z
  M 403.91 467.07
  A 0.65 0.65 0.0 0 1 403.00 467.87
  C 400.64 466.71 399.14 467.73 396.82 467.76
  C 393.84 467.80 390.92 468.01 388.05 468.01
  Q 341.55 467.90 297.90 468.08
  Q 294.75 468.10 291.48 468.22
  Q 285.89 468.43 279.46 467.48
  Q 274.80 466.80 269.85 466.24
  Q 265.34 465.73 260.33 464.77
  Q 260.16 464.73 260.12 464.91
  L 260.05 465.26
  Q 260.00 465.53 260.27 465.58
  Q 264.21 466.31 268.11 467.06
  Q 271.94 467.79 275.91 468.24
  Q 280.02 468.70 284.12 469.40
  Q 287.75 470.02 292.39 470.01
  Q 340.56 469.89 395.50 470.03
  C 399.13 470.04 402.11 469.25 405.58 468.84
  Q 409.60 468.37 414.32 467.18
  Q 417.47 466.39 414.23 466.22
  L 407.62 465.88
  Q 407.09 465.86 406.72 465.47
  C 403.87 462.53 403.46 458.32 403.74 454.39
  Q 403.76 454.22 403.59 454.21
  L 403.58 454.20
  Q 403.38 454.19 403.36 454.38
  Q 402.85 459.19 403.03 464.03
  C 403.08 465.25 403.55 466.01 403.91 467.07
  Z
  M 124.31 500.66
  C 120.62 499.80 120.68 494.65 121.15 491.55
  C 121.52 489.14 123.70 487.42 125.86 486.58
  Q 137.07 482.22 149.80 477.77
  Q 150.01 477.70 149.86 477.52
  Q 149.09 476.64 143.15 469.92
  A 0.40 0.40 0.0 0 0 142.70 469.82
  Q 133.61 473.59 124.03 478.01
  C 122.30 478.80 120.53 479.39 120.02 481.32
  Q 118.44 487.32 118.93 497.50
  C 119.06 500.35 120.26 502.22 123.15 502.96
  Q 147.62 509.24 168.91 510.94
  C 173.06 511.28 177.14 511.30 181.25 511.59
  Q 192.18 512.36 203.20 512.28
  C 210.41 512.24 217.93 513.01 225.26 513.01
  Q 313.23 512.99 401.62 513.01
  C 407.22 513.02 409.22 508.16 413.93 506.89
  Q 419.63 505.35 427.03 504.38
  C 432.82 503.62 438.67 502.43 444.45 501.85
  C 445.65 501.73 446.73 501.28 447.86 501.17
  Q 454.61 500.53 461.31 499.57
  Q 470.81 498.22 474.72 497.76
  Q 483.94 496.69 493.16 495.56
  C 497.98 494.98 502.76 494.81 507.53 494.06
  C 510.08 493.66 512.74 493.84 515.30 493.72
  Q 515.55 493.71 515.54 493.47
  L 515.54 493.46
  Q 515.53 493.30 515.37 493.29
  C 512.23 493.13 508.11 492.83 505.03 493.60
  C 503.13 494.08 500.97 493.74 498.98 493.88
  Q 483.32 495.01 468.30 496.77
  C 464.20 497.25 460.05 497.33 456.00 498.01
  Q 451.56 498.75 446.90 499.27
  C 442.55 499.77 438.31 500.70 433.98 501.14
  C 428.73 501.67 423.80 502.79 418.66 503.59
  Q 414.09 504.29 410.54 505.90
  C 407.66 507.21 404.27 510.80 401.00 510.93
  Q 394.62 511.19 387.53 511.16
  Q 317.45 510.84 241.03 511.06
  Q 226.10 511.10 211.83 509.89
  C 208.07 509.57 204.24 509.66 200.45 509.41
  Q 179.02 508.03 163.94 506.82
  Q 143.96 505.22 124.31 500.66
  Z
  M 113.66 506.00
  C 113.81 499.86 113.47 493.03 114.38 486.97
  Q 114.89 483.59 114.92 480.08
  A 1.13 1.12 15.8 0 0 114.38 479.12
  Q 113.80 478.77 113.21 478.93
  Q 111.33 479.41 111.13 481.19
  C 110.48 486.93 112.05 492.68 112.16 498.56
  Q 112.24 502.29 113.11 506.05
  Q 113.60 508.19 113.66 506.00
  Z
  M 103.88 492.89
  A 1.24 1.24 0.0 0 0 105.07 491.95
  L 105.93 488.50
  A 1.24 1.24 0.0 0 0 104.72 486.96
  L 94.25 487.01
  A 1.24 1.24 0.0 0 0 93.01 488.21
  L 92.90 491.75
  A 1.24 1.24 0.0 0 0 94.16 493.03
  L 103.88 492.89
  Z
  M 84.65 493.32
  A 0.85 0.85 0.0 0 1 85.67 494.05
  L 86.37 499.76
  A 0.56 0.56 0.0 0 0 87.36 500.05
  Q 87.80 499.51 87.86 498.85
  C 88.09 496.26 87.81 493.70 88.49 491.14
  Q 88.90 489.56 88.98 487.88
  Q 89.02 487.17 88.38 487.46
  Q 83.59 489.58 77.46 490.23
  C 75.86 490.40 74.14 491.15 73.05 492.38
  A 0.93 0.93 0.0 0 0 73.66 493.92
  Q 79.33 494.47 84.65 493.32
  Z
  M 688.93 508.26
  C 692.88 506.94 694.49 504.55 696.89 501.15
  Q 697.22 500.68 697.19 500.12
  A 1.24 1.24 0.0 0 0 695.82 498.94
  Q 692.57 499.30 689.28 498.97
  A 2.45 2.45 0.0 0 1 687.38 497.71
  L 682.83 489.35
  Q 682.59 488.92 682.35 489.34
  Q 679.95 493.44 678.68 497.54
  A 1.94 1.93 -83.4 0 1 676.96 498.91
  Q 672.97 499.20 669.28 499.01
  Q 668.61 498.97 668.09 499.42
  A 0.47 0.47 0.0 0 0 667.98 499.99
  Q 670.67 505.09 675.16 507.15
  C 676.78 507.89 677.85 509.92 676.77 511.57
  Q 675.47 513.56 674.81 515.85
  Q 674.70 516.23 674.97 516.51
  A 0.70 0.70 0.0 0 0 675.95 516.53
  C 678.18 514.41 682.14 510.07 685.47 512.84
  Q 687.37 514.42 689.27 515.57
  Q 690.44 516.29 689.96 515.01
  L 688.10 510.01
  A 1.35 1.34 70.5 0 1 688.93 508.26
  Z
  M 647.3443 500.5242
  A 10.38 10.03 1.9 0 0 637.3025 490.1555
  A 10.38 10.03 1.9 0 0 626.5957 499.8358
  A 10.38 10.03 1.9 0 0 636.6375 510.2045
  A 10.38 10.03 1.9 0 0 647.3443 500.5242
  Z
  M 710.76 500.81
  Q 712.76 501.25 715.00 501.54
  C 722.45 502.50 729.68 503.58 737.34 504.24
  Q 742.54 504.69 747.79 505.25
  Q 753.03 505.82 758.23 506.22
  Q 763.95 506.67 769.92 507.31
  Q 776.33 508.00 781.68 508.00
  Q 806.20 508.00 834.71 508.01
  Q 838.84 508.01 842.64 507.56
  Q 845.41 507.22 842.70 506.55
  Q 840.76 506.07 838.74 506.06
  Q 811.52 505.97 783.05 505.95
  Q 773.97 505.95 762.95 504.97
  Q 729.22 501.98 700.59 498.17
  Q 699.51 498.03 698.57 498.08
  Q 698.33 498.09 698.26 498.31
  Q 698.21 498.45 698.22 498.59
  A 0.56 0.55 5.3 0 0 698.64 499.08
  C 699.63 499.35 700.42 499.79 701.46 499.85
  C 704.60 500.02 707.53 500.09 710.76 500.81
  Z
  M 167.75 500.79
  Q 168.27 501.05 168.86 501.00
  Q 169.37 500.95 168.93 500.69
  Q 167.86 500.05 166.60 500.31
  Q 166.17 500.40 166.51 500.67
  Q 166.78 500.89 167.14 500.76
  A 0.76 0.75 47.5 0 1 167.75 500.79
  Z
  M 172.26 501.12
  Q 171.80 500.91 171.40 501.12
  Q 170.92 501.35 171.42 501.55
  Q 172.38 501.92 173.31 501.69
  Q 173.95 501.53 173.33 501.31
  Q 173.01 501.20 172.65 501.21
  Q 172.45 501.21 172.26 501.12
  Z
  M 957.2796 504.1827
  A 1.52 0.36 -6.7 0 0 955.7280 504.0025
  A 1.52 0.36 -6.7 0 0 954.2604 504.5373
  A 1.52 0.36 -6.7 0 0 955.8120 504.7175
  A 1.52 0.36 -6.7 0 0 957.2796 504.1827
  Z
  M 845.63 507.39
  A 0.83 0.83 0.0 0 0 846.36 507.86
  Q 868.09 508.28 887.38 507.71
  A 0.98 0.96 10.3 0 0 888.25 507.12
  L 888.38 506.83
  A 0.30 0.30 0.0 0 0 888.12 506.41
  Q 867.38 505.57 845.96 506.31
  Q 845.12 506.34 845.49 507.10
  L 845.63 507.39
  Z
  M 917.3396 506.9550
  A 0.74 0.74 0.0 0 0 916.5945 506.2202
  L 896.5949 506.3598
  A 0.74 0.74 0.0 0 0 895.8601 507.1050
  L 895.8604 507.1450
  A 0.74 0.74 0.0 0 0 896.6055 507.8798
  L 916.6051 507.7402
  A 0.74 0.74 0.0 0 0 917.3399 506.9950
  L 917.3396 506.9550
  Z
  M 933.5379 506.3730
  A 0.27 0.27 0.0 0 0 933.2637 506.1073
  L 920.1853 506.3128
  A 0.27 0.27 0.0 0 0 919.9196 506.5870
  L 919.9221 506.7470
  A 0.27 0.27 0.0 0 0 920.1963 507.0127
  L 933.2747 506.8072
  A 0.27 0.27 0.0 0 0 933.5404 506.5330
  L 933.5379 506.3730
  Z
  M 581.68 518.97
  Q 572.31 514.04 561.36 511.97
  Q 561.21 511.94 561.21 512.09
  L 561.21 512.50
  Q 561.21 512.59 561.30 512.62
  Q 567.81 514.58 575.33 517.79
  Q 582.61 520.90 587.93 525.29
  Q 588.92 526.10 590.08 526.44
  Q 592.27 527.08 590.63 525.50
  Q 586.44 521.48 581.68 518.97
  Z
  M 561.43 524.74
  A 0.45 0.44 38.8 0 1 561.05 524.78
  Q 552.81 522.03 544.64 521.08
  Q 535.39 520.01 528.52 520.15
  Q 522.19 520.28 511.78 521.73
  Q 503.86 522.84 495.57 525.21
  Q 484.56 528.36 474.87 532.18
  Q 473.77 532.61 473.50 533.76
  Q 472.81 536.59 471.38 539.14
  C 471.14 539.57 471.11 540.24 471.32 540.69
  A 0.76 0.76 0.0 0 0 472.25 541.10
  Q 484.46 537.10 497.89 534.03
  Q 508.89 531.51 517.54 531.06
  C 532.13 530.29 545.64 532.28 558.17 539.61
  Q 561.94 541.82 564.68 545.25
  A 1.62 1.62 0.0 0 0 567.09 545.39
  L 581.42 531.12
  A 0.90 0.88 -39.5 0 0 581.54 530.00
  Q 578.61 525.59 573.27 522.67
  Q 554.96 512.67 531.42 513.32
  Q 513.30 513.82 494.05 520.16
  Q 484.17 523.41 477.11 527.56
  Q 476.34 528.01 475.84 528.85
  Q 475.75 529.00 475.74 529.17
  A 0.56 0.56 0.0 0 0 476.51 529.71
  Q 491.50 523.66 508.82 520.19
  C 510.39 519.88 511.92 519.90 513.47 519.57
  C 516.62 518.90 519.85 519.08 523.06 518.61
  Q 526.93 518.05 528.99 518.04
  Q 545.44 517.94 560.95 523.54
  Q 562.51 524.11 561.43 524.74
  Z
  M 176.36 623.86
  A 2.14 2.13 -77.3 0 1 174.39 625.11
  Q 144.63 624.81 111.13 625.27
  Q 110.47 625.28 109.77 625.71
  Q 109.47 625.90 109.22 626.14
  A 0.44 0.43 23.2 0 0 109.52 626.89
  L 173.84 627.05
  A 1.20 1.19 -9.6 0 1 174.97 627.85
  Q 175.29 628.82 175.61 629.17
  Q 176.82 630.49 177.61 628.89
  L 226.76 529.18
  Q 227.67 527.34 225.63 527.08
  Q 225.43 527.05 225.36 527.04
  Q 223.23 526.77 222.24 528.68
  Q 208.37 555.63 195.99 582.17
  C 189.59 595.89 182.70 609.89 176.36 623.86
  Z
  M 399.12 535.08
  L 399.13 535.35
  Q 399.14 535.75 399.54 535.75
  Q 427.46 536.25 454.53 535.88
  Q 456.97 535.85 459.51 535.67
  A 0.68 0.67 -90.0 0 0 460.13 535.04
  L 460.16 534.74
  Q 460.18 534.44 459.88 534.42
  C 444.87 533.61 429.61 533.91 414.01 534.08
  Q 406.87 534.16 399.34 534.83
  Q 399.11 534.85 399.12 535.08
  Z
  M 343.25 772.60
  Q 343.75 771.23 344.45 770.24
  C 347.76 765.50 350.57 760.70 353.87 755.98
  Q 359.89 747.39 365.20 738.90
  Q 368.88 733.02 374.65 724.95
  C 376.71 722.08 378.50 719.01 380.31 715.98
  Q 381.09 714.67 381.67 712.67
  Q 381.80 712.23 381.36 712.35
  Q 379.57 712.83 378.00 713.47
  C 375.97 714.30 373.78 717.91 372.68 719.79
  Q 364.83 733.19 354.23 749.92
  Q 345.61 763.52 340.31 771.46
  C 339.00 773.42 337.46 775.01 336.00 776.78
  A 0.52 0.52 0.0 0 0 336.16 777.57
  Q 336.83 777.93 337.75 777.94
  Q 346.53 778.08 355.16 777.98
  A 3.21 3.20 23.5 0 0 357.25 777.16
  Q 362.06 772.79 366.11 768.35
  Q 405.97 724.62 442.16 685.41
  Q 451.27 675.54 462.94 663.22
  C 463.93 662.17 464.69 660.98 465.66 659.91
  Q 483.16 640.47 501.86 620.12
  Q 510.89 610.30 529.60 588.21
  Q 535.91 580.75 542.79 573.19
  Q 553.09 561.89 562.63 550.60
  A 1.90 1.89 37.6 0 0 562.27 547.83
  Q 558.77 545.37 554.84 543.00
  Q 545.81 537.57 534.51 536.16
  Q 519.63 534.32 504.00 537.29
  Q 502.47 537.59 501.83 539.22
  C 498.13 548.77 493.07 557.91 488.59 566.91
  C 485.18 573.74 481.08 580.72 477.32 587.60
  C 473.46 594.66 469.06 601.42 465.17 608.63
  C 462.70 613.21 459.94 617.62 457.32 622.05
  Q 456.27 623.83 454.22 624.19
  A 0.76 0.76 0.0 0 1 453.42 623.08
  C 454.95 620.20 456.24 617.29 457.89 614.60
  Q 461.17 609.23 463.98 604.50
  Q 465.39 602.13 462.75 602.92
  Q 451.47 606.28 441.00 608.70
  Q 439.17 609.12 438.20 610.73
  Q 431.95 621.16 427.31 630.21
  A 0.48 0.48 0.0 0 0 427.87 630.89
  Q 439.21 627.56 450.90 626.08
  A 1.76 1.75 -77.1 0 1 452.59 628.78
  L 434.98 656.19
  A 1.32 1.27 -86.6 0 1 434.48 656.65
  Q 433.09 657.35 432.41 656.78
  Q 431.67 656.17 432.20 655.37
  L 447.81 631.37
  Q 448.80 629.86 447.04 630.27
  Q 437.60 632.48 427.46 635.16
  Q 424.33 635.98 422.57 639.00
  C 419.05 645.04 415.21 651.22 411.78 657.44
  Q 409.94 660.76 407.45 664.16
  Q 406.71 665.17 407.91 664.81
  Q 417.44 661.97 426.41 658.42
  Q 428.89 657.43 427.16 659.47
  C 426.10 660.70 425.54 662.29 424.16 663.16
  Q 422.78 664.03 421.09 664.52
  Q 412.75 666.95 404.90 669.30
  Q 404.43 669.44 404.14 669.83
  C 401.99 672.68 400.54 675.91 398.61 678.95
  Q 391.19 690.63 383.50 703.30
  C 382.40 705.11 381.65 707.00 380.16 708.54
  A 0.75 0.75 0.0 0 0 380.59 709.80
  Q 381.50 709.94 382.23 709.43
  A 1.59 1.58 -29.5 0 1 384.58 710.08
  Q 385.22 711.48 384.60 712.75
  C 382.29 717.52 379.32 722.00 376.25 726.34
  C 372.32 731.90 368.69 737.75 364.56 743.30
  C 361.44 747.48 359.11 752.04 355.90 756.19
  Q 353.61 759.13 351.57 762.50
  Q 347.93 768.51 344.11 773.09
  Q 342.24 775.33 343.25 772.60
  Z
  M 467.14 550.52
  C 465.95 553.78 464.69 556.83 462.99 559.88
  A 0.73 0.73 0.0 0 0 463.87 560.92
  Q 476.03 556.69 488.19 554.04
  C 490.84 553.46 492.45 551.20 493.60 548.90
  Q 496.25 543.65 498.53 538.66
  Q 498.97 537.70 497.94 537.96
  Q 484.88 541.36 474.17 545.08
  C 470.99 546.18 468.28 547.40 467.14 550.52
  Z
  M 461.98 547.74
  L 461.98 546.32
  A 0.29 0.29 0.0 0 0 461.69 546.03
  L 414.04 545.95
  A 2.94 0.81 0.1 0 0 411.10 546.76
  L 411.10 547.14
  A 2.94 0.81 0.1 0 0 414.04 547.95
  L 461.69 548.03
  A 0.29 0.29 0.0 0 0 461.98 547.74
  Z
  M 630.83 546.05
  L 596.73 546.11
  A 0.06 0.06 0.0 0 0 596.67 546.17
  L 596.67 546.20
  A 3.31 1.81 -0.1 0 0 599.98 548.00
  L 627.58 547.96
  A 3.31 1.81 -0.1 0 0 630.89 546.14
  L 630.89 546.11
  A 0.06 0.06 0.0 0 0 630.83 546.05
  Z
  M 591.62 559.01
  C 588.58 558.98 583.66 558.48 580.86 559.73
  Q 579.23 560.45 580.98 560.76
  Q 582.72 561.07 584.23 561.01
  Q 595.92 560.52 606.29 565.62
  A 0.45 0.45 0.0 0 0 606.94 565.23
  L 607.02 563.26
  Q 607.04 562.67 606.53 562.36
  Q 596.98 556.62 589.07 553.16
  Q 588.17 552.77 587.14 552.61
  Q 584.55 552.21 586.66 553.77
  Q 589.59 555.94 591.89 558.39
  Q 592.48 559.02 591.62 559.01
  Z
  M 449.95 587.62
  C 447.51 593.09 444.83 598.31 442.19 603.57
  A 0.40 0.39 6.3 0 0 442.64 604.13
  Q 453.25 601.42 464.46 598.63
  C 465.81 598.29 467.30 598.00 468.17 596.77
  C 469.53 594.86 470.17 592.80 471.29 590.79
  C 474.88 584.36 478.11 577.64 481.82 571.19
  Q 485.40 564.96 488.49 559.14
  Q 489.26 557.69 487.68 558.12
  L 461.34 565.26
  A 1.08 1.08 0.0 0 0 460.69 565.77
  Q 454.80 576.76 449.95 587.62
  Z
  M 609.19 567.47
  Q 616.52 566.40 624.48 567.43
  Q 625.18 567.52 625.01 566.83
  Q 623.89 562.27 619.50 562.11
  Q 614.90 561.94 609.31 562.11
  Q 609.09 562.12 609.09 562.33
  L 608.93 567.23
  Q 608.92 567.51 609.19 567.47
  Z
  M 579.46 569.86
  C 582.81 569.71 584.61 570.05 587.21 570.71
  Q 587.89 570.88 587.62 570.23
  Q 587.33 569.51 586.52 569.41
  Q 583.00 568.98 579.66 569.20
  Q 579.35 569.22 579.37 569.53
  L 579.39 569.79
  Q 579.39 569.86 579.46 569.86
  Z
  M 765.75 572.70
  Q 761.87 571.46 757.70 572.10
  Q 757.11 572.19 757.36 572.72
  Q 758.88 576.03 760.24 578.39
  Q 761.60 580.75 764.45 580.10
  C 766.70 579.58 767.13 576.19 767.00 574.28
  A 1.80 1.80 0.0 0 0 765.75 572.70
  Z
  M 586.8147 581.8878
  A 4.08 1.00 91.9 0 0 587.9495 577.8432
  A 4.08 1.00 91.9 0 0 587.0853 573.7322
  A 4.08 1.00 91.9 0 0 585.9505 577.7768
  A 4.08 1.00 91.9 0 0 586.8147 581.8878
  Z
  M 609.12 576.10
  A 0.71 0.71 0.0 0 1 608.42 576.90
  L 593.25 576.99
  Q 592.73 576.99 592.29 576.73
  Q 590.55 575.71 589.42 577.17
  A 0.49 0.49 0.0 0 0 589.81 577.96
  L 609.27 577.81
  A 0.56 0.55 89.0 0 0 609.82 577.23
  L 609.71 574.73
  Q 609.67 573.69 609.29 574.66
  Q 609.02 575.37 609.12 576.10
  Z
  M 545.43 577.45
  L 545.43 577.89
  A 0.15 0.15 0.0 0 0 545.59 578.04
  L 581.81 577.60
  A 0.36 0.24 89.3 0 0 582.05 577.24
  L 582.05 577.22
  A 0.36 0.24 89.3 0 0 581.80 576.86
  L 545.58 577.30
  A 0.15 0.15 0.0 0 0 545.43 577.45
  Z
  M 875.62 588.48
  Q 875.84 589.15 876.35 589.72
  C 879.27 593.02 881.49 596.52 885.03 599.27
  C 886.00 600.03 887.11 600.08 888.29 600.10
  Q 897.23 600.23 906.20 598.39
  Q 907.78 598.07 909.31 597.56
  Q 910.39 597.20 909.26 597.12
  Q 905.67 596.87 902.13 597.59
  C 897.39 598.54 892.72 598.37 887.97 597.99
  A 4.79 4.74 69.5 0 1 885.00 596.62
  L 874.59 586.22
  Q 874.00 585.63 874.18 586.45
  Q 874.36 587.19 875.03 587.69
  A 1.63 1.62 -82.0 0 1 875.62 588.48
  Z
  M 580.78 616.36
  Q 581.07 616.93 580.43 616.94
  C 568.81 617.13 557.13 616.68 545.36 617.65
  Q 539.37 618.15 532.55 618.33
  Q 532.37 618.34 532.37 618.51
  L 532.37 618.52
  Q 532.37 618.69 532.54 618.70
  Q 541.01 619.02 549.50 619.03
  Q 572.15 619.04 594.25 618.83
  Q 600.93 618.76 607.23 619.83
  A 0.48 0.48 0.0 0 0 607.75 619.17
  C 606.09 615.30 601.83 614.08 597.84 614.12
  Q 592.12 614.16 585.68 614.02
  Q 584.90 614.00 584.55 614.69
  Q 583.89 615.95 583.71 617.78
  A 0.23 0.23 0.0 0 1 583.51 617.98
  L 583.18 618.01
  Q 582.89 618.03 582.90 617.73
  L 583.07 614.69
  A 2.32 2.32 0.0 0 0 581.34 612.32
  C 579.88 611.93 578.45 611.69 577.07 610.99
  Q 561.06 602.90 544.53 596.46
  Q 544.05 596.27 544.23 596.76
  Q 545.25 599.37 547.33 600.36
  Q 552.85 603.00 558.12 605.34
  Q 560.65 606.46 557.92 606.88
  Q 555.78 607.22 553.39 606.87
  C 550.98 606.51 548.60 606.89 546.12 606.65
  A 0.76 0.75 -88.4 0 0 545.29 607.44
  Q 545.30 607.63 545.39 607.79
  A 1.98 1.97 -11.8 0 0 546.99 608.83
  C 550.95 609.14 555.49 608.52 559.38 609.34
  C 562.35 609.97 565.27 609.75 568.23 610.59
  Q 574.20 612.28 580.01 615.55
  Q 580.53 615.84 580.78 616.36
  Z
  M 570.86 626.48
  Q 571.22 626.98 571.41 627.58
  A 0.49 0.49 0.0 0 0 572.06 627.89
  L 572.35 627.78
  Q 572.98 627.53 572.82 626.87
  Q 572.41 625.22 570.60 625.19
  Q 565.20 625.12 560.10 625.13
  Q 557.77 625.13 555.25 624.64
  Q 552.44 624.09 549.37 625.43
  Q 549.29 625.47 549.27 625.55
  Q 549.22 625.79 549.75 625.81
  Q 549.91 625.82 550.07 625.80
  Q 553.04 625.51 555.67 626.32
  C 558.11 627.08 560.29 626.79 562.70 626.24
  Q 566.08 625.48 570.11 626.05
  Q 570.59 626.11 570.86 626.48
  Z
  M 567.17 632.00
  Q 566.68 634.63 567.42 637.64
  Q 567.46 637.82 567.63 637.89
  Q 568.14 638.10 568.10 637.54
  L 567.64 632.02
  Q 567.50 630.25 567.17 632.00
  Z
  M 593.62 633.64
  C 594.27 633.35 594.94 633.16 595.63 633.00
  Q 595.94 632.93 595.87 632.61
  Q 595.84 632.47 595.73 632.37
  Q 595.57 632.25 595.37 632.25
  Q 584.61 632.18 573.41 632.19
  A 0.53 0.53 0.0 0 0 572.90 632.86
  L 572.97 633.12
  Q 573.20 633.96 574.07 633.95
  Q 584.04 633.89 592.86 633.80
  Q 593.26 633.79 593.62 633.64
  Z
  M 563.6297 633.3104
  A 0.27 0.27 0.0 0 0 563.3593 633.0409
  L 495.6594 633.1591
  A 0.27 0.27 0.0 0 0 495.3898 633.4296
  L 495.3903 633.6896
  A 0.27 0.27 0.0 0 0 495.6607 633.9591
  L 563.3606 633.8409
  A 0.27 0.27 0.0 0 0 563.6302 633.5704
  L 563.6297 633.3104
  Z
  M 491.38 673.00
  C 493.27 673.05 495.02 675.37 496.28 676.68
  A 0.37 0.37 0.0 0 0 496.91 676.52
  Q 497.10 675.83 496.94 675.16
  Q 496.76 674.37 496.23 673.75
  Q 493.80 670.93 489.77 671.05
  Q 485.50 671.19 481.30 671.25
  C 480.77 671.26 480.05 671.55 479.61 671.86
  Q 478.37 672.71 479.88 672.74
  Q 485.83 672.86 491.38 673.00
  Z
  M 474.44 680.67
  A 0.26 0.26 0.0 0 0 474.65 680.25
  Q 473.71 678.99 472.53 680.01
  Q 471.73 680.69 472.78 680.68
  L 474.44 680.67
  Z
  M 494.7900 680.5334
  A 0.33 0.33 0.0 0 0 494.4617 680.2017
  L 478.5419 680.1183
  A 0.33 0.33 0.0 0 0 478.2102 680.4466
  L 478.2100 680.4866
  A 0.33 0.33 0.0 0 0 478.5383 680.8183
  L 494.4581 680.9017
  A 0.33 0.33 0.0 0 0 494.7898 680.5734
  L 494.7900 680.5334
  Z"
/>
<path  d="
  M 635.65 502.32
  Q 633.78 502.70 635.48 503.58
  C 637.16 504.43 639.61 503.97 641.53 503.94
  Q 644.52 503.90 642.21 505.80
  Q 637.54 509.65 633.17 507.16
  C 627.80 504.09 627.71 497.41 632.01 493.42
  A 0.57 0.57 0.0 0 1 632.96 493.78
  Q 633.07 494.74 633.35 495.70
  Q 633.52 496.25 634.07 496.14
  Q 634.60 496.04 634.65 495.50
  Q 634.77 493.91 635.77 492.77
  A 0.78 0.76 21.5 0 1 636.42 492.50
  Q 642.05 492.83 644.59 497.42
  Q 646.18 500.31 643.32 501.92
  Q 642.85 502.18 642.31 502.12
  Q 638.55 501.72 635.65 502.32
  Z"
/>
<path  d="
  M 680.15 499.96
  Q 680.91 497.70 681.92 495.30
  Q 683.14 492.43 683.97 495.44
  Q 684.66 497.91 686.23 500.34
  Q 686.53 500.80 687.06 500.86
  Q 689.45 501.17 692.22 500.94
  Q 695.18 500.70 692.89 502.59
  Q 690.07 504.93 686.56 506.48
  Q 686.07 506.70 685.83 507.18
  L 684.66 509.56
  Q 684.35 510.18 683.66 510.14
  L 681.19 510.00
  Q 680.52 509.96 680.36 509.31
  C 679.38 505.22 675.77 504.83 672.99 502.48
  Q 670.79 500.63 673.65 500.91
  Q 676.24 501.17 678.84 500.98
  A 1.49 1.48 7.0 0 0 680.15 499.96
  Z"
/>
<path  d="
  M 362.62 752.36
  Q 363.17 751.39 363.83 750.57
  Q 367.82 745.64 371.38 740.57
  Q 375.32 734.95 378.69 730.41
  Q 389.75 715.51 398.76 702.53
  Q 413.63 681.10 429.37 659.48
  Q 429.91 658.74 430.81 658.97
  L 431.68 659.20
  Q 432.51 659.42 431.99 660.09
  C 428.44 664.69 425.54 669.72 421.98 674.29
  Q 420.37 676.36 419.12 678.11
  Q 408.79 692.57 399.77 704.81
  C 398.07 707.12 396.88 709.41 395.21 711.66
  Q 386.32 723.62 376.75 736.33
  C 375.79 737.60 375.08 739.02 374.06 740.24
  Q 365.99 749.83 358.22 761.27
  C 356.21 764.22 353.86 766.77 351.75 769.61
  Q 351.16 770.41 350.25 770.93
  Q 349.50 771.36 349.88 770.58
  Q 351.44 767.41 353.53 764.84
  C 355.25 762.72 356.56 760.22 358.32 758.24
  Q 361.03 755.18 362.62 752.36
  Z"
/>
</svg>
